<?xml version="1.0" encoding="UTF-8" standalone="no"?>
<svg
   viewBox="0 0 280 280"
   version="1.1"
   id="svg4834"
   sodipodi:docname="4-Bronze.svg"
   inkscape:version="1.4 (86a8ad7, 2024-10-11)"
   xmlns:inkscape="http://www.inkscape.org/namespaces/inkscape"
   xmlns:sodipodi="http://sodipodi.sourceforge.net/DTD/sodipodi-0.dtd"
   xmlns:xlink="http://www.w3.org/1999/xlink"
   xmlns="http://www.w3.org/2000/svg"
   xmlns:svg="http://www.w3.org/2000/svg">
  <sodipodi:namedview
     id="namedview4834"
     pagecolor="#505050"
     bordercolor="#ffffff"
     borderopacity="1"
     inkscape:showpageshadow="0"
     inkscape:pageopacity="0"
     inkscape:pagecheckerboard="1"
     inkscape:deskcolor="#505050"
     inkscape:zoom="3.0535714"
     inkscape:cx="140"
     inkscape:cy="140"
     inkscape:window-width="1920"
     inkscape:window-height="1057"
     inkscape:window-x="1912"
     inkscape:window-y="-8"
     inkscape:window-maximized="1"
     inkscape:current-layer="g4833" />
  <defs
     id="defs21">
    <style
       id="style1">
      .cls-1 {
        fill: url(#linear-gradient-2);
      }

      .cls-2 {
        fill: #684d91;
        mix-blend-mode: color-burn;
        opacity: .15;
      }

      .cls-3, .cls-4, .cls-5, .cls-6 {
        opacity: .2;
      }

      .cls-3, .cls-7 {
        mix-blend-mode: multiply;
      }

      .cls-8 {
        isolation: isolate;
      }

      .cls-9 {
        fill: url(#linear-gradient-7);
        opacity: .6;
      }

      .cls-9, .cls-4, .cls-5, .cls-6 {
        mix-blend-mode: screen;
      }

      .cls-10 {
        fill: #73594e;
        opacity: .3;
      }

      .cls-4 {
        fill: url(#linear-gradient-10);
      }

      .cls-7, .cls-11 {
        opacity: .35;
      }

      .cls-12 {
        fill: url(#linear-gradient-5);
      }

      .cls-13 {
        clip-path: url(#clippath);
      }

      .cls-14 {
        fill: none;
      }

      .cls-5 {
        fill: url(#linear-gradient-11);
      }

      .cls-15 {
        fill: url(#linear-gradient-9);
      }

      .cls-16 {
        fill: url(#linear-gradient-3);
      }

      .cls-17 {
        fill: url(#linear-gradient);
      }

      .cls-18 {
        fill: url(#linear-gradient-4);
      }

      .cls-6 {
        fill: url(#linear-gradient-6);
      }

      .cls-19 {
        fill: url(#linear-gradient-8);
      }

      .cls-11 {
        fill: #9f8861;
      }
    </style>
    <linearGradient
       id="linear-gradient"
       x1="140"
       y1="27.64"
       x2="140"
       y2="247.91"
       gradientUnits="userSpaceOnUse">
      <stop
         offset=".21"
         stop-color="#a95c48"
         id="stop1" />
      <stop
         offset=".65"
         stop-color="#954630"
         id="stop2" />
      <stop
         offset="1"
         stop-color="#732e23"
         id="stop3" />
    </linearGradient>
    <linearGradient
       id="linear-gradient-2"
       x1="140"
       y1="27.64"
       x2="140"
       y2="247.91"
       xlink:href="#linear-gradient" />
    <linearGradient
       id="linear-gradient-3"
       x1="140"
       y1="27.64"
       x2="140"
       y2="247.91"
       gradientUnits="userSpaceOnUse">
      <stop
         offset=".21"
         stop-color="#a95c48"
         id="stop4" />
      <stop
         offset=".33"
         stop-color="#e3974c"
         id="stop5" />
      <stop
         offset=".65"
         stop-color="#954630"
         id="stop6" />
      <stop
         offset="1"
         stop-color="#732e23"
         id="stop7" />
    </linearGradient>
    <linearGradient
       id="linear-gradient-4"
       y1="269.91"
       x2="140"
       y2="6.45"
       xlink:href="#linear-gradient-3" />
    <linearGradient
       id="linear-gradient-5"
       x1="140"
       y1="5.1"
       x2="140"
       y2="274.9"
       xlink:href="#linear-gradient" />
    <linearGradient
       id="linear-gradient-6"
       x1="124.06"
       y1="133.53"
       x2="124.06"
       y2="5.1"
       gradientUnits="userSpaceOnUse">
      <stop
         offset="0"
         stop-color="#f3dbbc"
         id="stop8" />
      <stop
         offset=".12"
         stop-color="#eed6b8"
         id="stop9" />
      <stop
         offset=".25"
         stop-color="#e0c9ad"
         id="stop10" />
      <stop
         offset=".39"
         stop-color="#c9b39b"
         id="stop11" />
      <stop
         offset=".54"
         stop-color="#aa9582"
         id="stop12" />
      <stop
         offset=".69"
         stop-color="#816e62"
         id="stop13" />
      <stop
         offset=".84"
         stop-color="#4e3f3b"
         id="stop14" />
      <stop
         offset="1"
         stop-color="#14070d"
         id="stop15" />
      <stop
         offset="1"
         stop-color="#14070d"
         id="stop16" />
    </linearGradient>
    <linearGradient
       id="linear-gradient-7"
       x1="49.74"
       y1="24.35"
       x2="230.02"
       y2="24.35"
       xlink:href="#linear-gradient-6" />
    <linearGradient
       id="linear-gradient-8"
       x1="140.1"
       y1="15.53"
       x2="140.1"
       y2="264.48"
       gradientUnits="userSpaceOnUse">
      <stop
         offset=".1"
         stop-color="#f3aa65"
         id="stop17" />
      <stop
         offset=".9"
         stop-color="#954144"
         id="stop18" />
    </linearGradient>
    <linearGradient
       id="linear-gradient-9"
       x1="140.11"
       y1="262.03"
       x2="140.11"
       y2="17.98"
       gradientUnits="userSpaceOnUse">
      <stop
         offset=".16"
         stop-color="#c1704a"
         id="stop19" />
      <stop
         offset=".45"
         stop-color="#954630"
         id="stop20" />
      <stop
         offset="1"
         stop-color="#5d2921"
         id="stop21" />
    </linearGradient>
    <linearGradient
       id="linear-gradient-10"
       x1="83.89"
       y1="48.83"
       x2="26.06"
       y2="48.83"
       xlink:href="#linear-gradient-6" />
    <linearGradient
       id="linear-gradient-11"
       x1="169.94"
       y1="36.46"
       x2="238.85"
       y2="36.46"
       xlink:href="#linear-gradient-6" />
    <clipPath
       id="clippath">
      <path
         class="cls-14"
         d="M246.32,48.97c-.8-.98-1.62-1.91-2.48-2.84-13.94-15.42-31.24-27.69-50.78-35.7-1.44-.59-2.92-1.18-4.39-1.7-1.47-.56-2.93-1.06-4.43-1.57-.75-.24-1.49-.51-2.25-.73-1-.31-2-.6-3-.9-1.02-.28-2.03-.56-3.07-.84-.96-.26-1.91-.51-2.87-.75-.13-.01-.26-.05-.37-.08-.9-.21-1.78-.43-2.69-.6-.14-.03-.3-.08-.46-.1-.8-.18-1.62-.34-2.45-.51-.22-.05-.47-.08-.69-.13-.72-.14-1.44-.28-2.16-.39-.28-.05-.55-.09-.84-.14-.24-.04-.47-.09-.72-.13-.59-.1-1.19-.18-1.79-.26-.08-.01-.16-.03-.25-.03-.16-.04-.37-.07-.52-.08-.09-.04-.18-.04-.27-.05-.29-.04-.58-.08-.88-.14-.16-.03-.33-.04-.48-.05-.46-.07-.92-.12-1.39-.17-.62-.08-1.26-.16-1.86-.24-1.89-.18-3.79-.34-5.66-.48-.45-.03-.88-.05-1.3-.07-.14-.01-.26-.01-.38-.03h-.08c-.07,0-.14,0-.21-.01-.09,0-.2-.03-.33-.04-.77-.03-1.55-.07-2.34-.09-.38-.01-.75-.03-1.14-.03-1.28-.04-2.57-.07-3.86-.07-.58,0-1.19,0-1.78,.01-1.18,.01-2.33,.05-3.48,.09-.5,.01-.97,.04-1.44,.07-.13,.01-.24,.01-.37,.01-.45,.04-.88,.07-1.32,.08h-.05s-.1,.01-.18,.03h-.22c-.13,.01-.28,.01-.39,.03-.04,0-.08,0-.13,.01-.24,0-.46,.01-.68,.03-.56,.05-1.14,.08-1.72,.13-.21,.03-.41,.05-.63,.08-.33,.03-.67,.07-.98,.08h-.05c-.08,.01-.17,.03-.25,.03-.17,.04-.33,.05-.48,.05-.03,0-.07,0-.11,.01-.25,.03-.5,.04-.77,.08-.73,.08-1.48,.18-2.25,.28h-.05c-.33,.04-.66,.07-.98,.1-.55,.07-1.09,.16-1.64,.24-10.87,1.56-21.34,4.36-31.24,8.25-3.38,1.32-6.68,2.79-9.93,4.38-1.07,.52-2.15,1.06-3.22,1.61-2.58,1.32-5.07,2.72-7.53,4.22C31.1,42.06,5.25,80.77,.71,125.79H.71c-.04,.51-.08,1.01-.13,1.49-.38,4.19-.58,8.44-.58,12.71,0,60.73,38.66,112.41,92.68,131.81h.01c.48,.2,.97,.35,1.45,.51h.01c.2,.09,.43,.16,.63,.24h.03c2.07,.71,4.18,1.36,6.29,1.96h.01c1.83,.52,3.68,1.03,5.53,1.48,.27,.08,.55,.14,.81,.21,1.81,.43,3.6,.81,5.44,1.17,.69,.14,1.39,.28,2.1,.39,1.69,.31,3.38,.58,5.1,.81,1.02,.2,1.69,.26,2.79,.37,1.3,.17,2.59,.31,3.9,.43,.63,.08,1.3,.12,1.95,.17,.67,.05,1.36,.09,2.04,.14h.01c3.05,.21,6.1,.31,9.18,.31h.01c.3,0,.59,0,.86-.01,2.02,0,4.01-.07,6-.16,.68-.04,1.4-.08,2.07-.13,.68-.03,1.34-.08,1.99-.13,.67-.04,1.34-.1,1.99-.17,1.32-.12,2.65-.25,3.96-.42,1.18-.21,2.06-.34,3.07-.41,1.72-.25,3.41-.51,5.1-.81,.71-.13,1.4-.28,2.1-.39,1.82-.35,3.63-.75,5.41-1.18,.27-.05,.55-.12,.83-.21,1.86-.45,3.71-.94,5.54-1.47,2.11-.6,4.22-1.26,6.3-1.98,.22-.08,.45-.14,.66-.22,.48-.17,.97-.34,1.45-.52,53.7-19.27,92.2-70.4,92.68-130.59v-.12c.01-.37,.01-.71,.01-1.09,0-34.75-12.67-66.56-33.68-91.03Zm-69.76,192.86c-.38,.14-.75,.27-1.13,.4-.16,.06-.34,.12-.51,.17-.53,.18-1.07,.35-1.6,.53l-2.06-6.96c-9.57,4.82-20.14,7.52-31.26,7.52s-21.69-2.69-31.26-7.52l-2.06,6.96c-.53-.17-1.07-.34-1.6-.52h-.02c-.15-.05-.33-.12-.49-.18h-.01c-.37-.12-.75-.25-1.12-.39h-.01c-41.75-14.99-71.62-54.92-71.62-101.84,0-3.31,.15-6.58,.44-9.82,.03-.38,.06-.76,.11-1.15,3.5-34.8,23.47-64.7,52-81.84,1.91-1.15,3.83-2.23,5.83-3.25,.82-.42,1.66-.85,2.5-1.25,2.51-1.23,5.05-2.35,7.67-3.37,.55-.22,1.11-.42,1.67-.63l1.66,4.59c11.11-4.57,23.39-7.13,36.3-7.13s25.19,2.56,36.3,7.13l1.66-4.58c1.02,.38,2.04,.78,3.05,1.19,15.1,6.17,28.46,15.66,39.24,27.57,.66,.72,1.29,1.44,1.91,2.2,16.23,18.91,26.03,43.48,26.03,70.33,0,.29,0,.55-.01,.84v.09c-.39,46.51-30.14,86.02-71.62,100.91Z"
         id="path21" />
    </clipPath>
  </defs>
  <g
     class="cls-8"
     id="g4834">
    <g
       id="Layer_2"
       data-name="Layer 2">
      <g
         id="Layer_1-2"
         data-name="Layer 1">
        <g
           id="g4833">
          <g
             id="g34">
            <g
               id="g25">
              <path
                 class="cls-17"
                 d="M140,243.49c-11.12,0-21.69-2.69-31.26-7.52l-2.4,8.13c10.33,5.1,21.71,7.93,33.66,7.93s23.33-2.83,33.66-7.93l-2.4-8.13c-9.57,4.82-20.14,7.52-31.26,7.52Z"
                 id="path22" />
              <path
                 class="cls-1"
                 d="M140,36.14c12.91,0,25.19,2.56,36.3,7.13l2.79-7.71c-11.99-4.83-25.21-7.52-39.09-7.52s-27.1,2.69-39.09,7.52l2.79,7.71c11.11-4.57,23.39-7.13,36.3-7.13Z"
                 id="path23" />
              <path
                 class="cls-16"
                 d="M228.04,64.62c-.66-.81-1.35-1.58-2.05-2.35-11.54-12.77-25.87-22.93-42.05-29.56-1.19-.49-2.42-.98-3.63-1.41-1.22-.47-2.43-.88-3.67-1.3-.62-.2-1.24-.42-1.87-.61-.82-.26-1.66-.5-2.48-.75-.85-.23-1.68-.47-2.54-.69-.79-.22-1.58-.42-2.38-.62-.11-.01-.22-.04-.3-.07-.75-.17-1.48-.36-2.22-.5-.12-.02-.25-.07-.38-.09-.66-.15-1.35-.28-2.03-.42-.18-.04-.39-.07-.57-.11-.6-.12-1.19-.23-1.79-.33-.23-.04-.46-.08-.69-.12-.2-.03-.39-.08-.6-.11-.49-.09-.99-.15-1.49-.22-.07-.01-.13-.02-.21-.02-.13-.03-.3-.05-.43-.07-.08-.03-.15-.03-.23-.04-.24-.03-.48-.07-.73-.12-.13-.02-.27-.03-.4-.04-.38-.05-.76-.1-1.15-.14-.51-.07-1.04-.13-1.54-.2-1.56-.15-3.14-.28-4.69-.4-.37-.02-.73-.04-1.07-.05-.12-.01-.22-.01-.31-.02h-.07c-.05,0-.12,0-.17-.01-.08,0-.16-.02-.27-.03-.64-.02-1.28-.05-1.94-.08-.31-.01-.62-.02-.94-.02-1.06-.03-2.13-.05-3.2-.05-.48,0-.99,0-1.48,.01-.98,.01-1.93,.04-2.89,.08-.41,.01-.8,.03-1.19,.05-.11,.01-.2,.01-.3,.01-.37,.03-.73,.05-1.1,.07h-.04s-.09,.01-.15,.02h-.18c-.11,.01-.23,.01-.33,.02-.03,0-.07,0-.11,.01-.2,0-.38,.01-.56,.02-.47,.04-.94,.07-1.42,.11-.17,.02-.34,.04-.52,.07-.27,.02-.55,.05-.81,.07h-.04c-.07,.01-.14,.02-.21,.02-.14,.03-.27,.04-.4,.04-.02,0-.05,0-.09,.01-.21,.02-.41,.03-.64,.07-.61,.07-1.23,.15-1.87,.23h-.04c-.27,.03-.54,.05-.81,.09-.46,.05-.9,.13-1.36,.2-9,1.29-17.67,3.61-25.87,6.83-2.8,1.1-5.53,2.31-8.22,3.62-.89,.43-1.78,.88-2.67,1.33-2.14,1.1-4.2,2.26-6.24,3.49-30.58,18.36-51.98,50.42-55.75,87.7h0c-.03,.42-.07,.84-.11,1.24-.31,3.47-.48,6.99-.48,10.52,0,50.29,32.01,93.08,76.75,109.14h.01c.4,.16,.8,.29,1.2,.42h.01c.16,.08,.36,.13,.52,.2h.02c1.71,.59,3.46,1.13,5.21,1.63h.01c1.52,.43,3.05,.86,4.58,1.23,.23,.07,.46,.12,.67,.17,1.5,.36,2.98,.67,4.5,.97,.57,.12,1.15,.23,1.74,.33,1.4,.26,2.8,.48,4.22,.67,.85,.16,1.4,.22,2.31,.3,1.07,.14,2.15,.26,3.23,.36,.52,.07,1.07,.1,1.62,.14,.55,.04,1.13,.08,1.69,.12h.01c2.53,.17,5.05,.26,7.6,.26h.01c.25,0,.49,0,.72-.01,1.67,0,3.32-.05,4.97-.13,.56-.03,1.16-.07,1.71-.11,.56-.02,1.11-.07,1.65-.11,.55-.03,1.11-.09,1.65-.14,1.1-.1,2.19-.21,3.28-.35,.98-.17,1.7-.28,2.54-.34,1.42-.21,2.82-.42,4.22-.67,.59-.11,1.16-.23,1.74-.33,1.51-.29,3-.62,4.48-.98,.23-.04,.46-.1,.68-.17,1.54-.37,3.07-.78,4.59-1.21,1.75-.5,3.49-1.04,5.22-1.64,.18-.07,.37-.12,.54-.18,.4-.14,.8-.28,1.2-.43,44.46-15.96,76.35-58.29,76.75-108.14v-.1c.01-.3,.01-.59,.01-.9,0-28.78-10.49-55.11-27.89-75.38Zm20.13,76.21v.09c-.39,46.51-30.13,86.02-71.62,100.91-.38,.14-.75,.27-1.13,.4-.16,.07-.34,.12-.51,.17-1.61,.55-3.23,1.06-4.86,1.53-1.42,.41-2.85,.79-4.28,1.14-.22,.07-.43,.12-.64,.15-1.38,.34-2.78,.64-4.18,.91-.54,.1-1.07,.21-1.63,.3-1.3,.24-2.6,.44-3.94,.63-.77,.05-1.45,.16-2.36,.31-1.01,.13-2.04,.24-3.06,.33-.5,.05-1.02,.1-1.53,.13-.51,.04-1.02,.09-1.54,.11-.52,.03-1.07,.07-1.61,.1-1.54,.07-3.08,.12-4.63,.12-.22,.01-.44,.01-.67,.01h-.01c-2.38,0-4.74-.09-7.09-.24h-.01c-.53-.04-1.05-.07-1.57-.12-.51-.04-1.03-.07-1.52-.13-1.01-.09-2.01-.21-3.02-.33-.85-.09-1.36-.13-2.15-.29-1.33-.17-2.64-.38-3.95-.63-.53-.09-1.07-.18-1.62-.3-1.41-.27-2.8-.56-4.19-.9-.21-.04-.42-.1-.63-.15-1.43-.35-2.86-.74-4.27-1.15,0,0,0,.02-.01,0-1.64-.47-3.25-.98-4.86-1.52h-.02c-.15-.05-.33-.12-.49-.18h-.01c-.37-.12-.75-.25-1.12-.39h-.01c-41.75-14.99-71.62-54.92-71.62-101.84,0-3.31,.15-6.58,.44-9.82,.03-.38,.07-.76,.11-1.15,3.5-34.8,23.47-64.7,52-81.84,1.91-1.15,3.83-2.23,5.83-3.25,.82-.42,1.66-.85,2.5-1.25,2.51-1.23,5.05-2.35,7.67-3.37,7.66-3.02,15.74-5.17,24.14-6.39,.42-.05,.85-.12,1.27-.17,.25-.03,.51-.05,.76-.09h.04c.59-.07,1.17-.15,1.74-.21,.21-.03,.4-.04,.61-.07,.02-.01,.05-.01,.08-.01,.12,0,.24-.01,.37-.04,.07,0,.14-.01,.2-.02h.04c.25-.01,.5-.03,.76-.05,.17-.02,.31-.04,.49-.05,.44-.04,.88-.07,1.32-.11,.16,0,.35-.01,.52-.01,.04-.01,.07-.01,.11-.01,.09-.01,.2-.01,.3-.03h.16c.07-.01,.11-.01,.15-.02h.04c.34-.01,.67-.03,1.02-.05,.1,0,.17,0,.28-.01,.36-.02,.73-.04,1.11-.05,.9-.02,1.79-.05,2.69-.07,.47-.01,.93-.01,1.39-.01,1,0,1.98,.02,2.98,.05,.3,0,.59,.01,.87,.01,.62,.02,1.23,.05,1.82,.08,.1,.01,.17,.02,.25,.02,.05,.01,.11,.01,.16,.01h.05c.1,.01,.2,.01,.29,.02,.33,.01,.66,.04,1.01,.07,1.45,.11,2.92,.22,4.37,.37,.47,.05,.97,.12,1.44,.17,.36,.04,.72,.09,1.06,.14,.13,.01,.26,.02,.38,.04,.23,.04,.46,.08,.68,.11,.07,0,.14,0,.21,.03,.13,.01,.28,.03,.41,.07,.07,0,.13,.01,.18,.01,.48,.08,.93,.13,1.39,.21,.2,.03,.38,.08,.55,.1,.23,.05,.43,.09,.65,.12,.56,.09,1.12,.2,1.67,.3,.17,.04,.36,.07,.54,.1,.63,.13,1.27,.26,1.89,.4,.12,.01,.24,.05,.36,.08,.69,.14,1.38,.3,2.07,.47,.08,.02,.18,.05,.28,.07,.74,.18,1.49,.37,2.22,.57,.79,.21,1.57,.43,2.36,.65,.76,.24,1.55,.46,2.31,.69,.6,.17,1.17,.38,1.75,.57,1.15,.39,2.29,.77,3.42,1.2,1.14,.41,2.28,.87,3.4,1.32,15.1,6.17,28.46,15.66,39.24,27.57,.66,.72,1.29,1.44,1.91,2.2,16.23,18.91,26.03,43.48,26.03,70.33,0,.29,0,.55-.01,.84Z"
                 id="path24" />
              <path
                 class="cls-18"
                 d="M246.32,48.97c-.8-.98-1.62-1.91-2.48-2.84-13.94-15.42-31.24-27.69-50.78-35.7-1.44-.59-2.92-1.18-4.39-1.7-1.47-.56-2.93-1.06-4.43-1.57-.75-.24-1.49-.51-2.25-.73-1-.31-2-.6-3-.9-1.02-.28-2.03-.56-3.07-.84-.96-.26-1.91-.51-2.87-.75-.13-.01-.26-.05-.37-.08-.9-.21-1.78-.43-2.69-.6-.14-.03-.3-.08-.46-.1-.8-.18-1.62-.34-2.45-.51-.22-.05-.47-.08-.69-.13-.72-.14-1.44-.28-2.16-.39-.28-.05-.55-.09-.84-.14-.24-.04-.47-.09-.72-.13-.59-.1-1.19-.18-1.79-.26-.08-.01-.16-.03-.25-.03-.16-.04-.37-.07-.52-.08-.09-.04-.18-.04-.28-.05-.29-.04-.58-.08-.88-.14-.16-.03-.33-.04-.48-.05-.46-.07-.92-.12-1.39-.17-.62-.08-1.26-.16-1.86-.24-1.89-.18-3.79-.34-5.66-.48-.45-.03-.88-.05-1.3-.07-.14-.01-.26-.01-.38-.03h-.08c-.07,0-.14,0-.21-.01-.09,0-.2-.03-.33-.04-.77-.03-1.55-.07-2.34-.09-.38-.01-.75-.03-1.14-.03C142.52,.03,141.23,0,139.93,0,139.36,0,138.74,0,138.15,.01c-1.18,.01-2.33,.05-3.48,.09-.5,.01-.97,.04-1.44,.07-.13,.01-.24,.01-.37,.01-.45,.04-.88,.07-1.32,.08h-.05s-.1,.01-.18,.03h-.22c-.13,.01-.28,.01-.39,.03-.04,0-.08,0-.13,.01-.24,0-.46,.01-.68,.03-.56,.05-1.14,.08-1.72,.13-.21,.03-.41,.05-.63,.08-.33,.03-.67,.07-.98,.08h-.05c-.08,.01-.17,.03-.25,.03-.17,.04-.33,.05-.48,.05-.03,0-.07,0-.1,.01-.25,.03-.5,.04-.77,.08-.73,.08-1.48,.18-2.25,.28h-.05c-.33,.04-.66,.07-.98,.1-.55,.07-1.09,.16-1.64,.24-10.87,1.56-21.34,4.36-31.24,8.25-3.38,1.32-6.68,2.79-9.93,4.38-1.07,.52-2.15,1.06-3.22,1.61-2.58,1.32-5.07,2.72-7.53,4.22C31.1,42.06,5.25,80.77,.71,125.79H.71c-.04,.51-.08,1.01-.13,1.49C.2,131.48,0,135.72,0,139.99,0,200.72,38.66,252.4,92.68,271.8h.01c.48,.2,.97,.35,1.45,.51h.01c.2,.09,.43,.16,.63,.24h.03c2.07,.71,4.18,1.36,6.29,1.96h.01c1.83,.52,3.68,1.03,5.53,1.48,.28,.08,.55,.14,.81,.21,1.81,.43,3.6,.81,5.44,1.17,.69,.14,1.39,.28,2.1,.39,1.69,.31,3.38,.58,5.1,.81,1.02,.2,1.69,.26,2.79,.37,1.3,.17,2.59,.31,3.9,.43,.63,.08,1.3,.12,1.95,.17,.67,.05,1.36,.09,2.04,.14h.01c3.05,.21,6.1,.31,9.18,.31h.01c.3,0,.59,0,.86-.01,2.02,0,4.01-.07,6-.16,.68-.04,1.4-.08,2.07-.13,.68-.03,1.34-.08,1.99-.13,.67-.04,1.34-.1,1.99-.17,1.32-.12,2.65-.25,3.96-.42,1.18-.21,2.06-.34,3.07-.41,1.72-.25,3.41-.51,5.1-.81,.71-.13,1.4-.28,2.1-.39,1.82-.35,3.63-.75,5.41-1.18,.28-.05,.55-.12,.83-.21,1.86-.45,3.71-.94,5.54-1.47,2.11-.6,4.22-1.26,6.3-1.98,.22-.08,.45-.14,.66-.22,.48-.17,.97-.34,1.45-.52,53.7-19.27,92.2-70.4,92.68-130.59v-.12c.01-.37,.01-.71,.01-1.09,0-34.75-12.67-66.56-33.68-91.03Zm24.31,92.04v.1c-.47,56.17-36.39,103.88-86.49,121.86-.46,.17-.9,.33-1.36,.48-.2,.08-.41,.14-.62,.21-1.94,.67-3.9,1.28-5.87,1.85-1.72,.5-3.45,.96-5.17,1.38-.26,.08-.52,.14-.77,.18-1.66,.41-3.35,.77-5.04,1.1-.66,.12-1.3,.25-1.97,.37-1.57,.29-3.14,.54-4.76,.76-.93,.07-1.76,.2-2.86,.38-1.22,.16-2.46,.29-3.69,.39-.6,.07-1.23,.12-1.85,.16-.62,.05-1.23,.1-1.86,.13-.63,.04-1.3,.08-1.94,.12-1.86,.08-3.72,.14-5.59,.14-.26,.01-.54,.01-.81,.01h-.01c-2.87,0-5.72-.1-8.57-.29h-.01c-.64-.05-1.27-.08-1.9-.14-.62-.05-1.24-.08-1.83-.16-1.22-.1-2.42-.25-3.64-.39-1.02-.1-1.64-.16-2.59-.35-1.61-.21-3.18-.46-4.77-.76-.64-.1-1.3-.22-1.95-.37-1.7-.33-3.38-.68-5.06-1.09-.25-.05-.51-.12-.76-.18-1.73-.42-3.46-.89-5.16-1.39,0,0,0,.03-.01,0-1.98-.56-3.93-1.18-5.87-1.83h-.03c-.18-.07-.39-.14-.59-.22h-.01c-.45-.14-.9-.3-1.35-.47h-.01C45.43,244.88,9.37,196.66,9.37,139.99c0-4,.18-7.95,.54-11.86,.04-.46,.08-.92,.13-1.39,4.23-42.02,28.35-78.14,62.8-98.84,2.31-1.39,4.62-2.7,7.03-3.93,1-.51,2-1.02,3.01-1.51,3.03-1.48,6.1-2.84,9.26-4.07,9.25-3.64,19.01-6.25,29.15-7.72,.51-.07,1.02-.14,1.53-.21,.3-.04,.62-.07,.92-.1h.05c.71-.08,1.41-.18,2.1-.25,.25-.04,.48-.05,.73-.08,.03-.01,.07-.01,.09-.01,.14,0,.29-.01,.45-.05,.08,0,.17-.01,.24-.03h.05c.3-.01,.6-.04,.92-.07,.21-.03,.38-.05,.59-.07,.54-.05,1.06-.08,1.6-.13,.2,0,.42-.01,.63-.01,.05-.01,.08-.01,.13-.01,.1-.01,.24-.01,.37-.04h.2c.08-.01,.13-.01,.18-.03h.05c.41-.01,.81-.04,1.23-.07,.12,0,.21,0,.34-.01,.43-.03,.88-.05,1.34-.07,1.09-.03,2.16-.07,3.25-.08,.56-.01,1.13-.01,1.68-.01,1.21,0,2.4,.03,3.6,.07,.37,0,.71,.01,1.05,.01,.75,.03,1.48,.07,2.2,.09,.12,.01,.21,.03,.3,.03,.07,.01,.13,.01,.2,.01h.07c.12,.01,.24,.01,.35,.03,.39,.01,.8,.05,1.22,.08,1.76,.13,3.52,.26,5.28,.45,.56,.07,1.17,.14,1.74,.21,.43,.05,.86,.1,1.28,.17,.16,.01,.31,.03,.46,.05,.28,.05,.55,.09,.83,.13,.08,0,.17,0,.25,.04,.16,.01,.34,.04,.5,.08,.08,0,.16,.01,.22,.01,.58,.09,1.13,.16,1.68,.25,.24,.04,.46,.09,.67,.12,.28,.07,.52,.1,.79,.14,.68,.1,1.35,.24,2.02,.37,.21,.05,.43,.08,.66,.12,.76,.16,1.53,.31,2.28,.48,.14,.01,.29,.07,.43,.09,.84,.17,1.66,.37,2.5,.56,.09,.03,.22,.07,.34,.08,.89,.22,1.79,.45,2.69,.69,.96,.25,1.9,.52,2.86,.79,.92,.29,1.87,.55,2.79,.84,.72,.21,1.41,.46,2.11,.69,1.39,.47,2.76,.93,4.13,1.45,1.38,.5,2.75,1.05,4.1,1.6,18.24,7.45,34.37,18.92,47.38,33.3,.8,.86,1.56,1.74,2.31,2.66,19.6,22.83,31.44,52.5,31.44,84.94,0,.35,0,.67-.01,1.01Z"
                 id="path25" />
            </g>
            <g
               id="g33">
              <path
                 class="cls-12"
                 d="M160.89,260.26c-.44-.63-.79-1.16-1.04-1.54-1.61,.28-3.26,.51-4.9,.72-.43,.06-.87,.1-1.31,.15,.41,.5,.81,1.01,1.2,1.51,.01,.01,.03,.03,.03,.04,.43-.04,.84-.09,1.25-.16h.01c.56,.75,1.13,1.5,1.7,2.24,1.57-.22,3.12-.47,4.68-.75-.63-.82-1.17-1.57-1.63-2.22Zm-35.8-.85c-1.64-.19-3.29-.43-4.9-.72-.23,.38-.59,.91-1.04,1.54-.1,.16-.22,.32-.35,.5-.37,.51-.79,1.1-1.26,1.72,1.54,.28,3.1,.54,4.67,.75,.04-.06,.09-.1,.13-.16,.51-.67,1.04-1.35,1.56-2.04,.01-.01,.01-.03,.01-.03h.01c.41,.06,.81,.12,1.23,.16h.01s0-.01,.01-.03c.4-.51,.81-1.01,1.22-1.53-.44-.04-.87-.09-1.29-.15h-.01ZM242.46,52.28c-.78-.94-1.57-1.85-2.39-2.74-13.42-14.85-30.11-26.69-48.93-34.39-1.39-.57-2.8-1.13-4.23-1.64-1.41-.54-2.83-1.03-4.27-1.51-.72-.23-1.44-.48-2.17-.7-.95-.31-1.94-.59-2.89-.88-.98-.26-1.97-.54-2.95-.81-.92-.25-1.85-.48-2.77-.72-.12-.01-.25-.04-.35-.07-.87-.21-1.72-.41-2.58-.59-.15-.03-.29-.07-.44-.1-.78-.16-1.57-.32-2.36-.48-.22-.04-.45-.07-.67-.12-.69-.15-1.38-.28-2.08-.38-.26-.06-.53-.09-.81-.15-.22-.04-.45-.09-.7-.13-.56-.09-1.13-.16-1.72-.25-.07-.01-.15-.03-.23-.03-.16-.03-.35-.06-.51-.07-.09-.03-.18-.03-.26-.04-.28-.04-.56-.07-.84-.13-.16-.03-.32-.04-.48-.06-.44-.06-.88-.12-1.34-.16-.59-.07-1.2-.15-1.79-.22-1.82-.19-3.64-.34-5.46-.47-.43-.03-.84-.06-1.25-.07-.13-.01-.25-.01-.37-.03h-.07c-.06,0-.13,0-.19-.01-.1,0-.21-.01-.32-.03-.75-.03-1.5-.06-2.26-.09-.37-.01-.72-.03-1.1-.03-1.23-.03-2.46-.06-3.71-.06-.57,0-1.16,0-1.73,.01-1.13,.01-2.24,.04-3.36,.09-.47,.01-.92,.03-1.38,.06-.13,.01-.23,.01-.35,.01-.43,.03-.85,.06-1.28,.07h-.04c-.06,.01-.12,.01-.19,.03h-.21c-.13,.01-.26,.01-.38,.03-.04,0-.09,0-.13,.01-.22,0-.44,.01-.65,.03-.56,.04-1.1,.07-1.66,.12-.21,.03-.4,.04-.62,.07-.31,.03-.63,.06-.94,.07h-.04c-.07,.01-.18,.03-.25,.03-.16,.03-.32,.04-.47,.04-.01,0-.06,0-.09,.01-.25,.03-.5,.04-.75,.09-.72,.07-1.44,.16-2.17,.25h-.06c-.31,.04-.63,.07-.94,.12-.53,.06-1.06,.15-1.58,.22-10.48,1.5-20.55,4.2-30.11,7.95-3.26,1.28-6.44,2.68-9.57,4.21-1.04,.5-2.08,1.03-3.11,1.56-2.48,1.28-4.89,2.63-7.26,4.06C35.07,45.62,10.15,82.93,5.78,126.31h0c-.04,.5-.09,.97-.13,1.45-.37,4.02-.56,8.11-.56,12.24,0,58.52,37.25,108.31,89.32,127,0,0,0-.01,.01,0,.47,.18,.92,.34,1.39,.48h.01c.19,.09,.41,.16,.62,.23h.01c2,.67,4.02,1.31,6.06,1.89,.01,.01,.01,0,.01,0,1.76,.51,3.54,1,5.33,1.42,.26,.07,.53,.13,.79,.21,1.73,.41,3.46,.78,5.22,1.12,.67,.15,1.35,.28,2.02,.38,1.63,.31,3.26,.57,4.91,.79,.51-.45,1.04-.91,1.57-1.39,.35,.59,.72,1.17,1.12,1.75,1.25,.16,2.49,.31,3.76,.41,.62,.07,1.25,.12,1.89,.16,.65,.06,1.31,.1,1.97,.15h.01c2.93,.19,5.87,.29,8.85,.29h.01c.28,0,.56,0,.84-.01,1.94,0,3.86-.06,5.78-.15,.66-.03,1.34-.07,2-.12,.65-.03,1.28-.07,1.92-.13,.63-.04,1.28-.1,1.91-.16,1.28-.12,2.55-.25,3.81-.41,.45-.6,.88-1.23,1.28-1.88,.57,.53,1.13,1.01,1.67,1.5,1.66-.23,3.29-.5,4.91-.79,.69-.12,1.35-.25,2.02-.38,1.75-.34,3.49-.72,5.21-1.13,.26-.06,.53-.12,.79-.21,1.79-.43,3.58-.89,5.34-1.41,2.04-.59,4.06-1.22,6.07-1.91,.21-.07,.43-.15,.63-.22,.47-.16,.94-.32,1.41-.5,51.73-18.57,88.84-67.84,89.31-125.83v-.12c.01-.35,.01-.69,.01-1.04,0-33.49-12.22-64.14-32.45-87.72Zm-79.9,205.96c-.34,.07-.67,.13-1.01,.19-.29,.06-.59,.1-.89,.15-.26,.06-.53,.1-.81,.13-1.61,.28-3.26,.51-4.9,.72-.43,.06-.87,.1-1.31,.15-1.28,.15-2.57,.28-3.87,.38-1.41,.12-2.83,.21-4.25,.25-.7,.04-1.39,.07-2.1,.09-1.1,.03-2.2,.04-3.3,.04h-.13c-1.14,0-2.29-.01-3.42-.06-.67-.01-1.36-.04-2.04-.07-1.42-.06-2.85-.15-4.25-.26-1.31-.1-2.6-.23-3.87-.38-.44-.04-.87-.09-1.29-.15h-.01c-1.64-.21-3.29-.44-4.9-.73-.28-.03-.54-.07-.81-.13-.31-.04-.6-.09-.89-.15-.31-.06-.6-.12-.89-.18-55.71-10.53-97.83-59.46-97.83-118.23,0-2.6,.09-5.19,.23-7.76h0c4.02-62.85,56.25-112.57,120.12-112.57,38.51,0,72.81,18.1,94.81,46.26,.4,.48,.78,.98,1.16,1.48,15.3,20.17,24.37,45.32,24.37,72.59,0,58.8-42.17,107.73-97.89,118.25Zm-37.46,1.17h-.01c-1.64-.21-3.29-.44-4.9-.73-.23,.38-.59,.91-1.04,1.54-.1,.16-.22,.32-.35,.5-.37,.51-.79,1.1-1.26,1.72,1.54,.28,3.1,.54,4.67,.75,.04-.06,.09-.1,.13-.16,.51-.67,1.04-1.35,1.56-2.04,.01-.01,.01-.03,.01-.03h.01c.41,.06,.81,.12,1.23,.16h.01s0-.01,.01-.03c.4-.51,.81-1.01,1.22-1.53-.44-.04-.87-.09-1.29-.15Zm35.78,.84c-.44-.63-.79-1.16-1.04-1.54-1.61,.28-3.26,.51-4.9,.72-.43,.06-.87,.1-1.31,.15,.41,.5,.81,1.01,1.2,1.51,.01,.01,.03,.03,.03,.04,.43-.04,.84-.09,1.25-.16h.01c.56,.75,1.13,1.5,1.7,2.24,1.57-.22,3.12-.47,4.68-.75-.63-.82-1.17-1.57-1.63-2.22Z"
                 id="path26" />
              <path
                 class="cls-6"
                 d="M242.47,52.28c-.6,1.95-1.28,3.89-2.04,5.79-.34,.89-.72,1.79-1.1,2.67-.19,.44-.76,1.17-1.54,2.08-.48,.56-1.06,1.19-1.69,1.85-.37,.4-.76,.82-1.17,1.25-1.06,1.11-2.2,2.27-3.29,3.39-21.14-27.36-54.27-44.97-91.54-44.97-61.37,0-111.58,47.8-115.42,108.18-.01,.34-.04,.66-.06,1-1.67-.47-3.23-.91-4.62-1.31-.57-.18-1.13-.32-1.64-.47-.92-.26-1.73-.5-2.42-.69-1.31-.38-2.17-.63-2.44-.72-.84-.25-1.67-.51-2.51-.78-1.79-.57-3.58-1.19-5.34-1.8,.04-.48,.09-.95,.13-1.44h0C10.16,82.93,35.07,45.62,70.65,24.26c2.38-1.44,4.78-2.79,7.26-4.06,1.03-.53,2.07-1.06,3.11-1.56,3.13-1.53,6.31-2.93,9.57-4.21,9.55-3.76,19.63-6.46,30.11-7.95,.53-.07,1.06-.16,1.58-.22,.31-.04,.63-.07,.94-.12h.06c.73-.09,1.45-.18,2.17-.25,.25-.04,.5-.06,.75-.09,.03-.01,.07-.01,.09-.01,.15,0,.31-.01,.47-.04,.07,0,.18-.01,.25-.03h.04c.31-.01,.63-.04,.94-.07,.22-.03,.41-.04,.62-.07,.56-.04,1.1-.07,1.66-.12,.21-.01,.43-.03,.65-.03,.04-.01,.09-.01,.13-.01,.12-.01,.25-.01,.38-.03h.21c.07-.01,.13-.01,.19-.03h.04c.43-.01,.85-.04,1.28-.07,.12,0,.22,0,.35-.01,.45-.03,.91-.04,1.38-.06,1.12-.04,2.23-.07,3.36-.09,.57-.01,1.16-.01,1.73-.01,1.25,0,2.48,.03,3.71,.06,.38,0,.73,.01,1.1,.03,.76,.03,1.51,.06,2.26,.09,.12,.01,.22,.03,.32,.03,.06,.01,.13,.01,.19,.01h.07c.12,.01,.23,.01,.37,.03,.41,.01,.82,.04,1.25,.07,1.82,.13,3.64,.28,5.46,.47,.59,.07,1.2,.15,1.79,.22,.45,.04,.9,.1,1.34,.16,.16,.01,.32,.03,.48,.06,.28,.06,.56,.09,.84,.13,.09,.01,.18,.01,.26,.04,.16,.01,.35,.04,.51,.07,.09,0,.16,.01,.23,.03,.59,.09,1.16,.16,1.72,.25,.25,.04,.48,.09,.7,.13,.28,.06,.54,.09,.81,.15,.7,.1,1.39,.23,2.08,.38,.22,.04,.45,.07,.67,.12,.79,.16,1.58,.32,2.36,.48,.15,.03,.29,.07,.44,.1,.87,.18,1.72,.38,2.58,.59,.1,.03,.23,.06,.35,.07,.92,.23,1.85,.47,2.77,.72,.98,.26,1.97,.54,2.95,.81,.95,.29,1.94,.57,2.89,.88,.73,.22,1.45,.47,2.17,.7,1.44,.48,2.86,.97,4.27,1.51,1.42,.51,2.83,1.07,4.23,1.64,18.82,7.7,35.5,19.54,48.93,34.39,.82,.9,1.61,1.8,2.39,2.74Z"
                 id="path27" />
              <path
                 class="cls-9"
                 d="M188.97,15.74c-1.35-.54-2.7-1.07-4.06-1.58-1.35-.51-2.73-.98-4.11-1.44-.69-.22-1.38-.47-2.08-.67-.92-.31-1.86-.57-2.79-.85-.95-.26-1.88-.53-2.83-.78-.89-.23-1.78-.47-2.67-.69-.1-.03-.23-.04-.34-.07-.84-.19-1.64-.4-2.48-.57-.15-.03-.28-.06-.41-.09-.75-.16-1.51-.31-2.27-.47-.22-.04-.44-.07-.66-.12-.66-.13-1.32-.25-2-.37-.26-.04-.5-.09-.76-.13-.22-.04-.45-.09-.69-.13-.53-.09-1.09-.16-1.64-.23-.07-.01-.16-.03-.23-.03-.16-.03-.34-.06-.5-.07-.07-.01-.16-.03-.25-.04-.26-.04-.53-.07-.81-.13-.15-.01-.31-.03-.45-.04-.43-.06-.85-.1-1.28-.16-.59-.07-1.16-.13-1.73-.21-1.75-.19-3.49-.34-5.25-.45-.4-.03-.81-.06-1.2-.07-.1-.01-.23-.01-.35-.03h-.25c-.1,0-.19-.03-.31-.03-.72-.04-1.44-.06-2.17-.09-.35-.01-.69-.03-1.06-.04-1.17-.01-2.38-.04-3.57-.04-.56,0-1.12,0-1.67,.01-1.07,.01-2.14,.04-3.23,.09-.45,.01-.88,.03-1.32,.06-.12,0-.22,0-.34,.01-.41,.03-.81,.04-1.22,.07h-.04c-.06,0-.12,0-.19,.01h-.21c-.12,.01-.23,.01-.35,.03-.04,0-.09,0-.13,.01-.21,0-.43,.01-.62,.03-.54,.04-1.07,.07-1.6,.12-.19,.01-.38,.03-.59,.06-.29,.03-.6,.06-.91,.09-.01-.01-.03-.01-.03,0-.09,0-.18,.01-.25,.01-.15,.03-.31,.04-.44,.04-.03,0-.07,0-.09,.01-.25,.03-.48,.04-.72,.07-.7,.07-1.39,.16-2.1,.25h-.04c-.31,.04-.62,.07-.91,.12-.51,.06-1.01,.13-1.53,.21-10.06,1.44-19.75,4.03-28.93,7.64-3.13,1.23-6.19,2.58-9.2,4.05-1,.48-2,.98-2.98,1.5h-.01c-2.36,1.23-4.69,2.52-6.97,3.9-8.48,5.09-16.33,11.14-23.42,17.97,6.59-5.85,13.78-11.08,21.48-15.57,2.35-1.38,4.72-2.68,7.17-3.9,1.03-.51,2.04-1.03,3.08-1.51,3.08-1.47,6.24-2.82,9.45-4.03,9.46-3.61,19.44-6.21,29.8-7.64,.5-.07,1.04-.16,1.56-.22,.31-.03,.63-.07,.94-.1,.01,0,.03,0,.04-.01,.72-.07,1.45-.16,2.16-.23,.25-.03,.48-.04,.73-.07,.03-.01,.06-.01,.09-.01,.15,0,.31-.03,.47-.04,.07,0,.16-.01,.25-.03h.03c.31-.03,.63-.04,.94-.07,.21-.03,.41-.04,.62-.06,.54-.04,1.07-.09,1.63-.12,.21-.01,.43-.03,.65-.04h.12c.13-.01,.25-.01,.38-.03,.06,0,.13-.01,.18-.01h.03c.07,0,.13,0,.19-.01h.04c.43-.01,.84-.04,1.26-.07,.12,0,.22,0,.34-.01,.47-.03,.91-.04,1.36-.04,1.12-.04,2.23-.07,3.33-.09,.57-.01,1.14-.01,1.72-.01,1.23,0,2.45,.01,3.67,.04,.38,.01,.73,.01,1.09,.03,.76,.03,1.5,.06,2.23,.09,.12,.01,.22,.03,.32,.03,.07,.01,.13,.01,.21,.01h.06c.12,0,.25,.01,.35,.03,.41,.01,.82,.04,1.25,.06,1.8,.13,3.61,.28,5.38,.47,.6,.07,1.2,.13,1.79,.21,.44,.04,.88,.1,1.32,.15,.15,.03,.31,.04,.47,.06,.28,.06,.56,.09,.82,.13,.1,.01,.19,.01,.26,.03,.16,.03,.35,.04,.51,.07,.07,.01,.16,.01,.23,.04,.57,.07,1.14,.15,1.7,.23,.23,.04,.47,.09,.69,.13,.28,.04,.53,.07,.79,.13,.69,.1,1.38,.23,2.07,.37,.22,.04,.44,.07,.67,.12,.78,.15,1.56,.31,2.33,.47,.15,.03,.28,.06,.43,.09,.85,.18,1.7,.37,2.55,.56,.1,.03,.23,.06,.35,.09,.92,.22,1.83,.45,2.74,.69,.98,.25,1.94,.51,2.9,.78,.95,.26,1.92,.54,2.88,.85,.72,.21,1.44,.44,2.14,.66,1.41,.47,2.83,.94,4.23,1.45,1.41,.5,2.8,1.03,4.18,1.58,14.72,5.85,28.1,14.19,39.63,24.47-11.77-11.4-25.67-20.57-41.05-26.88Z"
                 id="path28" />
              <path
                 class="cls-19"
                 d="M237.78,62.83c-.41-.53-.84-1.06-1.26-1.57-22.83-27.92-57.53-45.73-96.42-45.73-65.38,0-118.97,50.38-124.09,114.45-.03,.37-.06,.72-.07,1.09-.22,2.95-.32,5.93-.32,8.93,0,57.42,38.88,105.73,91.73,120.12h.01c.75,.21,1.5,.41,2.24,.59,.51,.13,1.03,.26,1.56,.38,1.48,.37,2.98,.69,4.49,.98,.25,.06,.5,.1,.75,.15,.38,.07,.76,.15,1.14,.22,1.54,.28,3.1,.54,4.67,.75h.01c.41,.07,.79,.13,1.2,.18,1.03,.15,2.04,.26,3.07,.37,1.39,.16,2.8,.29,4.21,.4,.63,.04,1.28,.09,1.91,.12,.75,.06,1.51,.1,2.26,.12,1.17,.06,2.36,.09,3.55,.09,.51,.03,1.04,.03,1.57,.03h.12c1.31,0,2.61-.01,3.92-.07,.62,0,1.22-.03,1.83-.06,.51-.01,1.01-.04,1.53-.09,.66-.03,1.31-.07,1.97-.12,1.41-.1,2.82-.23,4.21-.4,1.03-.09,2.05-.22,3.08-.35,.4-.06,.81-.12,1.2-.18,1.57-.22,3.12-.47,4.68-.75,.38-.07,.76-.15,1.13-.22,.26-.04,.51-.09,.76-.15,1.53-.29,3.04-.63,4.53-.98,.53-.12,1.06-.25,1.57-.38h.01c.73-.19,1.48-.38,2.22-.6h.01c52.92-14.33,91.83-62.67,91.83-120.14,0-29.15-10.04-55.95-26.8-77.17Zm-80.53,191.57c-1.92,.28-3.87,.53-5.82,.7-.51,.06-1.03,.1-1.54,.15h-.01c-1.5,.13-3.01,.22-4.52,.29-1.38,.06-2.77,.1-4.17,.1-.35,.01-.72,.01-1.09,.01-.43,0-.85,0-1.26-.01-1.39,0-2.77-.04-4.15-.12-1.51-.06-3.02-.16-4.52-.29h-.01c-.51-.04-1.03-.09-1.54-.15-1.95-.18-3.89-.43-5.81-.72-55.66-8.35-98.36-56.38-98.36-114.37,0-2.17,.07-4.33,.18-6.47,.01-.34,.04-.66,.06-1,3.84-60.38,54.05-108.18,115.42-108.18,37.27,0,70.39,17.6,91.54,44.97,.25,.31,.48,.62,.72,.92,14.7,19.38,23.4,43.56,23.4,69.76,0,58.05-42.77,106.11-98.5,114.4Z"
                 id="path29" />
              <path
                 class="cls-15"
                 d="M236.09,64.68c-.21-.28-.43-.56-.65-.84-22.36-27.95-56.76-45.86-95.35-45.86-64.28,0-116.93,49.69-121.69,112.75-.03,.34-.04,.69-.06,1.03-.19,2.73-.28,5.47-.28,8.24,0,57.96,40.41,106.5,94.6,118.94,.88,.21,1.76,.4,2.66,.59h.01s.1,.01,.16,.03c.65,.13,1.29,.26,1.94,.37,.23,.06,.48,.1,.73,.15,.32,.06,.65,.12,.97,.16,1.57,.28,3.15,.53,4.75,.73h.01c.41,.06,.81,.12,1.23,.16h.01c1.17,.15,2.36,.28,3.55,.38,1.39,.13,2.82,.23,4.24,.31,.66,.06,1.32,.09,1.98,.1,.75,.04,1.5,.06,2.24,.07,.5,.01,.98,.03,1.48,.03,.44,.01,.88,.01,1.32,.01h.12c1.06,0,2.1-.01,3.15-.04,.09,0,.16,0,.26-.01h.01c.5,0,1-.01,1.5-.06,.69-.01,1.36-.04,2.04-.09,1.42-.07,2.85-.18,4.25-.31,1.19-.1,2.38-.23,3.55-.38,.43-.04,.84-.09,1.25-.16h.01c1.6-.19,3.18-.44,4.75-.72,.32-.04,.65-.1,.97-.16,.23-.04,.48-.09,.73-.15,.67-.1,1.32-.23,1.98-.38h.01c.07,0,.13-.01,.19-.03h.01c.88-.19,1.78-.38,2.64-.59h.01c54.23-12.41,94.69-60.96,94.69-118.95,0-28.43-9.73-54.58-26.04-75.32Zm-78.84,189.72c-1.92,.28-3.87,.53-5.82,.7-.51,.06-1.03,.1-1.54,.15h-.01c-1.5,.13-3.01,.22-4.52,.29-1.38,.06-2.77,.1-4.17,.1-.35,.01-.72,.01-1.09,.01-.43,0-.85,0-1.26-.01-1.39,0-2.77-.04-4.15-.12-1.51-.06-3.02-.16-4.52-.29h-.01c-.51-.04-1.03-.09-1.54-.15-1.95-.18-3.89-.43-5.81-.72-55.66-8.35-98.36-56.38-98.36-114.37,0-2.17,.07-4.33,.18-6.47,.01-.34,.04-.66,.06-1,3.84-60.38,54.05-108.18,115.42-108.18,37.27,0,70.39,17.6,91.54,44.97,.25,.31,.48,.62,.72,.92,14.7,19.38,23.4,43.56,23.4,69.76,0,58.05-42.77,106.11-98.5,114.4Z"
                 id="path30" />
              <path
                 class="cls-2"
                 d="M41.2,227.67c.43-.64,47.85,45.3,110.33,40.59,64.18-4.84,104.51-67.77,105.02-67.25,.51,.52-32.27,66.39-109.91,71.68-64.74,4.41-105.88-44.38-105.44-45.02Z"
                 id="path31" />
              <path
                 class="cls-4"
                 d="M26.1,73.7c-.67-.58,7.28-12.57,18.7-23.75,18.33-17.94,38.49-26.85,39.08-25.94,.52,.8-14.2,8.93-35.03,27.79-14.21,12.87-22.11,22.44-22.74,21.89Z"
                 id="path32" />
              <path
                 class="cls-5"
                 d="M169.94,15.42c-.11,.36,12.17,3.85,28.46,12.29,25.67,13.3,39.89,30.33,40.42,29.81,.47-.46-9.14-15.29-27.29-26.95-20.49-13.16-41.46-15.62-41.6-15.16Z"
                 id="path33" />
            </g>
          </g>
        </g>
      </g>
    </g>
  </g>
</svg>
