<?xml version="1.0" encoding="UTF-8" standalone="no"?>
<svg
   viewBox="0 0 298 284"
   version="1.1"
   id="svg5200"
   sodipodi:docname="6-Gold.svg"
   inkscape:version="1.4 (86a8ad7, 2024-10-11)"
   xmlns:inkscape="http://www.inkscape.org/namespaces/inkscape"
   xmlns:sodipodi="http://sodipodi.sourceforge.net/DTD/sodipodi-0.dtd"
   xmlns:xlink="http://www.w3.org/1999/xlink"
   xmlns="http://www.w3.org/2000/svg"
   xmlns:svg="http://www.w3.org/2000/svg">
  <sodipodi:namedview
     id="namedview5200"
     pagecolor="#505050"
     bordercolor="#ffffff"
     borderopacity="1"
     inkscape:showpageshadow="0"
     inkscape:pageopacity="0"
     inkscape:pagecheckerboard="1"
     inkscape:deskcolor="#505050"
     inkscape:zoom="3.0105634"
     inkscape:cx="148.97544"
     inkscape:cy="142"
     inkscape:window-width="1920"
     inkscape:window-height="1057"
     inkscape:window-x="1912"
     inkscape:window-y="-8"
     inkscape:window-maximized="1"
     inkscape:current-layer="g5199" />
  <defs
     id="defs26">
    <style
       id="style1">
      .cls-1 {
        fill: url(#linear-gradient-2);
      }

      .cls-2 {
        fill: url(#linear-gradient-17);
      }

      .cls-3 {
        fill: url(#linear-gradient-15);
      }

      .cls-4 {
        opacity: .2;
      }

      .cls-4, .cls-5 {
        mix-blend-mode: multiply;
      }

      .cls-6 {
        fill: url(#linear-gradient-14);
      }

      .cls-7 {
        fill: url(#linear-gradient-20);
      }

      .cls-8 {
        fill: url(#linear-gradient-6);
      }

      .cls-9 {
        isolation: isolate;
      }

      .cls-10 {
        fill: url(#linear-gradient-11);
      }

      .cls-11 {
        fill: url(#linear-gradient-10);
      }

      .cls-12 {
        fill: url(#linear-gradient-18);
      }

      .cls-12, .cls-13 {
        mix-blend-mode: screen;
      }

      .cls-14 {
        fill: #73594e;
        opacity: .3;
      }

      .cls-15 {
        fill: url(#linear-gradient-16);
      }

      .cls-5, .cls-16 {
        opacity: .35;
      }

      .cls-17 {
        fill: url(#linear-gradient-21);
      }

      .cls-18 {
        fill: url(#linear-gradient-5);
      }

      .cls-19 {
        clip-path: url(#clippath);
      }

      .cls-20 {
        fill: none;
      }

      .cls-21 {
        fill: url(#linear-gradient-7);
      }

      .cls-22 {
        fill: url(#linear-gradient-9);
      }

      .cls-23 {
        fill: url(#linear-gradient-22);
      }

      .cls-13 {
        fill: url(#linear-gradient-13);
      }

      .cls-24 {
        fill: url(#linear-gradient-3);
      }

      .cls-25 {
        fill: url(#linear-gradient);
      }

      .cls-26 {
        fill: url(#_Áåçûìÿííûé_ãðàäèåíò_2-2);
      }

      .cls-26, .cls-27 {
        mix-blend-mode: color-dodge;
      }

      .cls-28 {
        fill: url(#linear-gradient-23);
      }

      .cls-29 {
        fill: url(#linear-gradient-19);
      }

      .cls-30 {
        fill: url(#linear-gradient-4);
      }

      .cls-31 {
        fill: url(#linear-gradient-8);
      }

      .cls-27 {
        fill: url(#_Áåçûìÿííûé_ãðàäèåíò_2);
      }

      .cls-16 {
        fill: #9f8861;
      }

      .cls-32 {
        fill: url(#linear-gradient-12);
      }
    </style>
    <linearGradient
       id="linear-gradient"
       x1="148.23"
       y1="7.77"
       x2="148.23"
       y2="250.56"
       gradientUnits="userSpaceOnUse">
      <stop
         offset="0"
         stop-color="#f9e897"
         id="stop1" />
      <stop
         offset=".03"
         stop-color="#f7e391"
         id="stop2" />
      <stop
         offset=".48"
         stop-color="#da9a47"
         id="stop3" />
      <stop
         offset=".59"
         stop-color="#c3833d"
         id="stop4" />
      <stop
         offset=".85"
         stop-color="#925428"
         id="stop5" />
      <stop
         offset=".98"
         stop-color="#7f4220"
         id="stop6" />
    </linearGradient>
    <linearGradient
       id="linear-gradient-2"
       x1="148.22"
       y1="37.76"
       x2="148.22"
       y2="208.67"
       gradientUnits="userSpaceOnUse">
      <stop
         offset="0"
         stop-color="#f9ffd3"
         id="stop7" />
      <stop
         offset=".55"
         stop-color="#f9e897"
         id="stop8" />
      <stop
         offset=".58"
         stop-color="#f7e391"
         id="stop9" />
      <stop
         offset="1"
         stop-color="#da9a47"
         id="stop10" />
    </linearGradient>
    <linearGradient
       id="linear-gradient-3"
       x1="121.59"
       y1="38.51"
       x2="121.59"
       y2="191.14"
       gradientUnits="userSpaceOnUse">
      <stop
         offset="0"
         stop-color="#fff1ab"
         id="stop11" />
      <stop
         offset=".55"
         stop-color="#f9e897"
         id="stop12" />
      <stop
         offset=".58"
         stop-color="#f7e391"
         id="stop13" />
      <stop
         offset="1"
         stop-color="#da9a47"
         id="stop14" />
    </linearGradient>
    <linearGradient
       id="linear-gradient-4"
       x1="175.57"
       y1="38.63"
       x2="175.57"
       y2="188.47"
       xlink:href="#linear-gradient-3" />
    <linearGradient
       id="linear-gradient-5"
       x1="148.22"
       y1="39.5"
       x2="148.22"
       y2="209.06"
       xlink:href="#linear-gradient-3" />
    <linearGradient
       id="linear-gradient-6"
       x1="148.48"
       y1="-5.86"
       x2="148.48"
       y2="271.22"
       xlink:href="#linear-gradient-3" />
    <linearGradient
       id="linear-gradient-7"
       x1="258.64"
       y1="44.67"
       x2="30.92"
       y2="244.88"
       xlink:href="#linear-gradient" />
    <linearGradient
       id="linear-gradient-8"
       x1="67.24"
       y1="22.19"
       x2="219.55"
       y2="246.83"
       xlink:href="#linear-gradient" />
    <linearGradient
       id="linear-gradient-9"
       x1="1054.13"
       y1="207.9"
       x2="1016.69"
       y2="202.55"
       gradientTransform="translate(368.47 380.6) rotate(-90) scale(1 -1)"
       xlink:href="#linear-gradient" />
    <linearGradient
       id="linear-gradient-10"
       x1="264"
       y1="142.32"
       x2="297.14"
       y2="141.66"
       xlink:href="#linear-gradient" />
    <linearGradient
       id="linear-gradient-11"
       x1="279.55"
       y1="148.68"
       x2="279.55"
       y2="135.12"
       xlink:href="#linear-gradient" />
    <linearGradient
       id="linear-gradient-12"
       x1="274.23"
       y1="141.76"
       x2="284.86"
       y2="141.76"
       xlink:href="#linear-gradient" />
    <linearGradient
       id="linear-gradient-13"
       x1="327.76"
       y1="114.71"
       x2="327.76"
       y2="123.66"
       gradientTransform="translate(-48.22 18.92)"
       gradientUnits="userSpaceOnUse">
      <stop
         offset="0"
         stop-color="#fff"
         id="stop15" />
      <stop
         offset=".11"
         stop-color="#ececec"
         id="stop16" />
      <stop
         offset=".32"
         stop-color="#bababa"
         id="stop17" />
      <stop
         offset=".62"
         stop-color="#6b6b6b"
         id="stop18" />
      <stop
         offset="1"
         stop-color="#000"
         id="stop19" />
    </linearGradient>
    <linearGradient
       id="linear-gradient-14"
       x1="1986.19"
       y1="220.21"
       x2="1960.31"
       y2="216.52"
       gradientTransform="translate(1441.83 283.52) rotate(-180)"
       xlink:href="#linear-gradient" />
    <linearGradient
       id="linear-gradient-15"
       x1="1407.83"
       y1="142.32"
       x2="1440.97"
       y2="141.66"
       gradientTransform="translate(1441.83 283.52) rotate(-180)"
       xlink:href="#linear-gradient" />
    <linearGradient
       id="linear-gradient-16"
       x1="1423.38"
       y1="148.68"
       x2="1423.38"
       y2="135.12"
       gradientTransform="translate(1441.83 283.52) rotate(-180)"
       xlink:href="#linear-gradient" />
    <linearGradient
       id="linear-gradient-17"
       x1="1418.06"
       y1="141.76"
       x2="1428.69"
       y2="141.76"
       gradientTransform="translate(1441.83 283.52) rotate(-180)"
       xlink:href="#linear-gradient" />
    <linearGradient
       id="linear-gradient-18"
       x1="1471.59"
       y1="114.71"
       x2="1471.59"
       y2="123.66"
       gradientTransform="translate(1490.05 264.6) rotate(-180)"
       xlink:href="#linear-gradient-13" />
    <linearGradient
       id="linear-gradient-19"
       x1="113.39"
       y1="22.68"
       x2="126.38"
       y2="20.39"
       xlink:href="#linear-gradient" />
    <linearGradient
       id="linear-gradient-20"
       x1="181.31"
       y1="23.55"
       x2="172.47"
       y2="20.67"
       xlink:href="#linear-gradient" />
    <linearGradient
       id="linear-gradient-21"
       x1="149.44"
       y1="-2.37"
       x2="149.44"
       y2="20.84"
       xlink:href="#linear-gradient" />
    <linearGradient
       id="linear-gradient-22"
       x1="149.31"
       y1="-6.72"
       x2="149.31"
       y2="32.88"
       xlink:href="#linear-gradient" />
    <radialGradient
       id="_Áåçûìÿííûé_ãðàäèåíò_2"
       data-name="Áåçûìÿííûé ãðàäèåíò 2"
       cx="149.82"
       cy="-12.85"
       fx="149.82"
       fy="-12.85"
       r="41.76"
       gradientTransform="translate(.33 .35)"
       gradientUnits="userSpaceOnUse">
      <stop
         offset="0"
         stop-color="#a39186"
         id="stop20" />
      <stop
         offset=".13"
         stop-color="#9d8c81"
         id="stop21" />
      <stop
         offset=".29"
         stop-color="#8d7e74"
         id="stop22" />
      <stop
         offset=".47"
         stop-color="#74675f"
         id="stop23" />
      <stop
         offset=".66"
         stop-color="#504742"
         id="stop24" />
      <stop
         offset=".87"
         stop-color="#221e1c"
         id="stop25" />
      <stop
         offset="1"
         stop-color="#000"
         id="stop26" />
    </radialGradient>
    <linearGradient
       id="linear-gradient-23"
       x1="148.97"
       y1=".56"
       x2="148.97"
       y2="24.78"
       xlink:href="#linear-gradient" />
    <radialGradient
       id="_Áåçûìÿííûé_ãðàäèåíò_2-2"
       data-name="Áåçûìÿííûé ãðàäèåíò 2"
       cx="151.01"
       cy="-5.57"
       fx="151.01"
       fy="-5.57"
       r="23.73"
       xlink:href="#_Áåçûìÿííûé_ãðàäèåíò_2" />
    <clipPath
       id="clippath">
      <path
         class="cls-20"
         d="M290.4,154.74c-.17,1.88-.39,3.74-.63,5.59,2.15,.33,4.31,.64,6.46,.97-.76,4.17-1.77,8.3-3.02,12.38-1.85-.48-3.69-.95-5.55-1.42-10.56,48.05-45.38,87.01-91,103.38-.5,.18-.99,.36-1.49,.53-.21,.09-.44,.15-.67,.23-2.12,.74-4.27,1.41-6.42,2.01-1.87,.53-3.74,1.04-5.64,1.5-.28,.09-.56,.16-.85,.21-1.81,.44-3.65,.84-5.5,1.2-.71,.13-1.42,.27-2.14,.41-1.73,.3-3.44,.57-5.19,.83-1.03,.06-1.93,.19-3.12,.4-1.34,.18-2.68,.32-4.03,.44-.67,.06-1.35,.13-2.03,.16-.67,.06-1.33,.11-2.04,.14-.67,.06-1.41,.09-2.1,.14-2.04,.09-4.06,.16-6.12,.16-.28,0-.57,0-.88,0h0c-3.13,0-6.25-.11-9.35-.32h0c-.7-.06-1.41-.09-2.09-.15-.67-.05-1.35-.09-2-.17-1.33-.12-2.64-.27-3.97-.44-1.12-.11-1.8-.18-2.83-.37-1.76-.25-3.46-.51-5.19-.83-.72-.13-1.43-.26-2.15-.41-1.87-.36-3.69-.75-5.53-1.19-.27-.06-.55-.13-.82-.21-1.89-.45-3.76-.98-5.64-1.51h0c-2.15-.61-4.3-1.28-6.41-2h-.03c-.19-.09-.44-.16-.63-.25h-.02c-.49-.16-.99-.32-1.48-.51h-.02c-45.51-16.35-80.3-55.2-90.95-103.15-1.52,.39-3.04,.77-4.56,1.17-1.25-4.08-2.26-8.21-3.02-12.38,1.81-.28,3.62-.54,5.44-.81-.25-1.87-.47-3.74-.65-5.64-1.9,.2-3.8,.39-5.7,.59-1.16-9.08-1.16-18.27,0-27.36,1.89,.2,3.77,.39,5.66,.59,0-.04,0-.08,0-.12,.05-.5,.09-1,.13-1.51v-.02c.14-1.34,.29-2.67,.47-4-1.79-.27-3.57-.52-5.36-.8,.77-4.16,1.78-8.3,3.02-12.37,1.48,.38,2.95,.75,4.43,1.13C17.72,72.07,42.08,39.1,75.2,19.21c2.51-1.53,5.05-2.95,7.68-4.3,1.09-.55,2.18-1.1,3.27-1.64,3.3-1.62,6.67-3.11,10.11-4.45,5.62-2.21,11.4-4.07,17.34-5.57l5.6-1.33,14.91,36.82c-7.79,1.15-15.26,3.22-22.26,6.1l-1.67-4.6c-.56,.21-1.12,.42-1.67,.64-2.61,1.02-5.17,2.14-7.68,3.37-.84,.41-1.68,.83-2.5,1.26-2,1.02-3.92,2.1-5.83,3.25-28.59,17.17-48.59,47.12-52.1,81.99-.05,.39-.08,.77-.11,1.15-.3,3.24-.45,6.52-.45,9.84,0,47,29.92,86.99,71.75,102.01h0c.37,.14,.76,.27,1.13,.39h0c.16,.06,.33,.13,.49,.18h.02c.53,.18,1.07,.36,1.6,.52l2.07-6.96c9.59,4.83,20.18,7.52,31.31,7.52s21.73-2.69,31.32-7.52l2.06,6.96c.54-.16,1.08-.34,1.61-.53,.18-.05,.35-.11,.51-.17,.39-.13,.76-.26,1.14-.41,41.56-14.91,71.36-54.48,71.75-101.08v-.08c0-.29,0-.55,0-.84,0-26.9-9.83-51.51-26.08-70.45-.62-.76-1.26-1.49-1.92-2.2-10.8-11.93-24.18-21.44-39.31-27.62-1.01-.4-2.03-.82-3.05-1.2l-1.66,4.59c-6.58-2.7-13.55-4.7-20.83-5.89L179.88,1.94l4.36,1.58c.28,.07,.55,.14,.83,.22,1.05,.28,2.09,.58,3.12,.86,1.02,.3,2.04,.6,3.05,.92,.78,.23,1.54,.51,2.29,.74,1.53,.53,3.01,1.04,4.51,1.61,1.49,.54,2.99,1.14,4.47,1.74,19.89,8.15,37.51,20.64,51.7,36.33,.87,.95,1.71,1.9,2.51,2.9,15.13,17.6,25.98,38.93,31.06,62.41,1.8-.46,3.61-.92,5.41-1.38,1.26,4.07,2.27,8.21,3.02,12.37-2.12,.33-4.25,.64-6.38,.96,.24,1.85,.44,3.71,.61,5.59,2.23-.23,4.45-.45,6.68-.69,1.16,9.09,1.16,18.28,0,27.36-2.25-.24-4.49-.46-6.74-.7ZM168.04,1.39c-.36-.06-.72-.11-1.09-.15-.15-.03-.31-.05-.46-.07h-.02c-.5-.07-1.01-.13-1.52-.19-.67-.08-1.34-.15-2.02-.23-.03,0-.07,0-.1,0-.02,0-.05,0-.07,0-.67-.06-1.36-.13-2.03-.19-.04,0-.08,0-.12,0-.09,0-.18,0-.27-.02-.16,0-.32-.03-.48-.04-.07,0-.13,0-.2,0-.67-.06-1.35-.1-2.02-.15-.47-.03-.93-.06-1.4-.08-.12,0-.23-.02-.35-.02-.89-.05-1.79-.09-2.68-.12-.88-.04-1.75-.06-2.62-.07h-.31c-.64,0-1.29-.02-1.93-.02h-.15c-.43,0-.86,0-1.29,0-.44,0-.87,0-1.3,0-1.32,.03-2.63,.07-3.94,.13-.48,.02-.95,.04-1.42,.07-.67,.03-1.35,.08-2.02,.13-.23,0-.46,.03-.69,.04-.09,0-.17,0-.26,.02h0s-.08,0-.12,0c-.44,.04-.88,.07-1.32,.11-.24,.02-.47,.04-.7,.06-.06,0-.12,0-.18,.02-.39,.04-.77,.07-1.15,.11-.64,.06-1.27,.13-1.91,.21-.26,.03-.53,.06-.79,.09-.19,.02-.38,.05-.57,.07l18.41,38.38L168.04,1.39Z"
         id="path26" />
    </clipPath>
  </defs>
  <g
     class="cls-9"
     id="g5200">
    <g
       id="Layer_2"
       data-name="Layer 2">
      <g
         id="Layer_1-2"
         data-name="Layer 1">
        <g
           id="g5199">
          <g
             id="g50">
            <path
               class="cls-25"
               d="M288.1,130.87c-.05-.61-.1-1.22-.15-1.83-5.39-59.72-48.37-108.76-105.05-123.21l-1.12,1.94-5.41,9.36-.24,.42c53.22,11.95,93.96,57.32,98.9,112.81,.06,.61,.11,1.22,.15,1.84,.1,1.3,.18,2.6,.23,3.91,.04,.74,.06,1.49,.09,2.22,.02,1.14,.04,2.27,.04,3.42s-.02,2.31-.05,3.46c-.02,.74-.04,1.48-.08,2.21-.05,1.32-.13,2.62-.23,3.92-.05,.62-.1,1.23-.15,1.84-5.8,64.85-60.47,115.86-126.82,115.86S27.3,218.1,21.43,153.33c-.06-.61-.11-1.22-.16-1.84-.08-1.07-.15-2.14-.2-3.22-.04-.61-.06-1.22-.09-1.83,0-.29,0-.58-.02-.87-.03-1.04-.05-2.07-.06-3.11v-.72c0-1.56,.03-3.11,.08-4.66,.03-.62,.05-1.23,.09-1.84,.05-1.08,.12-2.14,.2-3.21,.04-.62,.09-1.23,.15-1.84C26.47,74.29,67.84,28.7,121.69,17.25l-.25-.42-5.36-9.28-1.18-2.05C57.61,19.49,14.01,68.77,8.52,128.89c-.06,.61-.11,1.22-.16,1.83-.28,3.64-.43,7.32-.43,11.03s.15,7.41,.43,11.06c.05,.61,.1,1.22,.16,1.83,6.53,71.32,66.69,127.37,139.7,127.37s133.27-56.14,139.72-127.53c.06-.61,.11-1.22,.16-1.83,.28-3.59,.42-7.23,.42-10.9s-.14-7.28-.42-10.87Z"
               id="path27" />
            <g
               id="g31">
              <path
                 class="cls-1"
                 d="M148.22,245.41c-11.14,0-21.73-2.7-31.32-7.53l-2.41,8.14c10.35,5.11,21.75,7.95,33.72,7.95s23.38-2.84,33.72-7.95l-2.41-8.14c-9.59,4.83-20.18,7.53-31.32,7.53Z"
                 id="path28" />
              <path
                 class="cls-24"
                 d="M131.74,34.64l2.37,4.11c-7.79,1.15-15.26,3.22-22.26,6.1l-1.67-4.6-1.13-3.12c6.57-2.64,13.5-4.65,20.7-5.91l1.98,3.41Z"
                 id="path29" />
              <path
                 class="cls-30"
                 d="M187.38,37.14l-1.14,3.13-1.66,4.59c-6.58-2.7-13.55-4.7-20.83-5.89l2.37-4.1,1.96-3.39c6.71,1.28,13.16,3.18,19.3,5.66Z"
                 id="path30" />
              <path
                 class="cls-18"
                 d="M264.07,133.28c-.04-.62-.09-1.23-.15-1.85-2.18-24.79-12.16-47.34-27.49-65.19-.66-.82-1.35-1.59-2.06-2.36-11.56-12.79-25.91-22.96-42.13-29.61-1.19-.49-2.41-.98-3.63-1.41-1.22-.47-2.43-.89-3.68-1.31-.62-.2-1.24-.43-1.87-.61-.83-.26-1.67-.5-2.48-.75-.85-.23-1.69-.47-2.54-.7-.8-.22-1.59-.42-2.38-.62-.11,0-.22-.04-.3-.07-.75-.17-1.48-.35-2.24-.5-.12-.02-.25-.06-.38-.08-.66-.16-1.35-.29-2.03-.43-.15-.03-.3-.05-.45-.08l-.84,1.44-1.34,2.31-1.96,3.39c.07,0,.14,.02,.21,.03,.23,.06,.43,.09,.65,.12,.57,.09,1.12,.2,1.68,.31,.17,.04,.36,.06,.54,.1,.63,.13,1.28,.26,1.9,.4,.12,0,.24,.05,.36,.08,.69,.14,1.38,.3,2.08,.46,.07,.03,.18,.06,.28,.07,.74,.19,1.49,.37,2.23,.58,.8,.2,1.58,.43,2.37,.65,.76,.24,1.56,.46,2.31,.7,.6,.17,1.18,.38,1.75,.58,1.16,.39,2.29,.77,3.42,1.2,.12,.04,.23,.09,.35,.13,1.03,.38,2.05,.8,3.05,1.2,15.14,6.18,28.52,15.69,39.31,27.62,.66,.72,1.3,1.45,1.92,2.2,16.25,18.94,26.08,43.55,26.08,70.45,0,.29,0,.55,0,.84v.08c-.39,46.59-30.19,86.16-71.75,101.08-.38,.15-.75,.28-1.14,.41-.16,.06-.33,.12-.51,.17-.53,.19-1.07,.37-1.61,.53-1.08,.36-2.17,.7-3.26,1.01-1.42,.41-2.85,.79-4.29,1.14-.22,.07-.44,.12-.64,.15-1.39,.34-2.78,.65-4.19,.92-.54,.1-1.07,.21-1.63,.3-1.31,.24-2.6,.45-3.94,.64-.78,.05-1.46,.16-2.37,.31-1.01,.13-2.05,.24-3.06,.33-.5,.05-1.02,.1-1.54,.13-.51,.04-1.02,.09-1.54,.11-.53,.03-1.08,.06-1.61,.1-1.55,.06-3.09,.12-4.65,.12-.21,0-.44,0-.67,0h0c-2.38,0-4.75-.09-7.11-.24h0c-.53-.05-1.05-.07-1.58-.12-.51-.05-1.03-.07-1.52-.13-1.01-.09-2.02-.21-3.02-.33-.85-.09-1.36-.13-2.16-.29-1.34-.18-2.63-.39-3.95-.64-.53-.08-1.08-.18-1.62-.3-1.42-.27-2.8-.57-4.2-.9-.2-.05-.42-.1-.63-.16-1.44-.35-2.86-.74-4.28-1.15,0,0,0,.02,0,0-1.1-.31-2.2-.65-3.27-1.01-.53-.16-1.07-.34-1.6-.52h-.02c-.16-.05-.33-.12-.49-.18h0c-.37-.12-.76-.25-1.13-.39h0c-41.83-15.02-71.75-55.01-71.75-102.01,0-3.31,.15-6.59,.45-9.84,.03-.38,.06-.76,.11-1.15,3.51-34.86,23.52-64.82,52.1-81.99,1.91-1.15,3.83-2.23,5.83-3.25,.83-.43,1.67-.85,2.5-1.26,2.51-1.23,5.07-2.35,7.68-3.37,.55-.22,1.11-.43,1.67-.64,6.87-2.58,14.09-4.48,21.55-5.62l-1.98-3.41-1.32-2.28-.86-1.49c-7.59,1.36-14.92,3.45-21.91,6.19-2.8,1.1-5.55,2.31-8.24,3.63-.89,.44-1.79,.88-2.67,1.34-2.15,1.1-4.2,2.25-6.25,3.5-30.64,18.39-52.08,50.49-55.86,87.84h0c-.03,.43-.06,.84-.11,1.24,0,.03,0,.05,0,.08-.05,.62-.1,1.23-.14,1.85-.22,2.85-.33,5.73-.33,8.62s.11,5.8,.32,8.66c.04,.61,.09,1.23,.15,1.84,4.1,45.76,34.75,83.86,76.43,98.83h0c.4,.16,.8,.29,1.21,.42h0c.16,.08,.36,.13,.52,.2h.02c1.72,.59,3.47,1.13,5.22,1.63h0c1.53,.44,3.05,.86,4.59,1.23,.23,.07,.46,.12,.67,.18,1.51,.36,2.99,.67,4.51,.97,.58,.12,1.16,.22,1.75,.32,1.4,.26,2.8,.48,4.22,.68,.85,.16,1.41,.22,2.31,.3,1.08,.14,2.16,.26,3.24,.36,.52,.07,1.08,.1,1.62,.14,.56,.05,1.14,.08,1.7,.12h0c2.53,.18,5.07,.26,7.62,.26h0c.25,0,.49,0,.72,0,1.68,0,3.32-.05,4.98-.13,.56-.03,1.16-.06,1.72-.11,.56-.02,1.11-.06,1.65-.1,.56-.04,1.11-.09,1.66-.15,1.1-.09,2.2-.2,3.28-.34,.98-.18,1.71-.29,2.54-.34,1.42-.21,2.82-.43,4.22-.68,.59-.11,1.17-.23,1.75-.32,1.51-.3,3-.63,4.49-.98,.22-.05,.45-.1,.68-.18,1.55-.37,3.07-.78,4.6-1.22,1.75-.5,3.5-1.04,5.23-1.64,.18-.07,.37-.12,.54-.19,.41-.14,.81-.28,1.21-.43,41.75-14.98,72.41-53.16,76.45-98.97,.05-.61,.1-1.22,.14-1.84,.19-2.48,.29-4.99,.31-7.51v-.1c0-.3,0-.59,0-.9,0-2.85-.1-5.68-.31-8.47Z"
                 id="path31" />
            </g>
            <path
               class="cls-8"
               d="M290.61,130.61c-.04-.62-.09-1.23-.15-1.84-2.67-30.39-14.91-58.06-33.73-79.96-.81-1.01-1.65-1.96-2.51-2.9-14.19-15.69-31.81-28.18-51.7-36.33-1.48-.6-2.98-1.2-4.47-1.74-1.5-.57-2.98-1.08-4.51-1.61-.76-.23-1.52-.51-2.29-.74-1.02-.32-2.04-.62-3.05-.92-1.04-.28-2.08-.58-3.12-.86-.28-.08-.55-.15-.83-.22l-1.34,2.32-1.12,1.94c.69,.17,1.38,.36,2.07,.55,1.02,.27,2.02,.55,3.02,.82,.97,.31,1.97,.59,2.94,.9,.75,.22,1.49,.49,2.22,.72,1.48,.51,2.92,1,4.36,1.55,1.45,.52,2.9,1.1,4.32,1.68,19.23,7.88,36.26,19.95,49.97,35.13,.85,.91,1.66,1.83,2.44,2.79,18.2,21.19,30.02,47.95,32.61,77.37,.06,.61,.11,1.22,.14,1.84,.23,2.84,.35,5.72,.38,8.61,.02,.59,.02,1.18,.02,1.77,0,.38,0,.72,0,1.07v.12c0,.39,0,.79-.02,1.18-.04,2.88-.18,5.75-.4,8.58-.05,.62-.1,1.23-.16,1.83-4.96,54.14-41.28,99.21-90.64,116.93-.48,.18-.96,.34-1.44,.51-.2,.08-.42,.15-.65,.22-2.04,.72-4.12,1.36-6.2,1.96-1.81,.52-3.62,1.01-5.46,1.44-.27,.09-.54,.16-.81,.21-1.76,.43-3.53,.82-5.32,1.16-.69,.12-1.38,.27-2.07,.39-1.67,.3-3.33,.56-5.02,.81-.99,.06-1.86,.18-3.02,.4-1.28,.16-2.58,.29-3.89,.41-.64,.06-1.31,.13-1.96,.16-.65,.06-1.29,.11-1.96,.14-.66,.05-1.37,.08-2.04,.12-1.97,.1-3.92,.16-5.91,.16-.28,0-.56,0-.86,0h0c-3.03,0-6.04-.1-9.04-.31h0c-.68-.05-1.36-.08-2.02-.14-.65-.05-1.3-.09-1.93-.16-1.28-.12-2.55-.27-3.83-.44-1.09-.1-1.75-.17-2.74-.35-1.7-.24-3.36-.49-5.03-.81-.69-.12-1.38-.24-2.06-.39-1.81-.34-3.57-.72-5.35-1.15-.27-.06-.54-.13-.81-.2-1.82-.44-3.63-.94-5.43-1.46h-.02c-2.09-.6-4.15-1.24-6.19-1.94h-.03c-.19-.08-.43-.14-.62-.24h0c-.48-.15-.96-.3-1.43-.5h-.02c-49.31-17.71-85.62-62.71-90.63-116.83-.06-.61-.11-1.22-.16-1.84-.29-3.64-.44-7.32-.44-11.04,0-3.52,.14-7.02,.41-10.48,.04-.61,.09-1.22,.14-1.83,0-.06,0-.13,.02-.19,.05-.49,.1-.98,.14-1.47h0C15.86,83.19,41.3,45.11,77.65,23.28c2.42-1.47,4.87-2.84,7.41-4.15,1.06-.54,2.12-1.07,3.17-1.59,3.2-1.56,6.45-3,9.78-4.3,5.83-2.29,11.86-4.2,18.07-5.7l-1.18-2.05-1.3-2.23c-5.94,1.5-11.72,3.35-17.34,5.57-3.44,1.34-6.8,2.83-10.11,4.45-1.1,.54-2.19,1.09-3.27,1.64-2.63,1.35-5.17,2.77-7.68,4.3C37.61,41.79,11.29,81.2,6.67,127.02v.02c-.04,.51-.08,1.01-.13,1.51,0,.04,0,.09,0,.13-.06,.61-.11,1.22-.15,1.83-.29,3.62-.44,7.29-.44,10.97,0,3.89,.16,7.74,.47,11.54,.04,.62,.09,1.23,.16,1.83,5.2,55.95,42.76,102.5,93.74,120.82h.02c.49,.19,.99,.35,1.48,.51h.02c.19,.09,.44,.16,.63,.25h.03c2.11,.72,4.26,1.39,6.41,2h0c1.88,.53,3.75,1.06,5.64,1.51,.27,.08,.55,.15,.82,.21,1.84,.44,3.66,.83,5.53,1.19,.72,.15,1.43,.28,2.15,.41,1.73,.32,3.43,.58,5.19,.83,1.04,.19,1.72,.26,2.83,.37,1.33,.17,2.64,.32,3.97,.44,.65,.08,1.33,.12,2,.17,.68,.06,1.39,.09,2.09,.15h0c3.1,.21,6.22,.32,9.35,.32h0c.31,0,.6,0,.88,0,2.06,0,4.08-.07,6.12-.16,.69-.05,1.43-.08,2.1-.14,.71-.03,1.37-.08,2.04-.14,.68-.03,1.36-.1,2.03-.16,1.35-.12,2.69-.26,4.03-.44,1.2-.21,2.1-.34,3.12-.4,1.75-.26,3.46-.53,5.19-.83,.72-.14,1.43-.28,2.14-.41,1.85-.36,3.69-.76,5.5-1.2,.29-.05,.57-.12,.85-.21,1.9-.46,3.77-.97,5.64-1.5,2.15-.61,4.3-1.28,6.42-2.01,.23-.08,.46-.14,.67-.23,.5-.17,.99-.35,1.49-.53,51.06-18.32,88.6-64.92,93.74-120.91,.06-.61,.12-1.22,.16-1.83,.27-3.37,.42-6.77,.45-10.2v-.12c.02-.37,.02-.72,.02-1.11,0-3.65-.14-7.28-.42-10.86Z"
               id="path32" />
            <g
               id="g34">
              <path
                 class="cls-21"
                 d="M275.95,137.87c-.02-.69-.05-1.38-.07-2.06-.06-1.23-.14-2.44-.23-3.66-.04-.62-.09-1.23-.16-1.84-2.41-27.23-13.39-52.01-30.22-71.61-.73-.9-1.49-1.76-2.27-2.6-12.72-14.05-28.52-25.27-46.35-32.56-1.32-.55-2.65-1.08-4-1.57-1.34-.51-2.68-.97-4.04-1.43-.68-.22-1.37-.47-2.07-.68-.9-.29-1.83-.54-2.73-.82-.93-.26-1.86-.53-2.79-.77-.87-.24-1.76-.46-2.62-.68-.11-.02-.24-.05-.33-.07-.57-.14-1.13-.27-1.69-.4l-.24,.42-3.37,5.85-.13,.21c.36,.07,.72,.14,1.07,.22,.12,.02,.25,.05,.39,.09,.77,.15,1.53,.34,2.3,.52,.1,.03,.21,.05,.32,.06,.82,.22,1.66,.43,2.47,.65,.89,.23,1.77,.49,2.63,.72,.86,.27,1.75,.51,2.59,.79,.66,.2,1.3,.42,1.95,.63,1.29,.44,2.56,.87,3.81,1.36,1.28,.47,2.54,.96,3.78,1.48,16.84,6.88,31.77,17.47,43.77,30.75,.74,.8,1.45,1.62,2.15,2.44,15.9,18.54,26.27,41.96,28.55,67.7,.06,.61,.11,1.23,.14,1.84,.23,2.95,.34,5.93,.34,8.93,0,.31,0,.61,0,.93v.1c-.02,2.65-.13,5.29-.32,7.9-.04,.61-.09,1.22-.15,1.83-4.19,47.6-36.07,87.25-79.42,102.81-.42,.17-.84,.31-1.26,.46-.19,.06-.38,.13-.57,.19-1.8,.62-3.6,1.18-5.44,1.71-1.57,.46-3.16,.89-4.77,1.26-.24,.08-.47,.14-.72,.18-1.53,.38-3.09,.71-4.65,1.02-.6,.12-1.2,.24-1.81,.34-1.47,.26-2.92,.5-4.41,.71-.86,.05-1.63,.17-2.63,.34-1.12,.15-2.27,.27-3.4,.37-.57,.06-1.15,.11-1.71,.14-.58,.06-1.15,.1-1.73,.13-.6,.03-1.2,.07-1.79,.1-1.72,.07-3.43,.13-5.17,.13-.25,0-.5,0-.75,0h0c-2.67,0-5.29-.09-7.91-.26h-.02c-.6-.04-1.18-.07-1.76-.13-.58-.04-1.15-.08-1.7-.14-1.13-.09-2.25-.23-3.36-.37-.95-.1-1.52-.15-2.39-.32-1.49-.19-2.94-.43-4.4-.71-.6-.09-1.21-.2-1.81-.34-1.58-.31-3.13-.63-4.67-1-.25-.06-.48-.12-.71-.19-1.61-.37-3.19-.81-4.77-1.27h0c-1.84-.53-3.64-1.09-5.43-1.69h0c-.19-.07-.39-.14-.55-.21h0c-.43-.14-.84-.28-1.26-.44h0c-43.3-15.54-75.15-55.13-79.41-102.68-.06-.61-.11-1.22-.14-1.83-.24-2.99-.35-6.02-.35-9.08s.12-6.08,.35-9.08c.04-.62,.09-1.23,.15-1.84v-.04c.05-.43,.08-.86,.12-1.29h0c3.92-38.81,26.19-72.18,58.03-91.27,2.12-1.29,4.28-2.49,6.5-3.64,.91-.48,1.84-.94,2.78-1.4,2.79-1.37,5.63-2.61,8.55-3.76,6.77-2.66,13.86-4.74,21.18-6.14l-.1-.17-3.4-5.9-.25-.42c-6.9,1.46-13.6,3.48-20.04,6.01-3.08,1.21-6.11,2.54-9.06,3.99-.99,.48-1.97,.97-2.94,1.47-2.35,1.21-4.63,2.48-6.87,3.85-33.71,20.24-57.3,55.56-61.44,96.65h0c-.05,.47-.08,.91-.13,1.36h0c-.06,.62-.11,1.23-.15,1.84-.08,1.03-.15,2.05-.19,3.09-.04,.59-.07,1.19-.08,1.79-.07,1.63-.1,3.26-.1,4.9v.42c0,1.24,.03,2.46,.07,3.68,0,.27,0,.54,.02,.8,.02,.6,.05,1.19,.09,1.78,.05,1.04,.11,2.07,.19,3.1,.05,.62,.1,1.23,.16,1.84,4.53,50.31,38.23,92.2,84.07,108.66h0c.44,.18,.88,.33,1.32,.47h0c.19,.08,.4,.15,.59,.22h.02c1.89,.64,3.8,1.24,5.74,1.79,0,.02,0,0,0,0,1.68,.49,3.35,.95,5.05,1.36,.24,.07,.5,.13,.74,.18,1.65,.4,3.28,.75,4.96,1.07,.64,.14,1.28,.26,1.91,.36,1.55,.29,3.09,.54,4.67,.75,.93,.18,1.53,.24,2.53,.33,1.19,.16,2.36,.29,3.56,.4,.58,.07,1.19,.1,1.79,.15,.62,.06,1.24,.09,1.87,.14h0c2.78,.19,5.57,.28,8.39,.28h0c.27,0,.53,0,.79,0,1.84,0,3.65-.06,5.47-.14,.63-.04,1.28-.07,1.9-.12,.62-.02,1.22-.07,1.82-.13,.61-.03,1.22-.09,1.82-.15,1.21-.1,2.42-.23,3.61-.38,1.07-.19,1.89-.31,2.79-.37,1.57-.22,3.11-.47,4.66-.75,.65-.11,1.27-.24,1.91-.36,1.67-.32,3.32-.68,4.94-1.08,.25-.04,.5-.1,.76-.18,1.7-.41,3.38-.86,5.06-1.35,1.93-.55,3.85-1.15,5.75-1.8,.2-.07,.41-.14,.6-.21,.45-.15,.89-.32,1.33-.48,45.9-16.47,79.63-58.42,84.09-108.81,.06-.6,.11-1.22,.15-1.83,.1-1.22,.17-2.44,.23-3.67,.03-.69,.06-1.37,.07-2.05,.03-.94,.05-1.88,.06-2.81v-.11c0-.33,0-.65,0-.98,0-1.31-.02-2.6-.06-3.9Z"
                 id="path33" />
              <path
                 class="cls-31"
                 d="M268.86,132.81c-.04-.62-.09-1.23-.15-1.84-2.12-23.96-11.24-45.92-25.31-63.81-.2-.27-.42-.55-.64-.83-17.29-21.62-41.86-37.17-70-42.94l-.13,.21-2.37,4.13-.84,1.44c28.18,5.24,52.7,20.79,69.56,42.58,.25,.31,.48,.62,.72,.92,12.63,16.65,20.79,36.89,22.73,58.9,.3,3.35,.45,6.75,.45,10.18s-.15,6.84-.45,10.19c-4.66,52.85-45.22,95.39-97.12,103.11-1.91,.28-3.84,.52-5.78,.7-.51,.06-1.02,.1-1.52,.14h-.02c-1.49,.14-2.98,.22-4.48,.3-1.36,.05-2.74,.1-4.12,.1-.35,0-.72,0-1.08,0-.42,0-.84,0-1.25,0-1.39,0-2.75-.05-4.11-.12-1.5-.06-2.99-.16-4.48-.29h-.02c-.51-.04-1.01-.09-1.52-.15-1.94-.17-3.85-.42-5.76-.71-51.8-7.77-92.26-50.21-96.98-102.95-.05-.61-.1-1.22-.14-1.84-.22-2.8-.32-5.64-.32-8.49,0-2.14,.08-4.28,.18-6.4,0-.33,.04-.66,.06-.99,.02-.36,.05-.72,.08-1.08,.04-.62,.09-1.24,.14-1.85,4.62-51.79,43.74-93.68,94.24-102.49l-.86-1.49-2.39-4.15-.1-.17c-52.16,10.15-92.34,53.84-97.15,107.7-.07,.58-.12,1.16-.16,1.74,0,.03,0,.06,0,.1-.02,.3-.04,.61-.05,.92-.19,2.7-.28,5.42-.28,8.16,0,3.06,.11,6.09,.34,9.1,.04,.61,.09,1.22,.15,1.83,4.7,52.5,42.97,95.34,93.22,106.87,.87,.2,1.75,.39,2.62,.58h.02s.1,.02,.16,.03c.64,.13,1.28,.26,1.92,.37,.23,.06,.48,.1,.73,.14,.32,.06,.64,.12,.96,.16,1.56,.28,3.12,.53,4.71,.73h0c.41,.06,.81,.12,1.23,.16h0c1.17,.15,2.34,.28,3.52,.38,1.38,.13,2.78,.23,4.2,.31,.65,.05,1.31,.08,1.96,.1,.75,.04,1.49,.06,2.23,.07,.5,.02,.98,.03,1.47,.03,.44,0,.88,0,1.31,0h.12c1.05,0,2.08,0,3.12-.04,.09,0,.16,0,.26,0h.02c.49,0,.99-.02,1.48-.06,.69-.02,1.36-.05,2.03-.09,1.41-.07,2.81-.17,4.21-.31,1.18-.1,2.35-.23,3.52-.37,.42-.05,.83-.09,1.24-.16h0c1.59-.19,3.15-.44,4.71-.72,.32-.04,.64-.1,.96-.16,.23-.04,.48-.09,.73-.14,.67-.11,1.31-.24,1.96-.38h.02c.07,0,.13-.02,.19-.03h0c.88-.19,1.77-.38,2.62-.58h0c50.31-11.52,88.66-54.43,93.32-107.02,.05-.61,.1-1.22,.14-1.83,.22-2.96,.33-5.96,.33-8.97s-.11-5.99-.33-8.95Z"
                 id="path34" />
            </g>
            <g
               id="g36">
              <path
                 class="cls-22"
                 d="M297.13,155.44c1.15-9.08,1.15-18.28,0-27.37-12.16,1.3-24.34,2.52-36.53,3.67,.67,6.66,.67,13.36,0,20.02,12.2,1.15,24.38,2.38,36.53,3.67Zm-3.93,18.23c1.25-4.08,2.26-8.21,3.03-12.38-12.01-1.84-24.06-3.59-36.15-5.24-.44,3.06-1.02,6.1-1.75,9.12,11.73,2.68,23.36,5.51,34.87,8.49Zm0-63.82c-11.51,2.98-23.14,5.81-34.87,8.49,.73,3.02,1.31,6.06,1.75,9.12,12.09-1.65,24.14-3.39,36.15-5.23-.76-4.17-1.77-8.3-3.03-12.38Z"
                 id="path35" />
              <path
                 class="cls-11"
                 d="M291.94,112.07c.82,2.84,1.53,5.72,2.11,8.62-10.76,1.64-21.66,3.22-32.44,4.7-.31-1.89-.67-3.79-1.09-5.67,10.5-2.41,21.06-4.98,31.41-7.65Zm-30.32,46.06c10.78,1.48,21.68,3.05,32.44,4.7-.59,2.9-1.29,5.79-2.11,8.62-10.36-2.67-20.91-5.23-31.41-7.65,.41-1.88,.78-3.78,1.09-5.67Zm33.9-28.03c.43,3.87,.64,7.78,.64,11.66s-.21,7.8-.64,11.66c-10.87-1.15-21.93-2.27-32.92-3.31,.23-2.77,.34-5.58,.34-8.35s-.11-5.58-.34-8.35c10.99-1.05,22.05-2.16,32.92-3.31Z"
                 id="path36" />
            </g>
            <g
               id="g39">
              <path
                 class="cls-10"
                 d="M279.55,148.78c-3.87,0-7.02-3.15-7.02-7.02s3.15-7.01,7.02-7.01,7.02,3.15,7.02,7.01-3.15,7.02-7.02,7.02Z"
                 id="path37" />
              <path
                 class="cls-32"
                 d="M284.86,141.76c0,2.94-2.38,5.32-5.32,5.32s-5.32-2.38-5.32-5.32,2.38-5.32,5.32-5.32,5.32,2.38,5.32,5.32Z"
                 id="path38" />
              <path
                 class="cls-13"
                 d="M282.92,139.48c0,1.27-1.51,2.3-3.38,2.3s-3.38-1.03-3.38-2.3,1.51-2.3,3.38-2.3,3.38,1.03,3.38,2.3Z"
                 id="path39" />
            </g>
            <g
               id="g41">
              <path
                 class="cls-6"
                 d="M.87,128.08c-1.15,9.08-1.15,18.28,0,27.37,12.16-1.3,24.34-2.52,36.53-3.67-.67-6.66-.67-13.36,0-20.02-12.2-1.15-24.38-2.38-36.53-3.67Zm3.93-18.23c-1.25,4.08-2.26,8.21-3.03,12.38,12.01,1.84,24.06,3.59,36.15,5.24,.44-3.06,1.02-6.1,1.75-9.12-11.73-2.68-23.36-5.51-34.87-8.49Zm0,63.82c11.51-2.98,23.14-5.81,34.87-8.49-.73-3.02-1.31-6.06-1.75-9.12-12.09,1.65-24.14,3.39-36.15,5.23,.76,4.17,1.77,8.3,3.03,12.38Z"
                 id="path40" />
              <path
                 class="cls-3"
                 d="M6.06,171.45c-.82-2.84-1.53-5.72-2.11-8.62,10.76-1.64,21.66-3.22,32.44-4.7,.31,1.89,.67,3.79,1.09,5.67-10.5,2.41-21.06,4.98-31.41,7.65Zm30.32-46.06c-10.78-1.48-21.68-3.05-32.44-4.7,.59-2.9,1.29-5.79,2.11-8.62,10.36,2.67,20.91,5.23,31.41,7.65-.41,1.88-.78,3.78-1.09,5.67ZM2.48,153.43c-.43-3.87-.64-7.78-.64-11.66s.21-7.8,.64-11.66c10.87,1.15,21.93,2.27,32.92,3.31-.23,2.77-.34,5.58-.34,8.35s.11,5.58,.34,8.35c-10.99,1.05-22.05,2.16-32.92,3.31Z"
                 id="path41" />
            </g>
            <g
               id="g44">
              <path
                 class="cls-15"
                 d="M18.46,134.75c3.87,0,7.02,3.15,7.02,7.02s-3.15,7.01-7.02,7.01-7.02-3.15-7.02-7.01,3.15-7.02,7.02-7.02Z"
                 id="path42" />
              <path
                 class="cls-2"
                 d="M13.14,141.76c0-2.94,2.38-5.32,5.32-5.32s5.32,2.38,5.32,5.32-2.38,5.32-5.32,5.32-5.32-2.38-5.32-5.32Z"
                 id="path43" />
              <path
                 class="cls-12"
                 d="M15.08,144.04c0-1.27,1.51-2.3,3.38-2.3s3.38,1.03,3.38,2.3-1.51,2.3-3.38,2.3-3.38-1.03-3.38-2.3Z"
                 id="path44" />
            </g>
            <polygon
               class="cls-29"
               points="113.61 3.26 134.11 38.75 119.2 1.93 113.61 3.26"
               id="polygon44" />
            <polygon
               class="cls-7"
               points="184.24 3.51 163.76 38.97 179.88 1.93 184.24 3.51"
               id="polygon45" />
            <g
               id="g49">
              <g
                 id="g48">
                <path
                   class="cls-17"
                   d="M166.95,1.24l-8.52,10.67-4.18,5.21-5.24,6.55v.02s-.02,0-.02,0l-5.6-7.47-4.44-5.94-7.01-9.37c.64-.08,1.27-.15,1.91-.21,.38-.04,.76-.07,1.15-.11,.06,0,.12,0,.18-.02,.23-.02,.46-.04,.7-.06,.44-.04,.88-.07,1.32-.11,.04,0,.08,0,.12,0h0c.09,0,.17,0,.26-.02,.23,0,.46-.03,.69-.04,.67-.05,1.35-.1,2.02-.13,.47-.03,.94-.05,1.42-.07,1.31-.06,2.62-.1,3.94-.13,.43,0,.86,0,1.3,0,.43,0,.86,0,1.29,0h.15c.64,0,1.29,0,1.93,.02h.31c.88,0,1.75,.03,2.62,.07,.9,.03,1.8,.07,2.68,.12,.12,0,.23,0,.35,.02,.47,.02,.93,.05,1.4,.08,.67,.05,1.35,.09,2.02,.15,.07,0,.13,0,.2,0,.16,0,.32,.03,.48,.04,.09,0,.18,0,.27,.02,.04,0,.08,0,.12,0,.67,.06,1.36,.13,2.03,.19,.02,0,.05,0,.07,0,.03,0,.07,0,.1,0,.68,.08,1.35,.15,2.02,.23,.51,.06,1.02,.12,1.52,.19h.02c.15,.02,.31,.04,.46,.07Z"
                   id="path45" />
                <path
                   class="cls-23"
                   d="M168.04,1.39l-19.05,38.08L130.58,1.09c.19-.02,.38-.05,.57-.07,.26-.03,.53-.06,.79-.09,.64-.08,1.27-.15,1.91-.21,.38-.04,.76-.07,1.15-.11,.06,0,.12,0,.18-.02,.23-.02,.46-.04,.7-.06l3.45,4.63,2.97,3.99,1.98,2.62,.16,.22,4.56,6.09,6.1-7.64,2.99-3.74,4.61-5.78,.15-.19s.07,0,.1,0c.68,.08,1.35,.15,2.02,.23,.51,.06,1.02,.12,1.52,.19h.02c.15,.02,.31,.04,.46,.07,.37,.04,.73,.09,1.09,.15Z"
                   id="path46" />
                <path
                   class="cls-27"
                   d="M162.77,.73l-.08,.2-4.26,10.98-9.43,24.18-10.05-25.8-3.78-9.71c.23-.02,.46-.04,.7-.06,.44-.04,.88-.07,1.32-.11,.04,0,.08,0,.12,0h0c.09,0,.17,0,.26-.02,.23,0,.46-.03,.69-.04,.67-.05,1.35-.1,2.02-.13,.47-.03,.94-.05,1.42-.07,1.31-.06,2.62-.1,3.94-.13,.43,0,.86,0,1.3,0,.43,0,.86,0,1.29,0h.15c.64,0,1.29,0,1.93,.02h.31c.88,0,1.75,.03,2.62,.07,.9,.03,1.8,.07,2.68,.12,.12,0,.23,0,.35,.02,.47,.02,.93,.05,1.4,.08,.67,.05,1.35,.09,2.02,.15,.07,0,.13,0,.2,0,.16,0,.32,.03,.48,.04,.09,0,.18,0,.27,.02,.04,0,.08,0,.12,0,.67,.06,1.36,.13,2.03,.19Z"
                   id="path47" />
                <path
                   class="cls-28"
                   d="M157.94,3.34c-.06,0-.11,0-.16,0-.55-.05-1.11-.08-1.66-.12-.39-.02-.76-.05-1.15-.07-.1,0-.19-.02-.29-.02-.73-.04-1.47-.07-2.21-.1-.72-.03-1.44-.05-2.16-.06h-.25c-.53,0-1.06-.02-1.58-.02h-.12c-.35,0-.71,0-1.06,0-.36,0-.71,0-1.07,0-1.08,.02-2.17,.06-3.24,.11-.39,.02-.78,.03-1.17,.06-.55,.02-1.11,.07-1.66,.11-.19,0-.38,.02-.57,.03l1.44,3.92,3.35,9.11,4.6,12.51,4.32-11.78,3.15-8.56,1.87-5.09c-.13,0-.26-.02-.39-.03Z"
                   id="path48" />
              </g>
              <path
                 class="cls-26"
                 d="M153.52,6.79s-.05,0-.08,0c-.28-.02-.56-.04-.84-.06-.2-.01-.39-.03-.58-.03-.05,0-.1,0-.15,0-.37-.02-.75-.04-1.12-.05-.37-.02-.73-.02-1.1-.03h-.13c-.27,0-.54,0-.8,0h-.06c-.18,0-.36,0-.54,0-.18,0-.36,0-.54,0-.55,.01-1.1,.03-1.65,.05-.2,0-.4,.02-.59,.03-.28,.01-.56,.03-.84,.05-.1,0-.19,.01-.29,.02l.73,1.99,1.7,4.62,2.34,6.35,2.2-5.98,1.6-4.35,.95-2.59c-.07,0-.13-.01-.2-.02Z"
                 id="path49" />
            </g>
          </g>
        </g>
      </g>
    </g>
  </g>
</svg>
