<?xml version="1.0" encoding="UTF-8" standalone="no"?>
<svg
   viewBox="0 0 290 300"
   version="1.1"
   id="svg5406"
   sodipodi:docname="8-Jade.svg"
   inkscape:version="1.4 (86a8ad7, 2024-10-11)"
   xmlns:inkscape="http://www.inkscape.org/namespaces/inkscape"
   xmlns:sodipodi="http://sodipodi.sourceforge.net/DTD/sodipodi-0.dtd"
   xmlns:xlink="http://www.w3.org/1999/xlink"
   xmlns="http://www.w3.org/2000/svg"
   xmlns:svg="http://www.w3.org/2000/svg">
  <sodipodi:namedview
     id="namedview5406"
     pagecolor="#505050"
     bordercolor="#ffffff"
     borderopacity="1"
     inkscape:showpageshadow="0"
     inkscape:pageopacity="0"
     inkscape:pagecheckerboard="1"
     inkscape:deskcolor="#505050"
     inkscape:zoom="2.85"
     inkscape:cx="145.08772"
     inkscape:cy="150"
     inkscape:window-width="1920"
     inkscape:window-height="1057"
     inkscape:window-x="1912"
     inkscape:window-y="-8"
     inkscape:window-maximized="1"
     inkscape:current-layer="g5405" />
  <defs
     id="defs81">
    <style
       id="style1">
      .cls-1 {
        fill: #867878;
        mix-blend-mode: color-burn;
        opacity: .15;
      }

      .cls-2 {
        fill: url(#linear-gradient-31);
      }

      .cls-2, .cls-3, .cls-4, .cls-5, .cls-6 {
        mix-blend-mode: multiply;
      }

      .cls-7 {
        fill: url(#linear-gradient-2);
      }

      .cls-8 {
        fill: url(#linear-gradient-12);
      }

      .cls-8, .cls-9, .cls-10, .cls-11, .cls-12, .cls-13, .cls-14, .cls-15 {
        fill-rule: evenodd;
      }

      .cls-16 {
        fill: #66bf6e;
      }

      .cls-17 {
        fill: url(#linear-gradient-15);
      }

      .cls-3, .cls-18, .cls-19, .cls-20 {
        opacity: .2;
      }

      .cls-21 {
        fill: url(#linear-gradient-36);
      }

      .cls-22 {
        mask: url(#mask-2);
      }

      .cls-23 {
        fill: url(#linear-gradient-20);
      }

      .cls-18 {
        fill: url(#linear-gradient-18);
      }

      .cls-18, .cls-24, .cls-25, .cls-19, .cls-20, .cls-26, .cls-27, .cls-28 {
        mix-blend-mode: screen;
      }

      .cls-29 {
        isolation: isolate;
      }

      .cls-30 {
        fill: #0a4d30;
      }

      .cls-31 {
        fill: url(#linear-gradient-35);
      }

      .cls-32 {
        mask: url(#mask-3);
      }

      .cls-4 {
        fill: url(#linear-gradient-28);
      }

      .cls-33 {
        fill: url(#linear-gradient-32);
      }

      .cls-24 {
        fill: url(#linear-gradient-34);
      }

      .cls-9 {
        fill: url(#linear-gradient-9);
      }

      .cls-34 {
        fill: #00351a;
      }

      .cls-25 {
        fill: url(#linear-gradient-37);
      }

      .cls-10 {
        fill: url(#linear-gradient-6);
      }

      .cls-35 {
        fill: url(#radial-gradient);
      }

      .cls-36 {
        mask: url(#mask-5);
      }

      .cls-37 {
        fill: #73594e;
        opacity: .3;
      }

      .cls-38 {
        fill: url(#linear-gradient-16);
      }

      .cls-5 {
        fill: url(#linear-gradient-25);
      }

      .cls-11 {
        fill: url(#linear-gradient-5);
      }

      .cls-19 {
        fill: url(#linear-gradient-17);
      }

      .cls-20 {
        fill: url(#linear-gradient-13);
      }

      .cls-6, .cls-39 {
        opacity: .35;
      }

      .cls-12 {
        fill: url(#linear-gradient-10);
      }

      .cls-40 {
        filter: url(#luminosity-noclip-4);
      }

      .cls-41 {
        filter: url(#luminosity-noclip-6);
      }

      .cls-13 {
        fill: url(#linear-gradient-11);
      }

      .cls-42 {
        mask: url(#mask-4);
      }

      .cls-43 {
        clip-path: url(#clippath);
      }

      .cls-44 {
        fill: url(#radial-gradient-2);
      }

      .cls-45 {
        fill: none;
      }

      .cls-46 {
        fill: #93d897;
      }

      .cls-47 {
        fill: url(#linear-gradient-22);
      }

      .cls-48 {
        filter: url(#luminosity-noclip-2);
      }

      .cls-49 {
        mask: url(#mask-1);
      }

      .cls-50 {
        mask: url(#mask);
      }

      .cls-51 {
        fill: url(#linear-gradient-3);
      }

      .cls-52 {
        fill: url(#linear-gradient);
      }

      .cls-53 {
        fill: url(#linear-gradient-27);
      }

      .cls-26 {
        fill: url(#linear-gradient-21);
      }

      .cls-26, .cls-27, .cls-28 {
        opacity: .6;
      }

      .cls-54 {
        fill: url(#linear-gradient-33);
      }

      .cls-55 {
        fill: #3da572;
      }

      .cls-56 {
        fill: url(#linear-gradient-29);
      }

      .cls-57 {
        fill: url(#linear-gradient-30);
      }

      .cls-14 {
        fill: url(#linear-gradient-7);
      }

      .cls-15 {
        fill: url(#linear-gradient-8);
      }

      .cls-58 {
        fill: url(#linear-gradient-23);
      }

      .cls-59 {
        fill: url(#linear-gradient-19);
      }

      .cls-60 {
        fill: url(#linear-gradient-4);
      }

      .cls-27 {
        fill: url(#linear-gradient-24);
      }

      .cls-28 {
        fill: url(#linear-gradient-14);
      }

      .cls-39 {
        fill: #9f8861;
      }

      .cls-61 {
        fill: url(#linear-gradient-26);
      }
    </style>
    <linearGradient
       id="linear-gradient"
       x1="144.74"
       y1="272.9"
       x2="144.74"
       y2="43.81"
       gradientUnits="userSpaceOnUse">
      <stop
         offset=".02"
         stop-color="#214923"
         id="stop1" />
      <stop
         offset=".2"
         stop-color="#245035"
         id="stop2" />
      <stop
         offset=".52"
         stop-color="#2b605f"
         id="stop3" />
      <stop
         offset=".68"
         stop-color="#21aa6b"
         id="stop4" />
      <stop
         offset=".82"
         stop-color="#19e875"
         id="stop5" />
      <stop
         offset="1"
         stop-color="#2b605f"
         id="stop6" />
    </linearGradient>
    <linearGradient
       id="linear-gradient-2"
       x1="145.06"
       y1="259.9"
       x2="138.61"
       y2="148.57"
       xlink:href="#linear-gradient" />
    <linearGradient
       id="linear-gradient-3"
       x1="151.26"
       y1="157.92"
       x2="144.98"
       y2="49.57"
       xlink:href="#linear-gradient" />
    <linearGradient
       id="linear-gradient-4"
       x1="150.97"
       y1="257.64"
       x2="139.27"
       y2="55.69"
       xlink:href="#linear-gradient" />
    <linearGradient
       id="linear-gradient-5"
       x1="1819.35"
       y1="1765.91"
       x2="1906.18"
       y2="1765.91"
       gradientTransform="translate(-2168.29 -1189.21) rotate(-15.02)"
       xlink:href="#linear-gradient" />
    <linearGradient
       id="linear-gradient-6"
       x1="1828.92"
       y1="1789.4"
       x2="1889.22"
       y2="1758.43"
       gradientTransform="translate(-2168.29 -1189.21) rotate(-15.02)"
       gradientUnits="userSpaceOnUse">
      <stop
         offset=".02"
         stop-color="#434944"
         id="stop7" />
      <stop
         offset=".37"
         stop-color="#515856"
         id="stop8" />
      <stop
         offset=".52"
         stop-color="#586060"
         id="stop9" />
      <stop
         offset=".79"
         stop-color="#76aa8f"
         id="stop10" />
      <stop
         offset="1"
         stop-color="#90e8b7"
         id="stop11" />
    </linearGradient>
    <linearGradient
       id="linear-gradient-7"
       x1="-2444.38"
       y1="621.91"
       x2="-2357.56"
       y2="621.91"
       gradientTransform="translate(-1957.21 -1189.21) rotate(-164.98) scale(1 -1)"
       xlink:href="#linear-gradient" />
    <linearGradient
       id="linear-gradient-8"
       x1="-2434.81"
       y1="645.4"
       x2="-2374.51"
       y2="614.42"
       gradientTransform="translate(-1957.21 -1189.21) rotate(-164.98) scale(1 -1)"
       xlink:href="#linear-gradient-6" />
    <linearGradient
       id="linear-gradient-9"
       x1="-2046.59"
       y1="821.02"
       x2="-1959.76"
       y2="821.02"
       gradientTransform="translate(-1521.4 1578.44) rotate(164.98)"
       xlink:href="#linear-gradient" />
    <linearGradient
       id="linear-gradient-10"
       x1="-2037.01"
       y1="844.51"
       x2="-1976.71"
       y2="813.54"
       gradientTransform="translate(-1521.4 1578.44) rotate(164.98)"
       xlink:href="#linear-gradient-6" />
    <linearGradient
       id="linear-gradient-11"
       x1="1375.3"
       y1="1739.15"
       x2="1462.13"
       y2="1739.15"
       gradientTransform="translate(-1732.49 1578.44) rotate(15.02) scale(1 -1)"
       xlink:href="#linear-gradient" />
    <linearGradient
       id="linear-gradient-12"
       x1="1384.88"
       y1="1762.64"
       x2="1445.18"
       y2="1731.67"
       gradientTransform="translate(-1732.49 1578.44) rotate(15.02) scale(1 -1)"
       xlink:href="#linear-gradient-6" />
    <linearGradient
       id="linear-gradient-13"
       x1="128.94"
       y1="143.59"
       x2="128.94"
       y2="16.41"
       gradientUnits="userSpaceOnUse">
      <stop
         offset="0"
         stop-color="#e6e8e5"
         id="stop12" />
      <stop
         offset=".12"
         stop-color="#e1e3e0"
         id="stop13" />
      <stop
         offset=".25"
         stop-color="#d4d5d3"
         id="stop14" />
      <stop
         offset=".39"
         stop-color="#bfbebd"
         id="stop15" />
      <stop
         offset=".54"
         stop-color="#a19f9e"
         id="stop16" />
      <stop
         offset=".69"
         stop-color="#7b7677"
         id="stop17" />
      <stop
         offset=".84"
         stop-color="#4c4347"
         id="stop18" />
      <stop
         offset=".99"
         stop-color="#16090f"
         id="stop19" />
      <stop
         offset="1"
         stop-color="#14070d"
         id="stop20" />
    </linearGradient>
    <linearGradient
       id="linear-gradient-14"
       x1="55.26"
       y1="35.47"
       x2="233.97"
       y2="35.47"
       xlink:href="#linear-gradient-13" />
    <linearGradient
       id="linear-gradient-15"
       x1="144.83"
       y1="67.59"
       x2="144.83"
       y2="393.67"
       gradientUnits="userSpaceOnUse">
      <stop
         offset=".1"
         stop-color="#e4e8e2"
         id="stop21" />
      <stop
         offset=".9"
         stop-color="#8a867f"
         id="stop22" />
    </linearGradient>
    <linearGradient
       id="linear-gradient-16"
       x1="81.61"
       y1="216.67"
       x2="206.36"
       y2="85.15"
       gradientUnits="userSpaceOnUse">
      <stop
         offset=".16"
         stop-color="#b6b4a6"
         id="stop23" />
      <stop
         offset=".45"
         stop-color="#8a846a"
         id="stop24" />
      <stop
         offset="1"
         stop-color="#53524b"
         id="stop25" />
    </linearGradient>
    <linearGradient
       id="linear-gradient-17"
       x1="89.11"
       y1="59.72"
       x2="31.79"
       y2="59.72"
       xlink:href="#linear-gradient-13" />
    <linearGradient
       id="linear-gradient-18"
       x1="174.42"
       y1="47.46"
       x2="242.72"
       y2="47.46"
       xlink:href="#linear-gradient-13" />
    <linearGradient
       id="linear-gradient-19"
       x1="210.01"
       y1="154.47"
       x2="291.67"
       y2="149.37"
       xlink:href="#linear-gradient" />
    <linearGradient
       id="linear-gradient-20"
       x1="269.72"
       y1="156.58"
       x2="269.72"
       y2="143.69"
       gradientUnits="userSpaceOnUse">
      <stop
         offset="0"
         stop-color="#8eead0"
         id="stop26" />
      <stop
         offset=".15"
         stop-color="#8ce7ce"
         id="stop27" />
      <stop
         offset=".23"
         stop-color="#86dfc9"
         id="stop28" />
      <stop
         offset=".31"
         stop-color="#7bd0c2"
         id="stop29" />
      <stop
         offset=".37"
         stop-color="#6dbcb6"
         id="stop30" />
      <stop
         offset=".4"
         stop-color="#64b0b0"
         id="stop31" />
      <stop
         offset=".4"
         stop-color="#63afaf"
         id="stop32" />
      <stop
         offset=".55"
         stop-color="#4a907e"
         id="stop33" />
      <stop
         offset=".68"
         stop-color="#377857"
         id="stop34" />
      <stop
         offset=".81"
         stop-color="#29673b"
         id="stop35" />
      <stop
         offset=".92"
         stop-color="#205c2a"
         id="stop36" />
      <stop
         offset="1"
         stop-color="#1e5925"
         id="stop37" />
    </linearGradient>
    <radialGradient
       id="radial-gradient"
       cx="269.7"
       cy="150.86"
       fx="269.7"
       fy="150.86"
       r="10.71"
       gradientTransform="translate(.08 .24)"
       gradientUnits="userSpaceOnUse">
      <stop
         offset="0"
         stop-color="#44ffa2"
         id="stop38" />
      <stop
         offset=".21"
         stop-color="#40c665"
         id="stop39" />
      <stop
         offset=".48"
         stop-color="#3d811b"
         id="stop40" />
      <stop
         offset=".53"
         stop-color="#3d7e1c"
         id="stop41" />
      <stop
         offset=".98"
         stop-color="#436c28"
         id="stop42" />
    </radialGradient>
    <linearGradient
       id="linear-gradient-21"
       x1="317.93"
       y1="123.34"
       x2="317.93"
       y2="131.86"
       gradientTransform="translate(-48.22 18.92)"
       gradientUnits="userSpaceOnUse">
      <stop
         offset="0"
         stop-color="#fff"
         id="stop43" />
      <stop
         offset=".11"
         stop-color="#ececec"
         id="stop44" />
      <stop
         offset=".32"
         stop-color="#bababa"
         id="stop45" />
      <stop
         offset=".62"
         stop-color="#6b6b6b"
         id="stop46" />
      <stop
         offset="1"
         stop-color="#000"
         id="stop47" />
    </linearGradient>
    <linearGradient
       id="linear-gradient-22"
       x1="63.63"
       y1="154.47"
       x2="145.28"
       y2="149.37"
       gradientTransform="translate(144.08 300) rotate(-180)"
       xlink:href="#linear-gradient" />
    <linearGradient
       id="linear-gradient-23"
       x1="123.34"
       y1="156.58"
       x2="123.34"
       y2="143.69"
       gradientTransform="translate(144.08 300) rotate(-180)"
       xlink:href="#linear-gradient-20" />
    <radialGradient
       id="radial-gradient-2"
       cx="123.32"
       cy="150.86"
       fx="123.32"
       fy="150.86"
       r="10.71"
       gradientTransform="translate(144.08 299.76) rotate(-180)"
       xlink:href="#radial-gradient" />
    <linearGradient
       id="linear-gradient-24"
       x1="171.55"
       y1="123.34"
       x2="171.55"
       y2="131.86"
       gradientTransform="translate(192.3 281.08) rotate(-180)"
       xlink:href="#linear-gradient-21" />
    <filter
       id="luminosity-noclip-2"
       data-name="luminosity-noclip"
       x="117.42"
       y="248.15"
       width="54.64"
       height="49.33"
       color-interpolation-filters="sRGB"
       filterUnits="userSpaceOnUse">
      <feFlood
         flood-color="#fff"
         result="bg"
         id="feFlood47" />
      <feBlend
         in="SourceGraphic"
         in2="bg"
         id="feBlend47" />
    </filter>
    <filter
       id="luminosity-noclip-3"
       x="6339.12"
       y="-8459.05"
       width="-32766"
       height="32766"
       color-interpolation-filters="sRGB"
       filterUnits="userSpaceOnUse">
      <feFlood
         flood-color="#fff"
         result="bg"
         id="feFlood48" />
      <feBlend
         in="SourceGraphic"
         in2="bg"
         id="feBlend48" />
    </filter>
    <mask
       id="mask-1"
       x="6339.12"
       y="-8459.05"
       width="-32766"
       height="32766"
       maskUnits="userSpaceOnUse" />
    <linearGradient
       id="linear-gradient-25"
       x1="-1670.58"
       y1="-1754.68"
       x2="-1622.61"
       y2="-1754.68"
       gradientTransform="translate(-1609.94 1919.04) rotate(90)"
       gradientUnits="userSpaceOnUse">
      <stop
         offset="0"
         stop-color="#fff"
         id="stop48" />
      <stop
         offset=".19"
         stop-color="#fff"
         id="stop49" />
      <stop
         offset=".35"
         stop-color="#fcfcfc"
         id="stop50" />
      <stop
         offset=".36"
         stop-color="#fcfcfc"
         id="stop51" />
      <stop
         offset=".4"
         stop-color="#fdfdfd"
         id="stop52" />
      <stop
         offset=".4"
         stop-color="#fff"
         id="stop53" />
      <stop
         offset="1"
         stop-color="#fff"
         id="stop54" />
    </linearGradient>
    <mask
       id="mask"
       x="117.42"
       y="248.15"
       width="54.64"
       height="49.33"
       maskUnits="userSpaceOnUse">
      <g
         class="cls-48"
         id="g55">
        <g
           class="cls-49"
           mask="url(#mask-1)"
           id="g54">
          <path
             class="cls-5"
             d="M117.42,266.66c0-1.97,1.11-3.71,2.89-4.55,11.64-5.46,22.05-12.31,23.44-13.96,.63,2.74,1.49,1.17,2.51,.31,1.03,1.28,10.78,7.97,22.91,13.65,1.78,.83,2.89,2.58,2.89,4.55,0,1.76-.9,3.35-2.4,4.26-6.32,3.85-19.13,18.53-23.88,26.56-.86-.23-1.1-.16-2.12-.08-4.44-7.44-17.77-22.78-23.86-26.48-1.5-.91-2.39-2.5-2.39-4.26h0Z"
             id="path54" />
        </g>
      </g>
    </mask>
    <linearGradient
       id="linear-gradient-26"
       x1="144.74"
       y1="244.07"
       x2="144.74"
       y2="297.03"
       xlink:href="#linear-gradient" />
    <linearGradient
       id="linear-gradient-27"
       x1="144.74"
       y1="299.13"
       x2="144.74"
       y2="261.43"
       xlink:href="#linear-gradient" />
    <filter
       id="luminosity-noclip-4"
       x="117.42"
       y="2.52"
       width="54.64"
       height="49.33"
       color-interpolation-filters="sRGB"
       filterUnits="userSpaceOnUse">
      <feFlood
         flood-color="#fff"
         result="bg"
         id="feFlood55" />
      <feBlend
         in="SourceGraphic"
         in2="bg"
         id="feBlend55" />
    </filter>
    <filter
       id="luminosity-noclip-5"
       x="6339.12"
       y="-8459.05"
       width="-32766"
       height="32766"
       color-interpolation-filters="sRGB"
       filterUnits="userSpaceOnUse">
      <feFlood
         flood-color="#fff"
         result="bg"
         id="feFlood56" />
      <feBlend
         in="SourceGraphic"
         in2="bg"
         id="feBlend56" />
    </filter>
    <mask
       id="mask-3"
       x="6339.12"
       y="-8459.05"
       width="-32766"
       height="32766"
       maskUnits="userSpaceOnUse" />
    <linearGradient
       id="linear-gradient-28"
       x1="-1757.62"
       y1="2063.78"
       x2="-1709.66"
       y2="2063.78"
       gradientTransform="translate(-1919.04 -1706.08) rotate(-90)"
       gradientUnits="userSpaceOnUse">
      <stop
         offset="0"
         stop-color="#fff"
         id="stop56" />
      <stop
         offset=".38"
         stop-color="#fff"
         id="stop57" />
      <stop
         offset=".39"
         stop-color="#fdfdfd"
         id="stop58" />
      <stop
         offset=".5"
         stop-color="#fcfcfc"
         id="stop59" />
      <stop
         offset=".52"
         stop-color="#fcfcfc"
         id="stop60" />
      <stop
         offset=".7"
         stop-color="#fff"
         id="stop61" />
      <stop
         offset=".93"
         stop-color="#fff"
         id="stop62" />
    </linearGradient>
    <mask
       id="mask-2"
       x="117.42"
       y="2.52"
       width="54.64"
       height="49.33"
       maskUnits="userSpaceOnUse">
      <g
         class="cls-40"
         id="g63">
        <g
           class="cls-32"
           mask="url(#mask-3)"
           id="g62">
          <path
             class="cls-4"
             d="M172.06,33.34c0,1.97-1.11,3.71-2.89,4.55-11.64,5.46-22.05,12.31-23.44,13.96-.63-2.74-1.49-1.17-2.51-.31-1.03-1.28-10.78-7.97-22.91-13.65-1.78-.83-2.89-2.58-2.89-4.55,0-1.76,.9-3.35,2.4-4.26,6.32-3.85,19.13-18.53,23.88-26.56,.86,.23,1.1,.16,2.12,.08,4.44,7.44,17.77,22.78,23.86,26.48,1.5,.91,2.39,2.5,2.39,4.26h0Z"
             id="path62" />
        </g>
      </g>
    </mask>
    <linearGradient
       id="linear-gradient-29"
       x1="-1757.62"
       y1="2063.78"
       x2="-1709.66"
       y2="2063.78"
       gradientTransform="translate(-1919.04 -1706.08) rotate(-90)"
       xlink:href="#linear-gradient" />
    <linearGradient
       id="linear-gradient-30"
       x1="144.74"
       y1="-2.17"
       x2="144.74"
       y2="36.16"
       xlink:href="#linear-gradient" />
    <filter
       id="luminosity-noclip-6"
       x="120.83"
       y="29.62"
       width="47.82"
       height="22.41"
       color-interpolation-filters="sRGB"
       filterUnits="userSpaceOnUse">
      <feFlood
         flood-color="#fff"
         result="bg"
         id="feFlood63" />
      <feBlend
         in="SourceGraphic"
         in2="bg"
         id="feBlend63" />
    </filter>
    <filter
       id="luminosity-noclip-7"
       x="6339.12"
       y="-8459.05"
       width="-32766"
       height="32766"
       color-interpolation-filters="sRGB"
       filterUnits="userSpaceOnUse">
      <feFlood
         flood-color="#fff"
         result="bg"
         id="feFlood64" />
      <feBlend
         in="SourceGraphic"
         in2="bg"
         id="feBlend64" />
    </filter>
    <mask
       id="mask-5"
       x="6339.12"
       y="-8459.05"
       width="-32766"
       height="32766"
       maskUnits="userSpaceOnUse" />
    <linearGradient
       id="linear-gradient-31"
       x1="-1734.05"
       y1="2063.78"
       x2="-1757.32"
       y2="2063.78"
       gradientTransform="translate(-1919.04 -1706.08) rotate(-90)"
       gradientUnits="userSpaceOnUse">
      <stop
         offset="0"
         stop-color="#fff"
         id="stop64" />
      <stop
         offset="1"
         stop-color="#fff"
         id="stop65" />
    </linearGradient>
    <mask
       id="mask-4"
       x="120.83"
       y="29.62"
       width="47.82"
       height="22.41"
       maskUnits="userSpaceOnUse">
      <g
         class="cls-41"
         id="g66">
        <g
           class="cls-36"
           mask="url(#mask-5)"
           id="g65">
          <path
             class="cls-2"
             d="M121.84,31.82c-.08,.05-.16,.12-.25,.17-1.09,.66-.98,2.28,.17,2.82,14.25,6.68,20.92,15.6,20.98,15.77,.66,1.93,3.34,1.93,4,0,.05-.14,.15-.42,.15-.42,0,0,6.52-8.65,20.83-15.35,1.15-.54,1.26-2.16,.17-2.82-.08-.05-.16-.12-.24-.17-7.42-1.43-15.07-2.21-22.91-2.21s-15.49,.77-22.9,2.2Z"
             id="path65" />
        </g>
      </g>
    </mask>
    <linearGradient
       id="linear-gradient-32"
       x1="-1840.04"
       y1="-1826.54"
       x2="-1803.28"
       y2="-1826.54"
       gradientTransform="translate(-1681.8 -1793.94) rotate(-90) scale(1 -1)"
       gradientUnits="userSpaceOnUse">
      <stop
         offset="0"
         stop-color="#d1d1d1"
         id="stop66" />
      <stop
         offset=".14"
         stop-color="#cecece"
         id="stop67" />
      <stop
         offset=".22"
         stop-color="#c6c6c6"
         id="stop68" />
      <stop
         offset=".29"
         stop-color="#b8b7b9"
         id="stop69" />
      <stop
         offset=".35"
         stop-color="#a4a3a7"
         id="stop70" />
      <stop
         offset=".4"
         stop-color="#8e8d92"
         id="stop71" />
      <stop
         offset=".4"
         stop-color="#8d8c91"
         id="stop72" />
      <stop
         offset=".52"
         stop-color="#6a696c"
         id="stop73" />
      <stop
         offset=".65"
         stop-color="#4e4e4f"
         id="stop74" />
      <stop
         offset=".77"
         stop-color="#3a3a3a"
         id="stop75" />
      <stop
         offset=".89"
         stop-color="#2e2e2e"
         id="stop76" />
      <stop
         offset="1"
         stop-color="#2b2b2a"
         id="stop77" />
    </linearGradient>
    <linearGradient
       id="linear-gradient-33"
       x1="-1807.12"
       y1="-1826.54"
       x2="-1837.9"
       y2="-1826.54"
       gradientTransform="translate(-1681.8 -1793.94) rotate(-90) scale(1 -1)"
       gradientUnits="userSpaceOnUse">
      <stop
         offset=".06"
         stop-color="#18d955"
         id="stop78" />
      <stop
         offset=".74"
         stop-color="#158349"
         id="stop79" />
      <stop
         offset=".86"
         stop-color="#138b46"
         id="stop80" />
      <stop
         offset="1"
         stop-color="#119e40"
         id="stop81" />
    </linearGradient>
    <linearGradient
       id="linear-gradient-34"
       x1="-1801.1"
       y1="-1826.54"
       x2="-1835.81"
       y2="-1826.54"
       gradientTransform="translate(-1681.8 -1793.94) rotate(-90) scale(1 -1)"
       xlink:href="#linear-gradient-21" />
    <linearGradient
       id="linear-gradient-35"
       x1="-1940.38"
       y1="-1826.54"
       x2="-1977.15"
       y2="-1826.54"
       gradientTransform="translate(-1681.8 2231.45) rotate(90)"
       xlink:href="#linear-gradient-32" />
    <linearGradient
       id="linear-gradient-36"
       x1="-1973.8"
       y1="-1826.54"
       x2="-1943.02"
       y2="-1826.54"
       gradientTransform="translate(-1681.8 2231.45) rotate(90)"
       xlink:href="#linear-gradient-33" />
    <linearGradient
       id="linear-gradient-37"
       x1="-1980.82"
       y1="-1826.54"
       x2="-1946.1"
       y2="-1826.54"
       gradientTransform="translate(-1681.8 2231.45) rotate(90)"
       xlink:href="#linear-gradient-21" />
    <clipPath
       id="clippath">
      <path
         class="cls-45"
         d="M255.11,55.55c-.83-1.02-1.68-1.98-2.56-2.95-8.97-9.91-19.28-18.56-30.66-25.68-2.9-3.13-6.25-6.19-10.11-9.05-10.52-7.79-24.83-14.11-44.3-16.46l-11.71-1.41h.01s-.02,0-.02,0l6.91,4.68s.21,.14,.5,.37c.31,.25,.72,.63,1.16,1.1-.06,0-.13-.02-.18-.02-.48-.07-.95-.12-1.44-.17-.64-.09-1.3-.16-1.93-.25-1.95-.19-3.92-.35-5.86-.5-.46-.03-.9-.05-1.34-.07-.15-.02-.27-.02-.4-.03h-.08c-.07,0-.15,0-.21-.02-.09,0-.21-.03-.34-.03-.8-.03-1.6-.07-2.42-.1-.4,0-.77-.03-1.19-.03-.51-.01-1.03-.02-1.55-.03-.5-.82-.96-1.57-1.37-2.24-.56-.89-2-.9-2.55,0-.43,.7-.88,1.45-1.35,2.24-.89,.02-1.77,.04-2.64,.07-.52,.02-1,.04-1.49,.07-.14,.02-.25,.02-.38,.02-.46,.03-.91,.06-1.38,.08h-.05s-.11,.02-.19,.03h-.23c-.14,.02-.28,.02-.4,.03-.04,0-.09,0-.14,.02-.25,0-.47,0-.7,.03-.58,.05-1.19,.09-1.78,.14-.21,.03-.42,.05-.65,.08-.34,.03-.69,.07-1.01,.09h-.05c-.09,0-.18,.03-.26,.03-.18,.04-.34,.05-.51,.05-.03,0-.07,0-.1,.02-.26,.03-.52,.04-.81,.08-.76,.09-1.53,.19-2.33,.28h-.05c-.34,.04-.68,.07-1.02,.11-.46,.06-.91,.13-1.36,.19,.48-.54,.95-.97,1.28-1.25,.29-.24,.49-.37,.5-.37L133.27,0h-.02s.01,0,.01,0l-11.71,1.41c-19.46,2.35-33.78,8.67-44.3,16.46-4.45,3.29-8.21,6.85-11.41,10.48C30.07,51.69,5.25,90.35,.74,135.04v.02c-.04,.52-.09,1.02-.14,1.53-.4,4.34-.6,8.73-.6,13.15,0,50.38,25.75,94.74,64.8,120.7,3.4,4.05,7.51,8.04,12.45,11.7,10.52,7.79,24.83,14.11,44.3,16.46l11.71,1.41h-.01s.02,0,.02,0l-6.91-4.68s-.21-.14-.5-.38c-.45-.38-1.15-1.02-1.79-1.87,.1,.01,.21,.03,.31,.05,1.06,.2,1.75,.27,2.89,.38,1.34,.17,2.68,.33,4.04,.45,.65,.08,1.35,.12,2.02,.17,.7,.06,1.42,.09,2.12,.15h0c2.1,.14,4.2,.22,6.31,.27,.62,1.03,1.19,1.97,1.7,2.78,.56,.89,2,.9,2.55,0,.52-.85,1.07-1.78,1.66-2.77,1.48-.03,2.95-.07,4.42-.14,.7-.04,1.45-.08,2.14-.14,.71-.03,1.38-.08,2.06-.14,.7-.03,1.38-.1,2.06-.17,1.38-.12,2.74-.26,4.1-.44,.92-.16,1.67-.28,2.42-.35-.62,.79-1.27,1.4-1.71,1.76-.29,.24-.49,.37-.5,.38l-6.91,4.68h.02s-.01,0-.01,0l11.71-1.41c19.46-2.35,33.78-8.67,44.3-16.46,4.37-3.23,8.07-6.72,11.23-10.28,39.97-25.52,66.56-70.07,66.97-120.87v-.12c.02-.38,.02-.74,.02-1.13,0-35.96-13.12-68.87-34.89-94.19Zm-3.43,103.97c.37,.03,.74,.07,1.11,.11-.12,1.39-.27,2.77-.45,4.14-.39-.05-.78-.11-1.16-.16-.42,2.91-.97,5.8-1.66,8.67,.44,.1,.88,.21,1.33,.31-7.84,36.91-34.48,66.88-69.45,79.43-.38,.14-.75,.27-1.13,.4-.16,.07-.34,.12-.51,.17-.53,.18-1.07,.35-1.61,.53l-2.06-6.97c-7.24,3.64-15.04,6.07-23.23,7.05-3.69-2.33-6.12-4.13-6.6-4.74-.03,.03-.07,.06-.1,.09-.4-.37-.9-.58-1.42-.58-.34,0-.67,.1-.97,.26,0-.03-.01-.05-.02-.08-.04,.05-.11,.11-.17,.17-.17,.11-.33,.26-.47,.43-1.12,.96-3.4,2.55-6.44,4.45-8.2-.97-16.03-3.4-23.28-7.05l-2.06,6.97c-.53-.17-1.07-.34-1.6-.52h-.02c-.15-.05-.33-.12-.49-.18h-.01c-.37-.12-.75-.25-1.12-.39h-.01c-34.9-12.52-61.5-42.4-69.39-79.22,.76-.17,1.5-.36,2.26-.53-.69-2.87-1.24-5.77-1.66-8.67-.71,.1-1.41,.2-2.12,.3-.18-1.38-.33-2.78-.45-4.18,.69-.07,1.38-.14,2.08-.2-.64-6.33-.64-12.7,0-19.03-.7-.07-1.39-.14-2.09-.2,0-.04,0-.08,0-.12,.03-.38,.07-.76,.11-1.15,.1-.97,.21-1.94,.34-2.91,.71,.1,1.42,.2,2.13,.3,.42-2.91,.97-5.8,1.66-8.67-.76-.17-1.51-.36-2.27-.53,6.38-29.76,24.97-54.98,50.29-70.17,1.91-1.15,3.84-2.24,5.84-3.26,.83-.42,1.66-.85,2.5-1.25,2.51-1.23,5.07-2.36,7.69-3.38,.55-.22,1.11-.42,1.67-.63l1.67,4.6c8.58-3.53,17.86-5.85,27.58-6.74,4.09,2.54,6.79,4.54,7.3,5.18,.03-.03,.07-.06,.1-.09,.66,.61,1.62,.72,2.39,.32,0,.03,.01,.05,.02,.08,.04-.05,.11-.11,.17-.17,.17-.11,.33-.26,.47-.43,1.21-1.03,3.75-2.8,7.14-4.89,9.74,.88,19.03,3.21,27.63,6.74l1.66-4.59c1.02,.38,2.05,.78,3.05,1.19,15.14,6.18,28.54,15.69,39.35,27.62,.66,.72,1.29,1.45,1.91,2.21,11.59,13.49,19.91,29.86,23.74,47.88-.45,.1-.89,.21-1.34,.31,.69,2.87,1.25,5.77,1.66,8.67,.39-.05,.78-.11,1.17-.16,.17,1.37,.33,2.75,.45,4.14-.37,.04-.74,.07-1.11,.11,.64,6.33,.64,12.7,0,19.03Z"
         id="path81" />
    </clipPath>
  </defs>
  <g
     class="cls-29"
     id="g5406">
    <g
       id="Layer_2"
       data-name="Layer 2">
      <g
         id="Layer_1-2"
         data-name="Layer 1">
        <g
           id="g5405">
          <g
             id="g141">
            <path
               class="cls-52"
               d="M251.98,58.27c-.81-.99-1.64-1.93-2.5-2.86-14.06-15.54-31.52-27.9-51.22-35.97-1.45-.59-2.95-1.19-4.43-1.72-1.48-.57-2.96-1.07-4.47-1.58-.75-.24-1.51-.51-2.27-.74-1-.32-2.02-.61-3.03-.91-1.03-.28-2.05-.57-3.09-.84-.96-.26-1.93-.51-2.89-.75-.13-.01-.26-.05-.37-.08-.91-.21-1.8-.44-2.71-.61-.15-.03-.3-.08-.46-.11-.81-.18-1.64-.34-2.47-.51-.22-.05-.48-.08-.7-.13-.73-.15-1.45-.28-2.18-.4-.28-.05-.56-.09-.85-.15-.24-.04-.48-.09-.73-.13-.59-.11-1.2-.18-1.81-.26-.08-.01-.16-.03-.25-.03-.16-.04-.37-.07-.53-.08-.09-.04-.18-.04-.28-.05-.29-.04-.58-.08-.89-.15-.16-.03-.33-.04-.49-.05-.46-.07-.92-.12-1.4-.17-.62-.08-1.27-.16-1.88-.24-1.9-.18-3.82-.34-5.71-.49-.45-.03-.89-.05-1.31-.07-.15-.01-.26-.01-.38-.03h-.08c-.07,0-.15,0-.21-.01-.09,0-.2-.03-.33-.04-.78-.03-1.56-.07-2.37-.09-.38-.01-.75-.03-1.15-.03-1.29-.04-2.59-.07-3.9-.07-.58,0-1.2,0-1.8,.01-1.19,.01-2.35,.05-3.51,.09-.5,.01-.98,.04-1.45,.07-.13,.01-.24,.01-.37,.01-.45,.04-.89,.07-1.33,.08h-.05s-.11,.01-.19,.03h-.22c-.13,.01-.28,.01-.4,.03-.04,0-.08,0-.13,.01-.24,0-.46,.01-.69,.03-.57,.05-1.15,.08-1.73,.13-.21,.03-.41,.05-.63,.08-.33,.03-.67,.07-.99,.08h-.05c-.08,.01-.17,.03-.25,.03-.17,.04-.33,.05-.49,.05-.03,0-.07,0-.11,.01-.25,.03-.5,.04-.78,.08-.74,.08-1.49,.18-2.27,.28h-.05c-.33,.04-.66,.07-.99,.11-.56,.07-1.1,.16-1.65,.24-10.97,1.57-21.53,4.4-31.52,8.32-3.41,1.33-6.74,2.81-10.02,4.41-1.08,.53-2.17,1.07-3.25,1.62-2.6,1.33-5.11,2.75-7.6,4.25C34.89,51.31,8.82,90.32,4.23,135.69h0c-.04,.51-.08,1.02-.13,1.5-.38,4.22-.58,8.5-.58,12.8,0,61.19,38.99,113.27,93.49,132.82h.01c.49,.2,.98,.36,1.47,.51h.01c.2,.09,.44,.16,.63,.24h.03c2.09,.71,4.22,1.37,6.34,1.98h.01c1.85,.53,3.71,1.04,5.58,1.49,.28,.08,.56,.15,.82,.21,1.82,.44,3.63,.82,5.48,1.17,.7,.15,1.4,.28,2.11,.4,1.7,.32,3.41,.58,5.14,.82,1.03,.2,1.7,.26,2.81,.37,1.31,.17,2.62,.32,3.94,.44,.63,.08,1.31,.12,1.97,.17,.67,.05,1.37,.09,2.06,.15h.01c3.08,.21,6.16,.32,9.26,.32h.01c.3,0,.59,0,.87-.01,2.04,0,4.04-.07,6.05-.16,.69-.04,1.41-.08,2.09-.13,.69-.03,1.35-.08,2.01-.13,.67-.04,1.35-.11,2.01-.17,1.33-.12,2.67-.25,3.99-.42,1.19-.21,2.07-.34,3.09-.41,1.73-.25,3.44-.51,5.14-.82,.71-.13,1.41-.28,2.11-.4,1.84-.36,3.66-.75,5.46-1.19,.28-.05,.56-.12,.83-.21,1.88-.45,3.74-.95,5.59-1.48,2.13-.61,4.25-1.27,6.36-1.99,.22-.08,.45-.15,.66-.22,.49-.17,.98-.34,1.47-.53,54.16-19.42,93-70.94,93.49-131.59v-.12c.01-.37,.01-.71,.01-1.1,0-35.02-12.78-67.07-33.97-91.73Zm24.53,92.74v.11c-.48,56.6-36.71,104.67-87.24,122.8-.46,.17-.91,.33-1.37,.49-.2,.08-.41,.15-.62,.21-1.96,.67-3.94,1.29-5.92,1.86-1.73,.5-3.48,.96-5.22,1.39-.26,.08-.53,.15-.78,.18-1.68,.41-3.38,.78-5.09,1.11-.66,.12-1.31,.25-1.98,.37-1.59,.29-3.17,.54-4.8,.77-.94,.07-1.77,.2-2.88,.38-1.23,.16-2.48,.29-3.73,.4-.61,.07-1.24,.12-1.86,.16-.62,.05-1.24,.11-1.88,.13-.63,.04-1.31,.08-1.96,.12-1.88,.08-3.75,.15-5.64,.15-.26,.01-.54,.01-.82,.01h-.01c-2.89,0-5.77-.11-8.64-.29h-.01c-.65-.05-1.28-.08-1.92-.15-.62-.05-1.26-.08-1.85-.16-1.23-.11-2.44-.25-3.67-.4-1.03-.11-1.65-.16-2.62-.36-1.63-.21-3.21-.46-4.81-.77-.65-.11-1.31-.22-1.97-.37-1.72-.33-3.41-.69-5.1-1.1-.25-.05-.52-.12-.77-.18-1.74-.42-3.49-.9-5.21-1.4,0,0,0,.03-.01,0-2-.57-3.96-1.19-5.92-1.85h-.03c-.18-.07-.4-.15-.59-.22h-.01c-.45-.15-.91-.3-1.36-.48h-.01C49.34,255.69,12.97,207.1,12.97,149.99c0-4.03,.19-8.01,.54-11.95,.04-.46,.08-.92,.13-1.4,4.27-42.35,28.6-78.74,63.35-99.59,2.33-1.4,4.66-2.72,7.1-3.96,1-.51,2.02-1.03,3.04-1.52,3.05-1.49,6.16-2.86,9.34-4.11,9.33-3.67,19.17-6.3,29.4-7.77,.52-.07,1.03-.15,1.55-.21,.3-.04,.62-.07,.92-.11h.05c.71-.08,1.43-.18,2.11-.25,.25-.04,.49-.05,.74-.08,.03-.01,.07-.01,.09-.01,.15,0,.29-.01,.45-.05,.08,0,.17-.01,.24-.03h.05c.3-.01,.61-.04,.92-.07,.21-.03,.38-.05,.59-.07,.54-.05,1.07-.08,1.61-.13,.2,0,.42-.01,.63-.01,.05-.01,.08-.01,.13-.01,.11-.01,.24-.01,.37-.04h.2c.08-.01,.13-.01,.19-.03h.05c.41-.01,.82-.04,1.24-.07,.12,0,.21,0,.34-.01,.44-.03,.89-.05,1.35-.07,1.1-.03,2.18-.07,3.28-.08,.57-.01,1.14-.01,1.69-.01,1.22,0,2.42,.03,3.63,.07,.37,0,.71,.01,1.06,.01,.75,.03,1.49,.07,2.22,.09,.12,.01,.21,.03,.3,.03,.07,.01,.13,.01,.2,.01h.07c.12,.01,.24,.01,.36,.03,.4,.01,.81,.05,1.23,.08,1.77,.13,3.55,.26,5.33,.45,.57,.07,1.18,.15,1.76,.21,.44,.05,.87,.11,1.29,.17,.16,.01,.32,.03,.46,.05,.28,.05,.56,.09,.83,.13,.08,0,.17,0,.25,.04,.16,.01,.34,.04,.5,.08,.08,0,.16,.01,.22,.01,.58,.09,1.14,.16,1.69,.25,.24,.04,.46,.09,.67,.12,.28,.07,.53,.11,.79,.15,.69,.11,1.36,.24,2.03,.37,.21,.05,.44,.08,.66,.12,.77,.16,1.55,.32,2.3,.49,.15,.01,.29,.07,.44,.09,.85,.17,1.68,.37,2.52,.57,.09,.03,.22,.07,.34,.08,.9,.22,1.81,.45,2.71,.7,.96,.25,1.92,.53,2.88,.79,.92,.29,1.89,.55,2.81,.84,.73,.21,1.43,.46,2.13,.7,1.4,.48,2.79,.94,4.16,1.47,1.39,.5,2.77,1.06,4.14,1.61,18.39,7.51,34.67,19.06,47.8,33.55,.81,.87,1.57,1.76,2.33,2.68,19.77,23.01,31.71,52.91,31.71,85.59,0,.36,0,.67-.01,1.02Z"
               id="path82" />
            <g
               id="g85">
              <path
                 class="cls-7"
                 d="M144.74,253.68c-11.15,0-21.75-2.7-31.35-7.53l-2.41,8.15c10.36,5.11,21.77,7.95,33.76,7.95s23.4-2.84,33.76-7.95l-2.41-8.15c-9.6,4.83-20.19,7.53-31.35,7.53Z"
                 id="path83" />
              <path
                 class="cls-51"
                 d="M144.74,45.96c12.95,0,25.26,2.56,36.4,7.14l2.8-7.72c-12.03-4.84-25.28-7.54-39.2-7.54s-27.17,2.69-39.2,7.54l2.8,7.72c11.15-4.58,23.45-7.14,36.4-7.14Z"
                 id="path84" />
              <path
                 class="cls-60"
                 d="M233.03,74.48c-.66-.82-1.35-1.59-2.06-2.36-11.57-12.79-25.94-22.97-42.16-29.61-1.2-.49-2.43-.98-3.64-1.41-1.22-.47-2.44-.88-3.68-1.3-.62-.2-1.24-.42-1.87-.61-.83-.26-1.66-.5-2.49-.75-.85-.23-1.69-.47-2.55-.7-.79-.22-1.59-.42-2.38-.62-.11-.01-.22-.04-.3-.07-.75-.17-1.48-.36-2.23-.5-.12-.02-.25-.07-.38-.09-.66-.15-1.35-.28-2.03-.42-.18-.04-.39-.07-.58-.11-.6-.12-1.2-.23-1.79-.33-.23-.04-.46-.08-.7-.12-.2-.03-.39-.08-.6-.11-.49-.09-.99-.15-1.49-.22-.07-.01-.13-.02-.21-.02-.13-.03-.3-.05-.44-.07-.08-.03-.15-.03-.23-.04-.24-.03-.48-.07-.73-.12-.13-.02-.27-.03-.4-.04-.38-.05-.76-.1-1.15-.14-.51-.07-1.04-.13-1.54-.2-1.57-.15-3.14-.28-4.7-.4-.37-.02-.73-.04-1.08-.05-.12-.01-.22-.01-.32-.02h-.07c-.05,0-.12,0-.17-.01-.08,0-.16-.02-.27-.03-.64-.02-1.28-.05-1.95-.08-.32-.01-.62-.02-.95-.02-1.07-.03-2.13-.05-3.21-.05-.48,0-.99,0-1.48,.01-.98,.01-1.94,.04-2.89,.08-.41,.01-.8,.03-1.2,.05-.11,.01-.2,.01-.3,.01-.37,.03-.73,.05-1.1,.07h-.04s-.09,.01-.15,.02h-.18c-.11,.01-.23,.01-.33,.02-.03,0-.07,0-.11,.01-.2,0-.38,.01-.57,.02-.47,.04-.95,.07-1.43,.11-.17,.02-.34,.04-.52,.07-.27,.02-.55,.05-.82,.07h-.04c-.07,.01-.14,.02-.21,.02-.14,.03-.27,.04-.4,.04-.02,0-.05,0-.09,.01-.21,.02-.41,.03-.64,.07-.61,.07-1.23,.15-1.87,.23h-.04c-.27,.03-.54,.05-.82,.09-.46,.05-.9,.13-1.36,.2-9.03,1.29-17.72,3.62-25.95,6.85-2.81,1.1-5.55,2.31-8.25,3.63-.89,.43-1.78,.88-2.68,1.34-2.14,1.1-4.21,2.26-6.26,3.5-30.67,18.4-52.13,50.51-55.9,87.86h0c-.03,.42-.07,.84-.11,1.24-.32,3.48-.48,7-.48,10.54,0,50.38,32.1,93.25,76.96,109.34h.01c.4,.16,.8,.29,1.21,.42h.01c.16,.08,.36,.13,.52,.2h.02c1.72,.59,3.47,1.13,5.22,1.63h.01c1.52,.43,3.06,.86,4.59,1.23,.23,.07,.46,.12,.67,.17,1.5,.36,2.99,.67,4.51,.97,.58,.12,1.15,.23,1.74,.33,1.4,.26,2.81,.48,4.23,.67,.85,.16,1.4,.22,2.32,.3,1.08,.14,2.15,.26,3.24,.36,.52,.07,1.08,.1,1.62,.14,.55,.04,1.13,.08,1.7,.12h.01c2.53,.17,5.07,.26,7.63,.26h.01c.25,0,.49,0,.72-.01,1.68,0,3.33-.05,4.98-.13,.57-.03,1.16-.07,1.72-.11,.57-.02,1.11-.07,1.65-.11,.55-.03,1.11-.09,1.65-.14,1.1-.1,2.2-.21,3.29-.35,.98-.17,1.71-.28,2.55-.34,1.43-.21,2.83-.42,4.23-.67,.59-.11,1.16-.23,1.74-.33,1.51-.29,3.01-.62,4.49-.98,.23-.04,.46-.1,.69-.17,1.54-.37,3.08-.78,4.6-1.22,1.75-.5,3.5-1.04,5.23-1.64,.18-.07,.37-.12,.54-.18,.4-.14,.8-.28,1.21-.43,44.59-15.98,76.56-58.4,76.96-108.33v-.1c.01-.3,.01-.59,.01-.9,0-28.83-10.52-55.21-27.97-75.51Zm20.19,76.35v.09c-.39,46.6-30.22,86.17-71.82,101.09-.38,.14-.75,.27-1.13,.4-.16,.07-.34,.12-.51,.17-1.61,.55-3.24,1.06-4.87,1.53-1.43,.41-2.86,.79-4.3,1.14-.22,.07-.44,.12-.64,.15-1.38,.34-2.78,.64-4.19,.91-.54,.1-1.08,.21-1.63,.3-1.31,.24-2.61,.45-3.95,.63-.77,.05-1.46,.16-2.37,.32-1.01,.13-2.05,.24-3.07,.33-.5,.05-1.02,.1-1.53,.13-.51,.04-1.02,.09-1.54,.11-.52,.03-1.08,.07-1.61,.1-1.54,.07-3.09,.12-4.65,.12-.22,.01-.45,.01-.67,.01h-.01c-2.38,0-4.75-.09-7.11-.24h-.01c-.53-.04-1.06-.07-1.58-.12-.51-.04-1.03-.07-1.52-.13-1.01-.09-2.01-.21-3.02-.33-.85-.09-1.36-.13-2.15-.29-1.34-.17-2.64-.38-3.96-.63-.53-.09-1.08-.18-1.62-.3-1.41-.27-2.81-.57-4.2-.9-.21-.04-.42-.1-.63-.15-1.44-.35-2.87-.74-4.29-1.15,0,0,0,.02-.01,0-1.64-.47-3.26-.98-4.87-1.52h-.02c-.15-.05-.33-.12-.49-.18h-.01c-.37-.12-.75-.25-1.12-.39h-.01c-41.87-15.02-71.82-55.02-71.82-102.03,0-3.31,.15-6.6,.45-9.83,.03-.38,.07-.76,.11-1.15,3.51-34.86,23.54-64.82,52.15-81.99,1.91-1.15,3.84-2.24,5.84-3.26,.83-.42,1.66-.85,2.5-1.25,2.51-1.23,5.07-2.36,7.69-3.38,7.68-3.02,15.78-5.18,24.2-6.4,.42-.05,.85-.12,1.27-.17,.25-.03,.51-.05,.76-.09h.04c.59-.07,1.17-.15,1.74-.21,.21-.03,.4-.04,.61-.07,.02-.01,.05-.01,.08-.01,.12,0,.24-.01,.37-.04,.07,0,.14-.01,.2-.02h.04c.25-.01,.5-.03,.76-.05,.17-.02,.32-.04,.49-.05,.45-.04,.88-.07,1.33-.11,.16,0,.35-.01,.52-.01,.04-.01,.07-.01,.11-.01,.09-.01,.2-.01,.3-.03h.16c.07-.01,.11-.01,.15-.02h.04c.34-.01,.67-.03,1.02-.05,.1,0,.17,0,.28-.01,.36-.02,.73-.04,1.11-.05,.9-.02,1.79-.05,2.7-.07,.47-.01,.94-.01,1.39-.01,1,0,1.99,.02,2.99,.05,.3,0,.59,.01,.87,.01,.62,.02,1.23,.05,1.83,.08,.1,.01,.17,.02,.25,.02,.05,.01,.11,.01,.16,.01h.05c.1,.01,.2,.01,.29,.02,.33,.01,.66,.04,1.01,.07,1.46,.11,2.93,.22,4.38,.37,.47,.05,.97,.12,1.45,.17,.36,.04,.72,.09,1.07,.14,.13,.01,.26,.02,.38,.04,.23,.04,.46,.08,.69,.11,.07,0,.14,0,.21,.03,.13,.01,.28,.03,.41,.07,.07,0,.13,.01,.18,.01,.48,.08,.94,.13,1.39,.21,.2,.03,.38,.08,.55,.1,.23,.05,.44,.09,.65,.12,.57,.09,1.12,.2,1.68,.3,.17,.04,.36,.07,.54,.1,.63,.13,1.27,.26,1.89,.4,.12,.01,.24,.05,.36,.08,.7,.14,1.38,.3,2.08,.47,.08,.02,.19,.05,.28,.07,.74,.18,1.49,.37,2.23,.58,.79,.21,1.58,.43,2.37,.65,.76,.24,1.56,.46,2.32,.7,.6,.17,1.17,.38,1.75,.58,1.15,.39,2.3,.77,3.43,1.21,1.14,.41,2.28,.87,3.4,1.33,15.14,6.18,28.54,15.69,39.35,27.62,.66,.72,1.29,1.45,1.91,2.21,16.27,18.94,26.11,43.55,26.11,70.46,0,.29,0,.55-.01,.84Z"
                 id="path85" />
            </g>
            <path
               class="cls-30"
               d="M255.11,55.55c-.83-1.02-1.68-1.98-2.56-2.95-14.43-15.95-32.36-28.65-52.59-36.93-1.5-.61-3.03-1.22-4.55-1.76-1.51-.58-3.03-1.1-4.58-1.63-.77-.24-1.55-.52-2.34-.76-1.03-.33-2.07-.63-3.1-.94-1.06-.28-2.11-.58-3.17-.87-.99-.27-1.99-.53-2.97-.77-.14-.02-.27-.05-.38-.09-.94-.21-1.85-.45-2.79-.62-.15-.03-.31-.09-.47-.11-.83-.19-1.68-.35-2.54-.52-.23-.06-.49-.09-.72-.14-.74-.15-1.49-.28-2.24-.4-.28-.06-.57-.1-.87-.15-.24-.04-.49-.09-.75-.14-.61-.1-1.23-.19-1.86-.27-.09-.02-.16-.03-.26-.03-.16-.04-.38-.07-.54-.09-.09-.04-.19-.04-.28-.05-.3-.04-.6-.09-.91-.15-.16-.03-.34-.04-.5-.06-.48-.07-.95-.12-1.44-.17-.64-.09-1.3-.16-1.93-.25-1.95-.19-3.92-.35-5.86-.5-.46-.03-.9-.05-1.34-.07-.15-.02-.27-.02-.4-.03h-.08c-.07,0-.15,0-.21-.02-.09,0-.21-.03-.34-.03-.8-.03-1.6-.07-2.42-.1-.4,0-.77-.03-1.19-.03-1.32-.03-2.66-.07-4-.07-.6,0-1.24,0-1.85,.02-1.22,.02-2.42,.05-3.61,.09-.52,.02-1,.04-1.49,.07-.14,.02-.25,.02-.38,.02-.46,.03-.91,.06-1.38,.08h-.05s-.11,.02-.19,.03h-.23c-.14,.02-.28,.02-.4,.03-.04,0-.09,0-.14,.02-.25,0-.47,0-.7,.03-.58,.05-1.19,.09-1.78,.14-.21,.03-.42,.05-.65,.08-.34,.03-.69,.07-1.01,.09h-.05c-.09,0-.18,.03-.26,.03-.18,.04-.34,.05-.51,.05-.03,0-.07,0-.1,.02-.26,.03-.52,.04-.81,.08-.76,.09-1.53,.19-2.33,.28h-.05c-.34,.04-.68,.07-1.02,.11-.57,.07-1.13,.16-1.69,.24-11.26,1.61-22.1,4.52-32.36,8.55-3.5,1.37-6.92,2.89-10.28,4.53-1.12,.54-2.23,1.1-3.34,1.67-2.67,1.37-5.25,2.82-7.81,4.36C32.21,48.4,5.44,88.46,.74,135.04v.02c-.04,.52-.09,1.02-.14,1.53C.21,140.92,0,145.31,0,149.73,0,212.56,40.04,266.03,95.99,286.11h.02c.5,.2,1.01,.36,1.5,.52h.02c.2,.09,.45,.16,.64,.25h.03c2.15,.73,4.33,1.41,6.52,2.03h.02c1.9,.54,3.81,1.07,5.73,1.54,.28,.08,.57,.15,.83,.21,1.87,.45,3.73,.84,5.63,1.2,.72,.15,1.44,.28,2.17,.41,1.75,.33,3.5,.59,5.28,.84,1.06,.2,1.75,.27,2.89,.38,1.34,.17,2.68,.33,4.04,.45,.65,.08,1.35,.12,2.02,.17,.7,.06,1.42,.09,2.12,.15h0c3.16,.21,6.33,.33,9.52,.33h0c.31,0,.61,0,.89-.02,2.09,0,4.15-.07,6.22-.16,.7-.04,1.45-.08,2.14-.14,.71-.03,1.38-.08,2.06-.14,.7-.03,1.38-.1,2.06-.17,1.38-.12,2.74-.26,4.1-.44,1.22-.21,2.13-.35,3.17-.41,1.78-.26,3.52-.53,5.28-.84,.73-.14,1.45-.28,2.17-.41,1.88-.36,3.76-.77,5.6-1.22,.29-.05,.58-.12,.86-.21,1.93-.46,3.83-.98,5.73-1.52,2.18-.62,4.38-1.3,6.53-2.04,.23-.08,.46-.15,.68-.23,.51-.17,1.01-.35,1.51-.54,55.61-19.94,95.49-72.84,95.98-135.12v-.12c.02-.38,.02-.74,.02-1.12,0-35.96-13.12-68.87-34.89-94.19Zm30.05,95.27v.12c-.49,60.2-39.04,111.35-92.8,130.62-.49,.19-.97,.35-1.46,.52-.21,.08-.43,.15-.65,.22-2.08,.72-4.2,1.37-6.31,1.98-1.83,.52-3.68,1.02-5.54,1.46-.28,.09-.55,.16-.83,.21-1.79,.43-3.59,.82-5.42,1.18-.7,.12-1.39,.27-2.1,.4-1.69,.3-3.39,.57-5.11,.82-1.01,.06-1.88,.19-3.07,.4-1.31,.17-2.63,.3-3.96,.42-.65,.06-1.32,.13-1.99,.16-.66,.06-1.32,.11-1.99,.14-.67,.05-1.39,.09-2.07,.13-1.99,.09-3.99,.15-6.01,.15-.28,.02-.57,.02-.87,.02h0c-3.09,0-6.14-.1-9.2-.32h0c-.69-.05-1.38-.09-2.05-.15-.66-.05-1.32-.09-1.96-.16-1.31-.12-2.6-.27-3.9-.44-1.1-.1-1.77-.17-2.79-.36-1.72-.24-3.41-.5-5.11-.82-.7-.12-1.4-.25-2.1-.4-1.83-.35-3.63-.73-5.44-1.17-.27-.06-.54-.13-.82-.21-1.85-.45-3.7-.95-5.53-1.48h-.02c-2.11-.61-4.22-1.26-6.29-1.97h-.03c-.2-.08-.44-.15-.64-.24h0c-.49-.15-.97-.31-1.45-.51h-.02C43.53,262.16,4.83,210.48,4.83,149.73c0-4.28,.2-8.52,.58-12.71,.05-.49,.09-.99,.14-1.49h0C10.09,90.49,35.97,51.77,72.94,29.59c2.47-1.49,4.95-2.89,7.54-4.22,1.07-.55,2.15-1.09,3.22-1.61,3.26-1.58,6.56-3.05,9.95-4.37,9.91-3.89,20.39-6.7,31.28-8.26,.56-.08,1.09-.16,1.64-.23,.33-.04,.65-.07,.99-.1h.05c.77-.09,1.52-.2,2.25-.27,.28-.04,.52-.05,.77-.08,.04-.02,.08-.02,.1-.02,.16,0,.32,0,.49-.05,.08,0,.17-.02,.25-.03h.05c.31-.02,.65-.05,.98-.08,.22-.03,.42-.05,.64-.08,.58-.05,1.15-.09,1.71-.14,.22,0,.45-.03,.69-.03,.05,0,.09,0,.13,0,.12-.02,.26-.02,.4-.03h.22c.08-.02,.14-.02,.18-.03h.05c.45-.02,.88-.04,1.32-.08,.13,0,.24,0,.37-.02,.47-.03,.95-.05,1.44-.07,1.15-.03,2.3-.08,3.49-.09,.58-.02,1.2-.02,1.78-.02,1.3,0,2.59,.03,3.87,.07,.4,0,.77,0,1.14,.03,.8,.03,1.57,.06,2.35,.09,.13,0,.23,.03,.33,.03,.07,.02,.15,.02,.21,.02h.08c.11,0,.23,0,.38,.03,.42,0,.85,.03,1.3,.06,1.87,.15,3.77,.3,5.67,.49,.6,.08,1.25,.15,1.87,.23,.47,.05,.93,.1,1.38,.17,.16,.02,.34,.03,.49,.05,.3,.07,.58,.1,.88,.15,.09,0,.18,0,.28,.05,.15,.02,.37,.04,.52,.08,.09,0,.17,.02,.25,.03,.6,.08,1.2,.16,1.8,.27,.25,.03,.49,.09,.72,.13,.29,.05,.57,.09,.84,.15,.72,.12,1.44,.25,2.16,.4,.22,.05,.47,.08,.7,.13,.83,.17,1.65,.33,2.46,.51,.15,.03,.31,.08,.46,.11,.9,.16,1.78,.39,2.69,.6,.1,.03,.23,.06,.36,.08,.96,.23,1.92,.48,2.88,.75,1.03,.27,2.05,.56,3.07,.83,.99,.31,2,.59,3,.91,.76,.22,1.5,.5,2.25,.73,1.5,.52,2.97,1.01,4.44,1.57,1.47,.52,2.95,1.12,4.39,1.71,19.56,8,36.88,20.28,50.83,35.7,.86,.93,1.69,1.86,2.48,2.84,21.04,24.48,33.72,56.29,33.72,91.05,0,.38,0,.72,0,1.08Z"
               id="path86" />
            <g
               id="g97">
              <g
                 id="g91">
                <path
                   class="cls-11"
                   d="M52.09,65.61S58.44,11.09,123.28,3.26c0,0-13.33,9.02,6.83,18.09,0,0-37.69-2.03-78.03,44.26Z"
                   id="path87" />
                <path
                   class="cls-10"
                   d="M130.11,21.35s-37.68-2.05-78.01,44.21c.09-.67-2.38-1.59,3.32-12.77,33.92-30.11,62.65-33.7,62.65-33.7-9.7-5.92-7.7-10.72-6.79-14.13,4.92-1.38,6.15-.99,12.01-1.69,0,0-13.34,9.01,6.82,18.09Z"
                   id="path88" />
                <path
                   class="cls-34"
                   d="M47.34,74.97l1.17-10.03c.27-2.27,7.22-55.58,73.04-63.52L133.26,0l-6.91,4.68c-.05,.03-5.53,3.86-3.26,8.62,1.13,2.38,4.1,4.66,8.82,6.78l5.75,2.58-5.94,.56c-.36,.03-37.31,4.11-76.34,43.62l-8.03,8.13ZM116.14,6.56c-37.78,7.83-52.26,33.56-57.58,48.57,28.68-25.31,54.66-32.78,65.12-34.88-3.82-2.25-6.35-4.66-7.54-7.18-1.17-2.48-.85-4.71,0-6.52Z"
                   id="path89" />
                <path
                   class="cls-16"
                   d="M126.36,4.68L133.27,0l-11.72,1.42C55.73,9.35,48.77,62.68,48.52,64.94l-1.16,10.04,8.02-8.14C94.42,27.33,131.33,23.24,131.73,23.22l5.94-.56-5.75-2.58c-4.73-2.13-7.69-4.41-8.83-6.8-2.27-4.75,3.2-8.58,3.28-8.61Zm4.65,16.04l2.88,1.29-2.98,.28c-.38,.04-37.81,4.08-77.18,43.93l-3.99,4.07,.58-5.02c.26-2.24,7.17-55.1,72.09-62.94l5.86-.71-3.45,2.34s-5.9,4.13-3.43,9.28c1.24,2.65,4.5,5.15,9.64,7.48Z"
                   id="path90" />
                <path
                   class="cls-16"
                   d="M117.9,7.02l.99-2.15-3.81,.79c-38.41,7.97-53,34.14-58.27,49.05l-2.1,5.88,5.47-4.81c28.69-25.33,54.72-32.64,64.54-34.62l1.88-.38-1.75-1.02c-3.53-2.08-5.87-4.32-6.97-6.64-.96-2-.94-4.06,.02-6.1Zm5.77,13.24c-10.46,2.09-36.44,9.56-65.11,34.87,5.3-15.01,19.8-40.75,57.6-48.56-.86,1.81-1.17,4.03-.02,6.51,1.21,2.52,3.74,4.92,7.54,7.18Z"
                   id="path91" />
              </g>
              <g
                 id="g96">
                <path
                   class="cls-14"
                   d="M236.95,65.61S230.6,11.09,165.75,3.26c0,0,13.33,9.02-6.83,18.09,0,0,37.69-2.03,78.03,44.26Z"
                   id="path92" />
                <path
                   class="cls-15"
                   d="M158.93,21.35s37.68-2.05,78.01,44.21c-.09-.67,2.38-1.59-3.32-12.77-33.92-30.11-62.65-33.7-62.65-33.7,9.7-5.92,7.7-10.72,6.79-14.13-4.92-1.38-6.15-.99-12.01-1.69,0,0,13.34,9.01-6.82,18.09Z"
                   id="path93" />
                <path
                   class="cls-34"
                   d="M233.66,66.84c-39.03-39.51-75.98-43.59-76.34-43.62l-5.94-.56,5.75-2.58c4.72-2.12,7.68-4.4,8.82-6.78,2.27-4.75-3.21-8.58-3.26-8.62L155.77,0l11.71,1.41c65.82,7.94,72.77,61.26,73.04,63.52l1.17,10.03-8.03-8.13ZM172.89,13.08c-1.19,2.52-3.72,4.93-7.54,7.18,10.46,2.1,36.44,9.56,65.12,34.88-5.32-15.01-19.8-40.74-57.58-48.57,.85,1.81,1.17,4.04,0,6.52Z"
                   id="path94" />
                <path
                   class="cls-16"
                   d="M165.95,13.29c-1.14,2.38-4.1,4.67-8.83,6.8l-5.75,2.58,5.94,.56c.4,.02,37.31,4.11,76.36,43.61l8.02,8.14-1.16-10.04c-.25-2.26-7.22-55.59-73.04-63.51L155.77,0l6.91,4.68c.08,.02,5.55,3.86,3.28,8.61Zm1.71-.04c2.47-5.15-3.4-9.24-3.43-9.28l-3.45-2.34,5.86,.71c64.92,7.84,71.83,60.69,72.09,62.94l.58,5.02-3.99-4.07c-39.37-39.85-76.8-43.89-77.18-43.93l-2.98-.28,2.88-1.29c5.15-2.32,8.4-4.82,9.64-7.48Z"
                   id="path95" />
                <path
                   class="cls-16"
                   d="M171.16,13.12c-1.1,2.33-3.44,4.57-6.97,6.64l-1.75,1.02,1.88,.38c9.83,1.98,35.85,9.29,64.54,34.62l5.47,4.81-2.1-5.88c-5.28-14.91-19.86-41.08-58.27-49.05l-3.81-.79,.99,2.15c.96,2.05,.98,4.1,.02,6.1Zm1.75-.04c1.15-2.48,.84-4.71-.02-6.51,37.8,7.81,52.3,33.55,57.6,48.56-28.67-25.31-54.65-32.78-65.11-34.87,3.8-2.26,6.33-4.66,7.54-7.18Z"
                   id="path96" />
              </g>
            </g>
            <g
               id="g107">
              <g
                 id="g101">
                <path
                   class="cls-9"
                   d="M236.95,234.39s-6.35,54.52-71.2,62.34c0,0,13.33-9.02-6.83-18.09,0,0,37.69,2.03,78.03-44.26Z"
                   id="path97" />
                <path
                   class="cls-12"
                   d="M158.93,278.65s37.68,2.05,78.01-44.21c-.09,.67,2.38,1.59-3.32,12.77-33.92,30.11-62.65,33.7-62.65,33.7,9.7,5.92,7.7,10.72,6.79,14.13-4.92,1.38-6.15,.99-12.01,1.69,0,0,13.34-9.01-6.82-18.09Z"
                   id="path98" />
                <path
                   class="cls-34"
                   d="M241.69,225.03l-1.17,10.03c-.27,2.27-7.22,55.58-73.04,63.52l-11.71,1.41,6.91-4.68c.05-.03,5.53-3.86,3.26-8.62-1.13-2.38-4.1-4.66-8.82-6.78l-5.75-2.58,5.94-.56c.36-.03,37.31-4.11,76.34-43.62l8.03-8.13Zm-68.8,68.41c37.78-7.83,52.26-33.56,57.58-48.57-28.68,25.31-54.66,32.78-65.12,34.88,3.82,2.25,6.35,4.66,7.54,7.18,1.17,2.48,.85,4.71,0,6.52Z"
                   id="path99" />
                <path
                   class="cls-16"
                   d="M162.67,295.32l-6.91,4.68,11.72-1.42c65.82-7.92,72.79-61.25,73.04-63.51l1.16-10.04-8.02,8.14c-39.05,39.5-75.96,43.59-76.36,43.61l-5.94,.56,5.75,2.58c4.73,2.13,7.69,4.41,8.83,6.8,2.27,4.75-3.2,8.58-3.28,8.61Zm-4.65-16.04l-2.88-1.29,2.98-.28c.38-.04,37.81-4.08,77.18-43.93l3.99-4.07-.58,5.02c-.26,2.24-7.17,55.1-72.09,62.94l-5.86,.71,3.45-2.34s5.9-4.13,3.43-9.28c-1.24-2.65-4.5-5.15-9.64-7.48Z"
                   id="path100" />
                <path
                   class="cls-16"
                   d="M171.14,292.98l-.99,2.15,3.81-.79c38.41-7.97,53-34.14,58.27-49.05l2.1-5.88-5.47,4.81c-28.69,25.33-54.72,32.64-64.54,34.62l-1.88,.38,1.75,1.02c3.53,2.08,5.87,4.32,6.97,6.64,.96,2,.94,4.06-.02,6.1Zm-5.77-13.24c10.46-2.09,36.44-9.56,65.11-34.87-5.3,15.01-19.8,40.75-57.6,48.56,.86-1.81,1.17-4.03,.02-6.51-1.21-2.52-3.74-4.92-7.54-7.18Z"
                   id="path101" />
              </g>
              <g
                 id="g106">
                <path
                   class="cls-13"
                   d="M52.09,234.39s6.35,54.52,71.2,62.34c0,0-13.33-9.02,6.83-18.09,0,0-37.69,2.03-78.03-44.26Z"
                   id="path102" />
                <path
                   class="cls-8"
                   d="M130.11,278.65s-37.68,2.05-78.01-44.21c.09,.67-2.38,1.59,3.32,12.77,33.92,30.11,62.65,33.7,62.65,33.7-9.7,5.92-7.7,10.72-6.79,14.13,4.92,1.38,6.15,.99,12.01,1.69,0,0-13.34-9.01,6.82-18.09Z"
                   id="path103" />
                <path
                   class="cls-34"
                   d="M55.37,233.16c39.03,39.51,75.98,43.59,76.34,43.62l5.94,.56-5.75,2.58c-4.72,2.12-7.68,4.4-8.82,6.78-2.27,4.75,3.21,8.58,3.26,8.62l6.91,4.68-11.71-1.41c-65.82-7.94-72.77-61.26-73.04-63.52l-1.17-10.03,8.03,8.13Zm60.77,53.76c1.19-2.52,3.72-4.93,7.54-7.18-10.46-2.1-36.44-9.56-65.12-34.88,5.32,15.01,19.8,40.74,57.58,48.57-.85-1.81-1.17-4.04,0-6.52Z"
                   id="path104" />
                <path
                   class="cls-16"
                   d="M123.08,286.71c1.14-2.38,4.1-4.67,8.83-6.8l5.75-2.58-5.94-.56c-.4-.02-37.31-4.11-76.36-43.61l-8.02-8.14,1.16,10.04c.25,2.26,7.22,55.59,73.04,63.51l11.72,1.42-6.91-4.68c-.08-.02-5.55-3.86-3.28-8.61Zm-1.71,.04c-2.47,5.15,3.4,9.24,3.43,9.28l3.45,2.34-5.86-.71c-64.92-7.84-71.83-60.69-72.09-62.94l-.58-5.02,3.99,4.07c39.37,39.85,76.8,43.89,77.18,43.93l2.98,.28-2.88,1.29c-5.15,2.32-8.4,4.82-9.64,7.48Z"
                   id="path105" />
                <path
                   class="cls-16"
                   d="M117.88,286.88c1.1-2.33,3.44-4.57,6.97-6.64l1.75-1.02-1.88-.38c-9.83-1.98-35.85-9.29-64.54-34.62l-5.47-4.81,2.1,5.88c5.28,14.91,19.86,41.08,58.27,49.05l3.81,.79-.99-2.15c-.96-2.05-.98-4.1-.02-6.1Zm-1.75,.04c-1.15,2.48-.84,4.71,.02,6.51-37.8-7.81-52.3-33.55-57.6-48.56,28.67,25.31,54.65,32.78,65.11,34.87-3.8,2.26-6.33,4.66-7.54,7.18Z"
                   id="path106" />
              </g>
            </g>
            <g
               id="g114">
              <path
                 class="cls-34"
                 d="M165.44,269.09c-.44-.62-.79-1.15-1.03-1.53-1.6,.28-3.23,.51-4.86,.71-.42,.06-.86,.1-1.29,.15,.41,.49,.8,1,1.19,1.5,.01,.01,.03,.03,.03,.04,.42-.04,.83-.09,1.24-.16h.01c.55,.74,1.12,1.48,1.69,2.22,1.56-.22,3.1-.46,4.64-.74-.63-.81-1.16-1.55-1.61-2.19Zm-35.49-.84c-1.63-.19-3.26-.42-4.86-.71-.23,.38-.58,.9-1.03,1.53-.1,.16-.22,.32-.35,.49-.36,.51-.79,1.09-1.25,1.7,1.53,.28,3.07,.54,4.62,.74,.04-.06,.09-.1,.13-.16,.51-.67,1.03-1.34,1.54-2.02,.01-.01,.01-.03,.01-.03h.01c.41,.06,.8,.12,1.22,.16h.01s0-.01,.01-.03c.39-.51,.8-1,1.21-1.51-.44-.04-.86-.09-1.28-.15h-.01ZM246.31,63.13c-.77-.93-1.56-1.83-2.37-2.72-13.31-14.7-29.84-26.43-48.5-34.06-1.38-.57-2.78-1.12-4.19-1.63-1.4-.54-2.81-1.02-4.23-1.5-.71-.23-1.43-.48-2.15-.7-.95-.3-1.92-.58-2.87-.87-.97-.26-1.95-.54-2.92-.8-.92-.25-1.83-.48-2.75-.71-.12-.01-.25-.04-.35-.07-.86-.2-1.7-.41-2.56-.58-.15-.03-.29-.07-.44-.1-.77-.16-1.56-.32-2.34-.48-.22-.04-.45-.07-.67-.12-.68-.15-1.37-.28-2.07-.38-.26-.06-.52-.09-.8-.15-.22-.04-.45-.09-.7-.13-.55-.09-1.12-.16-1.7-.25-.07-.01-.15-.03-.23-.03-.16-.03-.35-.06-.51-.07-.09-.03-.17-.03-.26-.04-.28-.04-.55-.07-.83-.13-.16-.03-.32-.04-.48-.06-.44-.06-.87-.12-1.32-.16-.58-.07-1.19-.15-1.77-.22-1.8-.19-3.61-.33-5.41-.46-.42-.03-.83-.06-1.24-.07-.13-.01-.25-.01-.36-.03h-.07c-.06,0-.13,0-.19-.01-.1,0-.2-.01-.32-.03-.74-.03-1.48-.06-2.24-.09-.36-.01-.71-.03-1.09-.03-1.22-.03-2.44-.06-3.68-.06-.57,0-1.15,0-1.72,.01-1.12,.01-2.23,.04-3.33,.09-.47,.01-.92,.03-1.37,.06-.13,.01-.23,.01-.35,.01-.42,.03-.84,.06-1.27,.07h-.04c-.06,.01-.12,.01-.19,.03h-.2c-.13,.01-.26,.01-.38,.03-.04,0-.09,0-.13,.01-.22,0-.44,.01-.64,.03-.55,.04-1.09,.07-1.64,.12-.2,.03-.39,.04-.61,.07-.31,.03-.63,.06-.93,.07h-.04c-.07,.01-.17,.03-.25,.03-.16,.03-.32,.04-.47,.04-.01,0-.06,0-.09,.01-.25,.03-.49,.04-.74,.09-.71,.07-1.43,.16-2.15,.25h-.06c-.31,.04-.63,.07-.93,.12-.52,.06-1.05,.15-1.57,.22-10.38,1.48-20.38,4.16-29.84,7.87-3.23,1.26-6.38,2.66-9.48,4.17-1.03,.49-2.07,1.02-3.08,1.54-2.46,1.26-4.84,2.6-7.2,4.02C40.72,56.54,16.02,93.48,11.69,136.44h0c-.04,.49-.09,.96-.13,1.44-.36,3.98-.55,8.03-.55,12.12,0,57.96,36.93,107.27,88.54,125.78,0,0,0-.01,.01,0,.47,.17,.92,.33,1.38,.48h.01c.19,.09,.41,.16,.61,.23h.01c1.98,.67,3.98,1.29,6.01,1.87,.01,.01,.01,0,.01,0,1.75,.51,3.51,.99,5.28,1.41,.26,.07,.52,.13,.79,.2,1.72,.41,3.43,.77,5.18,1.1,.67,.15,1.34,.28,2.01,.38,1.61,.31,3.23,.57,4.87,.78,.98,.18,1.6,.25,2.66,.35,1.24,.16,2.47,.31,3.72,.41,.61,.07,1.24,.12,1.88,.16,.64,.06,1.29,.1,1.95,.15h.01c2.91,.19,5.82,.29,8.77,.29h.01c.28,0,.55,0,.83-.01,1.92,0,3.83-.06,5.73-.15,.65-.03,1.32-.07,1.98-.12,.64-.03,1.27-.07,1.91-.13,.63-.04,1.27-.1,1.89-.16,1.27-.12,2.53-.25,3.78-.41,1.11-.19,1.96-.32,2.92-.38,1.64-.23,3.26-.49,4.87-.78,.68-.12,1.34-.25,2.01-.38,1.73-.33,3.46-.71,5.16-1.12,.26-.06,.52-.12,.79-.2,1.77-.42,3.55-.89,5.29-1.39,2.02-.58,4.03-1.21,6.02-1.89,.2-.07,.42-.15,.63-.22,.47-.16,.93-.32,1.4-.49,51.28-18.39,88.06-67.18,88.53-124.61v-.12c.01-.35,.01-.68,.01-1.03,0-33.17-12.11-63.52-32.17-86.87Zm-79.2,203.97c-.33,.07-.67,.13-1,.19-.29,.06-.58,.1-.89,.15-.26,.06-.52,.1-.8,.13-1.6,.28-3.23,.51-4.86,.71-.42,.06-.86,.1-1.29,.15-1.27,.15-2.55,.28-3.84,.38-1.4,.12-2.81,.2-4.22,.25-.7,.04-1.38,.07-2.08,.09-1.09,.03-2.18,.04-3.27,.04h-.13c-1.13,0-2.27-.01-3.39-.06-.67-.01-1.35-.04-2.02-.07-1.41-.06-2.82-.15-4.22-.26-1.29-.1-2.57-.23-3.84-.38-.44-.04-.86-.09-1.28-.15h-.01c-1.63-.2-3.26-.44-4.86-.73-.28-.03-.54-.07-.8-.13-.31-.04-.6-.09-.89-.15-.31-.06-.6-.12-.89-.17-55.22-10.43-96.98-58.89-96.98-117.09,0-2.57,.09-5.14,.23-7.69h0c3.99-62.24,55.76-111.48,119.07-111.48,38.18,0,72.18,17.93,93.98,45.81,.39,.48,.77,.97,1.15,1.47,15.17,19.98,24.16,44.88,24.16,71.89,0,58.23-41.8,106.69-97.04,117.1Zm-37.13,1.16h-.01c-1.63-.2-3.26-.44-4.86-.73-.23,.38-.58,.9-1.03,1.53-.1,.16-.22,.32-.35,.49-.36,.51-.79,1.09-1.25,1.7,1.53,.28,3.07,.54,4.62,.74,.04-.06,.09-.1,.13-.16,.51-.67,1.03-1.34,1.54-2.02,.01-.01,.01-.03,.01-.03h.01c.41,.06,.8,.12,1.22,.16h.01s0-.01,.01-.03c.39-.51,.8-1,1.21-1.51-.44-.04-.86-.09-1.28-.15Zm35.47,.83c-.44-.62-.79-1.15-1.03-1.53-1.6,.28-3.23,.51-4.86,.71-.42,.06-.86,.1-1.29,.15,.41,.49,.8,1,1.19,1.5,.01,.01,.03,.03,.03,.04,.42-.04,.83-.09,1.24-.16h.01c.55,.74,1.12,1.48,1.69,2.22,1.56-.22,3.1-.46,4.64-.74-.63-.81-1.16-1.55-1.61-2.19Z"
                 id="path107" />
              <path
                 class="cls-20"
                 d="M246.31,63.13c-.6,1.93-1.27,3.85-2.02,5.74-.33,.89-.71,1.77-1.09,2.64-.19,.44-.76,1.16-1.53,2.06-.48,.55-1.05,1.18-1.67,1.83-.36,.39-.76,.81-1.16,1.24-1.05,1.1-2.18,2.25-3.26,3.36-20.96-27.1-53.8-44.53-90.74-44.53-60.84,0-110.6,47.33-114.42,107.14-.01,.33-.04,.65-.06,.99-1.66-.46-3.2-.9-4.58-1.29-.57-.17-1.12-.32-1.63-.46-.92-.26-1.72-.49-2.4-.68-1.29-.38-2.15-.62-2.41-.71-.83-.25-1.66-.51-2.49-.77-1.77-.57-3.55-1.18-5.29-1.79,.04-.48,.09-.94,.13-1.42h0c4.33-42.98,29.03-79.92,64.3-101.08,2.36-1.42,4.74-2.76,7.2-4.02,1.02-.52,2.05-1.05,3.08-1.54,3.1-1.51,6.25-2.91,9.48-4.17,9.47-3.72,19.46-6.39,29.84-7.87,.52-.07,1.05-.16,1.57-.22,.31-.04,.63-.07,.93-.12h.06c.73-.09,1.44-.17,2.15-.25,.25-.04,.49-.06,.74-.09,.03-.01,.07-.01,.09-.01,.15,0,.31-.01,.47-.04,.07,0,.17-.01,.25-.03h.04c.31-.01,.63-.04,.93-.07,.22-.03,.41-.04,.61-.07,.55-.04,1.09-.07,1.64-.12,.2-.01,.42-.03,.64-.03,.04-.01,.09-.01,.13-.01,.12-.01,.25-.01,.38-.03h.2c.07-.01,.13-.01,.19-.03h.04c.42-.01,.84-.04,1.27-.07,.12,0,.22,0,.35-.01,.45-.03,.9-.04,1.37-.06,1.11-.04,2.21-.07,3.33-.09,.57-.01,1.15-.01,1.72-.01,1.24,0,2.46,.03,3.68,.06,.38,0,.73,.01,1.09,.03,.76,.03,1.5,.06,2.24,.09,.12,.01,.22,.03,.32,.03,.06,.01,.13,.01,.19,.01h.07c.12,.01,.23,.01,.36,.03,.41,.01,.81,.04,1.24,.07,1.8,.13,3.61,.28,5.41,.46,.58,.07,1.19,.15,1.77,.22,.45,.04,.89,.1,1.32,.16,.16,.01,.32,.03,.48,.06,.28,.06,.55,.09,.83,.13,.09,.01,.17,.01,.26,.04,.16,.01,.35,.04,.51,.07,.09,0,.16,.01,.23,.03,.58,.09,1.15,.16,1.7,.25,.25,.04,.48,.09,.7,.13,.28,.06,.54,.09,.8,.15,.7,.1,1.38,.23,2.07,.38,.22,.04,.45,.07,.67,.12,.79,.16,1.57,.32,2.34,.48,.15,.03,.29,.07,.44,.1,.86,.17,1.7,.38,2.56,.58,.1,.03,.23,.06,.35,.07,.92,.23,1.83,.46,2.75,.71,.97,.26,1.95,.54,2.92,.8,.95,.29,1.92,.57,2.87,.87,.73,.22,1.44,.46,2.15,.7,1.43,.48,2.84,.96,4.23,1.5,1.41,.51,2.81,1.06,4.19,1.63,18.66,7.63,35.2,19.35,48.5,34.06,.81,.89,1.6,1.79,2.37,2.72Z"
                 id="path108" />
              <path
                 class="cls-28"
                 d="M193.28,26.94c-1.34-.54-2.68-1.06-4.03-1.57-1.34-.51-2.71-.97-4.07-1.42-.68-.22-1.37-.46-2.07-.67-.92-.3-1.85-.57-2.76-.84-.95-.26-1.86-.52-2.81-.77-.89-.23-1.76-.46-2.65-.68-.1-.03-.23-.04-.33-.07-.83-.19-1.63-.39-2.46-.57-.15-.03-.28-.06-.41-.09-.74-.16-1.5-.31-2.25-.46-.22-.04-.44-.07-.65-.12-.65-.13-1.31-.25-1.98-.36-.26-.04-.49-.09-.76-.13-.22-.04-.45-.09-.68-.13-.52-.09-1.08-.16-1.63-.23-.07-.01-.16-.03-.23-.03-.16-.03-.33-.06-.49-.07-.07-.01-.16-.03-.25-.04-.26-.04-.52-.07-.8-.13-.15-.01-.31-.03-.45-.04-.42-.06-.84-.1-1.27-.16-.58-.07-1.15-.13-1.72-.2-1.73-.19-3.46-.33-5.21-.45-.39-.03-.8-.06-1.19-.07-.1-.01-.23-.01-.35-.03h-.25c-.1,0-.19-.03-.31-.03-.71-.04-1.43-.06-2.15-.09-.35-.01-.68-.03-1.05-.04-1.16-.01-2.36-.04-3.53-.04-.55,0-1.11,0-1.66,.01-1.06,.01-2.12,.04-3.2,.09-.45,.01-.87,.03-1.31,.06-.12,0-.22,0-.33,.01-.41,.03-.8,.04-1.21,.07h-.04c-.06,0-.12,0-.19,.01h-.2c-.12,.01-.23,.01-.35,.03-.04,0-.09,0-.13,.01-.2,0-.42,.01-.61,.03-.54,.04-1.06,.07-1.59,.12-.19,.01-.38,.03-.58,.06-.29,.03-.6,.06-.9,.09-.01-.01-.03-.01-.03,0-.09,0-.17,.01-.25,.01-.15,.03-.31,.04-.44,.04-.03,0-.07,0-.09,.01-.25,.03-.48,.04-.71,.07-.7,.07-1.38,.16-2.08,.25h-.04c-.31,.04-.61,.07-.9,.12-.51,.06-1,.13-1.51,.2-9.98,1.42-19.58,4-28.68,7.57-3.1,1.22-6.14,2.56-9.12,4.01-.99,.48-1.98,.97-2.95,1.48h-.01c-2.34,1.22-4.65,2.5-6.91,3.86-8.41,5.04-16.19,11.03-23.21,17.8,6.53-5.8,13.66-10.97,21.29-15.42,2.33-1.37,4.68-2.66,7.11-3.86,1.02-.51,2.02-1.02,3.05-1.5,3.05-1.45,6.18-2.79,9.37-4,9.38-3.57,19.27-6.15,29.54-7.57,.49-.07,1.03-.16,1.54-.22,.31-.03,.63-.07,.93-.1,.01,0,.03,0,.04-.01,.71-.07,1.44-.16,2.14-.23,.25-.03,.48-.04,.73-.07,.03-.01,.06-.01,.09-.01,.15,0,.31-.03,.47-.04,.07,0,.16-.01,.25-.03h.03c.31-.03,.63-.04,.93-.07,.2-.03,.41-.04,.61-.06,.54-.04,1.06-.09,1.61-.12,.2-.01,.42-.03,.64-.04h.12c.13-.01,.25-.01,.38-.03,.06,0,.13-.01,.17-.01h.03c.07,0,.13,0,.19-.01h.04c.42-.01,.83-.04,1.25-.07,.12,0,.22,0,.33-.01,.47-.03,.9-.04,1.35-.04,1.11-.04,2.21-.07,3.3-.09,.57-.01,1.13-.01,1.7-.01,1.22,0,2.43,.01,3.64,.04,.38,.01,.73,.01,1.08,.03,.76,.03,1.48,.06,2.21,.09,.12,.01,.22,.03,.32,.03,.07,.01,.13,.01,.2,.01h.06c.12,0,.25,.01,.35,.03,.41,.01,.81,.04,1.24,.06,1.79,.13,3.58,.28,5.34,.46,.6,.07,1.19,.13,1.77,.2,.44,.04,.87,.1,1.31,.15,.15,.03,.31,.04,.47,.06,.28,.06,.55,.09,.81,.13,.1,.01,.19,.01,.26,.03,.16,.03,.35,.04,.51,.07,.07,.01,.16,.01,.23,.04,.57,.07,1.13,.15,1.69,.23,.23,.04,.47,.09,.68,.13,.28,.04,.52,.07,.79,.13,.68,.1,1.37,.23,2.05,.36,.22,.04,.44,.07,.67,.12,.77,.15,1.54,.31,2.31,.46,.15,.03,.28,.06,.42,.09,.84,.17,1.69,.36,2.53,.55,.1,.03,.23,.06,.35,.09,.92,.22,1.82,.45,2.72,.68,.97,.25,1.92,.51,2.88,.77,.95,.26,1.91,.54,2.85,.84,.71,.2,1.43,.44,2.12,.65,1.4,.46,2.81,.93,4.19,1.44,1.4,.49,2.78,1.02,4.14,1.57,14.59,5.8,27.85,14.05,39.28,24.23-11.66-11.29-25.45-20.37-40.69-26.62Z"
                 id="path109" />
              <path
                 class="cls-17"
                 d="M241.67,73.58c-.41-.52-.83-1.05-1.25-1.55-22.63-27.65-57.03-45.29-95.58-45.29-64.81,0-117.93,49.89-123.01,113.34-.03,.36-.06,.71-.07,1.08-.22,2.92-.32,5.87-.32,8.85,0,56.87,38.54,104.71,90.93,118.96h.01c.74,.2,1.48,.41,2.23,.58,.51,.13,1.02,.26,1.54,.38,1.47,.36,2.95,.68,4.45,.97,.25,.06,.49,.1,.74,.15,.38,.07,.76,.15,1.13,.22,1.53,.28,3.07,.54,4.62,.74h.01c.41,.07,.79,.13,1.19,.17,1.02,.15,2.02,.26,3.04,.36,1.38,.16,2.78,.29,4.17,.39,.63,.04,1.27,.09,1.89,.12,.74,.06,1.5,.1,2.24,.12,1.16,.06,2.34,.09,3.52,.09,.51,.03,1.03,.03,1.56,.03h.12c1.29,0,2.59-.01,3.88-.07,.61,0,1.21-.03,1.82-.06,.51-.01,1-.04,1.51-.09,.65-.03,1.29-.07,1.95-.12,1.4-.1,2.79-.23,4.17-.39,1.02-.09,2.04-.22,3.05-.35,.39-.06,.8-.12,1.19-.17,1.56-.22,3.1-.46,4.64-.74,.38-.07,.76-.15,1.12-.22,.26-.04,.51-.09,.76-.15,1.51-.29,3.01-.62,4.49-.97,.52-.12,1.05-.25,1.56-.38h.01c.73-.19,1.47-.38,2.2-.6h.01c52.46-14.19,91.03-62.07,91.03-118.98,0-28.87-9.95-55.41-26.57-76.42Zm-79.83,189.72c-1.91,.28-3.84,.52-5.77,.7-.51,.06-1.02,.1-1.53,.15h-.01c-1.48,.13-2.98,.22-4.48,.29-1.37,.06-2.75,.1-4.13,.1-.35,.01-.71,.01-1.08,.01-.42,0-.84,0-1.25-.01-1.38,0-2.75-.04-4.12-.12-1.5-.06-3-.16-4.48-.29h-.01c-.51-.04-1.02-.09-1.53-.15-1.93-.17-3.85-.42-5.76-.71-55.18-8.27-97.5-55.83-97.5-113.27,0-2.15,.07-4.29,.17-6.41,.01-.33,.04-.65,.06-.99,3.81-59.8,53.58-107.14,114.42-107.14,36.94,0,69.78,17.43,90.74,44.53,.25,.3,.48,.61,.71,.92,14.57,19.19,23.2,43.14,23.2,69.08,0,57.49-42.39,105.09-97.65,113.3Z"
                 id="path110" />
              <path
                 class="cls-38"
                 d="M239.99,75.41c-.2-.28-.42-.55-.64-.83-22.16-27.68-56.27-45.42-94.52-45.42-63.72,0-115.91,49.21-120.63,111.65-.03,.33-.04,.68-.06,1.02-.19,2.7-.28,5.42-.28,8.17,0,57.4,40.05,105.46,93.78,117.79,.87,.2,1.75,.39,2.63,.58h.01s.1,.01,.16,.03c.64,.13,1.28,.26,1.92,.36,.23,.06,.48,.1,.73,.15,.32,.06,.64,.12,.96,.16,1.56,.28,3.13,.52,4.71,.73h.01c.41,.06,.8,.12,1.22,.16h.01c1.16,.15,2.34,.28,3.52,.38,1.38,.13,2.79,.23,4.2,.31,.65,.06,1.31,.09,1.96,.1,.74,.04,1.48,.06,2.23,.07,.49,.01,.97,.03,1.47,.03,.44,.01,.87,.01,1.31,.01h.12c1.05,0,2.08-.01,3.13-.04,.09,0,.16,0,.26-.01h.01c.49,0,.99-.01,1.48-.06,.68-.01,1.35-.04,2.02-.09,1.41-.07,2.82-.17,4.22-.31,1.18-.1,2.36-.23,3.52-.38,.42-.04,.83-.09,1.24-.16h.01c1.59-.19,3.16-.44,4.71-.71,.32-.04,.64-.1,.96-.16,.23-.04,.48-.09,.73-.15,.67-.1,1.31-.23,1.96-.38h.01c.07,0,.13-.01,.19-.03h.01c.87-.19,1.76-.38,2.62-.58h.01c53.75-12.29,93.86-60.37,93.86-117.8,0-28.16-9.64-54.05-25.82-74.59Zm-78.16,187.89c-1.91,.28-3.84,.52-5.77,.7-.51,.06-1.02,.1-1.53,.15h-.01c-1.48,.13-2.98,.22-4.48,.29-1.37,.06-2.75,.1-4.13,.1-.35,.01-.71,.01-1.08,.01-.42,0-.84,0-1.25-.01-1.38,0-2.75-.04-4.12-.12-1.5-.06-3-.16-4.48-.29h-.01c-.51-.04-1.02-.09-1.53-.15-1.93-.17-3.85-.42-5.76-.71-55.18-8.27-97.5-55.83-97.5-113.27,0-2.15,.07-4.29,.17-6.41,.01-.33,.04-.65,.06-.99,3.81-59.8,53.58-107.14,114.42-107.14,36.94,0,69.78,17.43,90.74,44.53,.25,.3,.48,.61,.71,.92,14.57,19.19,23.2,43.14,23.2,69.08,0,57.49-42.39,105.09-97.65,113.3Z"
                 id="path111" />
              <path
                 class="cls-1"
                 d="M46.8,236.82c.43-.63,47.44,44.86,109.37,40.2,63.62-4.79,103.6-67.11,104.1-66.6,.5,.52-31.99,65.75-108.95,70.99-64.17,4.37-104.95-43.95-104.52-44.59Z"
                 id="path112" />
              <path
                 class="cls-19"
                 d="M31.83,84.34c-.67-.58,7.22-12.45,18.53-23.52,18.17-17.77,38.15-26.59,38.74-25.69,.51,.79-14.08,8.84-34.73,27.52-14.09,12.74-21.92,22.22-22.54,21.68Z"
                 id="path113" />
              <path
                 class="cls-18"
                 d="M174.42,26.63c-.11,.36,12.07,3.81,28.22,12.18,25.44,13.17,39.54,30.04,40.07,29.52,.47-.45-9.06-15.14-27.05-26.69-20.31-13.04-41.1-15.47-41.24-15.01Z"
                 id="path114" />
            </g>
            <g
               id="g117">
              <path
                 class="cls-30"
                 d="M241.75,67.03c-.73-.89-1.48-1.75-2.26-2.59-12.72-14.05-28.51-25.24-46.34-32.53-1.31-.54-2.65-1.08-4-1.56-1.33-.51-2.68-.96-4.03-1.42-.68-.22-1.37-.46-2.06-.67-.9-.29-1.83-.54-2.74-.82-.93-.25-1.85-.52-2.79-.76-.87-.24-1.75-.46-2.62-.68-.12-.01-.24-.05-.34-.07-.82-.2-1.62-.39-2.45-.56-.14-.02-.28-.07-.42-.09-.73-.16-1.48-.31-2.24-.46-.21-.05-.43-.07-.64-.12-.65-.14-1.31-.25-1.97-.36-.26-.05-.5-.08-.77-.14-.21-.03-.43-.08-.66-.12-.53-.09-1.08-.16-1.63-.24-.07-.01-.14-.02-.22-.02-.15-.03-.34-.06-.49-.07-.08-.03-.16-.03-.24-.05-.27-.03-.53-.07-.8-.13-.15-.02-.3-.03-.45-.05-.42-.06-.83-.12-1.26-.16-.56-.07-1.15-.14-1.69-.21-1.73-.17-3.45-.31-5.17-.44-.41-.02-.8-.06-1.18-.07-.13-.01-.23-.01-.35-.02h-.07c-.06,0-.13,0-.19-.01-.09,0-.19-.02-.3-.03-.71-.02-1.41-.06-2.14-.08-.34-.01-.67-.02-1.03-.02-1.17-.03-2.34-.06-3.52-.06-.53,0-1.09,0-1.63,.01-1.07,.01-2.12,.05-3.18,.08-.45,.01-.88,.03-1.31,.06-.13,.01-.22,.01-.34,.01-.41,.03-.8,.06-1.21,.07h-.05s-.1,.01-.17,.02h-.2c-.13,.02-.26,.02-.36,.03-.05,0-.08,0-.13,.01-.21,0-.42,.01-.61,.02-.52,.05-1.04,.07-1.56,.12-.2,.02-.37,.05-.58,.07-.3,.02-.6,.06-.89,.07h-.05c-.07,.01-.16,.02-.23,.02-.15,.03-.3,.05-.44,.05-.02,0-.06,0-.09,.01-.23,.03-.46,.05-.71,.08-.67,.07-1.36,.16-2.05,.24h-.06c-.29,.03-.59,.07-.89,.1-.5,.06-1,.14-1.5,.21-9.92,1.42-19.46,3.97-28.51,7.53-3.08,1.2-6.1,2.54-9.05,3.98-.99,.47-1.97,.97-2.94,1.47-2.35,1.2-4.63,2.48-6.87,3.84-33.69,20.21-57.28,55.49-61.42,96.53h0c-.05,.46-.08,.91-.13,1.37-.35,3.81-.52,7.68-.52,11.58,0,55.35,35.26,102.45,84.57,120.13h.01c.44,.17,.88,.32,1.32,.46h.01c.19,.08,.39,.15,.58,.22h.02c1.89,.64,3.8,1.24,5.74,1.78,.01,.02,.01,0,.01,0,1.67,.49,3.35,.95,5.04,1.35,.24,.07,.5,.13,.74,.19,1.65,.39,3.28,.74,4.95,1.07,.64,.14,1.28,.25,1.91,.36,1.54,.29,3.08,.53,4.66,.74,.93,.19,1.53,.24,2.54,.34,1.18,.15,2.36,.29,3.56,.39,.58,.07,1.18,.1,1.79,.15,.61,.06,1.24,.09,1.87,.14h.01c2.78,.19,5.56,.28,8.38,.28h.01c.27,0,.53,0,.79-.01,1.83,0,3.65-.06,5.47-.14,.63-.03,1.28-.07,1.89-.12,.61-.02,1.22-.07,1.82-.13,.6-.03,1.22-.09,1.81-.15,1.21-.1,2.42-.23,3.62-.38,1.07-.19,1.88-.31,2.79-.37,1.56-.22,3.11-.46,4.65-.74,.65-.12,1.28-.24,1.91-.36,1.66-.32,3.32-.68,4.94-1.08,.24-.05,.5-.1,.75-.19,1.69-.41,3.39-.86,5.05-1.34,1.92-.54,3.85-1.15,5.75-1.79,.2-.07,.41-.14,.59-.21,.45-.15,.89-.31,1.33-.47,48.99-17.57,84.12-64.17,84.57-119.03v-.1c.01-.34,.01-.65,.01-.98,0-31.68-11.57-60.67-30.73-82.97Zm23.61,83.9v.1c-.42,51.81-33.6,95.81-79.86,112.41-.42,.16-.83,.3-1.25,.45-.19,.06-.38,.13-.57,.2-1.8,.61-3.61,1.17-5.44,1.7-1.57,.45-3.16,.88-4.76,1.25-.24,.08-.48,.14-.72,.19-1.53,.37-3.1,.71-4.65,1.01-.6,.13-1.19,.24-1.81,.35-1.46,.25-2.92,.5-4.41,.71-.86,.05-1.62,.16-2.63,.34-1.12,.15-2.27,.27-3.41,.37-.57,.06-1.15,.1-1.7,.14-.58,.06-1.15,.09-1.73,.13-.59,.03-1.19,.07-1.79,.1-1.72,.07-3.43,.13-5.16,.13-.26,.01-.5,.01-.75,.01h-.01c-2.67,0-5.29-.09-7.91-.27h-.02c-.59-.03-1.17-.07-1.75-.13-.58-.03-1.15-.08-1.69-.14-1.14-.09-2.25-.23-3.36-.37-.95-.09-1.52-.15-2.4-.31-1.48-.2-2.94-.43-4.39-.71-.6-.09-1.21-.21-1.81-.35-1.58-.3-3.13-.63-4.67-1-.24-.06-.48-.12-.71-.19-1.6-.37-3.19-.81-4.76-1.26h-.01c-1.83-.53-3.64-1.09-5.43-1.69h-.01c-.19-.07-.38-.14-.54-.21h-.01c-.43-.14-.83-.28-1.25-.44h-.01c-46.56-16.7-79.87-61.18-79.87-113.45,0-3.68,.17-7.34,.5-10.93,.05-.43,.08-.86,.12-1.29h0c3.92-38.77,26.19-72.1,58.01-91.17,2.12-1.29,4.28-2.49,6.49-3.64,.92-.47,1.84-.94,2.78-1.39,2.79-1.37,5.63-2.62,8.56-3.76,8.53-3.35,17.55-5.77,26.92-7.1,.48-.07,.94-.15,1.41-.2,.28-.03,.57-.07,.83-.1h.06c.66-.08,1.3-.16,1.94-.22,.23-.05,.45-.06,.67-.08,.02-.01,.07-.01,.08-.01,.13,0,.28-.01,.42-.05,.07,0,.16-.01,.22-.02h.05c.28-.01,.56-.03,.83-.07,.2-.02,.37-.03,.56-.06,.5-.05,.99-.07,1.48-.1,.17-.01,.37-.03,.57-.03,.05-.01,.08-.01,.13-.01,.1-.01,.22-.01,.34-.02h.19c.07-.01,.12-.01,.17-.02h.03c.38-.01,.77-.05,1.14-.07,.1,0,.2,0,.32-.01,.41-.02,.81-.03,1.23-.06,1-.03,1.99-.06,3-.07,.51-.02,1.04-.02,1.55-.02,1.11,0,2.21,.03,3.32,.06,.34,0,.66,.01,.99,.02,.68,.03,1.34,.06,2.02,.08,.1,.01,.2,.02,.29,.02,.06,.01,.12,.01,.17,.01h.06c.1,.02,.21,.02,.34,.03,.36,.01,.73,.03,1.11,.06,1.62,.13,3.26,.25,4.88,.43,.52,.06,1.08,.13,1.6,.2,.41,.03,.8,.09,1.19,.14,.14,.01,.29,.02,.43,.06,.26,.05,.5,.07,.75,.12,.08,.01,.15,.01,.23,.03,.15,.01,.31,.05,.46,.07,.08,0,.14,.01,.21,.02,.52,.08,1.03,.15,1.53,.22,.22,.05,.44,.08,.64,.12,.24,.06,.48,.08,.72,.14,.63,.09,1.24,.21,1.87,.34,.19,.05,.41,.07,.6,.1,.71,.15,1.41,.29,2.11,.44,.13,.02,.26,.06,.39,.09,.77,.15,1.53,.34,2.31,.52,.09,.02,.21,.05,.31,.06,.82,.22,1.66,.43,2.48,.65,.88,.23,1.76,.49,2.63,.72,.86,.27,1.74,.51,2.59,.79,.66,.2,1.3,.42,1.95,.63,1.29,.44,2.56,.87,3.81,1.35,1.28,.46,2.54,.96,3.78,1.47,16.83,6.88,31.75,17.45,43.75,30.72,.74,.8,1.45,1.61,2.14,2.44,18.08,21.06,29.02,48.44,29.02,78.36,0,.31,0,.61-.01,.93Z"
                 id="path115" />
              <path
                 class="cls-46"
                 d="M241.39,73.79c-.4-.52-.82-1.05-1.25-1.55-22.56-27.58-56.86-45.17-95.31-45.17-64.63,0-117.61,49.76-122.66,113.03-.03,.36-.06,.71-.08,1.07-.21,2.92-.32,5.86-.32,8.83,0,56.71,38.44,104.42,90.68,118.63h.01c.74,.21,1.48,.41,2.22,.58,.51,.13,1.02,.26,1.54,.38,1.46,.36,2.94,.68,4.44,.97,.25,.06,.49,.1,.74,.15,.38,.07,.75,.14,1.13,.22,1.52,.27,3.06,.53,4.62,.74h.01c.41,.07,.78,.13,1.19,.17,1.02,.14,2.02,.26,3.03,.36,1.38,.16,2.77,.29,4.17,.39,.62,.05,1.26,.09,1.88,.12,.74,.06,1.5,.1,2.24,.12,1.16,.05,2.33,.08,3.51,.08,.51,.03,1.03,.03,1.55,.03h.12c1.29,0,2.58,0,3.87-.07,.61,0,1.21-.03,1.82-.06,.51,0,1-.04,1.51-.09,.65-.02,1.29-.07,1.94-.11,1.39-.1,2.79-.23,4.17-.39,1.01-.09,2.03-.22,3.04-.35,.39-.06,.8-.12,1.19-.18,1.56-.21,3.09-.46,4.63-.74,.38-.07,.76-.14,1.12-.21,.26-.05,.51-.09,.75-.15,1.51-.29,3.01-.62,4.49-.97,.52-.12,1.04-.25,1.55-.38h.01c.73-.19,1.47-.38,2.2-.59h.01c52.31-14.16,90.77-61.9,90.77-118.65,0-28.78-9.91-55.26-26.5-76.21Zm-65.48,190.42h-.01c-.7,.21-1.41,.39-2.11,.57h-.01c-.49,.13-1,.25-1.5,.36-1.42,.34-2.86,.66-4.31,.94-.24,.05-.48,.1-.73,.14-.35,.07-.71,.14-1.08,.21-1.48,.26-2.96,.5-4.45,.71-.38,.06-.77,.11-1.15,.17-.98,.12-1.95,.25-2.93,.33-1.33,.16-2.67,.28-4.01,.38-.63,.04-1.24,.08-1.87,.11-.49,.04-.97,.07-1.46,.09-.58,.02-1.15,.05-1.74,.05-1.24,.06-2.49,.07-3.73,.07h-.11c-.51,0-1.01,0-1.5-.03-1.13,0-2.26-.02-3.38-.08-.71,0-1.44-.06-2.15-.11-.6-.03-1.21-.07-1.81-.11-1.35-.1-2.69-.23-4.01-.38-.98-.1-1.95-.21-2.92-.35-.39-.04-.76-.1-1.15-.17h-.01c-1.5-.19-2.98-.44-4.45-.71l-1.08-.21c-.24-.04-.48-.08-.72-.14-1.44-.28-2.86-.59-4.27-.94-.5-.11-.99-.23-1.48-.36-.71-.17-1.43-.36-2.14-.56h-.01c-50.29-13.68-87.29-59.6-87.29-114.2,0-2.86,.1-5.69,.31-8.5,.02-.35,.04-.68,.07-1.03,4.88-60.91,55.87-108.8,118.09-108.8,37.01,0,70.03,16.93,91.75,43.48,.41,.48,.81,.99,1.2,1.49,15.96,20.17,25.51,45.65,25.51,73.36,0,54.63-37.02,100.59-87.38,114.22Z"
                 id="path116" />
              <path
                 class="cls-55"
                 d="M239.88,75.49c-.2-.28-.42-.55-.64-.83-22.14-27.65-56.21-45.37-94.41-45.37-63.64,0-115.78,49.15-120.49,111.53-.03,.33-.04,.68-.06,1.02-.19,2.7-.28,5.41-.28,8.16,0,57.34,40.01,105.35,93.67,117.65,.87,.2,1.74,.39,2.63,.58h.01s.1,.01,.16,.03c.64,.13,1.28,.26,1.92,.36,.23,.06,.48,.1,.73,.15,.32,.06,.64,.12,.96,.16,1.55,.28,3.12,.52,4.71,.73h.01c.41,.06,.8,.12,1.22,.16h.01c1.16,.15,2.34,.28,3.52,.38,1.38,.13,2.79,.23,4.2,.3,.65,.06,1.31,.09,1.96,.1,.74,.04,1.48,.06,2.22,.07,.49,.01,.97,.03,1.47,.03,.44,.01,.87,.01,1.31,.01h.12c1.05,0,2.08-.01,3.12-.04,.09,0,.16,0,.26-.01h.01c.49,0,.99-.01,1.48-.06,.68-.01,1.35-.04,2.02-.09,1.41-.07,2.82-.17,4.21-.3,1.18-.1,2.35-.23,3.52-.38,.42-.04,.83-.09,1.23-.16h.01c1.58-.19,3.15-.44,4.71-.71,.32-.04,.64-.1,.96-.16,.23-.04,.48-.09,.73-.15,.67-.1,1.31-.23,1.96-.38h.01c.07,0,.13-.01,.19-.03h.01c.87-.19,1.76-.38,2.61-.58h.01c53.69-12.28,93.76-60.3,93.76-117.67,0-28.13-9.63-53.99-25.79-74.51Zm-78.07,187.67c-1.9,.28-3.84,.52-5.77,.7-.51,.06-1.02,.1-1.53,.15h-.01c-1.48,.13-2.98,.22-4.47,.29-1.37,.06-2.75,.1-4.13,.1-.35,.01-.71,.01-1.08,.01-.42,0-.84,0-1.25-.01-1.38,0-2.75-.04-4.11-.12-1.5-.06-2.99-.16-4.47-.29h-.01c-.51-.04-1.02-.09-1.53-.15-1.93-.17-3.85-.42-5.75-.71-55.12-8.26-97.39-55.77-97.39-113.14,0-2.15,.07-4.28,.17-6.4,.01-.33,.04-.65,.06-.99,3.81-59.73,53.52-107.01,114.29-107.01,36.9,0,69.7,17.41,90.64,44.48,.25,.3,.48,.61,.71,.91,14.56,19.17,23.17,43.09,23.17,69.01,0,57.43-42.35,104.97-97.54,113.17Z"
                 id="path117" />
            </g>
            <g
               id="g123">
              <g
                 id="g119">
                <path
                   class="cls-34"
                   d="M286.45,163.01c1.1-8.64,1.1-17.38,0-26.02-11.57,1.23-23.16,2.4-34.77,3.49,.64,6.33,.64,12.71,0,19.03,11.61,1.1,23.2,2.26,34.77,3.49Zm-3.74,17.33c1.19-3.88,2.15-7.81,2.88-11.77-11.43-1.75-22.9-3.41-34.4-4.98-.42,2.91-.97,5.8-1.66,8.67,11.17,2.54,22.24,5.24,33.19,8.07Zm0-60.69c-10.95,2.83-22.02,5.53-33.19,8.07,.69,2.87,1.25,5.77,1.66,8.67,11.51-1.56,22.98-3.22,34.4-4.98-.73-3.96-1.69-7.89-2.88-11.77Z"
                   id="path118" />
                <path
                   class="cls-59"
                   d="M281.52,121.77c.78,2.7,1.46,5.44,2.01,8.2-10.24,1.56-20.61,3.06-30.87,4.47-.29-1.8-.64-3.6-1.03-5.39,10-2.29,20.04-4.74,29.89-7.27Zm-28.86,43.8c10.26,1.4,20.63,2.9,30.87,4.47-.56,2.76-1.23,5.51-2.01,8.2-9.85-2.54-19.9-4.98-29.89-7.27,.39-1.79,.74-3.59,1.03-5.39Zm32.26-26.66c.41,3.68,.61,7.4,.61,11.09s-.2,7.41-.61,11.09c-10.35-1.1-20.87-2.15-31.33-3.15,.22-2.64,.33-5.3,.33-7.94s-.11-5.3-.33-7.94c10.46-1,20.98-2.05,31.33-3.15Z"
                   id="path119" />
              </g>
              <g
                 id="g122">
                <path
                   class="cls-23"
                   d="M269.72,156.67c-3.68,0-6.68-2.99-6.68-6.67s3-6.67,6.68-6.67,6.68,2.99,6.68,6.67-3,6.67-6.68,6.67Z"
                   id="path120" />
                <path
                   class="cls-35"
                   d="M274.78,150c0,2.79-2.27,5.05-5.06,5.05s-5.06-2.26-5.06-5.05,2.27-5.05,5.06-5.05,5.06,2.26,5.06,5.05Z"
                   id="path121" />
                <path
                   class="cls-26"
                   d="M272.93,147.83c0,1.21-1.44,2.19-3.21,2.19s-3.21-.98-3.21-2.19,1.44-2.19,3.21-2.19,3.21,.98,3.21,2.19Z"
                   id="path122" />
              </g>
            </g>
            <g
               id="g128">
              <g
                 id="g124">
                <path
                   class="cls-30"
                   d="M4.01,136.99c-1.1,8.64-1.1,17.38,0,26.02,11.57-1.23,23.16-2.4,34.77-3.49-.64-6.33-.64-12.71,0-19.03-11.61-1.1-23.2-2.26-34.77-3.49Zm3.74-17.33c-1.19,3.88-2.15,7.81-2.88,11.77,11.43,1.75,22.9,3.41,34.4,4.98,.42-2.91,.97-5.8,1.66-8.67-11.17-2.54-22.24-5.24-33.19-8.07Zm0,60.69c10.95-2.83,22.02-5.53,33.19-8.07-.69-2.87-1.25-5.77-1.66-8.67-11.51,1.56-22.98,3.22-34.4,4.98,.73,3.96,1.69,7.89,2.88,11.77Z"
                   id="path123" />
                <path
                   class="cls-47"
                   d="M8.95,178.23c-.78-2.7-1.46-5.44-2.01-8.2,10.24-1.56,20.61-3.06,30.87-4.47,.29,1.8,.64,3.6,1.03,5.39-10,2.29-20.04,4.74-29.89,7.27Zm28.86-43.8c-10.26-1.4-20.63-2.9-30.87-4.47,.56-2.76,1.23-5.51,2.01-8.2,9.85,2.54,19.9,4.98,29.89,7.27-.39,1.79-.74,3.59-1.03,5.39ZM5.55,161.09c-.41-3.68-.61-7.4-.61-11.09s.2-7.41,.61-11.09c10.35,1.1,20.87,2.15,31.33,3.15-.22,2.64-.33,5.3-.33,7.94s.11,5.3,.33,7.94c-10.46,1-20.98,2.05-31.33,3.15Z"
                   id="path124" />
              </g>
              <g
                 id="g127">
                <path
                   class="cls-58"
                   d="M20.75,143.33c3.68,0,6.68,2.99,6.68,6.67s-3,6.67-6.68,6.67-6.68-2.99-6.68-6.67,3-6.67,6.68-6.67Z"
                   id="path125" />
                <path
                   class="cls-44"
                   d="M15.69,150c0-2.79,2.27-5.05,5.06-5.05s5.06,2.26,5.06,5.05-2.27,5.05-5.06,5.05-5.06-2.26-5.06-5.05Z"
                   id="path126" />
                <path
                   class="cls-27"
                   d="M17.53,152.17c0-1.21,1.44-2.19,3.21-2.19s3.21,.98,3.21,2.19-1.44,2.19-3.21,2.19-3.21-.98-3.21-2.19Z"
                   id="path127" />
              </g>
            </g>
            <g
               id="g140">
              <g
                 id="g130">
                <g
                   class="cls-50"
                   mask="url(#mask)"
                   id="g129">
                  <path
                     class="cls-61"
                     d="M117.42,266.66c0-1.97,1.11-3.71,2.89-4.55,11.64-5.46,22.05-12.31,23.44-13.96,.63,2.74,1.49,1.17,2.51,.31,1.03,1.28,10.78,7.97,22.91,13.65,1.78,.83,2.89,2.58,2.89,4.55,0,1.76-.9,3.35-2.4,4.26-6.32,3.85-19.13,18.53-23.88,26.56-.86-.23-1.1-.16-2.12-.08-4.44-7.44-17.77-22.78-23.86-26.48-1.5-.91-2.39-2.5-2.39-4.26h0Z"
                     id="path128" />
                </g>
                <path
                   class="cls-53"
                   d="M167.72,265.19c-14.25-6.68-20.92-15.6-20.98-15.77-.66-1.93-3.34-1.93-4,0-.05,.14-.15,.42-.15,.42,0,0-6.52,8.65-20.83,15.35-1.15,.54-1.26,2.16-.17,2.82,8.26,5.03,17.42,22.25,21.88,29.31,.56,.89,2,.9,2.55,0,5.11-8.36,13.61-24.28,21.88-29.31,1.09-.66,.98-2.28-.17-2.82Z"
                   id="path129" />
                <path
                   class="cls-34"
                   d="M167.64,268.18c.08-.05,.16-.12,.25-.17,1.09-.66,.98-2.28-.17-2.82-14.25-6.68-20.92-15.6-20.98-15.77-.66-1.93-3.34-1.93-4,0-.05,.14-.15,.42-.15,.42,0,0-6.52,8.65-20.83,15.35-1.15,.54-1.26,2.16-.17,2.82,.08,.05,.16,.12,.24,.17,7.42,1.43,15.07,2.21,22.91,2.21s15.49-.77,22.9-2.2Z"
                   id="path130" />
              </g>
              <g
                 id="g134">
                <g
                   class="cls-22"
                   mask="url(#mask-2)"
                   id="g131">
                  <path
                     class="cls-56"
                     d="M172.06,33.34c0,1.97-1.11,3.71-2.89,4.55-11.64,5.46-22.05,12.31-23.44,13.96-.63-2.74-1.49-1.17-2.51-.31-1.03-1.28-10.78-7.97-22.91-13.65-1.78-.83-2.89-2.58-2.89-4.55,0-1.76,.9-3.35,2.4-4.26,6.32-3.85,19.13-18.53,23.88-26.56,.86,.23,1.1,.16,2.12,.08,4.44,7.44,17.77,22.78,23.86,26.48,1.5,.91,2.39,2.5,2.39,4.26h0Z"
                     id="path131" />
                </g>
                <path
                   class="cls-57"
                   d="M121.76,34.81c14.25,6.68,20.92,15.6,20.98,15.77,.66,1.93,3.34,1.93,4,0,.05-.14,.15-.42,.15-.42,0,0,6.52-8.65,20.83-15.35,1.15-.54,1.26-2.16,.17-2.82-8.26-5.03-17.42-22.25-21.88-29.31-.56-.89-2-.9-2.55,0-5.11,8.36-13.61,24.28-21.88,29.31-1.09,.66-.98,2.28,.17,2.82Z"
                   id="path132" />
                <g
                   class="cls-42"
                   mask="url(#mask-4)"
                   id="g133">
                  <path
                     class="cls-34"
                     d="M121.84,31.82c-.08,.05-.16,.12-.25,.17-1.09,.66-.98,2.28,.17,2.82,14.25,6.68,20.92,15.6,20.98,15.77,.66,1.93,3.34,1.93,4,0,.05-.14,.15-.42,.15-.42,0,0,6.52-8.65,20.83-15.35,1.15-.54,1.26-2.16,.17-2.82-.08-.05-.16-.12-.24-.17-7.42-1.43-15.07-2.21-22.91-2.21s-15.49,.77-22.9,2.2Z"
                     id="path133" />
                </g>
              </g>
              <g
                 id="g136">
                <polygon
                   class="cls-33"
                   points="144.74 46 161.08 30.67 144.74 8.98 128.4 30.67 144.74 46"
                   id="polygon134" />
                <polygon
                   class="cls-54"
                   points="158.8 30.48 144.74 43.66 130.68 30.48 144.74 11.81 158.8 30.48"
                   id="polygon135" />
                <polygon
                   class="cls-24"
                   points="144.74 38.99 154.24 30.08 144.74 17.47 135.24 30.08 144.74 38.99"
                   id="polygon136" />
              </g>
              <g
                 id="g139">
                <polygon
                   class="cls-31"
                   points="144.74 253.94 161.08 269.27 144.74 290.97 128.4 269.27 144.74 253.94"
                   id="polygon137" />
                <polygon
                   class="cls-21"
                   points="158.8 269.46 144.74 256.28 130.68 269.46 144.74 288.13 158.8 269.46"
                   id="polygon138" />
                <polygon
                   class="cls-25"
                   points="144.74 260.95 154.24 269.86 144.74 282.47 135.24 269.86 144.74 260.95"
                   id="polygon139" />
              </g>
            </g>
          </g>
        </g>
      </g>
    </g>
  </g>
</svg>
