<?xml version="1.0" encoding="UTF-8" standalone="no"?>
<svg
   viewBox="0 0 298 296"
   version="1.1"
   id="svg5447"
   sodipodi:docname="7-Platinum.svg"
   inkscape:version="1.4 (86a8ad7, 2024-10-11)"
   xmlns:inkscape="http://www.inkscape.org/namespaces/inkscape"
   xmlns:sodipodi="http://sodipodi.sourceforge.net/DTD/sodipodi-0.dtd"
   xmlns:xlink="http://www.w3.org/1999/xlink"
   xmlns="http://www.w3.org/2000/svg"
   xmlns:svg="http://www.w3.org/2000/svg">
  <sodipodi:namedview
     id="namedview5447"
     pagecolor="#505050"
     bordercolor="#ffffff"
     borderopacity="1"
     inkscape:showpageshadow="0"
     inkscape:pageopacity="0"
     inkscape:pagecheckerboard="1"
     inkscape:deskcolor="#505050"
     inkscape:zoom="2.8885135"
     inkscape:cx="149.0386"
     inkscape:cy="148"
     inkscape:window-width="1920"
     inkscape:window-height="1057"
     inkscape:window-x="1912"
     inkscape:window-y="-8"
     inkscape:window-maximized="1"
     inkscape:current-layer="g5446" />
  <defs
     id="defs55">
    <style
       id="style1">
      .cls-1 {
        fill: url(#linear-gradient-29);
      }

      .cls-1, .cls-2, .cls-3, .cls-4, .cls-5, .cls-6 {
        mix-blend-mode: multiply;
      }

      .cls-7 {
        fill: url(#linear-gradient-2);
      }

      .cls-8 {
        fill: url(#linear-gradient-17);
      }

      .cls-2 {
        fill: url(#linear-gradient-18);
      }

      .cls-3 {
        opacity: .2;
      }

      .cls-9 {
        fill: url(#linear-gradient-14);
      }

      .cls-10 {
        mask: url(#mask-2);
      }

      .cls-4 {
        fill: url(#linear-gradient-21);
      }

      .cls-11 {
        fill: url(#linear-gradient-20);
      }

      .cls-12 {
        fill: url(#linear-gradient-6);
      }

      .cls-13 {
        isolation: isolate;
      }

      .cls-14 {
        fill: url(#linear-gradient-28);
      }

      .cls-14, .cls-15, .cls-16, .cls-17 {
        mix-blend-mode: screen;
      }

      .cls-18 {
        fill: url(#linear-gradient-35);
      }

      .cls-19 {
        mask: url(#mask-3);
      }

      .cls-20 {
        fill: url(#linear-gradient-11);
      }

      .cls-21 {
        fill: url(#linear-gradient-10);
      }

      .cls-15 {
        fill: url(#linear-gradient-15);
      }

      .cls-22 {
        mask: url(#mask-5);
      }

      .cls-5 {
        fill: url(#linear-gradient-32);
      }

      .cls-23 {
        fill: #73594e;
        opacity: .3;
      }

      .cls-24 {
        fill: url(#linear-gradient-16);
      }

      .cls-25 {
        fill: url(#linear-gradient-31);
      }

      .cls-16 {
        fill: url(#linear-gradient-36);
      }

      .cls-6, .cls-26 {
        opacity: .35;
      }

      .cls-27 {
        filter: url(#luminosity-noclip-4);
      }

      .cls-28 {
        filter: url(#luminosity-noclip-8);
      }

      .cls-29 {
        filter: url(#luminosity-noclip-6);
      }

      .cls-17 {
        fill: url(#linear-gradient-25);
      }

      .cls-30 {
        mask: url(#mask-4);
      }

      .cls-31 {
        fill: url(#linear-gradient-5);
      }

      .cls-32 {
        clip-path: url(#clippath);
      }

      .cls-33 {
        fill: url(#linear-gradient-34);
      }

      .cls-34 {
        fill: none;
      }

      .cls-35 {
        mask: url(#mask-6);
      }

      .cls-36 {
        fill: url(#linear-gradient-7);
      }

      .cls-37 {
        fill: url(#linear-gradient-24);
      }

      .cls-38 {
        fill: url(#linear-gradient-9);
      }

      .cls-39 {
        fill: url(#linear-gradient-22);
      }

      .cls-40 {
        filter: url(#luminosity-noclip-2);
      }

      .cls-41 {
        mask: url(#mask-1);
      }

      .cls-42 {
        mask: url(#mask);
      }

      .cls-43 {
        fill: url(#linear-gradient-3);
      }

      .cls-44 {
        fill: url(#linear-gradient);
      }

      .cls-45 {
        mask: url(#mask-7);
      }

      .cls-46 {
        fill: url(#linear-gradient-27);
      }

      .cls-47 {
        fill: url(#linear-gradient-33);
      }

      .cls-48 {
        fill: url(#linear-gradient-30);
      }

      .cls-49 {
        fill: url(#linear-gradient-23);
      }

      .cls-50 {
        fill: url(#linear-gradient-19);
      }

      .cls-51 {
        fill: url(#linear-gradient-4);
      }

      .cls-52 {
        fill: url(#linear-gradient-8);
      }

      .cls-26 {
        fill: #9f8861;
      }

      .cls-53 {
        fill: url(#linear-gradient-12);
      }

      .cls-54 {
        fill: url(#linear-gradient-13);
      }

      .cls-55 {
        fill: url(#linear-gradient-26);
      }
    </style>
    <linearGradient
       id="linear-gradient"
       x1="148.22"
       y1="283.95"
       x2="148.22"
       y2="6.06"
       gradientUnits="userSpaceOnUse">
      <stop
         offset=".1"
         stop-color="#fffff9"
         id="stop1" />
      <stop
         offset=".91"
         stop-color="#006876"
         id="stop2" />
    </linearGradient>
    <linearGradient
       id="linear-gradient-2"
       x1="148.22"
       y1="260.86"
       x2="148.22"
       y2="48.96"
       gradientUnits="userSpaceOnUse">
      <stop
         offset=".1"
         stop-color="#fffff9"
         id="stop3" />
      <stop
         offset=".45"
         stop-color="#bcc9d4"
         id="stop4" />
      <stop
         offset=".9"
         stop-color="#6784a4"
         id="stop5" />
    </linearGradient>
    <linearGradient
       id="linear-gradient-3"
       x1="148.22"
       y1="260.86"
       x2="148.22"
       y2="48.96"
       gradientUnits="userSpaceOnUse">
      <stop
         offset=".1"
         stop-color="#fffff9"
         id="stop6" />
      <stop
         offset=".9"
         stop-color="#6784a4"
         id="stop7" />
    </linearGradient>
    <linearGradient
       id="linear-gradient-4"
       x1="148.22"
       y1="260.86"
       x2="148.22"
       y2="48.96"
       xlink:href="#linear-gradient-3" />
    <linearGradient
       id="linear-gradient-5"
       x1="147.55"
       y1="26"
       x2="149.28"
       y2="251.65"
       gradientUnits="userSpaceOnUse">
      <stop
         offset="0"
         stop-color="#fff"
         id="stop8" />
      <stop
         offset="1"
         stop-color="#2e5176"
         id="stop9" />
    </linearGradient>
    <linearGradient
       id="linear-gradient-6"
       x1="239.26"
       y1="55.69"
       x2="86"
       y2="210.86"
       xlink:href="#linear-gradient-5" />
    <linearGradient
       id="linear-gradient-7"
       x1="85.1"
       y1="214.52"
       x2="209.81"
       y2="83.04"
       xlink:href="#linear-gradient-5" />
    <linearGradient
       id="linear-gradient-8"
       x1="148.22"
       y1="-44.42"
       x2="148.22"
       y2="179.24"
       xlink:href="#linear-gradient-5" />
    <linearGradient
       id="linear-gradient-9"
       x1="148.31"
       y1="65.59"
       x2="148.31"
       y2="391.15"
       xlink:href="#linear-gradient-3" />
    <linearGradient
       id="linear-gradient-10"
       x1="148.32"
       y1="24.35"
       x2="148.32"
       y2="239.84"
       xlink:href="#linear-gradient-5" />
    <linearGradient
       id="linear-gradient-11"
       x1="388.26"
       y1="-451.86"
       x2="350.82"
       y2="-457.21"
       gradientTransform="translate(-291.29 -279.16) rotate(-90) scale(1 -1)"
       xlink:href="#linear-gradient-3" />
    <linearGradient
       id="linear-gradient-12"
       x1="264"
       y1="148.43"
       x2="297.14"
       y2="147.77"
       xlink:href="#linear-gradient-3" />
    <linearGradient
       id="linear-gradient-13"
       x1="279.55"
       y1="154.79"
       x2="279.55"
       y2="141.24"
       xlink:href="#linear-gradient-3" />
    <linearGradient
       id="linear-gradient-14"
       x1="274.23"
       y1="147.88"
       x2="284.86"
       y2="147.88"
       xlink:href="#linear-gradient-5" />
    <linearGradient
       id="linear-gradient-15"
       x1="327.76"
       y1="120.82"
       x2="327.76"
       y2="129.77"
       gradientTransform="translate(-48.22 18.92)"
       gradientUnits="userSpaceOnUse">
      <stop
         offset="0"
         stop-color="#fff"
         id="stop10" />
      <stop
         offset=".11"
         stop-color="#ececec"
         id="stop11" />
      <stop
         offset=".32"
         stop-color="#bababa"
         id="stop12" />
      <stop
         offset=".62"
         stop-color="#6b6b6b"
         id="stop13" />
      <stop
         offset="1"
         stop-color="#000"
         id="stop14" />
    </linearGradient>
    <linearGradient
       id="linear-gradient-16"
       x1="654.45"
       y1="226.33"
       x2="628.58"
       y2="222.63"
       gradientTransform="translate(110.09 295.75) rotate(-180)"
       xlink:href="#linear-gradient-3" />
    <linearGradient
       id="linear-gradient-17"
       x1="76.08"
       y1="148.43"
       x2="109.22"
       y2="147.77"
       gradientTransform="translate(110.09 295.75) rotate(-180)"
       xlink:href="#linear-gradient-3" />
    <filter
       id="luminosity-noclip-2"
       data-name="luminosity-noclip"
       x="120.95"
       y="246.2"
       width="54.55"
       height="49.29"
       color-interpolation-filters="sRGB"
       filterUnits="userSpaceOnUse">
      <feFlood
         flood-color="#fff"
         result="bg"
         id="feFlood14" />
      <feBlend
         in="SourceGraphic"
         in2="bg"
         id="feBlend14" />
    </filter>
    <filter
       id="luminosity-noclip-3"
       x="7008.48"
       y="-8456.91"
       width="-32766"
       height="32766"
       color-interpolation-filters="sRGB"
       filterUnits="userSpaceOnUse">
      <feFlood
         flood-color="#fff"
         result="bg"
         id="feFlood15" />
      <feBlend
         in="SourceGraphic"
         in2="bg"
         id="feBlend15" />
    </filter>
    <mask
       id="mask-1"
       x="7008.48"
       y="-8456.91"
       width="-32766"
       height="32766"
       maskUnits="userSpaceOnUse" />
    <linearGradient
       id="linear-gradient-18"
       x1="-1290.57"
       y1="1395.77"
       x2="-1242.64"
       y2="1395.77"
       gradientTransform="translate(1543.99 1537.08) rotate(90)"
       gradientUnits="userSpaceOnUse">
      <stop
         offset="0"
         stop-color="#fff"
         id="stop15" />
      <stop
         offset=".38"
         stop-color="#fff"
         id="stop16" />
      <stop
         offset=".39"
         stop-color="#fdfdfd"
         id="stop17" />
      <stop
         offset=".5"
         stop-color="#fcfcfc"
         id="stop18" />
      <stop
         offset=".52"
         stop-color="#fcfcfc"
         id="stop19" />
      <stop
         offset=".7"
         stop-color="#fff"
         id="stop20" />
      <stop
         offset=".93"
         stop-color="#fff"
         id="stop21" />
    </linearGradient>
    <mask
       id="mask"
       x="120.95"
       y="246.2"
       width="54.55"
       height="49.29"
       maskUnits="userSpaceOnUse">
      <g
         class="cls-40"
         id="g22">
        <g
           class="cls-41"
           mask="url(#mask-1)"
           id="g21">
          <path
             class="cls-2"
             d="M120.95,264.69c0-1.97,1.11-3.71,2.89-4.55,11.62-5.45,22.01-12.3,23.4-13.95,.63,2.73,1.49,1.17,2.5,.31,1.02,1.28,10.77,7.96,22.87,13.64,1.78,.83,2.89,2.58,2.89,4.55,0,1.75-.89,3.35-2.39,4.26-6.31,3.84-19.09,18.52-23.84,26.54-.86-.23-1.1-.16-2.11-.08-4.43-7.43-17.74-22.76-23.82-26.46-1.5-.91-2.39-2.5-2.39-4.26h0Z"
             id="path21" />
        </g>
      </g>
    </mask>
    <linearGradient
       id="linear-gradient-19"
       x1="-1290.57"
       y1="1395.77"
       x2="-1242.64"
       y2="1395.77"
       gradientTransform="translate(1543.99 1537.08) rotate(90)"
       gradientUnits="userSpaceOnUse">
      <stop
         offset="0"
         stop-color="#435b67"
         id="stop22" />
      <stop
         offset=".3"
         stop-color="#413c39"
         id="stop23" />
      <stop
         offset=".38"
         stop-color="#41342e"
         id="stop24" />
      <stop
         offset=".38"
         stop-color="#4e4b49"
         id="stop25" />
      <stop
         offset=".39"
         stop-color="#5e6669"
         id="stop26" />
      <stop
         offset=".4"
         stop-color="#6c7c84"
         id="stop27" />
      <stop
         offset=".41"
         stop-color="#778f9a"
         id="stop28" />
      <stop
         offset=".42"
         stop-color="#7f9dab"
         id="stop29" />
      <stop
         offset=".43"
         stop-color="#85a7b7"
         id="stop30" />
      <stop
         offset=".45"
         stop-color="#89adbe"
         id="stop31" />
      <stop
         offset=".5"
         stop-color="#8aafc0"
         id="stop32" />
      <stop
         offset=".51"
         stop-color="#83aab7"
         id="stop33" />
      <stop
         offset=".54"
         stop-color="#759fa4"
         id="stop34" />
      <stop
         offset=".58"
         stop-color="#6b9796"
         id="stop35" />
      <stop
         offset=".62"
         stop-color="#65938e"
         id="stop36" />
      <stop
         offset=".7"
         stop-color="#64928c"
         id="stop37" />
      <stop
         offset=".85"
         stop-color="#516e72"
         id="stop38" />
      <stop
         offset=".93"
         stop-color="#465a63"
         id="stop39" />
    </linearGradient>
    <linearGradient
       id="linear-gradient-20"
       x1="148.22"
       y1="229.64"
       x2="148.22"
       y2="204.29"
       gradientTransform="translate(296.44 498.21) rotate(-180)"
       gradientUnits="userSpaceOnUse">
      <stop
         offset="0"
         stop-color="#fff"
         id="stop40" />
      <stop
         offset=".15"
         stop-color="#eef3f2"
         id="stop41" />
      <stop
         offset=".44"
         stop-color="#c4d5d3"
         id="stop42" />
      <stop
         offset=".84"
         stop-color="#80a5a1"
         id="stop43" />
      <stop
         offset="1"
         stop-color="#64928c"
         id="stop44" />
    </linearGradient>
    <filter
       id="luminosity-noclip-4"
       x="124.35"
       y="246.02"
       width="47.74"
       height="22.39"
       color-interpolation-filters="sRGB"
       filterUnits="userSpaceOnUse">
      <feFlood
         flood-color="#fff"
         result="bg"
         id="feFlood44" />
      <feBlend
         in="SourceGraphic"
         in2="bg"
         id="feBlend44" />
    </filter>
    <filter
       id="luminosity-noclip-5"
       x="7008.48"
       y="-8456.91"
       width="-32766"
       height="32766"
       color-interpolation-filters="sRGB"
       filterUnits="userSpaceOnUse">
      <feFlood
         flood-color="#fff"
         result="bg"
         id="feFlood45" />
      <feBlend
         in="SourceGraphic"
         in2="bg"
         id="feBlend45" />
    </filter>
    <mask
       id="mask-3"
       x="7008.48"
       y="-8456.91"
       width="-32766"
       height="32766"
       maskUnits="userSpaceOnUse" />
    <linearGradient
       id="linear-gradient-21"
       x1="-1267.02"
       y1="1395.77"
       x2="-1290.27"
       y2="1395.77"
       gradientTransform="translate(1543.99 1537.08) rotate(90)"
       gradientUnits="userSpaceOnUse">
      <stop
         offset="0"
         stop-color="#fff"
         id="stop45" />
      <stop
         offset="1"
         stop-color="#fff"
         id="stop46" />
    </linearGradient>
    <mask
       id="mask-2"
       x="124.35"
       y="246.02"
       width="47.74"
       height="22.39"
       maskUnits="userSpaceOnUse">
      <g
         class="cls-27"
         id="g47">
        <g
           class="cls-19"
           mask="url(#mask-3)"
           id="g46">
          <path
             class="cls-4"
             d="M171.09,266.21c.08-.05,.16-.12,.25-.17,1.09-.66,.98-2.28-.17-2.82-14.23-6.67-20.89-15.59-20.94-15.76-.66-1.93-3.34-1.93-4,0-.05,.14-.15,.42-.15,.42,0,0-6.51,8.64-20.8,15.34-1.15,.54-1.26,2.15-.17,2.82,.08,.05,.16,.12,.24,.17,7.41,1.43,15.05,2.2,22.87,2.2s15.46-.77,22.87-2.2Z"
             id="path46" />
        </g>
      </g>
    </mask>
    <linearGradient
       id="linear-gradient-22"
       x1="-1267.02"
       y1="1395.77"
       x2="-1290.27"
       y2="1395.77"
       gradientTransform="translate(1543.99 1537.08) rotate(90)"
       gradientUnits="userSpaceOnUse">
      <stop
         offset="0"
         stop-color="#41342e"
         id="stop47" />
      <stop
         offset=".17"
         stop-color="#433a34"
         id="stop48" />
      <stop
         offset=".42"
         stop-color="#4a4e48"
         id="stop49" />
      <stop
         offset=".71"
         stop-color="#566e68"
         id="stop50" />
      <stop
         offset="1"
         stop-color="#65948e"
         id="stop51" />
    </linearGradient>
    <linearGradient
       id="linear-gradient-23"
       x1="-1372.99"
       y1="-1162.81"
       x2="-1336.26"
       y2="-1162.81"
       gradientTransform="translate(1311.03 1624.94) rotate(90) scale(1 -1)"
       xlink:href="#linear-gradient" />
    <linearGradient
       id="linear-gradient-24"
       x1="-1340.1"
       y1="-1162.81"
       x2="-1370.85"
       y2="-1162.81"
       gradientTransform="translate(1311.03 1624.94) rotate(90) scale(1 -1)"
       xlink:href="#linear-gradient-5" />
    <linearGradient
       id="linear-gradient-25"
       x1="-1334.08"
       y1="-1162.81"
       x2="-1368.77"
       y2="-1162.81"
       gradientTransform="translate(1311.03 1624.94) rotate(90) scale(1 -1)"
       xlink:href="#linear-gradient-15" />
    <linearGradient
       id="linear-gradient-26"
       x1="91.63"
       y1="154.79"
       x2="91.63"
       y2="141.24"
       gradientTransform="translate(110.09 295.75) rotate(-180)"
       xlink:href="#linear-gradient-3" />
    <linearGradient
       id="linear-gradient-27"
       x1="86.32"
       y1="147.88"
       x2="96.95"
       y2="147.88"
       gradientTransform="translate(110.09 295.75) rotate(-180)"
       xlink:href="#linear-gradient-5" />
    <linearGradient
       id="linear-gradient-28"
       x1="139.85"
       y1="120.82"
       x2="139.85"
       y2="129.77"
       gradientTransform="translate(158.3 276.83) rotate(-180)"
       xlink:href="#linear-gradient-15" />
    <filter
       id="luminosity-noclip-6"
       x="120.95"
       y=".52"
       width="54.55"
       height="49.29"
       color-interpolation-filters="sRGB"
       filterUnits="userSpaceOnUse">
      <feFlood
         flood-color="#fff"
         result="bg"
         id="feFlood51" />
      <feBlend
         in="SourceGraphic"
         in2="bg"
         id="feBlend51" />
    </filter>
    <filter
       id="luminosity-noclip-7"
       x="7008.48"
       y="-8456.91"
       width="-32766"
       height="32766"
       color-interpolation-filters="sRGB"
       filterUnits="userSpaceOnUse">
      <feFlood
         flood-color="#fff"
         result="bg"
         id="feFlood52" />
      <feBlend
         in="SourceGraphic"
         in2="bg"
         id="feBlend52" />
    </filter>
    <mask
       id="mask-5"
       x="7008.48"
       y="-8456.91"
       width="-32766"
       height="32766"
       maskUnits="userSpaceOnUse" />
    <linearGradient
       id="linear-gradient-29"
       x1="-1088.36"
       y1="1395.77"
       x2="-1040.43"
       y2="1395.77"
       gradientTransform="translate(-1247.55 -1038.86) rotate(-90)"
       xlink:href="#linear-gradient-18" />
    <mask
       id="mask-4"
       x="120.95"
       y=".52"
       width="54.55"
       height="49.29"
       maskUnits="userSpaceOnUse">
      <g
         class="cls-29"
         id="g53">
        <g
           class="cls-22"
           mask="url(#mask-5)"
           id="g52">
          <path
             class="cls-1"
             d="M175.5,31.31c0,1.97-1.11,3.71-2.89,4.55-11.62,5.45-22.01,12.3-23.4,13.95-.63-2.73-1.49-1.17-2.5-.31-1.02-1.28-10.77-7.96-22.87-13.64-1.78-.83-2.89-2.58-2.89-4.55,0-1.75,.89-3.35,2.39-4.26,6.31-3.84,19.09-18.52,23.84-26.54,.86,.23,1.1,.16,2.11,.08,4.43,7.43,17.74,22.76,23.82,26.46,1.5,.91,2.39,2.5,2.39,4.26h0Z"
             id="path52" />
        </g>
      </g>
    </mask>
    <linearGradient
       id="linear-gradient-30"
       x1="-1088.36"
       y1="1395.77"
       x2="-1040.43"
       y2="1395.77"
       gradientTransform="translate(-1247.55 -1038.86) rotate(-90)"
       xlink:href="#linear-gradient-19" />
    <linearGradient
       id="linear-gradient-31"
       x1="148.22"
       y1="27.42"
       x2="148.22"
       y2="2.07"
       gradientTransform="matrix(1, 0, 0, 1, 0, 0)"
       xlink:href="#linear-gradient-20" />
    <filter
       id="luminosity-noclip-8"
       x="124.35"
       y="27.59"
       width="47.74"
       height="22.39"
       color-interpolation-filters="sRGB"
       filterUnits="userSpaceOnUse">
      <feFlood
         flood-color="#fff"
         result="bg"
         id="feFlood53" />
      <feBlend
         in="SourceGraphic"
         in2="bg"
         id="feBlend53" />
    </filter>
    <filter
       id="luminosity-noclip-9"
       x="7008.48"
       y="-8456.91"
       width="-32766"
       height="32766"
       color-interpolation-filters="sRGB"
       filterUnits="userSpaceOnUse">
      <feFlood
         flood-color="#fff"
         result="bg"
         id="feFlood54" />
      <feBlend
         in="SourceGraphic"
         in2="bg"
         id="feBlend54" />
    </filter>
    <mask
       id="mask-7"
       x="7008.48"
       y="-8456.91"
       width="-32766"
       height="32766"
       maskUnits="userSpaceOnUse" />
    <linearGradient
       id="linear-gradient-32"
       x1="-1064.81"
       y1="1395.77"
       x2="-1088.05"
       y2="1395.77"
       gradientTransform="translate(-1247.55 -1038.86) rotate(-90)"
       xlink:href="#linear-gradient-21" />
    <mask
       id="mask-6"
       x="124.35"
       y="27.59"
       width="47.74"
       height="22.39"
       maskUnits="userSpaceOnUse">
      <g
         class="cls-28"
         id="g55">
        <g
           class="cls-45"
           mask="url(#mask-7)"
           id="g54">
          <path
             class="cls-5"
             d="M125.36,29.79c-.08,.05-.16,.12-.25,.17-1.09,.66-.98,2.28,.17,2.82,14.23,6.67,20.89,15.59,20.94,15.76,.66,1.93,3.34,1.93,4,0,.05-.14,.15-.42,.15-.42,0,0,6.51-8.64,20.8-15.34,1.15-.54,1.26-2.15,.17-2.82-.08-.05-.16-.12-.24-.17-7.41-1.43-15.05-2.2-22.87-2.2s-15.46,.77-22.87,2.2Z"
             id="path54" />
        </g>
      </g>
    </mask>
    <linearGradient
       id="linear-gradient-33"
       x1="-1064.81"
       y1="1395.77"
       x2="-1088.05"
       y2="1395.77"
       gradientTransform="translate(-1247.55 -1038.86) rotate(-90)"
       xlink:href="#linear-gradient-22" />
    <linearGradient
       id="linear-gradient-34"
       x1="-1170.78"
       y1="-1162.81"
       x2="-1134.05"
       y2="-1162.81"
       gradientTransform="translate(-1014.59 -1126.72) rotate(-90) scale(1 -1)"
       xlink:href="#linear-gradient" />
    <linearGradient
       id="linear-gradient-35"
       x1="-1137.89"
       y1="-1162.81"
       x2="-1168.64"
       y2="-1162.81"
       gradientTransform="translate(-1014.59 -1126.72) rotate(-90) scale(1 -1)"
       xlink:href="#linear-gradient-5" />
    <linearGradient
       id="linear-gradient-36"
       x1="-1131.87"
       y1="-1162.81"
       x2="-1166.56"
       y2="-1162.81"
       gradientTransform="translate(-1014.59 -1126.72) rotate(-90) scale(1 -1)"
       xlink:href="#linear-gradient-15" />
    <clipPath
       id="clippath">
      <path
         class="cls-34"
         d="M297.13,161.56c1.15-9.08,1.15-18.28,0-27.37-2.22,.24-4.45,.46-6.67,.69-.17-1.88-.37-3.74-.61-5.59,2.12-.32,4.25-.62,6.37-.95-.76-4.17-1.77-8.3-3.03-12.38-1.8,.47-3.6,.92-5.4,1.38-5.08-23.48-15.95-44.81-31.07-62.41-.81-1.01-1.65-1.95-2.52-2.9-14.19-15.69-31.81-28.19-51.7-36.33-1.47-.6-2.97-1.2-4.47-1.73-1.49-.57-2.98-1.08-4.5-1.61-.76-.24-1.52-.52-2.3-.74-1.01-.32-2.04-.62-3.05-.92-1.04-.28-2.07-.57-3.12-.85-.97-.27-1.95-.52-2.92-.76-.14-.02-.26-.05-.37-.08-.92-.21-1.82-.44-2.74-.61-.14-.03-.3-.08-.46-.11-.81-.19-1.66-.35-2.49-.52-.23-.06-.48-.08-.71-.14-.73-.14-1.46-.28-2.2-.4-.28-.06-.56-.1-.85-.15-.24-.04-.48-.09-.74-.14-.6-.1-1.21-.19-1.83-.26-.08-.02-.16-.03-.25-.03-.16-.04-.37-.07-.53-.08-.09-.04-.19-.04-.28-.05-.3-.04-.59-.08-.9-.14-.16-.03-.34-.04-.49-.06-.47-.07-.94-.12-1.42-.17-.63-.08-1.28-.16-1.89-.25-1.92-.19-3.85-.35-5.76-.49-.45-.03-.89-.05-1.32-.07-.14-.02-.26-.02-.39-.03h-.08c-.07,0-.14,0-.21-.02-.09,0-.2-.03-.34-.03-.79-.03-1.57-.07-2.38-.1-.38,0-.75-.02-1.14-.02-.33-.45-.65-.89-.95-1.32-.71-1.18-1.35-2.25-1.92-3.15-.56-.89-1.99-.9-2.54,0-.52,.86-1.09,1.8-1.68,2.8-.38,.55-.77,1.11-1.19,1.69-.34,.01-.69,.01-1.03,.03-.51,.02-.98,.04-1.46,.07-.14,.02-.25,.02-.37,.02-.46,.03-.9,.06-1.35,.08h-.05s-.11,.02-.19,.03h-.23c-.14,.02-.28,.02-.4,.03-.04,0-.08,0-.14,.02-.25,0-.46,0-.69,.03-.57,.05-1.17,.08-1.75,.14-.21,.03-.41,.05-.64,.08-.33,.03-.68,.07-1,.08h-.05c-.08,0-.18,.03-.25,.03-.18,.04-.34,.05-.5,.05-.03,0-.07,0-.1,.02-.25,.03-.51,.04-.79,.08-.74,.08-1.5,.19-2.29,.28h-.05c-.34,.04-.67,.07-1.01,.11-.56,.07-1.11,.16-1.66,.24-11.07,1.59-21.73,4.44-31.81,8.41-3.44,1.34-6.8,2.84-10.11,4.45-1.1,.53-2.19,1.08-3.28,1.64-2.63,1.34-5.16,2.77-7.67,4.29C42.07,45.22,17.71,78.18,9.22,117.09c-1.47-.38-2.95-.75-4.42-1.13-1.25,4.08-2.26,8.21-3.03,12.38,1.78,.27,3.57,.53,5.36,.8-.17,1.33-.33,2.66-.46,4v.02c-.04,.51-.08,1.01-.14,1.5,0,.04,0,.08,0,.12-1.88-.2-3.77-.38-5.65-.59-1.15,9.08-1.15,18.28,0,27.37,1.9-.2,3.8-.39,5.7-.59,.18,1.89,.39,3.77,.64,5.63-1.81,.27-3.62,.53-5.43,.81,.76,4.17,1.77,8.3,3.03,12.38,1.51-.39,3.02-.77,4.53-1.16,10.65,47.94,45.46,86.79,90.98,103.14h.02c.49,.19,.99,.35,1.48,.52h.02c.19,.09,.44,.16,.63,.25h.03c2.11,.72,4.26,1.39,6.41,1.99h.02c1.87,.53,3.74,1.06,5.63,1.51,.28,.08,.56,.14,.82,.21,1.84,.44,3.67,.83,5.54,1.18,.71,.15,1.42,.28,2.14,.41,1.72,.32,3.44,.58,5.19,.83,1.04,.19,1.72,.26,2.84,.37,1.32,.17,2.64,.32,3.97,.44,.64,.08,1.33,.12,1.99,.17,.68,.06,1.39,.09,2.09,.15h0c1.45,.1,2.9,.17,4.35,.22,.56,.74,1.09,1.47,1.57,2.16,.71,1.18,1.35,2.25,1.92,3.15,.56,.89,1.99,.9,2.54,0,.52-.86,1.09-1.8,1.68-2.8,.55-.8,1.14-1.63,1.78-2.49,.84-.03,1.67-.06,2.51-.09,.69-.04,1.43-.08,2.1-.14,.7-.03,1.36-.08,2.03-.14,.68-.03,1.36-.1,2.03-.17,1.35-.12,2.7-.25,4.03-.43,1.2-.21,2.1-.35,3.12-.41,1.75-.25,3.47-.52,5.19-.83,.72-.14,1.43-.28,2.14-.41,1.85-.35,3.69-.76,5.5-1.2,.29-.05,.57-.12,.85-.21,1.89-.46,3.77-.96,5.64-1.5,2.15-.61,4.3-1.28,6.41-2.01,.23-.08,.46-.14,.67-.23,.5-.17,.99-.35,1.49-.53,45.62-16.37,80.46-55.32,91.03-103.37,1.84,.47,3.68,.93,5.51,1.41,1.25-4.08,2.26-8.21,3.03-12.38-2.14-.33-4.3-.64-6.44-.96,.24-1.85,.45-3.71,.63-5.59,2.24,.23,4.49,.46,6.73,.7Zm-40.53-12.86v.09c-.39,46.59-30.19,86.16-71.75,101.08-.38,.14-.75,.27-1.13,.4-.16,.07-.34,.12-.51,.17-.53,.18-1.07,.35-1.61,.53l-2.06-6.97c-7.31,3.68-15.2,6.12-23.48,7.08-3.53-2.24-5.85-3.97-6.32-4.56-.03,.03-.07,.06-.1,.09-.66-.61-1.61-.72-2.38-.32,0-.03-.01-.05-.02-.08-.04,.05-.11,.11-.17,.17-.17,.11-.33,.26-.47,.43-1.09,.93-3.25,2.45-6.15,4.28-8.3-.95-16.21-3.39-23.54-7.08l-2.06,6.97c-.53-.17-1.07-.34-1.6-.52h-.02c-.15-.05-.33-.12-.49-.18h-.01c-.37-.12-.75-.25-1.12-.39h-.01c-41.83-15.02-71.75-55.01-71.75-102.01,0-3.31,.15-6.6,.45-9.83,.03-.38,.07-.76,.11-1.15,3.51-34.86,23.52-64.81,52.1-81.98,1.91-1.15,3.84-2.24,5.84-3.26,.83-.42,1.66-.85,2.5-1.25,2.51-1.23,5.06-2.36,7.68-3.38,.55-.22,1.11-.42,1.67-.63l1.66,4.6c8.55-3.52,17.77-5.83,27.45-6.73,4.14,2.57,6.88,4.6,7.4,5.24,.03-.03,.07-.06,.1-.09,.66,.61,1.61,.72,2.38,.32,0,.03,.01,.05,.02,.08,.04-.05,.11-.11,.17-.17,.17-.11,.33-.26,.47-.43,1.22-1.04,3.79-2.83,7.24-4.95,9.7,.89,18.94,3.21,27.5,6.73l1.66-4.58c1.02,.38,2.05,.78,3.05,1.19,15.13,6.18,28.52,15.69,39.31,27.62,.66,.72,1.29,1.45,1.91,2.21,16.26,18.94,26.08,43.55,26.08,70.45,0,.29,0,.55-.01,.84Z"
         id="path55" />
    </clipPath>
  </defs>
  <g
     class="cls-13"
     id="g5447">
    <g
       id="Layer_2"
       data-name="Layer 2">
      <g
         id="Layer_1-2"
         data-name="Layer 1">
        <g
           id="g5446">
          <g
             id="g89">
            <path
               class="cls-44"
               d="M148.22,288.12c-77.36,0-140.3-62.92-140.3-140.25S70.86,7.61,148.22,7.61s140.3,62.92,140.3,140.25-62.94,140.25-140.3,140.25Zm0-267.54c-70.21,0-127.33,57.1-127.33,127.29s57.12,127.29,127.33,127.29,127.33-57.1,127.33-127.29S218.43,20.58,148.22,20.58Z"
               id="path56" />
            <g
               id="g59">
              <path
                 class="cls-7"
                 d="M148.22,251.52c-11.14,0-21.73-2.7-31.32-7.53l-2.41,8.14c10.35,5.11,21.75,7.95,33.73,7.95s23.38-2.84,33.73-7.95l-2.41-8.14c-9.59,4.83-20.18,7.53-31.32,7.53Z"
                 id="path57" />
              <path
                 class="cls-43"
                 d="M148.22,43.84c12.94,0,25.23,2.56,36.37,7.14l2.8-7.72c-12.02-4.84-25.25-7.53-39.16-7.53s-27.15,2.69-39.16,7.53l2.8,7.72c11.13-4.58,23.43-7.14,36.37-7.14Z"
                 id="path58" />
              <path
                 class="cls-51"
                 d="M236.43,72.36c-.66-.81-1.35-1.59-2.05-2.36-11.56-12.79-25.92-22.97-42.13-29.61-1.2-.49-2.42-.98-3.64-1.41-1.22-.47-2.43-.88-3.67-1.3-.62-.2-1.24-.42-1.87-.61-.83-.26-1.66-.5-2.49-.75-.85-.23-1.68-.47-2.54-.7-.79-.22-1.59-.42-2.38-.62-.11-.01-.22-.04-.3-.07-.75-.17-1.48-.36-2.23-.5-.12-.02-.25-.07-.38-.09-.66-.15-1.35-.28-2.03-.42-.18-.04-.39-.07-.58-.11-.6-.12-1.2-.23-1.79-.33-.23-.04-.46-.08-.7-.12-.2-.03-.39-.08-.6-.11-.49-.09-.99-.15-1.49-.22-.07-.01-.13-.02-.21-.02-.13-.03-.3-.05-.43-.07-.08-.03-.15-.03-.23-.04-.24-.03-.48-.07-.73-.12-.13-.02-.27-.03-.4-.04-.38-.05-.76-.1-1.15-.14-.51-.07-1.04-.13-1.54-.2-1.56-.15-3.14-.28-4.7-.4-.37-.02-.73-.04-1.08-.05-.12-.01-.22-.01-.32-.02h-.07c-.05,0-.12,0-.17-.01-.08,0-.16-.02-.27-.03-.64-.02-1.28-.05-1.95-.08-.32-.01-.62-.02-.95-.02-1.07-.03-2.13-.05-3.21-.05-.48,0-.99,0-1.48,.01-.98,.01-1.93,.04-2.89,.08-.41,.01-.8,.03-1.2,.05-.11,.01-.2,.01-.3,.01-.37,.03-.73,.05-1.1,.07h-.04s-.09,.01-.15,.02h-.18c-.11,.01-.23,.01-.33,.02-.03,0-.07,0-.11,.01-.2,0-.38,.01-.57,.02-.47,.04-.95,.07-1.42,.11-.17,.02-.34,.04-.52,.07-.27,.02-.55,.05-.82,.07h-.04c-.07,.01-.14,.02-.21,.02-.14,.03-.27,.04-.4,.04-.02,0-.05,0-.09,.01-.21,.02-.41,.03-.64,.07-.61,.07-1.23,.15-1.87,.23h-.04c-.27,.03-.54,.05-.82,.09-.46,.05-.9,.13-1.36,.2-9.02,1.29-17.7,3.62-25.92,6.85-2.8,1.1-5.54,2.31-8.24,3.63-.89,.43-1.78,.88-2.67,1.34-2.14,1.1-4.21,2.26-6.25,3.5-30.64,18.39-52.08,50.5-55.85,87.84h0c-.03,.42-.07,.84-.11,1.24-.32,3.48-.48,7-.48,10.54,0,50.37,32.07,93.23,76.89,109.32h.01c.4,.16,.8,.29,1.21,.42h.01c.16,.08,.36,.13,.52,.2h.02c1.72,.59,3.47,1.13,5.22,1.63h.01c1.52,.43,3.05,.86,4.59,1.23,.23,.07,.46,.12,.67,.17,1.5,.36,2.99,.67,4.51,.97,.58,.12,1.15,.23,1.74,.33,1.4,.26,2.8,.48,4.23,.67,.85,.16,1.4,.22,2.32,.3,1.08,.14,2.15,.26,3.24,.36,.52,.07,1.08,.1,1.62,.14,.55,.04,1.13,.08,1.7,.12h.01c2.53,.17,5.06,.26,7.62,.26h.01c.25,0,.49,0,.72-.01,1.67,0,3.33-.05,4.98-.13,.57-.03,1.16-.07,1.72-.11,.57-.02,1.11-.07,1.65-.11,.55-.03,1.11-.09,1.65-.14,1.1-.1,2.2-.21,3.28-.35,.98-.17,1.71-.28,2.54-.34,1.42-.21,2.83-.42,4.23-.67,.59-.11,1.16-.23,1.74-.33,1.51-.29,3.01-.62,4.49-.98,.23-.04,.46-.1,.68-.17,1.54-.37,3.08-.78,4.6-1.22,1.75-.5,3.5-1.04,5.23-1.64,.18-.07,.37-.12,.54-.18,.4-.14,.8-.28,1.21-.43,44.55-15.98,76.49-58.39,76.89-108.31v-.1c.01-.3,.01-.59,.01-.9,0-28.83-10.51-55.21-27.94-75.5Zm20.17,76.34v.09c-.39,46.59-30.19,86.16-71.75,101.08-.38,.14-.75,.27-1.13,.4-.16,.07-.34,.12-.51,.17-1.61,.55-3.24,1.06-4.87,1.53-1.42,.41-2.86,.79-4.29,1.14-.22,.07-.43,.12-.64,.15-1.38,.34-2.78,.64-4.18,.91-.54,.1-1.08,.21-1.63,.3-1.3,.24-2.61,.45-3.95,.63-.77,.05-1.46,.16-2.37,.32-1.01,.13-2.04,.24-3.06,.33-.5,.05-1.02,.1-1.53,.13-.51,.04-1.02,.09-1.54,.11-.52,.03-1.08,.07-1.61,.1-1.54,.07-3.09,.12-4.64,.12-.22,.01-.45,.01-.67,.01h-.01c-2.38,0-4.75-.09-7.11-.24h-.01c-.53-.04-1.05-.07-1.58-.12-.51-.04-1.03-.07-1.52-.13-1.01-.09-2.01-.21-3.02-.33-.85-.09-1.36-.13-2.15-.29-1.34-.17-2.64-.38-3.96-.63-.53-.09-1.08-.18-1.62-.3-1.41-.27-2.8-.57-4.2-.9-.21-.04-.42-.1-.63-.15-1.43-.35-2.87-.74-4.28-1.15,0,0,0,.02-.01,0-1.64-.47-3.26-.98-4.87-1.52h-.02c-.15-.05-.33-.12-.49-.18h-.01c-.37-.12-.75-.25-1.12-.39h-.01c-41.83-15.02-71.75-55.01-71.75-102.01,0-3.31,.15-6.6,.45-9.83,.03-.38,.07-.76,.11-1.15,3.51-34.86,23.52-64.81,52.1-81.98,1.91-1.15,3.84-2.24,5.84-3.26,.83-.42,1.66-.85,2.5-1.25,2.51-1.23,5.06-2.36,7.68-3.38,7.67-3.02,15.77-5.18,24.18-6.4,.42-.05,.85-.12,1.27-.17,.25-.03,.51-.05,.76-.09h.04c.59-.07,1.17-.15,1.74-.21,.21-.03,.4-.04,.61-.07,.02-.01,.05-.01,.08-.01,.12,0,.24-.01,.37-.04,.07,0,.14-.01,.2-.02h.04c.25-.01,.5-.03,.76-.05,.17-.02,.32-.04,.49-.05,.45-.04,.88-.07,1.33-.11,.16,0,.35-.01,.52-.01,.04-.01,.07-.01,.11-.01,.09-.01,.2-.01,.3-.03h.16c.07-.01,.11-.01,.15-.02h.04c.34-.01,.67-.03,1.02-.05,.1,0,.17,0,.28-.01,.36-.02,.73-.04,1.11-.05,.9-.02,1.79-.05,2.7-.07,.47-.01,.93-.01,1.39-.01,1,0,1.99,.02,2.99,.05,.3,0,.59,.01,.87,.01,.62,.02,1.23,.05,1.83,.08,.1,.01,.17,.02,.25,.02,.05,.01,.11,.01,.16,.01h.05c.1,.01,.2,.01,.29,.02,.33,.01,.66,.04,1.01,.07,1.46,.11,2.92,.22,4.38,.37,.47,.05,.97,.12,1.45,.17,.36,.04,.72,.09,1.07,.14,.13,.01,.26,.02,.38,.04,.23,.04,.46,.08,.68,.11,.07,0,.14,0,.21,.03,.13,.01,.28,.03,.41,.07,.07,0,.13,.01,.18,.01,.48,.08,.93,.13,1.39,.21,.2,.03,.38,.08,.55,.1,.23,.05,.43,.09,.65,.12,.57,.09,1.12,.2,1.67,.3,.17,.04,.36,.07,.54,.1,.63,.13,1.27,.26,1.89,.4,.12,.01,.24,.05,.36,.08,.7,.14,1.38,.3,2.08,.47,.08,.02,.18,.05,.28,.07,.74,.18,1.49,.37,2.23,.58,.79,.21,1.58,.43,2.37,.65,.76,.24,1.55,.46,2.31,.7,.6,.17,1.17,.38,1.75,.58,1.15,.39,2.29,.77,3.42,1.21,1.14,.41,2.28,.87,3.4,1.33,15.13,6.18,28.52,15.69,39.31,27.62,.66,.72,1.29,1.45,1.91,2.21,16.26,18.94,26.08,43.55,26.08,70.45,0,.29,0,.55-.01,.84Z"
                 id="path59" />
            </g>
            <path
               class="cls-31"
               d="M256.73,54.93c-.81-1.01-1.65-1.95-2.52-2.9-14.19-15.69-31.81-28.19-51.7-36.33-1.47-.6-2.97-1.2-4.47-1.73-1.49-.57-2.98-1.08-4.5-1.61-.76-.24-1.52-.52-2.3-.74-1.01-.32-2.04-.62-3.05-.92-1.04-.28-2.07-.57-3.12-.85-.97-.27-1.95-.52-2.92-.76-.14-.02-.26-.05-.37-.08-.92-.21-1.82-.44-2.74-.61-.14-.03-.3-.08-.46-.11-.81-.19-1.66-.35-2.49-.52-.23-.06-.48-.08-.71-.14-.73-.14-1.46-.28-2.2-.4-.28-.06-.56-.1-.85-.15-.24-.04-.48-.09-.74-.14-.6-.1-1.21-.19-1.83-.26-.08-.02-.16-.03-.25-.03-.16-.04-.37-.07-.53-.08-.09-.04-.19-.04-.28-.05-.3-.04-.59-.08-.9-.14-.16-.03-.34-.04-.49-.06-.47-.07-.94-.12-1.42-.17-.63-.08-1.28-.16-1.89-.25-1.92-.19-3.85-.35-5.76-.49-.45-.03-.89-.05-1.32-.07-.14-.02-.26-.02-.39-.03h-.08c-.07,0-.14,0-.21-.02-.09,0-.2-.03-.34-.03-.79-.03-1.57-.07-2.38-.1-.39,0-.76-.03-1.17-.03-1.3-.03-2.61-.07-3.93-.07-.59,0-1.22,0-1.82,.02-1.2,.02-2.37,.05-3.55,.09-.51,.02-.98,.04-1.46,.07-.14,.02-.25,.02-.37,.02-.46,.03-.9,.06-1.35,.08h-.05s-.11,.02-.19,.03h-.23c-.14,.02-.28,.02-.4,.03-.04,0-.08,0-.14,.02-.25,0-.46,0-.69,.03-.57,.05-1.17,.08-1.75,.14-.21,.03-.41,.05-.64,.08-.33,.03-.68,.07-1,.08h-.05c-.08,0-.18,.03-.25,.03-.18,.04-.34,.05-.5,.05-.03,0-.07,0-.1,.02-.25,.03-.51,.04-.79,.08-.74,.08-1.5,.19-2.29,.28h-.05c-.34,.04-.67,.07-1.01,.11-.56,.07-1.11,.16-1.66,.24-11.07,1.59-21.73,4.44-31.81,8.41-3.44,1.34-6.8,2.84-10.11,4.45-1.1,.53-2.19,1.08-3.28,1.64-2.63,1.34-5.16,2.77-7.67,4.29C37.61,47.9,11.29,87.31,6.66,133.14v.02c-.04,.51-.08,1.01-.14,1.5-.39,4.27-.59,8.58-.59,12.94,0,61.82,39.37,114.42,94.37,134.18h.02c.49,.19,.99,.35,1.48,.52h.02c.19,.09,.44,.16,.63,.25h.03c2.11,.72,4.26,1.39,6.41,1.99h.02c1.87,.53,3.74,1.06,5.63,1.51,.28,.08,.56,.14,.82,.21,1.84,.44,3.67,.83,5.54,1.18,.71,.15,1.42,.28,2.14,.41,1.72,.32,3.44,.58,5.19,.83,1.04,.19,1.72,.26,2.84,.37,1.32,.17,2.64,.32,3.97,.44,.64,.08,1.33,.12,1.99,.17,.68,.06,1.39,.09,2.09,.15h0c3.11,.21,6.22,.32,9.36,.32h0c.3,0,.6,0,.88-.02,2.05,0,4.08-.07,6.11-.16,.69-.04,1.43-.08,2.1-.14,.7-.03,1.36-.08,2.03-.14,.68-.03,1.36-.1,2.03-.17,1.35-.12,2.7-.25,4.03-.43,1.2-.21,2.1-.35,3.12-.41,1.75-.25,3.47-.52,5.19-.83,.72-.14,1.43-.28,2.14-.41,1.85-.35,3.69-.76,5.5-1.2,.29-.05,.57-.12,.85-.21,1.89-.46,3.77-.96,5.64-1.5,2.15-.61,4.3-1.28,6.41-2.01,.23-.08,.46-.14,.67-.23,.5-.17,.99-.35,1.49-.53,54.67-19.62,93.87-71.66,94.36-132.93v-.12c.02-.37,.02-.73,.02-1.11,0-35.38-12.9-67.76-34.3-92.66Zm29.54,93.73v.12c-.48,59.23-38.38,109.55-91.22,128.51-.48,.19-.96,.35-1.44,.52-.2,.08-.42,.14-.64,.22-2.05,.71-4.12,1.35-6.2,1.95-1.8,.52-3.62,1.01-5.45,1.44-.27,.09-.54,.16-.81,.21-1.76,.42-3.53,.81-5.32,1.16-.68,.12-1.37,.26-2.06,.39-1.66,.3-3.33,.56-5.02,.8-.99,.06-1.85,.19-3.02,.4-1.28,.17-2.59,.3-3.9,.41-.64,.06-1.3,.13-1.95,.16-.65,.06-1.29,.11-1.96,.14-.66,.05-1.37,.08-2.04,.13-1.96,.09-3.92,.15-5.91,.15-.27,.02-.56,.02-.85,.02h0c-3.03,0-6.03-.1-9.04-.31h0c-.68-.05-1.36-.08-2.01-.14-.65-.05-1.3-.08-1.93-.16-1.28-.12-2.56-.26-3.84-.43-1.08-.1-1.74-.17-2.75-.35-1.69-.24-3.36-.49-5.02-.8-.69-.12-1.38-.25-2.06-.39-1.8-.35-3.57-.72-5.35-1.15-.26-.06-.53-.13-.8-.2-1.82-.44-3.63-.94-5.43-1.45h-.02c-2.08-.6-4.15-1.24-6.19-1.93h-.03c-.19-.08-.43-.14-.63-.24h0c-.48-.15-.96-.3-1.43-.5h-.02C48.74,258.2,10.69,207.36,10.69,147.59c0-4.21,.19-8.38,.57-12.51,.05-.48,.09-.97,.14-1.46h0C15.86,89.31,41.3,51.22,77.65,29.4c2.43-1.47,4.87-2.85,7.41-4.15,1.06-.54,2.11-1.07,3.17-1.59,3.2-1.55,6.45-3,9.78-4.3,9.74-3.83,20.05-6.59,30.75-8.13,.55-.08,1.07-.16,1.61-.23,.32-.04,.64-.07,.97-.1h.05c.76-.09,1.5-.19,2.21-.27,.27-.04,.52-.05,.76-.08,.04-.02,.08-.02,.1-.02,.16,0,.31,0,.48-.05,.08,0,.17-.02,.25-.03h.05c.3-.02,.64-.05,.96-.08,.22-.03,.41-.05,.63-.08,.57-.05,1.13-.08,1.68-.14,.22,0,.44-.03,.68-.03,.05,0,.08,0,.13,0,.12-.02,.25-.02,.39-.03h.22c.08-.02,.14-.02,.18-.03h.05c.44-.02,.86-.04,1.3-.08,.13,0,.24,0,.36-.02,.46-.03,.93-.05,1.42-.07,1.13-.03,2.26-.08,3.43-.08,.57-.02,1.18-.02,1.75-.02,1.28,0,2.54,.03,3.8,.07,.39,0,.75,0,1.12,.03,.79,.03,1.55,.06,2.31,.09,.13,0,.23,.03,.32,.03,.07,.02,.14,.02,.21,.02h.08c.11,0,.23,0,.37,.03,.41,0,.84,.03,1.28,.06,1.84,.14,3.71,.3,5.57,.48,.59,.08,1.23,.15,1.83,.23,.46,.05,.91,.1,1.36,.17,.16,.02,.33,.03,.48,.05,.3,.07,.57,.1,.86,.14,.09,0,.18,0,.27,.05,.15,.02,.36,.04,.52,.08,.09,0,.17,.02,.25,.03,.59,.08,1.18,.16,1.77,.26,.25,.03,.48,.08,.71,.13,.29,.05,.56,.09,.83,.14,.71,.12,1.41,.25,2.12,.39,.22,.05,.46,.08,.68,.13,.81,.17,1.62,.32,2.42,.5,.15,.03,.3,.08,.45,.11,.89,.16,1.75,.38,2.65,.59,.1,.03,.23,.06,.35,.08,.95,.23,1.88,.47,2.83,.73,1.01,.27,2.01,.55,3.02,.82,.97,.3,1.97,.58,2.95,.9,.74,.22,1.48,.49,2.21,.72,1.47,.51,2.92,1,4.36,1.55,1.45,.52,2.9,1.1,4.32,1.68,19.23,7.87,36.26,19.95,49.97,35.12,.85,.91,1.66,1.83,2.44,2.8,20.68,24.08,33.15,55.38,33.15,89.58,0,.37,0,.71,0,1.06Z"
               id="path60" />
            <g
               id="g62">
              <path
                 class="cls-12"
                 d="M245.27,64.81c-.73-.89-1.48-1.75-2.26-2.6-12.72-14.06-28.52-25.27-46.35-32.57-1.31-.54-2.66-1.08-4-1.57-1.33-.51-2.68-.96-4.04-1.43-.68-.22-1.37-.46-2.06-.67-.9-.29-1.83-.54-2.74-.82-.93-.26-1.86-.52-2.8-.77-.87-.24-1.75-.46-2.62-.68-.12-.01-.24-.05-.34-.07-.82-.2-1.62-.39-2.45-.56-.14-.02-.28-.07-.42-.09-.73-.16-1.48-.31-2.24-.46-.21-.05-.43-.07-.64-.12-.65-.14-1.31-.26-1.97-.36-.26-.05-.5-.08-.77-.14-.21-.03-.43-.08-.66-.12-.53-.09-1.08-.16-1.64-.24-.07-.01-.14-.02-.22-.02-.15-.03-.34-.06-.49-.07-.08-.03-.16-.03-.24-.05-.27-.03-.53-.07-.8-.13-.15-.02-.3-.03-.45-.05-.42-.06-.83-.12-1.26-.16-.56-.07-1.15-.14-1.69-.21-1.73-.17-3.46-.31-5.17-.44-.41-.02-.8-.06-1.18-.07-.13-.01-.23-.01-.35-.02h-.07c-.06,0-.13,0-.19-.01-.09,0-.19-.02-.3-.03-.71-.02-1.41-.06-2.15-.08-.34-.01-.67-.02-1.03-.02-1.17-.03-2.34-.06-3.53-.06-.53,0-1.09,0-1.64,.01-1.07,.01-2.12,.05-3.18,.08-.45,.01-.88,.03-1.31,.06-.13,.01-.22,.01-.34,.01-.41,.03-.8,.06-1.21,.07h-.05s-.1,.01-.17,.02h-.2c-.13,.02-.26,.02-.36,.03-.05,0-.08,0-.13,.01-.21,0-.42,.01-.61,.02-.52,.05-1.04,.07-1.57,.12-.2,.02-.37,.05-.58,.07-.3,.02-.6,.06-.89,.07h-.05c-.07,.01-.16,.02-.23,.02-.15,.03-.3,.05-.44,.05-.02,0-.06,0-.09,.01-.23,.03-.46,.05-.71,.08-.67,.07-1.36,.16-2.05,.24h-.06c-.29,.03-.59,.07-.89,.1-.5,.06-1,.14-1.5,.21-9.93,1.43-19.47,3.98-28.52,7.54-3.08,1.21-6.1,2.54-9.06,3.99-.99,.48-1.97,.97-2.95,1.47-2.35,1.21-4.63,2.48-6.88,3.85-33.7,20.23-57.3,55.56-61.44,96.65h0c-.05,.46-.08,.92-.13,1.37-.35,3.81-.52,7.69-.52,11.59,0,55.42,35.28,102.57,84.6,120.27h.01c.44,.17,.88,.32,1.32,.46h.01c.19,.08,.39,.15,.58,.22h.02c1.89,.64,3.8,1.24,5.74,1.79,.01,.02,.01,0,.01,0,1.67,.49,3.35,.95,5.04,1.36,.24,.07,.5,.13,.74,.19,1.65,.39,3.28,.74,4.95,1.07,.64,.14,1.28,.26,1.91,.36,1.54,.29,3.08,.53,4.66,.74,.93,.19,1.53,.24,2.54,.34,1.18,.15,2.37,.29,3.56,.39,.58,.07,1.18,.1,1.79,.15,.61,.06,1.24,.09,1.87,.14h.01c2.78,.19,5.57,.28,8.38,.28h.01c.27,0,.53,0,.79-.01,1.83,0,3.65-.06,5.47-.14,.63-.03,1.28-.07,1.89-.12,.61-.02,1.22-.07,1.82-.13,.6-.03,1.22-.09,1.81-.15,1.21-.1,2.42-.23,3.62-.38,1.07-.19,1.88-.31,2.8-.37,1.57-.22,3.11-.46,4.65-.74,.65-.12,1.28-.24,1.91-.36,1.66-.32,3.32-.68,4.94-1.08,.24-.05,.5-.1,.75-.19,1.69-.41,3.39-.86,5.06-1.34,1.93-.55,3.85-1.15,5.75-1.8,.2-.07,.41-.14,.59-.21,.45-.15,.89-.31,1.33-.48,49.01-17.59,84.15-64.24,84.6-119.17v-.1c.01-.34,.01-.65,.01-.99,0-31.72-11.57-60.74-30.74-83.07Zm23.62,84v.1c-.42,51.87-33.61,95.93-79.89,112.54-.42,.16-.84,.3-1.25,.45-.19,.06-.38,.13-.57,.2-1.8,.61-3.61,1.17-5.44,1.7-1.57,.45-3.17,.88-4.77,1.25-.24,.08-.48,.14-.72,.19-1.53,.37-3.1,.71-4.65,1.01-.6,.13-1.19,.24-1.81,.35-1.46,.26-2.92,.5-4.41,.71-.86,.05-1.62,.16-2.63,.34-1.12,.15-2.27,.27-3.41,.37-.57,.06-1.15,.1-1.7,.14-.58,.06-1.15,.09-1.73,.13-.59,.03-1.19,.07-1.79,.1-1.72,.07-3.43,.13-5.16,.13-.26,.01-.5,.01-.75,.01h-.01c-2.67,0-5.29-.09-7.91-.27h-.02c-.59-.03-1.17-.07-1.75-.13-.58-.03-1.15-.08-1.69-.14-1.14-.09-2.25-.23-3.36-.37-.95-.09-1.52-.15-2.4-.31-1.48-.2-2.95-.43-4.4-.71-.6-.09-1.21-.21-1.81-.35-1.58-.3-3.13-.63-4.67-1-.24-.06-.48-.12-.71-.19-1.6-.37-3.19-.81-4.77-1.26h-.01c-1.83-.53-3.64-1.09-5.43-1.69h-.01c-.19-.07-.38-.14-.55-.21h-.01c-.43-.14-.83-.28-1.25-.44h-.01c-46.58-16.72-79.91-61.25-79.91-113.59,0-3.69,.17-7.35,.5-10.94,.05-.43,.08-.86,.12-1.29h0c3.92-38.82,26.2-72.18,58.03-91.28,2.12-1.29,4.28-2.49,6.49-3.64,.92-.48,1.84-.94,2.78-1.39,2.8-1.37,5.64-2.62,8.56-3.77,8.54-3.35,17.56-5.77,26.93-7.11,.48-.07,.94-.15,1.41-.2,.28-.03,.57-.07,.83-.1h.06c.66-.08,1.3-.16,1.94-.22,.23-.05,.45-.06,.67-.08,.02-.01,.07-.01,.08-.01,.13,0,.28-.01,.42-.05,.07,0,.16-.01,.22-.02h.05c.28-.01,.56-.03,.84-.07,.2-.02,.37-.03,.56-.06,.5-.05,.99-.07,1.48-.1,.17-.01,.37-.03,.57-.03,.05-.01,.08-.01,.13-.01,.1-.01,.22-.01,.34-.02h.19c.07-.01,.12-.01,.17-.02h.03c.38-.01,.77-.05,1.14-.07,.1,0,.2,0,.32-.01,.41-.02,.81-.03,1.23-.06,1-.03,1.99-.06,3-.07,.51-.02,1.04-.02,1.55-.02,1.11,0,2.22,.03,3.32,.06,.34,0,.66,.01,.99,.02,.68,.03,1.35,.06,2.02,.08,.1,.01,.2,.02,.29,.02,.06,.01,.12,.01,.17,.01h.06c.1,.02,.21,.02,.34,.03,.36,.01,.73,.03,1.11,.06,1.62,.13,3.26,.26,4.88,.43,.52,.06,1.08,.13,1.6,.2,.41,.03,.8,.09,1.19,.14,.14,.01,.29,.02,.43,.06,.26,.05,.5,.07,.75,.12,.08,.01,.15,.01,.23,.03,.15,.01,.31,.05,.46,.07,.08,0,.14,.01,.21,.02,.52,.08,1.03,.15,1.53,.22,.22,.05,.44,.08,.64,.12,.24,.06,.48,.08,.72,.14,.63,.09,1.24,.21,1.87,.34,.19,.05,.41,.07,.6,.1,.71,.15,1.41,.29,2.11,.44,.13,.02,.26,.06,.39,.09,.77,.15,1.53,.34,2.31,.52,.09,.02,.21,.05,.31,.06,.82,.22,1.66,.43,2.48,.65,.88,.23,1.76,.49,2.63,.72,.86,.27,1.74,.51,2.59,.79,.66,.2,1.3,.42,1.95,.63,1.29,.44,2.56,.87,3.82,1.36,1.28,.46,2.54,.96,3.78,1.47,16.84,6.89,31.77,17.47,43.77,30.76,.74,.8,1.45,1.61,2.15,2.45,18.09,21.09,29.03,48.5,29.03,78.46,0,.31,0,.61-.01,.93Z"
                 id="path61" />
              <path
                 class="cls-36"
                 d="M243.4,73.28c-.2-.28-.42-.55-.64-.83-22.15-27.68-56.23-45.42-94.45-45.42-63.67,0-115.83,49.21-120.54,111.66-.03,.33-.04,.68-.06,1.02-.19,2.7-.28,5.42-.28,8.17,0,57.41,40.02,105.47,93.71,117.79,.87,.2,1.74,.39,2.63,.58h.01s.1,.01,.16,.03c.64,.13,1.28,.26,1.92,.36,.23,.06,.48,.1,.73,.15,.32,.06,.64,.12,.96,.16,1.56,.28,3.12,.52,4.71,.73h.01c.41,.06,.8,.12,1.22,.16h.01c1.16,.15,2.34,.28,3.52,.38,1.38,.13,2.79,.23,4.2,.31,.65,.06,1.31,.09,1.96,.1,.74,.04,1.48,.06,2.22,.07,.49,.01,.97,.03,1.47,.03,.44,.01,.87,.01,1.31,.01h.12c1.05,0,2.08-.01,3.12-.04,.09,0,.16,0,.26-.01h.01c.49,0,.99-.01,1.48-.06,.68-.01,1.35-.04,2.02-.09,1.41-.07,2.82-.17,4.21-.31,1.18-.1,2.35-.23,3.52-.38,.42-.04,.83-.09,1.24-.16h.01c1.58-.19,3.15-.44,4.71-.71,.32-.04,.64-.1,.96-.16,.23-.04,.48-.09,.73-.15,.67-.1,1.31-.23,1.96-.38h.01c.07,0,.13-.01,.19-.03h.01c.87-.19,1.76-.38,2.62-.58h.01c53.72-12.29,93.8-60.37,93.8-117.81,0-28.16-9.64-54.05-25.8-74.6Zm-78.1,187.9c-1.9,.28-3.84,.52-5.77,.7-.51,.06-1.02,.1-1.53,.15h-.01c-1.48,.13-2.98,.22-4.48,.29-1.37,.06-2.75,.1-4.13,.1-.35,.01-.71,.01-1.08,.01-.42,0-.84,0-1.25-.01-1.38,0-2.75-.04-4.11-.12-1.5-.06-2.99-.16-4.48-.29h-.01c-.51-.04-1.02-.09-1.53-.15-1.93-.17-3.85-.42-5.76-.71-55.14-8.27-97.43-55.84-97.43-113.27,0-2.15,.07-4.29,.17-6.41,.01-.33,.04-.65,.06-.99,3.81-59.8,53.54-107.14,114.33-107.14,36.91,0,69.73,17.44,90.67,44.53,.25,.3,.48,.61,.71,.92,14.56,19.19,23.18,43.14,23.18,69.09,0,57.49-42.36,105.09-97.58,113.3Z"
                 id="path62" />
            </g>
            <g
               id="g65">
              <path
                 class="cls-52"
                 d="M245.27,64.81c-.73-.89-1.48-1.75-2.26-2.6-12.72-14.06-28.52-25.27-46.35-32.57-1.31-.54-2.66-1.08-4-1.57-1.33-.51-2.68-.96-4.04-1.43-.68-.22-1.37-.46-2.06-.67-.9-.29-1.83-.54-2.74-.82-.93-.26-1.86-.52-2.8-.77-.87-.24-1.75-.46-2.62-.68-.12-.01-.24-.05-.34-.07-.82-.2-1.62-.39-2.45-.56-.14-.02-.28-.07-.42-.09-.73-.16-1.48-.31-2.24-.46-.21-.05-.43-.07-.64-.12-.65-.14-1.31-.26-1.97-.36-.26-.05-.5-.08-.77-.14-.21-.03-.43-.08-.66-.12-.53-.09-1.08-.16-1.64-.24-.07-.01-.14-.02-.22-.02-.15-.03-.34-.06-.49-.07-.08-.03-.16-.03-.24-.05-.27-.03-.53-.07-.8-.13-.15-.02-.3-.03-.45-.05-.42-.06-.83-.12-1.26-.16-.56-.07-1.15-.14-1.69-.21-1.73-.17-3.46-.31-5.17-.44-.41-.02-.8-.06-1.18-.07-.13-.01-.23-.01-.35-.02h-.07c-.06,0-.13,0-.19-.01-.09,0-.19-.02-.3-.03-.71-.02-1.41-.06-2.15-.08-.34-.01-.67-.02-1.03-.02-1.17-.03-2.34-.06-3.53-.06-.53,0-1.09,0-1.64,.01-1.07,.01-2.12,.05-3.18,.08-.45,.01-.88,.03-1.31,.06-.13,.01-.22,.01-.34,.01-.41,.03-.8,.06-1.21,.07h-.05s-.1,.01-.17,.02h-.2c-.13,.02-.26,.02-.36,.03-.05,0-.08,0-.13,.01-.21,0-.42,.01-.61,.02-.52,.05-1.04,.07-1.57,.12-.2,.02-.37,.05-.58,.07-.3,.02-.6,.06-.89,.07h-.05c-.07,.01-.16,.02-.23,.02-.15,.03-.3,.05-.44,.05-.02,0-.06,0-.09,.01-.23,.03-.46,.05-.71,.08-.67,.07-1.36,.16-2.05,.24h-.06c-.29,.03-.59,.07-.89,.1-.5,.06-1,.14-1.5,.21-9.93,1.43-19.47,3.98-28.52,7.54-3.08,1.21-6.1,2.54-9.06,3.99-.99,.48-1.97,.97-2.95,1.47-2.35,1.21-4.63,2.48-6.88,3.85-33.7,20.23-57.3,55.56-61.44,96.65h0c-.05,.46-.08,.92-.13,1.37-.35,3.81-.52,7.69-.52,11.59,0,55.42,35.28,102.57,84.6,120.27h.01c.44,.17,.88,.32,1.32,.46h.01c.19,.08,.39,.15,.58,.22h.02c1.89,.64,3.8,1.24,5.74,1.79,.01,.02,.01,0,.01,0,1.67,.49,3.35,.95,5.04,1.36,.24,.07,.5,.13,.74,.19,1.65,.39,3.28,.74,4.95,1.07,.64,.14,1.28,.26,1.91,.36,1.54,.29,3.08,.53,4.66,.74,.93,.19,1.53,.24,2.54,.34,1.18,.15,2.37,.29,3.56,.39,.58,.07,1.18,.1,1.79,.15,.61,.06,1.24,.09,1.87,.14h.01c2.78,.19,5.57,.28,8.38,.28h.01c.27,0,.53,0,.79-.01,1.83,0,3.65-.06,5.47-.14,.63-.03,1.28-.07,1.89-.12,.61-.02,1.22-.07,1.82-.13,.6-.03,1.22-.09,1.81-.15,1.21-.1,2.42-.23,3.62-.38,1.07-.19,1.88-.31,2.8-.37,1.57-.22,3.11-.46,4.65-.74,.65-.12,1.28-.24,1.91-.36,1.66-.32,3.32-.68,4.94-1.08,.24-.05,.5-.1,.75-.19,1.69-.41,3.39-.86,5.06-1.34,1.93-.55,3.85-1.15,5.75-1.8,.2-.07,.41-.14,.59-.21,.45-.15,.89-.31,1.33-.48,49.01-17.59,84.15-64.24,84.6-119.17v-.1c.01-.34,.01-.65,.01-.99,0-31.72-11.57-60.74-30.74-83.07Zm23.62,84v.1c-.42,51.87-33.61,95.93-79.89,112.54-.42,.16-.84,.3-1.25,.45-.19,.06-.38,.13-.57,.2-1.8,.61-3.61,1.17-5.44,1.7-1.57,.45-3.17,.88-4.77,1.25-.24,.08-.48,.14-.72,.19-1.53,.37-3.1,.71-4.65,1.01-.6,.13-1.19,.24-1.81,.35-1.46,.26-2.92,.5-4.41,.71-.86,.05-1.62,.16-2.63,.34-1.12,.15-2.27,.27-3.41,.37-.57,.06-1.15,.1-1.7,.14-.58,.06-1.15,.09-1.73,.13-.59,.03-1.19,.07-1.79,.1-1.72,.07-3.43,.13-5.16,.13-.26,.01-.5,.01-.75,.01h-.01c-2.67,0-5.29-.09-7.91-.27h-.02c-.59-.03-1.17-.07-1.75-.13-.58-.03-1.15-.08-1.69-.14-1.14-.09-2.25-.23-3.36-.37-.95-.09-1.52-.15-2.4-.31-1.48-.2-2.95-.43-4.4-.71-.6-.09-1.21-.21-1.81-.35-1.58-.3-3.13-.63-4.67-1-.24-.06-.48-.12-.71-.19-1.6-.37-3.19-.81-4.77-1.26h-.01c-1.83-.53-3.64-1.09-5.43-1.69h-.01c-.19-.07-.38-.14-.55-.21h-.01c-.43-.14-.83-.28-1.25-.44h-.01c-46.58-16.72-79.91-61.25-79.91-113.59,0-3.69,.17-7.35,.5-10.94,.05-.43,.08-.86,.12-1.29h0c3.92-38.82,26.2-72.18,58.03-91.28,2.12-1.29,4.28-2.49,6.49-3.64,.92-.48,1.84-.94,2.78-1.39,2.8-1.37,5.64-2.62,8.56-3.77,8.54-3.35,17.56-5.77,26.93-7.11,.48-.07,.94-.15,1.41-.2,.28-.03,.57-.07,.83-.1h.06c.66-.08,1.3-.16,1.94-.22,.23-.05,.45-.06,.67-.08,.02-.01,.07-.01,.08-.01,.13,0,.28-.01,.42-.05,.07,0,.16-.01,.22-.02h.05c.28-.01,.56-.03,.84-.07,.2-.02,.37-.03,.56-.06,.5-.05,.99-.07,1.48-.1,.17-.01,.37-.03,.57-.03,.05-.01,.08-.01,.13-.01,.1-.01,.22-.01,.34-.02h.19c.07-.01,.12-.01,.17-.02h.03c.38-.01,.77-.05,1.14-.07,.1,0,.2,0,.32-.01,.41-.02,.81-.03,1.23-.06,1-.03,1.99-.06,3-.07,.51-.02,1.04-.02,1.55-.02,1.11,0,2.22,.03,3.32,.06,.34,0,.66,.01,.99,.02,.68,.03,1.35,.06,2.02,.08,.1,.01,.2,.02,.29,.02,.06,.01,.12,.01,.17,.01h.06c.1,.02,.21,.02,.34,.03,.36,.01,.73,.03,1.11,.06,1.62,.13,3.26,.26,4.88,.43,.52,.06,1.08,.13,1.6,.2,.41,.03,.8,.09,1.19,.14,.14,.01,.29,.02,.43,.06,.26,.05,.5,.07,.75,.12,.08,.01,.15,.01,.23,.03,.15,.01,.31,.05,.46,.07,.08,0,.14,.01,.21,.02,.52,.08,1.03,.15,1.53,.22,.22,.05,.44,.08,.64,.12,.24,.06,.48,.08,.72,.14,.63,.09,1.24,.21,1.87,.34,.19,.05,.41,.07,.6,.1,.71,.15,1.41,.29,2.11,.44,.13,.02,.26,.06,.39,.09,.77,.15,1.53,.34,2.31,.52,.09,.02,.21,.05,.31,.06,.82,.22,1.66,.43,2.48,.65,.88,.23,1.76,.49,2.63,.72,.86,.27,1.74,.51,2.59,.79,.66,.2,1.3,.42,1.95,.63,1.29,.44,2.56,.87,3.82,1.36,1.28,.46,2.54,.96,3.78,1.47,16.84,6.89,31.77,17.47,43.77,30.76,.74,.8,1.45,1.61,2.15,2.45,18.09,21.09,29.03,48.5,29.03,78.46,0,.31,0,.61-.01,.93Z"
                 id="path63" />
              <path
                 class="cls-38"
                 d="M244.92,71.57c-.41-.52-.83-1.04-1.25-1.55-22.58-27.6-56.9-45.22-95.36-45.22-64.65,0-117.65,49.82-122.71,113.16-.03,.37-.06,.71-.08,1.08-.22,2.91-.32,5.86-.32,8.83,0,56.78,38.46,104.55,90.71,118.77h.02c.74,.21,1.48,.41,2.22,.58,.51,.13,1.02,.27,1.54,.38,1.47,.37,2.95,.69,4.44,.98,.25,.05,.5,.1,.74,.14,.38,.07,.76,.15,1.14,.22,1.53,.28,3.06,.54,4.61,.74h.02c.4,.07,.78,.13,1.19,.18,1.02,.14,2.02,.26,3.03,.36,1.38,.16,2.77,.29,4.16,.39,.63,.05,1.27,.09,1.89,.12,.74,.06,1.5,.1,2.24,.11,1.17,.06,2.33,.09,3.51,.09,.51,.03,1.03,.03,1.56,.03h.11c1.3,0,2.58,0,3.88-.07,.61,0,1.2-.03,1.81-.06,.51,0,1.01-.04,1.52-.09,.65-.03,1.29-.07,1.94-.11,1.4-.1,2.79-.24,4.17-.4,1.02-.08,2.03-.21,3.04-.34,.39-.06,.8-.12,1.19-.18,1.56-.22,3.09-.46,4.63-.74,.38-.07,.76-.15,1.12-.22,.26-.04,.51-.09,.76-.14,1.51-.3,3-.63,4.48-.98,.52-.12,1.05-.25,1.56-.38h0c.73-.19,1.47-.38,2.2-.59h0c52.34-14.17,90.81-61.97,90.81-118.79,0-28.82-9.92-55.32-26.5-76.3Zm-65.79,189.64h-.02c-.69,.21-1.4,.39-2.09,.57h-.02c-.48,.12-.98,.25-1.48,.36-1.42,.33-2.84,.65-4.28,.93-.23,.06-.47,.1-.72,.14-.35,.07-.71,.14-1.07,.21-1.47,.26-2.93,.5-4.41,.7-.38,.06-.77,.12-1.14,.17-.97,.13-1.94,.25-2.9,.33-1.32,.16-2.64,.28-3.98,.38-.62,.04-1.23,.08-1.86,.11-.48,.04-.95,.07-1.44,.08-.58,.03-1.15,.06-1.73,.06-1.24,.05-2.46,.07-3.7,.07h-.11c-.5,0-1,0-1.48-.03-1.13,0-2.25-.03-3.35-.08-.71-.02-1.43-.06-2.14-.11-.59-.03-1.2-.07-1.8-.12-1.33-.09-2.65-.22-3.97-.37-.97-.1-1.93-.21-2.89-.35-.39-.04-.75-.09-1.14-.16h0c-1.49-.2-2.95-.45-4.4-.71-.37-.07-.73-.14-1.09-.21-.23-.04-.47-.08-.7-.14-1.43-.28-2.84-.58-4.24-.93-.5-.11-.98-.23-1.47-.36-.71-.16-1.41-.36-2.12-.55h-.02c-49.86-13.58-86.54-59.15-86.54-113.33,0-2.83,.09-5.65,.3-8.43,.02-.34,.04-.67,.07-1.02,4.83-60.44,55.4-107.96,117.08-107.96,36.7,0,69.44,16.8,90.98,43.13,.4,.49,.8,.99,1.19,1.49,15.83,20.01,25.29,45.3,25.29,72.79,0,54.21-36.71,99.82-86.64,113.34Z"
                 id="path64" />
              <path
                 class="cls-21"
                 d="M243.4,73.28c-.2-.28-.42-.55-.64-.83-22.15-27.68-56.23-45.42-94.45-45.42-63.67,0-115.83,49.21-120.54,111.66-.03,.33-.04,.68-.06,1.02-.19,2.7-.28,5.42-.28,8.17,0,57.41,40.02,105.47,93.71,117.79,.87,.2,1.74,.39,2.63,.58h.01s.1,.01,.16,.03c.64,.13,1.28,.26,1.92,.36,.23,.06,.48,.1,.73,.15,.32,.06,.64,.12,.96,.16,1.56,.28,3.12,.52,4.71,.73h.01c.41,.06,.8,.12,1.22,.16h.01c1.16,.15,2.34,.28,3.52,.38,1.38,.13,2.79,.23,4.2,.31,.65,.06,1.31,.09,1.96,.1,.74,.04,1.48,.06,2.22,.07,.49,.01,.97,.03,1.47,.03,.44,.01,.87,.01,1.31,.01h.12c1.05,0,2.08-.01,3.12-.04,.09,0,.16,0,.26-.01h.01c.49,0,.99-.01,1.48-.06,.68-.01,1.35-.04,2.02-.09,1.41-.07,2.82-.17,4.21-.31,1.18-.1,2.35-.23,3.52-.38,.42-.04,.83-.09,1.24-.16h.01c1.58-.19,3.15-.44,4.71-.71,.32-.04,.64-.1,.96-.16,.23-.04,.48-.09,.73-.15,.67-.1,1.31-.23,1.96-.38h.01c.07,0,.13-.01,.19-.03h.01c.87-.19,1.76-.38,2.62-.58h.01c53.72-12.29,93.8-60.37,93.8-117.81,0-28.16-9.64-54.05-25.8-74.6Zm-78.1,187.9c-1.9,.28-3.84,.52-5.77,.7-.51,.06-1.02,.1-1.53,.15h-.01c-1.48,.13-2.98,.22-4.48,.29-1.37,.06-2.75,.1-4.13,.1-.35,.01-.71,.01-1.08,.01-.42,0-.84,0-1.25-.01-1.38,0-2.75-.04-4.11-.12-1.5-.06-2.99-.16-4.48-.29h-.01c-.51-.04-1.02-.09-1.53-.15-1.93-.17-3.85-.42-5.76-.71-55.14-8.27-97.43-55.84-97.43-113.27,0-2.15,.07-4.29,.17-6.41,.01-.33,.04-.65,.06-.99,3.81-59.8,53.54-107.14,114.33-107.14,36.91,0,69.73,17.44,90.67,44.53,.25,.3,.48,.61,.71,.92,14.56,19.19,23.18,43.14,23.18,69.09,0,57.49-42.36,105.09-97.58,113.3Z"
                 id="path65" />
            </g>
            <g
               id="g67">
              <path
                 class="cls-20"
                 d="M297.13,161.56c1.15-9.08,1.15-18.28,0-27.37-12.16,1.3-24.34,2.52-36.53,3.67,.67,6.65,.67,13.36,0,20.02,12.2,1.15,24.38,2.38,36.53,3.67Zm-3.93,18.23c1.25-4.08,2.26-8.21,3.03-12.38-12.01-1.84-24.06-3.59-36.15-5.24-.44,3.06-1.02,6.1-1.75,9.12,11.73,2.68,23.36,5.51,34.87,8.49Zm0-63.82c-11.51,2.98-23.14,5.81-34.87,8.49,.73,3.02,1.31,6.06,1.75,9.12,12.09-1.65,24.14-3.39,36.15-5.23-.76-4.17-1.77-8.3-3.03-12.38Z"
                 id="path66" />
              <path
                 class="cls-53"
                 d="M291.94,118.19c.82,2.84,1.53,5.72,2.11,8.62-10.76,1.64-21.66,3.22-32.44,4.7-.31-1.89-.67-3.79-1.09-5.67,10.5-2.41,21.06-4.98,31.41-7.65Zm-30.32,46.06c10.78,1.48,21.68,3.05,32.44,4.7-.59,2.9-1.29,5.79-2.11,8.62-10.36-2.67-20.91-5.23-31.41-7.65,.41-1.88,.78-3.78,1.09-5.67Zm33.9-28.03c.43,3.87,.64,7.78,.64,11.66s-.21,7.8-.64,11.66c-10.87-1.15-21.93-2.27-32.92-3.31,.23-2.77,.34-5.58,.34-8.35s-.11-5.58-.34-8.35c10.99-1.05,22.05-2.16,32.92-3.31Z"
                 id="path67" />
            </g>
            <g
               id="g70">
              <path
                 class="cls-54"
                 d="M279.55,154.89c-3.87,0-7.02-3.15-7.02-7.02s3.15-7.01,7.02-7.01,7.02,3.15,7.02,7.01-3.15,7.02-7.02,7.02Z"
                 id="path68" />
              <path
                 class="cls-9"
                 d="M284.86,147.88c0,2.94-2.38,5.32-5.32,5.32s-5.32-2.38-5.32-5.32,2.38-5.32,5.32-5.32,5.32,2.38,5.32,5.32Z"
                 id="path69" />
              <path
                 class="cls-15"
                 d="M282.92,145.6c0,1.27-1.51,2.3-3.38,2.3s-3.38-1.03-3.38-2.3,1.51-2.3,3.38-2.3,3.38,1.03,3.38,2.3Z"
                 id="path70" />
            </g>
            <g
               id="g72">
              <path
                 class="cls-24"
                 d="M.87,134.19c-1.15,9.08-1.15,18.28,0,27.37,12.16-1.3,24.34-2.52,36.53-3.67-.67-6.65-.67-13.36,0-20.02-12.2-1.15-24.38-2.38-36.53-3.67Zm3.93-18.23c-1.25,4.08-2.26,8.21-3.03,12.38,12.01,1.84,24.06,3.59,36.15,5.24,.44-3.06,1.02-6.1,1.75-9.12-11.73-2.68-23.36-5.51-34.87-8.49Zm0,63.82c11.51-2.98,23.14-5.81,34.87-8.49-.73-3.02-1.31-6.06-1.75-9.12-12.09,1.65-24.14,3.39-36.15,5.23,.76,4.17,1.77,8.3,3.03,12.38Z"
                 id="path71" />
              <path
                 class="cls-8"
                 d="M6.06,177.56c-.82-2.84-1.53-5.72-2.11-8.62,10.76-1.64,21.66-3.22,32.44-4.7,.31,1.89,.67,3.79,1.09,5.67-10.5,2.41-21.06,4.98-31.41,7.65Zm30.32-46.06c-10.78-1.48-21.68-3.05-32.44-4.7,.59-2.9,1.29-5.79,2.11-8.62,10.36,2.67,20.91,5.23,31.41,7.65-.41,1.88-.78,3.78-1.09,5.67ZM2.48,159.54c-.43-3.87-.64-7.78-.64-11.66s.21-7.8,.64-11.66c10.87,1.15,21.93,2.27,32.92,3.31-.23,2.77-.34,5.58-.34,8.35s.11,5.58,.34,8.35c-10.99,1.05-22.05,2.16-32.92,3.31Z"
                 id="path72" />
            </g>
            <g
               id="g79">
              <g
                 id="g76">
                <g
                   class="cls-42"
                   mask="url(#mask)"
                   id="g73">
                  <path
                     class="cls-50"
                     d="M120.95,264.69c0-1.97,1.11-3.71,2.89-4.55,11.62-5.45,22.01-12.3,23.4-13.95,.63,2.73,1.49,1.17,2.5,.31,1.02,1.28,10.77,7.96,22.87,13.64,1.78,.83,2.89,2.58,2.89,4.55,0,1.75-.89,3.35-2.39,4.26-6.31,3.84-19.09,18.52-23.84,26.54-.86-.23-1.1-.16-2.11-.08-4.43-7.43-17.74-22.76-23.82-26.46-1.5-.91-2.39-2.5-2.39-4.26h0Z"
                     id="path73" />
                </g>
                <path
                   class="cls-11"
                   d="M171.17,263.23c-14.23-6.67-20.89-15.59-20.94-15.76-.66-1.93-3.34-1.93-4,0-.05,.14-.15,.42-.15,.42,0,0-6.51,8.64-20.8,15.34-1.15,.54-1.26,2.15-.17,2.82,8.25,5.03,17.39,22.23,21.84,29.29,.56,.89,1.99,.9,2.54,0,5.1-8.35,13.59-24.26,21.84-29.29,1.09-.66,.98-2.28-.17-2.82Z"
                   id="path74" />
                <g
                   class="cls-10"
                   mask="url(#mask-2)"
                   id="g75">
                  <path
                     class="cls-39"
                     d="M171.09,266.21c.08-.05,.16-.12,.25-.17,1.09-.66,.98-2.28-.17-2.82-14.23-6.67-20.89-15.59-20.94-15.76-.66-1.93-3.34-1.93-4,0-.05,.14-.15,.42-.15,.42,0,0-6.51,8.64-20.8,15.34-1.15,.54-1.26,2.15-.17,2.82,.08,.05,.16,.12,.24,.17,7.41,1.43,15.05,2.2,22.87,2.2s15.46-.77,22.87-2.2Z"
                     id="path75" />
                </g>
              </g>
              <g
                 id="g78">
                <polygon
                   class="cls-49"
                   points="148.22 252.05 131.91 267.36 148.22 289.04 164.54 267.36 148.22 252.05"
                   id="polygon76" />
                <polygon
                   class="cls-37"
                   points="134.19 267.56 148.22 254.38 162.26 267.56 148.22 286.21 134.19 267.56"
                   id="polygon77" />
                <polygon
                   class="cls-17"
                   points="148.22 259.05 138.74 267.95 148.22 280.55 157.71 267.95 148.22 259.05"
                   id="polygon78" />
              </g>
            </g>
            <g
               id="g81">
              <path
                 class="cls-55"
                 d="M18.45,140.86c3.87,0,7.02,3.15,7.02,7.02s-3.15,7.01-7.02,7.01-7.02-3.15-7.02-7.01,3.15-7.02,7.02-7.02Z"
                 id="path79" />
              <path
                 class="cls-46"
                 d="M13.14,147.88c0-2.94,2.38-5.32,5.32-5.32s5.32,2.38,5.32,5.32-2.38,5.32-5.32,5.32-5.32-2.38-5.32-5.32Z"
                 id="path80" />
              <path
                 class="cls-14"
                 d="M15.08,150.15c0-1.27,1.51-2.3,3.38-2.3s3.38,1.03,3.38,2.3-1.51,2.3-3.38,2.3-3.38-1.03-3.38-2.3Z"
                 id="path81" />
            </g>
            <g
               id="g88">
              <g
                 id="g85">
                <g
                   class="cls-30"
                   mask="url(#mask-4)"
                   id="g82">
                  <path
                     class="cls-48"
                     d="M175.5,31.31c0,1.97-1.11,3.71-2.89,4.55-11.62,5.45-22.01,12.3-23.4,13.95-.63-2.73-1.49-1.17-2.5-.31-1.02-1.28-10.77-7.96-22.87-13.64-1.78-.83-2.89-2.58-2.89-4.55,0-1.75,.89-3.35,2.39-4.26,6.31-3.84,19.09-18.52,23.84-26.54,.86,.23,1.1,.16,2.11,.08,4.43,7.43,17.74,22.76,23.82,26.46,1.5,.91,2.39,2.5,2.39,4.26h0Z"
                     id="path82" />
                </g>
                <path
                   class="cls-25"
                   d="M125.28,32.77c14.23,6.67,20.89,15.59,20.94,15.76,.66,1.93,3.34,1.93,4,0,.05-.14,.15-.42,.15-.42,0,0,6.51-8.64,20.8-15.34,1.15-.54,1.26-2.15,.17-2.82-8.25-5.03-17.39-22.23-21.84-29.29-.56-.89-1.99-.9-2.54,0-5.1,8.35-13.59,24.26-21.84,29.29-1.09,.66-.98,2.28,.17,2.82Z"
                   id="path83" />
                <g
                   class="cls-35"
                   mask="url(#mask-6)"
                   id="g84">
                  <path
                     class="cls-47"
                     d="M125.36,29.79c-.08,.05-.16,.12-.25,.17-1.09,.66-.98,2.28,.17,2.82,14.23,6.67,20.89,15.59,20.94,15.76,.66,1.93,3.34,1.93,4,0,.05-.14,.15-.42,.15-.42,0,0,6.51-8.64,20.8-15.34,1.15-.54,1.26-2.15,.17-2.82-.08-.05-.16-.12-.24-.17-7.41-1.43-15.05-2.2-22.87-2.2s-15.46,.77-22.87,2.2Z"
                     id="path84" />
                </g>
              </g>
              <g
                 id="g87">
                <polygon
                   class="cls-33"
                   points="148.22 43.95 164.54 28.64 148.22 6.96 131.91 28.64 148.22 43.95"
                   id="polygon85" />
                <polygon
                   class="cls-18"
                   points="162.26 28.44 148.22 41.62 134.19 28.44 148.22 9.79 162.26 28.44"
                   id="polygon86" />
                <polygon
                   class="cls-16"
                   points="148.22 36.95 157.71 28.05 148.22 15.45 138.74 28.05 148.22 36.95"
                   id="polygon87" />
              </g>
            </g>
          </g>
        </g>
      </g>
    </g>
  </g>
</svg>
