<?xml version="1.0" encoding="UTF-8" standalone="no"?>
<svg
   viewBox="0 0 298 280"
   version="1.1"
   id="svg5114"
   sodipodi:docname="5-Silver(2).svg"
   inkscape:version="1.4 (86a8ad7, 2024-10-11)"
   xmlns:inkscape="http://www.inkscape.org/namespaces/inkscape"
   xmlns:sodipodi="http://sodipodi.sourceforge.net/DTD/sodipodi-0.dtd"
   xmlns:xlink="http://www.w3.org/1999/xlink"
   xmlns="http://www.w3.org/2000/svg"
   xmlns:svg="http://www.w3.org/2000/svg">
  <sodipodi:namedview
     id="namedview5114"
     pagecolor="#505050"
     bordercolor="#ffffff"
     borderopacity="1"
     inkscape:showpageshadow="0"
     inkscape:pageopacity="0"
     inkscape:pagecheckerboard="1"
     inkscape:deskcolor="#505050"
     inkscape:zoom="1.5267857"
     inkscape:cx="105.77778"
     inkscape:cy="76.959065"
     inkscape:window-width="1920"
     inkscape:window-height="1057"
     inkscape:window-x="1912"
     inkscape:window-y="-8"
     inkscape:window-maximized="1"
     inkscape:current-layer="svg5114" />
  <defs
     id="defs9">
    <linearGradient
       id="linearGradient75"
       x1="148.23"
       y1="-12.24"
       x2="148.23"
       y2="281.33"
       gradientUnits="userSpaceOnUse">
      <stop
         offset="0"
         stop-color="#898989"
         id="stop72" />
      <stop
         offset="0.49565411"
         stop-color="#eaeaea"
         id="stop73" />
      <stop
         offset="1"
         stop-color="#7f7f7f"
         id="stop75" />
    </linearGradient>
    <linearGradient
       id="linearGradient71"
       x1="148.23"
       y1="-12.24"
       x2="148.23"
       y2="281.33"
       gradientUnits="userSpaceOnUse">
      <stop
         offset="0"
         stop-color="#898989"
         id="stop68" />
      <stop
         offset="0.44659868"
         stop-color="#eaeaea"
         id="stop69" />
      <stop
         offset="1"
         stop-color="#7f7f7f"
         id="stop71" />
    </linearGradient>
    <linearGradient
       id="linearGradient67"
       x1="148.23"
       y1="-12.24"
       x2="148.23"
       y2="281.33"
       gradientUnits="userSpaceOnUse">
      <stop
         offset="0"
         stop-color="#898989"
         id="stop64" />
      <stop
         offset="0.43593636"
         stop-color="#eaeaea"
         id="stop65" />
      <stop
         offset="1"
         stop-color="#7f7f7f"
         id="stop67" />
    </linearGradient>
    <linearGradient
       id="linearGradient63"
       x1="148.23"
       y1="-12.24"
       x2="148.23"
       y2="281.33"
       gradientUnits="userSpaceOnUse">
      <stop
         offset="0"
         stop-color="#898989"
         id="stop60" />
      <stop
         offset="0.43593636"
         stop-color="#eaeaea"
         id="stop61"
         style="stop-color:#dfdfdf;stop-opacity:1;" />
      <stop
         offset="1"
         stop-color="#7f7f7f"
         id="stop63" />
    </linearGradient>
    <linearGradient
       id="linearGradient51"
       x1="148.23"
       y1="-12.24"
       x2="148.23"
       y2="281.33"
       gradientUnits="userSpaceOnUse">
      <stop
         offset="0.00134228"
         stop-color="#7f7f7f"
         id="stop48" />
      <stop
         offset="0.27678025"
         stop-color="#c4c4c4"
         id="stop49" />
      <stop
         offset="0.72"
         stop-color="#eaeaea"
         id="stop50" />
      <stop
         offset="1"
         stop-color="#898989"
         id="stop51" />
    </linearGradient>
    <linearGradient
       id="linearGradient45"
       x1="148.23"
       y1="-12.24"
       x2="148.23"
       y2="281.33"
       gradientUnits="userSpaceOnUse">
      <stop
         offset="0"
         stop-color="#7f7f7f"
         id="stop45" />
      <stop
         offset="0.27678025"
         stop-color="#c4c4c4"
         id="stop44" />
      <stop
         offset="0.72"
         stop-color="#eaeaea"
         id="stop43" />
      <stop
         offset="1"
         stop-color="#898989"
         id="stop42" />
    </linearGradient>
    <linearGradient
       id="linearGradient39"
       x1="148.23"
       y1="-12.24"
       x2="148.23"
       y2="281.33"
       gradientUnits="userSpaceOnUse">
      <stop
         offset="0"
         stop-color="#7f7f7f"
         id="stop39" />
      <stop
         offset="0.27678025"
         stop-color="#c4c4c4"
         id="stop38" />
      <stop
         offset="0.72"
         stop-color="#eaeaea"
         id="stop37" />
      <stop
         offset="1"
         stop-color="#898989"
         id="stop36" />
    </linearGradient>
    <linearGradient
       id="linearGradient13"
       x1="148.23"
       y1="-12.24"
       x2="148.23"
       y2="281.33"
       gradientUnits="userSpaceOnUse">
      <stop
         offset="0"
         stop-color="#898989"
         id="stop32" />
      <stop
         offset=".28"
         stop-color="#eaeaea"
         id="stop33" />
      <stop
         offset="0.72321975"
         stop-color="#c4c4c4"
         id="stop34" />
      <stop
         offset="1"
         stop-color="#7f7f7f"
         id="stop35" />
    </linearGradient>
    <linearGradient
       id="linearGradient13-1"
       x1="148.23"
       y1="-12.24"
       x2="148.23"
       y2="281.33"
       gradientUnits="userSpaceOnUse">
      <stop
         offset="0.37932888"
         stop-color="#898989"
         id="stop10" />
      <stop
         offset="0.4142282"
         stop-color="#eaeaea"
         id="stop11" />
      <stop
         offset="0.70040095"
         stop-color="#c4c4c4"
         id="stop12" />
      <stop
         offset="0.78255033"
         stop-color="#7f7f7f"
         id="stop13" />
    </linearGradient>
    <style
       id="style1">
      .cls-1 {
        fill: url(#linear-gradient-2);
      }

      .cls-2 {
        fill: url(#linear-gradient-15);
      }

      .cls-3 {
        opacity: .2;
      }

      .cls-3, .cls-4 {
        mix-blend-mode: multiply;
      }

      .cls-5 {
        fill: url(#linear-gradient-14);
      }

      .cls-6 {
        fill: url(#linear-gradient-6);
      }

      .cls-7 {
        isolation: isolate;
      }

      .cls-8 {
        fill: url(#linear-gradient-11);
      }

      .cls-9 {
        fill: url(#linear-gradient-10);
      }

      .cls-10 {
        fill: #73594e;
        opacity: .3;
      }

      .cls-4, .cls-11 {
        opacity: .35;
      }

      .cls-12 {
        fill: url(#linear-gradient-5);
      }

      .cls-13 {
        clip-path: url(#clippath);
      }

      .cls-14 {
        fill: url(#linear-gradient-9);
      }

      .cls-14, .cls-15 {
        mix-blend-mode: screen;
      }

      .cls-16 {
        fill: none;
      }

      .cls-17 {
        fill: url(#linear-gradient-7);
      }

      .cls-15 {
        fill: url(#linear-gradient-13);
      }

      .cls-18 {
        fill: #ccd5df;
      }

      .cls-19 {
        fill: url(#linear-gradient-3);
      }

      .cls-20 {
        fill: url(#linear-gradient);
      }

      .cls-21 {
        fill: url(#linear-gradient-4);
      }

      .cls-22 {
        fill: url(#linear-gradient-8);
      }

      .cls-11 {
        fill: #9f8861;
      }

      .cls-23 {
        fill: url(#linear-gradient-12);
      }
    </style>
    <linearGradient
       id="linear-gradient"
       x1="148.23"
       y1="-12.24"
       x2="148.23"
       y2="281.33"
       gradientUnits="userSpaceOnUse">
      <stop
         offset="0"
         stop-color="#898989"
         id="stop1" />
      <stop
         offset=".28"
         stop-color="#eaeaea"
         id="stop2" />
      <stop
         offset=".54"
         stop-color="#c4c4c4"
         id="stop3" />
      <stop
         offset="1"
         stop-color="#7f7f7f"
         id="stop4" />
    </linearGradient>
    <linearGradient
       id="linear-gradient-2"
       x1="148.22"
       y1="128.35"
       x2="148.22"
       y2="12.74"
       xlink:href="#linear-gradient" />
    <linearGradient
       id="linear-gradient-3"
       x1="148.32"
       y1="18.87"
       x2="148.32"
       y2="141.57"
       xlink:href="#linear-gradient" />
    <linearGradient
       id="linear-gradient-4"
       x1="123.86"
       y1="-4.34"
       x2="123.86"
       y2="36.77"
       xlink:href="#linearGradient13" />
    <linearGradient
       id="linear-gradient-5"
       x1="174"
       y1="-4.34"
       x2="174"
       y2="36.77"
       xlink:href="#linear-gradient" />
    <linearGradient
       id="linear-gradient-6"
       x1="288.64"
       y1="121.8"
       x2="271.05"
       y2="158.25"
       xlink:href="#linear-gradient" />
    <linearGradient
       id="linear-gradient-7"
       x1="289.92"
       y1="132.89"
       x2="275.31"
       y2="142.91"
       xlink:href="#linear-gradient" />
    <linearGradient
       id="linear-gradient-8"
       x1="279.54498"
       y1="134.69501"
       x2="279.54498"
       y2="145.32498"
       xlink:href="#linearGradient75" />
    <linearGradient
       id="linear-gradient-9"
       x1="327.76"
       y1="112.94"
       x2="327.76"
       y2="121.91"
       gradientTransform="translate(-48.22 18.92)"
       gradientUnits="userSpaceOnUse">
      <stop
         offset="0"
         stop-color="#fff"
         id="stop5" />
      <stop
         offset=".11"
         stop-color="#ececec"
         id="stop6" />
      <stop
         offset=".32"
         stop-color="#bababa"
         id="stop7" />
      <stop
         offset=".62"
         stop-color="#6b6b6b"
         id="stop8" />
      <stop
         offset="1"
         stop-color="#000"
         id="stop9" />
    </linearGradient>
    <linearGradient
       id="linear-gradient-10"
       x1="7.38"
       y1="124.67"
       x2="28.53"
       y2="155.76"
       xlink:href="#linear-gradient" />
    <linearGradient
       id="linear-gradient-11"
       x1="6.99"
       y1="131.87"
       x2="24.58"
       y2="144.35"
       xlink:href="#linear-gradient" />
    <linearGradient
       id="linear-gradient-12"
       x1="17.679996"
       y1="133.13004"
       x2="17.679996"
       y2="146.88995"
       xlink:href="#linearGradient71" />
    <linearGradient
       id="linear-gradient-13"
       x1="2803.34"
       y1="112.94"
       x2="2803.34"
       y2="121.91"
       gradientTransform="translate(2821.79 261.1) rotate(-180)"
       xlink:href="#linear-gradient-9" />
    <linearGradient
       id="linear-gradient-14"
       x1="124.9"
       y1="278.21"
       x2="124.9"
       y2="243.66"
       xlink:href="#linear-gradient" />
    <linearGradient
       id="linear-gradient-15"
       x1="171.55"
       y1="278.21"
       x2="171.55"
       y2="243.66"
       xlink:href="#linear-gradient" />
    <clipPath
       id="clippath">
      <path
         class="cls-16"
         d="M116.9,236.25c5.79,2.92,11.94,5.05,18.36,6.29l-15.34,36.94-5.32-1.13s-.05,0-.07-.02c-1.89-.45-3.76-.98-5.64-1.51h0c-2.15-.61-4.3-1.28-6.41-2h-.03c-.19-.09-.44-.16-.63-.25h-.02c-.49-.16-.99-.32-1.48-.51h-.02c-25.49-9.17-47.63-25.41-64.04-46.35-16.41-20.94-27.1-46.61-29.7-74.62-1.9,.2-3.8,.4-5.7,.6-1.16-9.09-1.16-18.3,0-27.4,1.89,.2,3.77,.4,5.66,.6,0-.04,0-.09,0-.13,.05-.5,.09-1,.13-1.51v-.02C11.3,79.37,37.61,39.9,75.21,17.3c2.51-1.53,5.05-2.96,7.68-4.3,1.09-.55,2.18-1.1,3.27-1.64,3.3-1.62,6.67-3.12,10.11-4.45,5.62-2.22,11.4-4.08,17.34-5.57L119.2,0l14.92,36.86c-7.79,1.15-15.26,3.23-22.26,6.11l-1.67-4.6c-.56,.21-1.12,.42-1.67,.64-2.61,1.02-5.17,2.15-7.68,3.38-.84,.41-1.68,.83-2.5,1.26-2,1.02-3.92,2.11-5.83,3.26-28.59,17.19-48.59,47.18-52.1,82.09-.05,.39-.08,.77-.11,1.15-.3,3.25-.45,6.53-.45,9.85,0,47.06,29.92,87.1,71.75,102.14h0c.37,.14,.76,.27,1.13,.39h0c.16,.06,.33,.13,.49,.18h.02c.53,.18,1.07,.36,1.6,.52l2.06-6.97Zm180.23-109.95c-2.23,.24-4.45,.47-6.68,.7-2.67-30.43-14.91-58.14-33.72-80.06-.81-1.01-1.65-1.96-2.51-2.91-14.19-15.71-31.81-28.22-51.69-36.38-1.48-.6-2.98-1.2-4.47-1.74-1.5-.57-2.98-1.08-4.51-1.61-.76-.23-1.52-.51-2.29-.74-1.02-.32-2.04-.62-3.05-.92-1.04-.28-2.08-.58-3.12-.86-.28-.08-.55-.15-.83-.22L179.87,0l-16.11,37.08c7.28,1.19,14.26,3.19,20.83,5.89l1.66-4.59c1.03,.38,2.05,.8,3.05,1.2,15.14,6.19,28.52,15.71,39.31,27.66,.66,.72,1.3,1.45,1.92,2.21,16.25,18.97,26.08,43.61,26.08,70.54,0,.29,0,.55,0,.84v.08c-.39,46.65-30.19,86.27-71.75,101.21-.38,.15-.75,.28-1.14,.41-.16,.06-.33,.12-.51,.17-.53,.19-1.07,.37-1.61,.53l-2.06-6.97c-5.79,2.92-11.94,5.05-18.36,6.29l14.53,37.45,6.2-1.52c.18-.04,.36-.09,.54-.15,1.9-.46,3.77-.97,5.64-1.5,2.15-.61,4.3-1.28,6.42-2.02,.23-.08,.46-.14,.67-.23,.5-.17,.99-.35,1.49-.53,51.06-18.35,88.6-65,93.74-121.06,2.25,.23,4.49,.47,6.74,.71,1.16-9.09,1.16-18.3,0-27.4Z"
         id="path9" />
    </clipPath>
    <linearGradient
       inkscape:collect="always"
       xlink:href="#linear-gradient"
       id="linearGradient53"
       x1="6.99"
       y1="131.87"
       x2="24.58"
       y2="144.35" />
    <linearGradient
       inkscape:collect="always"
       xlink:href="#linearGradient63"
       id="linearGradient54"
       x1="24.56"
       y1="140.01"
       x2="10.8"
       y2="140.01" />
    <linearGradient
       inkscape:collect="always"
       xlink:href="#linear-gradient"
       id="linearGradient56"
       x1="6.99"
       y1="131.87"
       x2="24.58"
       y2="144.35" />
    <linearGradient
       inkscape:collect="always"
       xlink:href="#linearGradient67"
       id="linearGradient57"
       x1="24.56"
       y1="140.01"
       x2="10.8"
       y2="140.01" />
    <linearGradient
       inkscape:collect="always"
       xlink:href="#linear-gradient"
       id="linearGradient76"
       gradientUnits="userSpaceOnUse"
       x1="148.23"
       y1="-12.24"
       x2="148.23"
       y2="281.33" />
  </defs>
  <g
     class="cls-7"
     id="g5114"
     transform="matrix(0.95941967,0,0,0.95941967,6.0560634,3.800326)">
    <g
       id="Layer_2"
       data-name="Layer 2">
      <g
         id="Layer_1-2"
         data-name="Layer 1">
        <g
           id="g5113">
          <g
             id="g29">
            <g
               id="g19">
              <path
                 class="cls-20"
                 d="m 288.1,129.1 -0.15,-1.83 C 282.56,67.47 239.58,18.37 182.9,3.9 l -1.12,1.94 -5.41,9.37 -0.24,0.42 c 53.22,11.97 93.96,57.39 98.9,112.95 0.06,0.61 0.11,1.22 0.15,1.84 0.1,1.3 0.18,2.61 0.23,3.92 0.04,0.74 0.06,1.49 0.09,2.23 0.02,1.14 0.04,2.28 0.04,3.43 0,1.15 -0.02,2.32 -0.05,3.47 -0.02,0.74 -0.04,1.48 -0.08,2.22 -0.05,1.32 -0.13,2.63 -0.23,3.93 -0.05,0.62 -0.1,1.23 -0.15,1.84 -5.03,56.28 -46.77,102.15 -101.02,113.37 l 0.25,0.44 5.15,8.92 1.4,2.43 c 57.69,-13.78 101.66,-63.35 107.12,-123.86 0.06,-0.61 0.11,-1.22 0.16,-1.83 0.28,-3.6 0.42,-7.24 0.42,-10.92 0,-3.68 -0.14,-7.29 -0.42,-10.89 z M 21.44,151.59 c -0.06,-0.61 -0.11,-1.22 -0.16,-1.84 -0.08,-1.07 -0.15,-2.15 -0.2,-3.23 -0.04,-0.61 -0.06,-1.22 -0.09,-1.83 0,-0.29 0,-0.58 -0.02,-0.87 -0.03,-1.04 -0.05,-2.08 -0.06,-3.12 v -0.72 c 0,-1.56 0.03,-3.12 0.08,-4.66 0.03,-0.62 0.05,-1.23 0.09,-1.84 0.05,-1.08 0.12,-2.15 0.2,-3.22 0.04,-0.62 0.09,-1.23 0.15,-1.84 C 26.47,72.45 67.84,26.8 121.69,15.33 l -0.25,-0.42 -5.36,-9.29 -1.18,-2.06 v 0 C 57.6,17.59 14.01,66.92 8.52,127.12 c -0.06,0.61 -0.11,1.22 -0.16,1.83 -0.28,3.65 -0.43,7.33 -0.43,11.05 0,3.72 0.15,7.42 0.43,11.08 0.05,0.61 0.1,1.22 0.16,1.83 5.53,60.44 49.47,109.93 107.1,123.7 l 1.46,-2.53 5.09,-8.82 0.25,-0.44 C 68.22,253.61 26.52,207.81 21.43,151.6 Z"
                 id="path10"
                 sodipodi:nodetypes="ccccccccccsccccccccccsccccccccsccccccccsccscccccccc"
                 style="fill:url(#linearGradient76)" />
              <g
                 id="g15">
                <path
                   class="cls-18"
                   d="m 116.9,236.25 c 5.79,2.92 11.94,5.05 18.36,6.29 l -2.76,4.79 -1.72,2.98 c -5.66,-1.36 -11.11,-3.36 -16.28,-5.91 l 0.35,-1.18 2.06,-6.97 z"
                   id="path11" />
                <path
                   class="cls-18"
                   d="m 181.95,244.4 c -5.18,2.56 -10.63,4.55 -16.28,5.91 l -1.72,-2.98 -2.76,-4.79 c 6.42,-1.24 12.57,-3.38 18.36,-6.29 l 2.06,6.97 0.35,1.18 z"
                   id="path12"
                   sodipodi:nodetypes="cccccccc" />
                <path
                   class="cls-18"
                   d="m 131.74,32.75 2.37,4.12 c -7.79,1.15 -15.26,3.23 -22.26,6.11 l -1.67,-4.6 -1.13,-3.13 c 6.57,-2.65 13.5,-4.65 20.7,-5.91 l 1.98,3.42 z"
                   id="path13" />
                <path
                   class="cls-18"
                   d="m 187.38,35.25 -1.14,3.14 -1.66,4.59 C 178,40.27 171.03,38.28 163.75,37.09 l 2.37,-4.1 1.96,-3.4 c 6.71,1.28 13.16,3.19 19.3,5.66 z"
                   id="path14" />
                <path
                   class="cls-18"
                   d="m 264.07,131.51 c -0.04,-0.62 -0.09,-1.23 -0.15,-1.85 -2.18,-24.82 -12.16,-47.4 -27.49,-65.27 -0.66,-0.82 -1.35,-1.59 -2.06,-2.37 -11.56,-12.8 -25.91,-22.99 -42.13,-29.64 -1.19,-0.49 -2.41,-0.98 -3.63,-1.41 -1.22,-0.47 -2.43,-0.89 -3.68,-1.31 -0.62,-0.2 -1.24,-0.43 -1.87,-0.61 -0.83,-0.26 -1.67,-0.5 -2.48,-0.75 -0.85,-0.23 -1.69,-0.47 -2.54,-0.7 -0.8,-0.22 -1.59,-0.42 -2.38,-0.62 -0.11,0 -0.22,-0.04 -0.3,-0.07 -0.75,-0.17 -1.48,-0.35 -2.24,-0.5 -0.12,-0.02 -0.25,-0.06 -0.38,-0.08 -0.66,-0.16 -1.35,-0.29 -2.03,-0.43 -0.15,-0.03 -0.3,-0.05 -0.45,-0.08 l -0.84,1.44 -1.34,2.32 -1.96,3.4 c 0.07,0 0.14,0.02 0.21,0.03 0.23,0.06 0.43,0.09 0.65,0.12 0.57,0.09 1.12,0.2 1.68,0.31 0.17,0.04 0.36,0.06 0.54,0.1 0.63,0.13 1.28,0.26 1.9,0.4 0.12,0 0.24,0.05 0.36,0.08 0.69,0.14 1.38,0.3 2.08,0.46 0.07,0.03 0.18,0.06 0.28,0.07 0.74,0.19 1.49,0.37 2.23,0.58 0.8,0.2 1.58,0.43 2.37,0.65 0.76,0.24 1.56,0.46 2.31,0.7 0.6,0.17 1.18,0.38 1.75,0.58 1.16,0.39 2.29,0.77 3.42,1.2 0.12,0.04 0.23,0.09 0.35,0.13 1.03,0.38 2.05,0.8 3.05,1.2 15.14,6.19 28.52,15.71 39.31,27.66 0.66,0.72 1.3,1.45 1.92,2.21 16.25,18.97 26.08,43.61 26.08,70.54 v 0.84 0.08 c -0.39,46.65 -30.19,86.27 -71.75,101.21 -0.38,0.15 -0.75,0.28 -1.14,0.41 -0.16,0.06 -0.33,0.12 -0.51,0.17 -0.53,0.19 -1.07,0.37 -1.61,0.53 -1.08,0.36 -2.17,0.7 -3.26,1.01 -1.42,0.41 -2.85,0.79 -4.29,1.14 -0.22,0.07 -0.44,0.12 -0.64,0.15 -1.39,0.34 -2.78,0.65 -4.19,0.92 -0.54,0.1 -1.07,0.21 -1.63,0.3 -1.21,0.22 -2.4,0.42 -3.64,0.6 l 1.72,2.98 1.63,2.82 0.82,1.42 0.87,-0.15 c 0.59,-0.11 1.17,-0.23 1.75,-0.32 1.51,-0.3 3,-0.63 4.49,-0.98 0.22,-0.05 0.45,-0.1 0.68,-0.18 1.55,-0.37 3.07,-0.78 4.6,-1.22 1.75,-0.5 3.5,-1.04 5.23,-1.64 0.18,-0.07 0.37,-0.12 0.54,-0.19 0.41,-0.14 0.81,-0.28 1.21,-0.43 41.75,-15 72.41,-53.22 76.45,-99.1 0.05,-0.61 0.1,-1.22 0.14,-1.84 0.19,-2.49 0.29,-4.99 0.31,-7.52 v -0.1 -0.9 c 0,-2.86 -0.1,-5.68 -0.31,-8.48 z M 127.24,246.44 c -1.42,-0.27 -2.8,-0.57 -4.2,-0.9 -0.2,-0.05 -0.42,-0.1 -0.63,-0.16 -1.44,-0.35 -2.86,-0.74 -4.28,-1.15 0,0 0,0.02 0,0 -1.1,-0.31 -2.2,-0.65 -3.27,-1.01 -0.53,-0.16 -1.07,-0.34 -1.6,-0.52 h -0.02 c -0.16,-0.05 -0.33,-0.12 -0.49,-0.18 v 0 c -0.37,-0.12 -0.76,-0.25 -1.13,-0.39 v 0 C 69.79,227.09 39.87,187.05 39.87,139.99 c 0,-3.32 0.15,-6.6 0.45,-9.85 0.03,-0.38 0.06,-0.76 0.11,-1.15 3.51,-34.91 23.52,-64.9 52.1,-82.09 1.91,-1.15 3.83,-2.24 5.83,-3.26 0.83,-0.43 1.67,-0.85 2.5,-1.26 2.51,-1.23 5.07,-2.36 7.68,-3.38 0.55,-0.22 1.11,-0.43 1.67,-0.64 6.87,-2.59 14.09,-4.48 21.55,-5.62 l -1.98,-3.42 -1.32,-2.29 -0.86,-1.49 c -7.59,1.36 -14.92,3.46 -21.91,6.2 -2.8,1.1 -5.55,2.32 -8.24,3.64 -0.89,0.44 -1.79,0.88 -2.67,1.34 -2.15,1.1 -4.2,2.26 -6.25,3.51 -30.64,18.42 -52.08,50.56 -55.86,87.95 v 0 c -0.03,0.43 -0.06,0.84 -0.11,1.24 v 0.08 c -0.05,0.62 -0.1,1.23 -0.14,1.85 -0.22,2.86 -0.33,5.73 -0.33,8.63 0,2.9 0.11,5.8 0.32,8.67 0.04,0.61 0.09,1.23 0.15,1.84 4.1,45.81 34.75,83.97 76.43,98.96 v 0 c 0.4,0.16 0.8,0.29 1.21,0.42 v 0 c 0.16,0.08 0.36,0.13 0.52,0.2 h 0.02 c 1.72,0.59 3.47,1.13 5.22,1.63 v 0 c 1.53,0.44 3.05,0.86 4.59,1.23 0.23,0.07 0.46,0.12 0.67,0.18 1.51,0.36 2.99,0.67 4.51,0.97 0.58,0.12 1.16,0.22 1.75,0.32 0.29,0.05 0.57,0.1 0.86,0.15 l 0.84,-1.45 1.61,-2.79 1.72,-2.98 c -1.23,-0.17 -2.42,-0.37 -3.64,-0.6 -0.53,-0.08 -1.08,-0.18 -1.62,-0.3 z"
                   id="path15"
                   sodipodi:nodetypes="ccccccccccccccccccccccccccccccccccccscccccccccccccccccccccccccccsccccccccccssssscccccccccccccccsscccsccssssccssccccccccccc" />
              </g>
              <path
                 class="cls-18"
                 d="m 290.61,128.85 c -0.04,-0.62 -0.09,-1.23 -0.15,-1.84 -2.67,-30.43 -14.91,-58.14 -33.72,-80.06 -0.81,-1.01 -1.65,-1.96 -2.51,-2.91 C 240.04,28.33 222.42,15.82 202.54,7.66 201.06,7.06 199.56,6.46 198.07,5.92 196.57,5.35 195.09,4.84 193.56,4.31 192.8,4.08 192.04,3.8 191.27,3.57 190.25,3.25 189.23,2.95 188.22,2.65 187.18,2.37 186.14,2.07 185.1,1.79 184.82,1.71 184.55,1.64 184.27,1.57 l -1.34,2.33 -1.12,1.94 c 0.69,0.17 1.38,0.36 2.07,0.55 1.02,0.27 2.02,0.55 3.02,0.82 0.97,0.31 1.97,0.59 2.94,0.9 0.75,0.22 1.49,0.49 2.22,0.72 1.48,0.51 2.92,1 4.36,1.55 1.45,0.52 2.9,1.1 4.32,1.68 19.23,7.89 36.26,19.98 49.97,35.18 0.85,0.91 1.66,1.83 2.44,2.8 18.2,21.21 30.02,48.01 32.61,77.47 0.06,0.61 0.11,1.22 0.14,1.84 0.23,2.85 0.35,5.72 0.38,8.62 0.02,0.59 0.02,1.18 0.02,1.77 v 1.07 0.12 c 0,0.39 0,0.79 -0.02,1.18 -0.04,2.89 -0.18,5.75 -0.4,8.59 -0.05,0.62 -0.1,1.23 -0.16,1.83 -4.96,54.21 -41.28,99.34 -90.64,117.08 -0.48,0.18 -0.96,0.34 -1.44,0.51 -0.2,0.08 -0.42,0.15 -0.65,0.22 -2.04,0.72 -4.12,1.36 -6.2,1.96 -1.81,0.52 -3.62,1.01 -5.46,1.44 -0.27,0.09 -0.54,0.16 -0.81,0.21 -0.36,0.09 -0.72,0.17 -1.08,0.25 l 1.4,2.43 1.09,1.89 c 0.18,-0.04 0.36,-0.09 0.54,-0.15 1.9,-0.46 3.77,-0.97 5.64,-1.5 2.15,-0.61 4.3,-1.28 6.42,-2.02 0.23,-0.08 0.46,-0.14 0.67,-0.23 0.5,-0.17 0.99,-0.35 1.49,-0.53 51.06,-18.35 88.6,-65 93.74,-121.06 0.06,-0.61 0.12,-1.22 0.16,-1.83 0.27,-3.38 0.42,-6.78 0.45,-10.22 v -0.12 c 0.02,-0.37 0.02,-0.72 0.02,-1.11 0,-3.66 -0.14,-7.29 -0.42,-10.88 z M 115.66,273.73 c -1.82,-0.44 -3.63,-0.94 -5.43,-1.46 h -0.02 c -2.09,-0.6 -4.15,-1.24 -6.19,-1.94 h -0.03 c -0.19,-0.08 -0.43,-0.14 -0.62,-0.24 v 0 c -0.48,-0.15 -0.96,-0.3 -1.43,-0.5 h -0.02 C 52.61,251.86 16.3,206.8 11.29,152.61 c -0.06,-0.61 -0.11,-1.22 -0.16,-1.84 -0.29,-3.65 -0.44,-7.33 -0.44,-11.06 0,-3.53 0.14,-7.03 0.41,-10.5 0.04,-0.61 0.09,-1.22 0.14,-1.83 0,-0.06 0,-0.13 0.02,-0.19 0.05,-0.49 0.1,-0.98 0.14,-1.47 v 0 C 15.87,81.36 41.3,43.23 77.65,21.38 c 2.42,-1.47 4.87,-2.85 7.41,-4.15 1.06,-0.54 2.12,-1.07 3.17,-1.59 3.2,-1.56 6.45,-3.01 9.78,-4.3 5.83,-2.3 11.86,-4.2 18.07,-5.7 L 114.9,3.58 113.6,1.34 c -5.94,1.5 -11.72,3.36 -17.34,5.57 -3.44,1.34 -6.8,2.84 -10.11,4.45 -1.1,0.54 -2.19,1.09 -3.27,1.64 -2.63,1.35 -5.17,2.78 -7.68,4.3 C 37.61,39.9 11.3,79.37 6.67,125.25 v 0.02 c -0.04,0.51 -0.08,1.01 -0.13,1.51 v 0.13 c -0.06,0.61 -0.11,1.22 -0.15,1.83 -0.29,3.63 -0.44,7.3 -0.44,10.99 0,3.9 0.16,7.75 0.47,11.56 0.04,0.62 0.09,1.23 0.16,1.83 5.2,56.02 42.75,102.63 93.74,120.97 h 0.02 c 0.49,0.19 0.99,0.35 1.48,0.51 h 0.02 c 0.19,0.09 0.44,0.16 0.63,0.25 h 0.03 c 2.11,0.72 4.26,1.39 6.41,2 v 0 c 1.88,0.53 3.75,1.06 5.64,1.51 0.02,0 0.05,0 0.07,0.02 l 1.02,-1.77 1.46,-2.53 c -0.21,-0.04 -0.41,-0.09 -0.62,-0.14 -0.27,-0.06 -0.54,-0.13 -0.81,-0.2 z"
                 id="path16"
                 sodipodi:nodetypes="ccccccccccccccccccccccccscscccccccccccccccccccccscccccccssccccscccssccccccccccccccccsccccccccssccccccc" />
              <g
                 id="g18">
                <path
                   class="cls-1"
                   d="m 275.95,136.11 c -0.02,-0.69 -0.05,-1.38 -0.07,-2.07 -0.06,-1.23 -0.14,-2.45 -0.23,-3.67 -0.04,-0.62 -0.09,-1.23 -0.16,-1.84 -2.41,-27.27 -13.39,-52.08 -30.22,-71.7 -0.73,-0.9 -1.49,-1.76 -2.26,-2.61 -12.72,-14.07 -28.52,-25.3 -46.35,-32.6 -1.32,-0.55 -2.65,-1.08 -4,-1.57 -1.34,-0.51 -2.68,-0.97 -4.04,-1.43 -0.68,-0.22 -1.37,-0.47 -2.07,-0.68 -0.9,-0.29 -1.83,-0.54 -2.73,-0.82 -0.93,-0.26 -1.86,-0.53 -2.79,-0.77 -0.87,-0.24 -1.76,-0.46 -2.62,-0.68 -0.11,-0.02 -0.24,-0.05 -0.33,-0.07 -0.57,-0.14 -1.13,-0.27 -1.69,-0.4 l -0.24,0.42 -3.37,5.85 -0.13,0.21 c 0.36,0.07 0.72,0.14 1.07,0.22 0.12,0.02 0.25,0.05 0.39,0.09 0.77,0.15 1.53,0.34 2.3,0.52 0.1,0.03 0.21,0.05 0.32,0.06 0.82,0.22 1.66,0.43 2.47,0.65 0.89,0.23 1.77,0.49 2.63,0.72 0.86,0.27 1.75,0.51 2.59,0.79 0.66,0.2 1.3,0.42 1.95,0.63 1.29,0.44 2.56,0.87 3.81,1.36 1.28,0.47 2.54,0.96 3.78,1.48 16.84,6.89 31.77,17.49 43.77,30.79 0.74,0.8 1.45,1.62 2.15,2.45 15.9,18.57 26.27,42.01 28.55,67.79 0.06,0.61 0.11,1.23 0.14,1.84 0.23,2.96 0.34,5.93 0.34,8.94 v 0.93 0.1 c -0.02,2.66 -0.13,5.29 -0.32,7.91 -0.04,0.61 -0.09,1.22 -0.15,1.83 -4.19,47.66 -36.07,87.36 -79.42,102.94 -0.42,0.17 -0.84,0.31 -1.26,0.46 -0.19,0.06 -0.38,0.13 -0.57,0.19 -1.8,0.62 -3.6,1.18 -5.44,1.71 -1.57,0.46 -3.16,0.89 -4.77,1.26 -0.24,0.08 -0.47,0.14 -0.72,0.18 -1.53,0.38 -3.09,0.71 -4.65,1.02 l -1.08,0.21 0.12,0.2 3.38,5.86 0.25,0.44 c 1.23,-0.24 2.43,-0.51 3.63,-0.81 0.25,-0.04 0.5,-0.1 0.76,-0.18 1.7,-0.41 3.38,-0.86 5.06,-1.35 1.93,-0.55 3.85,-1.15 5.75,-1.8 0.2,-0.07 0.41,-0.14 0.6,-0.21 0.45,-0.15 0.89,-0.32 1.33,-0.48 45.9,-16.49 79.63,-58.5 84.09,-108.95 0.06,-0.6 0.11,-1.22 0.15,-1.83 0.1,-1.22 0.17,-2.45 0.23,-3.68 0.03,-0.69 0.06,-1.37 0.07,-2.06 0.03,-0.94 0.05,-1.88 0.06,-2.82 v -0.11 -0.98 c 0,-1.31 -0.02,-2.61 -0.06,-3.91 z M 120.19,257.54 c -0.25,-0.06 -0.48,-0.12 -0.71,-0.19 -1.61,-0.37 -3.19,-0.81 -4.77,-1.27 v 0 c -1.84,-0.53 -3.64,-1.09 -5.43,-1.69 v 0 c -0.19,-0.07 -0.39,-0.14 -0.55,-0.21 v 0 c -0.43,-0.14 -0.84,-0.28 -1.26,-0.44 v 0 C 64.17,238.18 32.32,198.54 28.06,150.93 28,150.32 27.95,149.71 27.92,149.1 c -0.24,-3 -0.35,-6.03 -0.35,-9.09 0,-3.06 0.12,-6.09 0.35,-9.09 0.04,-0.62 0.09,-1.23 0.15,-1.84 v -0.04 c 0.05,-0.43 0.08,-0.86 0.12,-1.29 v 0 c 3.92,-38.86 26.19,-72.27 58.03,-91.39 2.12,-1.29 4.28,-2.5 6.5,-3.65 0.91,-0.48 1.84,-0.94 2.78,-1.4 2.79,-1.37 5.63,-2.62 8.55,-3.77 6.77,-2.67 13.86,-4.74 21.18,-6.15 l -0.1,-0.17 -3.4,-5.9 -0.25,-0.42 c -6.9,1.46 -13.6,3.49 -20.04,6.02 -3.08,1.21 -6.11,2.55 -9.06,4 -0.99,0.48 -1.97,0.97 -2.94,1.47 -2.35,1.21 -4.63,2.49 -6.87,3.86 -33.75,20.27 -57.34,55.64 -61.48,96.78 v 0 c -0.05,0.47 -0.08,0.91 -0.13,1.36 v 0 c -0.06,0.62 -0.11,1.23 -0.15,1.84 -0.08,1.03 -0.15,2.06 -0.19,3.1 -0.04,0.59 -0.07,1.19 -0.08,1.79 -0.07,1.63 -0.1,3.27 -0.1,4.9 v 0.42 c 0,1.24 0.03,2.47 0.07,3.69 0,0.27 0,0.54 0.02,0.8 0.02,0.6 0.05,1.19 0.09,1.78 0.05,1.04 0.11,2.08 0.19,3.11 0.05,0.62 0.1,1.23 0.16,1.84 4.53,50.38 38.22,92.32 84.07,108.8 v 0 c 0.44,0.18 0.88,0.33 1.32,0.47 v 0 c 0.19,0.08 0.4,0.15 0.59,0.22 h 0.02 c 1.89,0.64 3.8,1.24 5.74,1.79 0,0.02 0,0 0,0 1.68,0.49 3.35,0.95 5.05,1.36 0.24,0.07 0.5,0.13 0.74,0.18 1.22,0.3 2.42,0.56 3.65,0.8 l 0.25,-0.44 3.4,-5.89 0.09,-0.16 c -0.35,-0.07 -0.71,-0.14 -1.06,-0.22 -1.58,-0.31 -3.13,-0.63 -4.67,-1 z"
                   id="path17"
                   sodipodi:nodetypes="ccccccccccccccccccccccccccccccccscccccccccccccccccccccccccccsccccssssssssccscccssccccccccscccsssscccsscccccssssccccccccccccc"
                   style="fill:url(#linear-gradient-2)" />
                <path
                   class="cls-19"
                   d="m 268.86,131.04 c -0.04,-0.62 -0.09,-1.23 -0.15,-1.84 -2.12,-23.99 -11.24,-45.97 -25.31,-63.89 -0.2,-0.27 -0.42,-0.55 -0.64,-0.83 -17.29,-21.64 -41.86,-37.21 -69.99,-43 l -0.13,0.21 -2.37,4.13 -0.84,1.44 c 28.18,5.24 52.7,20.81 69.56,42.64 0.25,0.31 0.48,0.62 0.72,0.92 12.63,16.67 20.79,36.93 22.73,58.98 0.3,3.36 0.45,6.76 0.45,10.2 0,3.44 -0.15,6.85 -0.45,10.21 -4.6,52.24 -44.19,94.42 -95.14,102.92 l 0.82,1.42 2.41,4.19 0.12,0.2 c 0.65,-0.11 1.28,-0.23 1.91,-0.37 h 0.02 c 0.07,0 0.13,-0.02 0.19,-0.03 v 0 c 0.88,-0.19 1.77,-0.38 2.62,-0.58 v 0 c 50.31,-11.54 88.66,-54.5 93.32,-107.16 0.05,-0.61 0.1,-1.22 0.14,-1.83 0.22,-2.97 0.33,-5.96 0.33,-8.98 0,-3.02 -0.11,-6 -0.33,-8.96 z M 34.2,150.34 c -0.05,-0.61 -0.1,-1.22 -0.14,-1.84 -0.22,-2.81 -0.32,-5.64 -0.32,-8.5 0,-2.15 0.08,-4.28 0.18,-6.41 0,-0.33 0.04,-0.66 0.06,-0.99 0.02,-0.36 0.05,-0.72 0.08,-1.08 0.04,-0.62 0.09,-1.24 0.14,-1.85 4.62,-51.86 43.74,-93.8 94.24,-102.62 l -0.86,-1.49 -2.39,-4.15 -0.1,-0.17 c -52.16,10.17 -92.33,53.9 -97.15,107.84 -0.07,0.58 -0.12,1.16 -0.16,1.74 v 0.1 c -0.02,0.3 -0.04,0.61 -0.05,0.92 -0.19,2.71 -0.28,5.42 -0.28,8.17 0,3.07 0.11,6.1 0.34,9.11 0.04,0.61 0.09,1.22 0.15,1.83 4.7,52.57 42.97,95.46 93.22,107.01 0.87,0.2 1.75,0.39 2.62,0.58 h 0.02 c 0,0 0.1,0.02 0.16,0.03 0.62,0.13 1.25,0.25 1.87,0.36 l 0.09,-0.16 2.42,-4.2 0.84,-1.45 C 78.35,244.56 38.87,202.48 34.21,150.36 Z"
                   id="path18"
                   sodipodi:nodetypes="cccccccccccsccccccsssssccsccccsccccccccccccsccsccccccccc"
                   style="fill:url(#linear-gradient-3)" />
              </g>
              <polygon
                 class="cls-21"
                 points="119.2,0 113.61,1.33 134.11,36.87 "
                 id="polygon18"
                 style="fill:url(#linear-gradient-4)" />
              <polygon
                 class="cls-12"
                 points="179.88,0 184.24,1.58 163.76,37.09 "
                 id="polygon19"
                 style="fill:url(#linear-gradient-5)" />
            </g>
            <g
               id="g20">
              <path
                 class="cls-18"
                 d="m 297.13,126.31 c -2.23,0.24 -4.45,0.47 -6.68,0.7 -0.84,0.09 -1.67,0.18 -2.5,0.27 -0.74,0.07 -1.48,0.15 -2.22,0.22 -3.41,0.36 -6.82,0.71 -10.25,1.04 -0.15,0.02 -0.3,0.04 -0.45,0.05 -2.11,0.21 -4.21,0.42 -6.33,0.62 -0.09,0 -0.19,0.02 -0.29,0.03 -1.5,0.15 -3,0.29 -4.51,0.43 -0.5,0.05 -0.99,0.1 -1.49,0.14 -0.61,0.06 -1.22,0.12 -1.83,0.18 0.67,6.67 0.67,13.38 0,20.05 0.61,0.06 1.22,0.12 1.83,0.18 0.5,0.04 0.99,0.09 1.49,0.14 1.51,0.14 3.01,0.29 4.51,0.43 0.1,0 0.2,0.02 0.3,0.03 2.11,0.21 4.21,0.41 6.32,0.63 0.15,0 0.3,0.02 0.45,0.04 3.4,0.34 6.8,0.68 10.2,1.03 0.75,0.08 1.51,0.15 2.25,0.23 0.82,0.09 1.64,0.17 2.45,0.26 2.25,0.23 4.49,0.47 6.74,0.71 1.16,-9.09 1.16,-18.3 0,-27.4 z"
                 id="path19" />
              <path
                 class="cls-6"
                 d="m 295.51,128.33 c -1.64,0.17 -3.27,0.35 -4.91,0.52 -0.83,0.09 -1.67,0.17 -2.5,0.26 -0.74,0.08 -1.48,0.16 -2.23,0.23 -3.39,0.35 -6.8,0.7 -10.23,1.04 -0.15,0.02 -0.3,0.03 -0.46,0.05 -2.11,0.21 -4.21,0.42 -6.33,0.62 -0.1,0 -0.2,0.02 -0.3,0.03 -1.5,0.15 -3,0.3 -4.5,0.44 -0.49,0.05 -0.98,0.09 -1.47,0.14 0.23,2.78 0.34,5.57 0.34,8.36 0,2.79 -0.11,5.58 -0.34,8.36 0.49,0.05 0.97,0.09 1.46,0.14 1.51,0.14 3.01,0.29 4.52,0.44 0.1,0 0.19,0.02 0.29,0.03 2.12,0.2 4.22,0.41 6.33,0.62 0.15,0 0.3,0.03 0.45,0.05 3.41,0.33 6.81,0.68 10.21,1.03 0.76,0.07 1.51,0.15 2.25,0.23 0.82,0.08 1.64,0.17 2.45,0.26 1.66,0.17 3.31,0.34 4.96,0.52 0.43,-3.88 0.64,-7.79 0.64,-11.68 0,-3.89 -0.21,-7.81 -0.64,-11.69 z"
                 id="path20"
                 style="fill:url(#linear-gradient-6)" />
            </g>
            <g
               id="g23">
              <path
                 class="cls-17"
                 d="m 279.54,147.03 c -3.87,0 -7.02,-3.15 -7.02,-7.03 0,-3.88 3.15,-7.02 7.02,-7.02 3.87,0 7.02,3.15 7.02,7.02 0,3.87 -3.15,7.03 -7.02,7.03 z"
                 id="path21"
                 style="fill:url(#linear-gradient-7)" />
              <path
                 class="cls-22"
                 d="m 284.86,140.01 c 0,2.94 -2.38,5.32 -5.32,5.32 -2.94,0 -5.32,-2.38 -5.32,-5.32 0,-2.94 2.38,-5.32 5.32,-5.32 2.94,0 5.32,2.38 5.32,5.32 z"
                 id="path22"
                 style="fill:url(#linear-gradient-8)" />
            </g>
            <g
               id="g25">
              <path
                 class="cls-18"
                 d="m 37.41,129.98 c -1.07,-0.1 -2.14,-0.2 -3.2,-0.31 -0.56,-0.05 -1.11,-0.1 -1.67,-0.16 -1.51,-0.14 -3,-0.28 -4.51,-0.43 -0.03,0 -0.06,0 -0.09,0 -2.17,-0.21 -4.34,-0.43 -6.52,-0.64 -0.15,-0.02 -0.31,-0.03 -0.47,-0.05 -3.23,-0.32 -6.48,-0.65 -9.72,-0.99 -0.9,-0.09 -1.81,-0.19 -2.71,-0.28 -0.66,-0.07 -1.33,-0.14 -2,-0.21 -1.89,-0.2 -3.77,-0.4 -5.66,-0.6 -1.16,9.1 -1.16,18.31 0,27.4 1.9,-0.2 3.8,-0.4 5.7,-0.6 0.66,-0.07 1.31,-0.14 1.96,-0.21 0.93,-0.09 1.85,-0.19 2.76,-0.28 3.23,-0.34 6.46,-0.66 9.68,-0.98 0.16,-0.02 0.32,-0.04 0.47,-0.05 2.17,-0.22 4.33,-0.43 6.5,-0.65 0.03,0 0.06,0 0.09,0 1.51,-0.14 3.01,-0.29 4.52,-0.43 0.56,-0.06 1.11,-0.11 1.67,-0.16 1.07,-0.11 2.14,-0.21 3.2,-0.31 -0.67,-6.66 -0.67,-13.37 0,-20.05 z"
                 id="path24" />
              <path
                 class="cls-9"
                 d="m 35.4,131.65 c -0.45,-0.04 -0.89,-0.09 -1.34,-0.13 -0.55,-0.05 -1.11,-0.1 -1.67,-0.16 -1.51,-0.14 -3.01,-0.29 -4.52,-0.44 -0.03,0 -0.07,0 -0.11,0 -2.17,-0.21 -4.33,-0.43 -6.5,-0.64 -0.15,-0.02 -0.31,-0.04 -0.47,-0.05 -3.24,-0.33 -6.48,-0.66 -9.71,-1 -0.91,-0.09 -1.83,-0.18 -2.73,-0.28 -0.67,-0.07 -1.33,-0.14 -1.99,-0.21 -1.31,-0.13 -2.59,-0.27 -3.89,-0.41 -0.43,3.88 -0.64,7.79 -0.64,11.69 0,3.9 0.21,7.8 0.64,11.68 1.31,-0.14 2.6,-0.28 3.92,-0.41 0.65,-0.07 1.3,-0.14 1.96,-0.21 0.92,-0.1 1.85,-0.19 2.76,-0.29 3.22,-0.33 6.45,-0.66 9.68,-0.98 0.16,-0.02 0.32,-0.03 0.47,-0.05 2.18,-0.22 4.34,-0.43 6.51,-0.64 0.04,0 0.07,0 0.1,0 1.51,-0.15 3.01,-0.3 4.51,-0.44 0.56,-0.05 1.12,-0.11 1.68,-0.16 0.45,-0.04 0.89,-0.09 1.34,-0.13 -0.22,-2.78 -0.34,-5.58 -0.34,-8.36 0,-2.78 0.12,-5.58 0.34,-8.36 z"
                 id="path25"
                 style="fill:url(#linear-gradient-10)" />
            </g>
            <g
               id="g28">
              <path
                 class="cls-8"
                 d="m 18.46,132.98 c 3.87,0 7.02,3.15 7.02,7.03 0,3.88 -3.15,7.02 -7.02,7.02 -3.87,0 -7.02,-3.15 -7.02,-7.02 0,-3.87 3.15,-7.03 7.02,-7.03 z"
                 id="path26"
                 style="fill:url(#linear-gradient-11)" />
              <path
                 class="cls-23"
                 d="m 13.14,140.01 c 0,-2.94 2.38,-5.32 5.32,-5.32 2.94,0 5.32,2.38 5.32,5.32 0,2.94 -2.38,5.32 -5.32,5.32 -2.94,0 -5.32,-2.38 -5.32,-5.32 z"
                 id="path27"
                 style="fill:url(#linear-gradient-12)" />
            </g>
            <polygon
               class="cls-5"
               points="119.92,279.49 135.26,242.55 114.54,278.34 "
               id="polygon28"
               style="fill:url(#linear-gradient-14)" />
            <polygon
               class="cls-2"
               points="175.72,280 161.18,242.55 181.91,278.48 "
               id="polygon29"
               style="fill:url(#linear-gradient-15)" />
            <g
               id="g53"
               transform="matrix(2.8490028,0,0,2.8490028,96.424305,-382.16086)">
              <path
                 class="cls-8"
                 d="m 18.46,132.98 c 3.87,0 7.02,3.15 7.02,7.03 0,3.88 -3.15,7.02 -7.02,7.02 -3.87,0 -7.02,-3.15 -7.02,-7.02 0,-3.87 3.15,-7.03 7.02,-7.03 z"
                 id="path51"
                 style="fill:url(#linearGradient53)" />
              <path
                 class="cls-23"
                 d="m 13.14,140.01 c 0,-2.94 2.38,-5.32 5.32,-5.32 2.94,0 5.32,2.38 5.32,5.32 0,2.94 -2.38,5.32 -5.32,5.32 -2.94,0 -5.32,-2.38 -5.32,-5.32 z"
                 id="path52"
                 style="fill:url(#linearGradient54)" />
            </g>
            <g
               id="g56"
               transform="matrix(2.8490028,0,0,2.8490028,95.250003,-131.66746)">
              <path
                 class="cls-8"
                 d="m 18.46,132.98 c 3.87,0 7.02,3.15 7.02,7.03 0,3.88 -3.15,7.02 -7.02,7.02 -3.87,0 -7.02,-3.15 -7.02,-7.02 0,-3.87 3.15,-7.03 7.02,-7.03 z"
                 id="path55"
                 style="fill:url(#linearGradient56)" />
              <path
                 class="cls-23"
                 d="m 13.14,140.01 c 0,-2.94 2.38,-5.32 5.32,-5.32 2.94,0 5.32,2.38 5.32,5.32 0,2.94 -2.38,5.32 -5.32,5.32 -2.94,0 -5.32,-2.38 -5.32,-5.32 z"
                 id="path56"
                 style="fill:url(#linearGradient57)"
                 sodipodi:nodetypes="sssss" />
            </g>
          </g>
        </g>
      </g>
    </g>
  </g>
</svg>
