<?xml version="1.0" encoding="UTF-8" standalone="no"?>
<svg
   viewBox="0 0 268 268"
   version="1.1"
   id="svg4388"
   sodipodi:docname="2-Stone(2).svg"
   inkscape:version="1.4 (86a8ad7, 2024-10-11)"
   xmlns:inkscape="http://www.inkscape.org/namespaces/inkscape"
   xmlns:sodipodi="http://sodipodi.sourceforge.net/DTD/sodipodi-0.dtd"
   xmlns:xlink="http://www.w3.org/1999/xlink"
   xmlns="http://www.w3.org/2000/svg"
   xmlns:svg="http://www.w3.org/2000/svg">
  <sodipodi:namedview
     id="namedview4388"
     pagecolor="#505050"
     bordercolor="#ffffff"
     borderopacity="1"
     inkscape:showpageshadow="0"
     inkscape:pageopacity="0"
     inkscape:pagecheckerboard="1"
     inkscape:deskcolor="#505050"
     inkscape:zoom="2.2558817"
     inkscape:cx="121.23863"
     inkscape:cy="136.31034"
     inkscape:window-width="1920"
     inkscape:window-height="1057"
     inkscape:window-x="1912"
     inkscape:window-y="-8"
     inkscape:window-maximized="1"
     inkscape:current-layer="g13" />
  <defs
     id="defs8">
    <linearGradient
       id="linearGradient35"
       x1="134"
       y1="258.34"
       x2="134"
       y2="6.1700001"
       gradientUnits="userSpaceOnUse"
       spreadMethod="pad">
      <stop
         offset="0.16"
         stop-color="#8c827e"
         id="stop33"
         style="stop-color:#9f9e9e;stop-opacity:1;" />
      <stop
         offset="0.44999999"
         stop-color="#746664"
         id="stop34"
         style="stop-color:#8d8c8c;stop-opacity:1;" />
      <stop
         offset="1"
         stop-color="#433b3b"
         id="stop35"
         style="stop-color:#525252;stop-opacity:1;" />
    </linearGradient>
    <linearGradient
       id="linearGradient32"
       x1="134"
       y1="258.34"
       x2="134"
       y2="6.1700001"
       gradientUnits="userSpaceOnUse"
       spreadMethod="pad">
      <stop
         offset="0.16"
         stop-color="#8c827e"
         id="stop30"
         style="stop-color:#9f9e9e;stop-opacity:1;" />
      <stop
         offset="0.44999999"
         stop-color="#746664"
         id="stop31"
         style="stop-color:#8d8c8c;stop-opacity:1;" />
      <stop
         offset="1"
         stop-color="#433b3b"
         id="stop32"
         style="stop-color:#8d8c8c;stop-opacity:1;" />
    </linearGradient>
    <linearGradient
       id="linearGradient29"
       x1="134"
       y1="258.34"
       x2="134"
       y2="6.1700001"
       gradientUnits="userSpaceOnUse"
       spreadMethod="pad">
      <stop
         offset="0.16"
         stop-color="#8c827e"
         id="stop27"
         style="stop-color:#9f9e9e;stop-opacity:1;" />
      <stop
         offset="0.44999999"
         stop-color="#746664"
         id="stop28"
         style="stop-color:#8d8c8c;stop-opacity:1;" />
      <stop
         offset="1"
         stop-color="#433b3b"
         id="stop29"
         style="stop-color:#363535;stop-opacity:1;" />
    </linearGradient>
    <linearGradient
       id="linearGradient26"
       x1="134"
       y1="258.34"
       x2="134"
       y2="6.1700001"
       gradientUnits="userSpaceOnUse"
       spreadMethod="pad">
      <stop
         offset=".16"
         stop-color="#8c827e"
         id="stop24" />
      <stop
         offset=".45"
         stop-color="#746664"
         id="stop25" />
      <stop
         offset="1"
         stop-color="#433b3b"
         id="stop26"
         style="stop-color:#33b3bf;stop-opacity:1;" />
    </linearGradient>
    <linearGradient
       id="linearGradient23"
       x1="134"
       y1="258.34"
       x2="134"
       y2="6.1700001"
       gradientUnits="userSpaceOnUse"
       spreadMethod="pad">
      <stop
         offset=".16"
         stop-color="#8c827e"
         id="stop21" />
      <stop
         offset=".45"
         stop-color="#746664"
         id="stop22" />
      <stop
         offset="1"
         stop-color="#433b3b"
         id="stop23"
         style="stop-color:#33b3bf;stop-opacity:1;" />
    </linearGradient>
    <linearGradient
       id="linearGradient20"
       x1="134"
       y1="258.34"
       x2="134"
       y2="6.1700001"
       gradientUnits="userSpaceOnUse"
       spreadMethod="pad">
      <stop
         offset=".16"
         stop-color="#8c827e"
         id="stop18" />
      <stop
         offset=".45"
         stop-color="#746664"
         id="stop19" />
      <stop
         offset="1"
         stop-color="#433b3b"
         id="stop20"
         style="stop-color:#666666;stop-opacity:1;" />
    </linearGradient>
    <linearGradient
       id="linearGradient17"
       x1="134"
       y1="258.34"
       x2="134"
       y2="6.1700001"
       gradientUnits="userSpaceOnUse"
       spreadMethod="pad">
      <stop
         offset=".16"
         stop-color="#8c827e"
         id="stop15" />
      <stop
         offset=".45"
         stop-color="#746664"
         id="stop16" />
      <stop
         offset="1"
         stop-color="#433b3b"
         id="stop17"
         style="stop-color:#666666;stop-opacity:1;" />
    </linearGradient>
    <linearGradient
       id="linearGradient14"
       x1="134"
       y1="258.34"
       x2="134"
       y2="6.1700001"
       gradientUnits="userSpaceOnUse"
       spreadMethod="pad">
      <stop
         offset=".16"
         stop-color="#8c827e"
         id="stop12" />
      <stop
         offset=".45"
         stop-color="#746664"
         id="stop13" />
      <stop
         offset="1"
         stop-color="#433b3b"
         id="stop14"
         style="stop-color:#605f5f;stop-opacity:1;" />
    </linearGradient>
    <linearGradient
       id="linearGradient11"
       x1="134"
       y1="258.34"
       x2="134"
       y2="6.17"
       gradientUnits="userSpaceOnUse">
      <stop
         offset=".16"
         stop-color="#8c827e"
         id="stop9" />
      <stop
         offset=".45"
         stop-color="#746664"
         id="stop10" />
      <stop
         offset="1"
         stop-color="#433b3b"
         id="stop11"
         style="stop-color:#605f5f;stop-opacity:1;" />
    </linearGradient>
    <style
       id="style1">
      .cls-1 {
        fill: url(#linear-gradient-2);
      }

      .cls-2 {
        opacity: .2;
      }

      .cls-2, .cls-3 {
        mix-blend-mode: multiply;
      }

      .cls-4 {
        isolation: isolate;
      }

      .cls-5 {
        fill: #73594e;
        opacity: .3;
      }

      .cls-3, .cls-6 {
        opacity: .35;
      }

      .cls-7 {
        fill: url(#linear-gradient-5);
      }

      .cls-8 {
        clip-path: url(#clippath);
      }

      .cls-9 {
        fill: none;
      }

      .cls-10 {
        fill: url(#linear-gradient-3);
      }

      .cls-11 {
        fill: url(#linear-gradient);
      }

      .cls-12 {
        fill: url(#linear-gradient-4);
      }

      .cls-6 {
        fill: #9f8861;
      }
    </style>
    <linearGradient
       id="linear-gradient"
       x1="134"
       y1="258.34"
       x2="134"
       y2="6.1700001"
       gradientUnits="userSpaceOnUse"
       spreadMethod="pad">
      <stop
         offset="0.16"
         stop-color="#8c827e"
         id="stop1"
         style="stop-color:#c5bebe;stop-opacity:1;" />
      <stop
         offset="0.44999999"
         stop-color="#746664"
         id="stop2"
         style="stop-color:#9f9e9e;stop-opacity:1;" />
      <stop
         offset="1"
         stop-color="#433b3b"
         id="stop3"
         style="stop-color:#8d8c8c;stop-opacity:1;" />
    </linearGradient>
    <linearGradient
       id="linear-gradient-2"
       y1="243.51"
       x2="134"
       y2="21.42"
       xlink:href="#linear-gradient" />
    <linearGradient
       id="linear-gradient-3"
       x1="224.99001"
       y1="41.860001"
       x2="71.82"
       y2="196.95"
       gradientUnits="userSpaceOnUse"
       xlink:href="#linearGradient29">
      <stop
         offset="0.20999999"
         stop-color="#7f7573"
         id="stop4"
         style="stop-color:#6d6c6c;stop-opacity:1;" />
      <stop
         offset="0.64999998"
         stop-color="#746664"
         id="stop5"
         style="stop-color:#8d8c8c;stop-opacity:1;" />
      <stop
         offset="1"
         stop-color="#594d4c"
         id="stop6"
         style="stop-color:#9f9e9e;stop-opacity:1;" />
    </linearGradient>
    <linearGradient
       id="linear-gradient-4"
       x1="230.46"
       y1="34.8"
       x2="5.45"
       y2="266.44"
       gradientUnits="userSpaceOnUse">
      <stop
         offset="0.1"
         stop-color="#999"
         id="stop7"
         style="stop-color:#7b7a7a;stop-opacity:1;" />
      <stop
         offset="0.89999998"
         stop-color="#6c6164"
         id="stop8"
         style="stop-color:#a7a6a6;stop-opacity:1;" />
    </linearGradient>
    <linearGradient
       id="linear-gradient-5"
       x1="70.92"
       y1="200.61"
       x2="195.56"
       y2="69.2"
       xlink:href="#linearGradient32" />
    <clipPath
       id="clippath">
      <path
         class="cls-9"
         d="M235.76,46.87c-.77-.94-1.55-1.83-2.37-2.72-13.34-14.76-29.9-26.51-48.6-34.17-1.38-.56-2.8-1.13-4.2-1.63-1.4-.54-2.81-1.02-4.24-1.5-.71-.23-1.43-.49-2.16-.7-.95-.3-1.92-.58-2.87-.87-.98-.26-1.94-.54-2.93-.8-.92-.25-1.83-.49-2.75-.71-.13-.01-.25-.05-.35-.08-.87-.2-1.71-.41-2.57-.58-.14-.03-.29-.08-.44-.1-.76-.18-1.55-.33-2.34-.49-.21-.05-.45-.08-.66-.13-.69-.14-1.38-.26-2.07-.38-.26-.05-.53-.09-.8-.14-.23-.04-.45-.09-.69-.13-.56-.1-1.14-.18-1.72-.25-.08-.01-.15-.03-.24-.03-.15-.04-.35-.06-.5-.08-.09-.04-.18-.04-.26-.05-.28-.04-.55-.08-.84-.14-.15-.03-.31-.04-.46-.05-.44-.06-.88-.11-1.33-.16-.59-.08-1.2-.15-1.78-.23-1.81-.18-3.62-.33-5.42-.46-.43-.02-.84-.05-1.24-.06-.14-.01-.25-.01-.36-.03h-.08c-.06,0-.14,0-.2-.01-.09,0-.19-.03-.31-.04-.74-.03-1.48-.06-2.24-.09-.36-.01-.71-.03-1.09-.03-1.23-.04-2.46-.06-3.7-.06-.55,0-1.14,0-1.71,.01-1.13,.01-2.23,.05-3.34,.09-.48,.01-.93,.04-1.38,.06-.13,.01-.23,.01-.35,.01-.43,.04-.84,.06-1.27,.08h-.05s-.1,.01-.18,.03h-.21c-.13,.01-.26,.01-.38,.03-.04,0-.08,0-.13,.01-.23,0-.44,.01-.65,.03-.54,.05-1.09,.08-1.64,.13-.2,.03-.39,.05-.6,.08-.31,.03-.64,.06-.94,.08h-.05c-.08,.01-.16,.02-.24,.02-.16,.04-.31,.05-.46,.05-.03,0-.06,0-.1,.01-.24,.03-.48,.04-.74,.08-.7,.08-1.42,.18-2.16,.26h-.05c-.31,.04-.63,.06-.94,.1-.53,.06-1.04,.15-1.57,.23-10.41,1.49-20.43,4.18-29.9,7.9-3.23,1.27-6.39,2.67-9.5,4.19-1.03,.5-2.06,1.02-3.08,1.54-2.47,1.27-4.85,2.61-7.21,4.04C29.77,40.26,5.03,77.31,.68,120.4H.68c-.04,.49-.08,.97-.13,1.43C.19,125.84,0,129.91,0,133.99,0,192.12,37,241.58,88.71,260.15h.01c.46,.19,.93,.34,1.39,.49h.01c.19,.09,.41,.15,.6,.23h.03c1.98,.68,4,1.3,6.02,1.88h.01c1.76,.5,3.52,.99,5.29,1.42,.26,.08,.53,.14,.78,.2,1.73,.41,3.45,.78,5.2,1.12,.66,.14,1.33,.26,2.01,.38,1.62,.3,3.23,.55,4.88,.78,.98,.19,1.62,.25,2.67,.35,1.24,.16,2.48,.3,3.74,.41,.6,.08,1.24,.11,1.87,.16,.64,.05,1.3,.09,1.96,.14h.01c2.92,.2,5.84,.3,8.79,.3h.01c.29,0,.56,0,.83-.01,1.93,0,3.84-.06,5.74-.15,.65-.04,1.34-.08,1.98-.13,.65-.03,1.28-.08,1.91-.13,.64-.04,1.28-.1,1.91-.16,1.27-.11,2.53-.24,3.79-.4,1.13-.2,1.97-.33,2.93-.39,1.64-.24,3.26-.49,4.88-.78,.68-.13,1.34-.26,2.01-.38,1.74-.34,3.47-.71,5.18-1.13,.26-.05,.53-.11,.79-.2,1.78-.43,3.55-.9,5.3-1.4,2.02-.58,4.04-1.2,6.03-1.89,.21-.08,.43-.14,.63-.21,.46-.16,.93-.33,1.39-.5,51.4-18.44,88.25-67.38,88.71-124.99v-.11c.01-.35,.01-.68,.01-1.04,0-33.26-12.12-63.71-32.24-87.13Zm8.37,87.13c0,.3,0,.56-.01,.85v.09c-.4,47.35-30.68,87.56-72.9,102.73-.39,.14-.76,.28-1.15,.41-.17,.07-.34,.12-.52,.18-1.63,.56-3.29,1.08-4.95,1.56-1.45,.42-2.9,.81-4.36,1.16-.22,.07-.44,.12-.65,.15-1.4,.34-2.83,.65-4.25,.93-.55,.1-1.09,.21-1.66,.31-1.33,.24-2.65,.45-4.01,.64-.78,.06-1.48,.17-2.41,.32-1.03,.13-2.08,.24-3.11,.33-.51,.06-1.04,.1-1.56,.13-.52,.04-1.04,.09-1.57,.11-.53,.03-1.09,.07-1.63,.1-1.57,.07-3.14,.12-4.72,.12-.22,.01-.45,.01-.68,.01h-.01c-2.42,0-4.83-.09-7.22-.24h-.01c-.54-.04-1.07-.07-1.6-.12-.52-.04-1.05-.07-1.55-.13-1.03-.09-2.04-.21-3.07-.33-.86-.09-1.38-.13-2.19-.3-1.36-.18-2.68-.39-4.02-.64-.54-.09-1.09-.19-1.65-.31-1.44-.28-2.85-.57-4.26-.92-.21-.04-.43-.1-.64-.15-1.46-.35-2.92-.75-4.35-1.17,0,0,0,.02-.01,0-1.67-.47-3.31-.99-4.95-1.55h-.02c-.15-.06-.33-.12-.5-.19h-.01c-.38-.12-.76-.25-1.14-.4h-.01c-42.5-15.26-72.9-55.91-72.9-103.68,0-3.37,.15-6.7,.45-9.99,.03-.39,.07-.77,.11-1.17,3.57-35.42,23.9-65.87,52.94-83.31,1.94-1.17,3.9-2.27,5.93-3.31,.84-.43,1.69-.86,2.54-1.27,2.55-1.25,5.15-2.4,7.81-3.43,7.8-3.07,16.02-5.27,24.57-6.5,.43-.06,.86-.12,1.29-.18,.25-.03,.52-.06,.77-.09h.04c.6-.07,1.19-.15,1.77-.21,.21-.03,.41-.04,.62-.07,.02-.01,.06-.01,.08-.01,.12,0,.24-.01,.38-.04,.07,0,.14-.01,.2-.02h.04c.25-.01,.51-.03,.77-.06,.18-.02,.32-.04,.5-.06,.45-.04,.89-.07,1.35-.11,.17,0,.35-.01,.53-.01,.04-.01,.07-.01,.11-.01,.09-.01,.2-.01,.31-.03h.17c.07-.01,.11-.01,.15-.02h.04c.34-.01,.68-.03,1.04-.06,.1,0,.18,0,.29-.01,.36-.02,.74-.04,1.13-.06,.92-.02,1.82-.06,2.74-.07,.47-.01,.95-.01,1.41-.01,1.02,0,2.02,.02,3.04,.06,.31,0,.6,.01,.88,.01,.63,.02,1.25,.06,1.86,.08,.1,.01,.18,.02,.25,.02,.06,.01,.11,.01,.17,.01h.06c.1,.01,.2,.01,.3,.02,.33,.01,.67,.04,1.03,.07,1.48,.11,2.97,.22,4.45,.38,.47,.06,.98,.12,1.47,.18,.36,.04,.73,.09,1.08,.14,.13,.01,.26,.02,.39,.04,.23,.04,.46,.08,.7,.11,.07,0,.14,0,.21,.03,.13,.01,.29,.03,.42,.07,.07,0,.13,.01,.19,.01,.49,.08,.95,.13,1.41,.21,.2,.03,.39,.08,.56,.1,.23,.06,.44,.09,.66,.12,.57,.09,1.14,.2,1.7,.31,.18,.04,.36,.07,.55,.1,.64,.13,1.29,.26,1.92,.41,.12,.01,.24,.06,.36,.08,.71,.14,1.4,.31,2.11,.47,.08,.02,.19,.06,.29,.07,.75,.19,1.51,.38,2.26,.59,.81,.21,1.6,.44,2.41,.66,.77,.24,1.58,.46,2.35,.71,.61,.18,1.19,.39,1.78,.59,1.17,.4,2.33,.78,3.48,1.23,1.16,.42,2.32,.88,3.46,1.35,15.37,6.28,28.98,15.94,39.94,28.07,.67,.73,1.31,1.47,1.94,2.24,16.52,19.25,26.5,44.26,26.5,71.6Z"
         id="path8" />
    </clipPath>
    <linearGradient
       inkscape:collect="always"
       xlink:href="#linearGradient35"
       id="linearGradient27"
       gradientUnits="userSpaceOnUse"
       x1="84.734695"
       y1="248.31685"
       x2="183.26537"
       y2="16.193146" />
  </defs>
  <g
     class="cls-4"
     id="g4388">
    <g
       id="Layer_2"
       data-name="Layer 2">
      <g
         id="Layer_1-2"
         data-name="Layer 1">
        <g
           id="g4387">
          <g
             id="g14">
            <path
               class="cls-11"
               d="m 235.76,46.87 c -0.76,-0.94 -1.55,-1.83 -2.37,-2.72 -13.34,-14.76 -29.9,-26.51 -48.6,-34.17 -1.38,-0.56 -2.8,-1.13 -4.2,-1.63 -1.4,-0.54 -2.81,-1.02 -4.24,-1.5 -0.71,-0.23 -1.43,-0.49 -2.16,-0.7 -0.95,-0.3 -1.92,-0.58 -2.87,-0.87 -0.98,-0.26 -1.94,-0.54 -2.93,-0.8 -0.92,-0.25 -1.83,-0.49 -2.75,-0.71 -0.13,-0.01 -0.25,-0.05 -0.35,-0.08 -0.87,-0.2 -1.71,-0.41 -2.57,-0.58 -0.14,-0.03 -0.29,-0.08 -0.44,-0.1 C 161.52,2.83 160.73,2.68 159.94,2.52 159.73,2.47 159.49,2.44 159.28,2.39 158.59,2.25 157.9,2.13 157.21,2.01 156.95,1.96 156.68,1.92 156.41,1.87 156.18,1.83 155.96,1.78 155.72,1.74 155.16,1.64 154.58,1.56 154,1.49 153.92,1.48 153.85,1.46 153.76,1.46 153.61,1.42 153.41,1.4 153.26,1.38 153.17,1.34 153.08,1.34 153,1.33 152.72,1.29 152.45,1.25 152.16,1.19 152.01,1.16 151.85,1.15 151.7,1.14 151.26,1.08 150.82,1.03 150.37,0.98 149.78,0.9 149.17,0.83 148.59,0.75 146.78,0.57 144.97,0.42 143.17,0.29 142.74,0.27 142.33,0.24 141.93,0.23 141.79,0.22 141.68,0.22 141.57,0.2 h -0.08 c -0.06,0 -0.14,0 -0.2,-0.01 -0.09,0 -0.19,-0.03 -0.31,-0.04 -0.74,-0.03 -1.48,-0.06 -2.24,-0.09 -0.36,-0.01 -0.71,-0.03 -1.09,-0.03 -1.24,0 -2.47,-0.03 -3.71,-0.03 -0.55,0 -1.14,0 -1.71,0.01 -1.13,0.01 -2.23,0.05 -3.34,0.09 -0.48,0.01 -0.93,0.04 -1.38,0.06 -0.13,0.01 -0.23,0.01 -0.35,0.01 -0.43,0.04 -0.84,0.06 -1.27,0.08 h -0.05 c 0,0 -0.1,0.01 -0.18,0.03 h -0.21 c -0.13,0.01 -0.26,0.01 -0.38,0.03 -0.04,0 -0.08,0 -0.13,0.01 -0.23,0 -0.44,0.01 -0.65,0.03 -0.54,0.05 -1.09,0.08 -1.64,0.13 -0.2,0.03 -0.39,0.05 -0.6,0.08 -0.31,0.03 -0.64,0.06 -0.94,0.08 h -0.05 c -0.08,0.01 -0.16,0.02 -0.24,0.02 -0.16,0.04 -0.31,0.05 -0.46,0.05 -0.03,0 -0.06,0 -0.1,0.01 -0.24,0.03 -0.48,0.04 -0.74,0.08 -0.7,0.08 -1.42,0.18 -2.16,0.26 h -0.05 c -0.31,0.04 -0.63,0.06 -0.94,0.1 -0.53,0.06 -1.04,0.15 -1.57,0.23 -10.41,1.49 -20.43,4.18 -29.9,7.9 -3.23,1.27 -6.39,2.67 -9.5,4.19 -1.03,0.5 -2.06,1.02 -3.08,1.54 -2.47,1.27 -4.85,2.61 -7.21,4.04 C 29.77,40.26 5.03,77.31 0.68,120.4 v 0 C 0.64,120.89 0.6,121.37 0.55,121.83 0.19,125.84 0,129.9 0,133.99 0,192.12 37,241.58 88.71,260.15 h 0.01 c 0.46,0.19 0.93,0.34 1.39,0.49 h 0.01 c 0.19,0.09 0.41,0.15 0.6,0.23 h 0.03 c 1.98,0.68 4,1.3 6.02,1.88 h 0.01 c 1.76,0.5 3.52,0.99 5.29,1.42 0.26,0.08 0.53,0.14 0.78,0.2 1.73,0.41 3.45,0.78 5.2,1.12 0.66,0.14 1.33,0.26 2.01,0.38 1.62,0.3 3.23,0.55 4.88,0.78 0.98,0.19 1.62,0.25 2.67,0.35 1.24,0.16 2.48,0.3 3.74,0.41 0.6,0.08 1.24,0.11 1.87,0.16 0.64,0.05 1.3,0.09 1.96,0.14 h 0.01 c 2.92,0.2 5.84,0.3 8.79,0.3 h 0.01 c 0.29,0 0.56,0 0.83,-0.01 1.93,0 3.84,-0.06 5.74,-0.15 0.65,-0.04 1.34,-0.08 1.98,-0.13 0.65,-0.03 1.28,-0.08 1.91,-0.13 0.64,-0.04 1.28,-0.1 1.91,-0.16 1.27,-0.11 2.53,-0.24 3.79,-0.4 1.13,-0.2 1.97,-0.33 2.93,-0.39 1.64,-0.24 3.26,-0.49 4.88,-0.78 0.68,-0.13 1.34,-0.26 2.01,-0.38 1.74,-0.34 3.47,-0.71 5.18,-1.13 0.26,-0.05 0.53,-0.11 0.79,-0.2 1.78,-0.43 3.55,-0.9 5.3,-1.4 2.02,-0.58 4.04,-1.2 6.03,-1.89 0.21,-0.08 0.43,-0.14 0.63,-0.21 0.46,-0.16 0.93,-0.33 1.39,-0.5 51.4,-18.44 88.25,-67.38 88.71,-124.99 v -0.11 c 0.01,-0.35 0.01,-0.68 0.01,-1.04 0,-33.26 -12.12,-63.71 -32.24,-87.13 z m 23.27,88.09 v 0.1 c -0.45,53.76 -34.83,99.43 -82.78,116.64 -0.44,0.16 -0.87,0.31 -1.3,0.46 -0.19,0.08 -0.39,0.14 -0.59,0.2 -1.86,0.64 -3.74,1.23 -5.62,1.77 -1.64,0.48 -3.3,0.92 -4.95,1.32 -0.25,0.08 -0.5,0.14 -0.74,0.18 -1.59,0.39 -3.21,0.74 -4.83,1.05 -0.63,0.11 -1.24,0.24 -1.88,0.35 -1.5,0.28 -3.01,0.51 -4.55,0.73 -0.89,0.06 -1.68,0.19 -2.73,0.36 -1.17,0.15 -2.36,0.28 -3.54,0.38 -0.58,0.06 -1.18,0.11 -1.77,0.15 -0.59,0.05 -1.18,0.1 -1.78,0.13 -0.6,0.04 -1.24,0.08 -1.86,0.11 -1.78,0.08 -3.56,0.14 -5.35,0.14 -0.25,0.01 -0.51,0.01 -0.78,0.01 h -0.01 c -2.75,0 -5.48,-0.1 -8.2,-0.28 h -0.01 c -0.61,-0.05 -1.22,-0.08 -1.82,-0.14 -0.59,-0.05 -1.19,-0.08 -1.76,-0.15 -1.17,-0.1 -2.32,-0.24 -3.49,-0.38 -0.98,-0.1 -1.57,-0.15 -2.48,-0.34 -1.54,-0.2 -3.05,-0.44 -4.56,-0.73 -0.61,-0.1 -1.24,-0.21 -1.87,-0.35 -1.63,-0.31 -3.24,-0.65 -4.84,-1.04 -0.24,-0.05 -0.49,-0.11 -0.73,-0.18 -1.66,-0.4 -3.31,-0.85 -4.94,-1.33 0,0 0,0.03 -0.01,0 -1.89,-0.54 -3.76,-1.13 -5.62,-1.76 h -0.03 c -0.18,-0.06 -0.38,-0.14 -0.56,-0.21 h -0.01 c -0.43,-0.14 -0.87,-0.29 -1.29,-0.45 H 91.74 C 43.48,234.39 8.97,188.23 8.97,133.99 c 0,-3.82 0.18,-7.61 0.51,-11.35 0.04,-0.44 0.08,-0.88 0.13,-1.33 4.05,-40.22 27.13,-74.79 60.11,-94.6 2.21,-1.33 4.43,-2.58 6.73,-3.76 0.95,-0.49 1.92,-0.98 2.88,-1.44 2.9,-1.42 5.84,-2.72 8.86,-3.9 8.85,-3.49 18.19,-5.98 27.9,-7.38 0.49,-0.06 0.98,-0.14 1.47,-0.2 0.29,-0.04 0.59,-0.06 0.88,-0.1 h 0.05 c 0.68,-0.08 1.35,-0.18 2.01,-0.24 0.24,-0.04 0.46,-0.05 0.7,-0.08 0.03,-0.01 0.06,-0.01 0.09,-0.01 0.14,0 0.28,-0.01 0.43,-0.05 0.08,0 0.16,-0.01 0.23,-0.03 H 122 c 0.29,-0.01 0.58,-0.04 0.88,-0.06 0.2,-0.03 0.36,-0.05 0.56,-0.06 0.51,-0.05 1.02,-0.08 1.53,-0.13 0.19,0 0.4,-0.01 0.6,-0.01 0.05,-0.01 0.08,-0.01 0.13,-0.01 0.1,-0.01 0.23,-0.01 0.35,-0.04 h 0.19 c 0.08,-0.01 0.13,-0.01 0.18,-0.03 h 0.05 c 0.39,-0.01 0.78,-0.04 1.18,-0.06 0.11,0 0.2,0 0.33,-0.01 0.41,-0.03 0.84,-0.05 1.28,-0.06 1.04,-0.03 2.07,-0.06 3.11,-0.08 0.54,-0.01 1.08,-0.01 1.6,-0.01 1.15,0 2.29,0.03 3.45,0.06 0.35,0 0.68,0.01 1,0.01 0.71,0.03 1.42,0.06 2.11,0.09 0.11,0.01 0.2,0.03 0.29,0.03 0.06,0.01 0.13,0.01 0.19,0.01 h 0.06 c 0.11,0.01 0.23,0.01 0.34,0.03 0.38,0.01 0.76,0.05 1.17,0.08 1.68,0.13 3.37,0.25 5.05,0.43 0.54,0.06 1.12,0.14 1.67,0.2 0.41,0.05 0.83,0.1 1.23,0.16 0.15,0.01 0.3,0.03 0.44,0.05 0.26,0.05 0.53,0.09 0.79,0.13 0.08,0 0.16,0 0.24,0.04 0.15,0.01 0.33,0.04 0.48,0.08 0.08,0 0.15,0.01 0.21,0.01 0.55,0.09 1.08,0.15 1.6,0.24 0.23,0.04 0.44,0.09 0.64,0.11 0.26,0.06 0.5,0.1 0.75,0.14 0.65,0.1 1.29,0.23 1.93,0.35 0.2,0.05 0.41,0.08 0.63,0.11 0.73,0.15 1.47,0.3 2.18,0.46 0.14,0.01 0.28,0.06 0.41,0.09 0.8,0.16 1.59,0.35 2.39,0.54 0.09,0.03 0.21,0.06 0.33,0.08 0.85,0.21 1.72,0.43 2.57,0.66 0.92,0.24 1.82,0.5 2.73,0.75 0.88,0.28 1.79,0.53 2.67,0.8 0.69,0.2 1.35,0.44 2.02,0.66 1.33,0.45 2.65,0.89 3.95,1.39 1.32,0.48 2.63,1 3.92,1.53 17.45,7.13 32.9,18.1 45.35,31.87 0.76,0.83 1.49,1.67 2.21,2.55 18.76,21.85 30.09,50.25 30.09,81.3 0,0.34 0,0.64 -0.01,0.97 z"
               id="path9"
               style="mix-blend-mode:normal;fill:url(#linearGradient27)" />
            <path
               class="cls-1"
               d="M223.62,57.26c-.67-.83-1.37-1.61-2.09-2.4-11.75-13-26.34-23.34-42.8-30.09-1.21-.5-2.46-.99-3.7-1.44-1.24-.47-2.47-.89-3.73-1.33-.63-.2-1.26-.43-1.9-.62-.84-.27-1.69-.51-2.53-.76-.86-.23-1.71-.47-2.58-.71-.81-.22-1.61-.43-2.42-.63-.11-.01-.22-.04-.31-.07-.76-.18-1.5-.36-2.26-.51-.12-.02-.25-.07-.39-.09-.67-.15-1.37-.29-2.06-.43-.19-.04-.4-.07-.59-.11-.61-.12-1.21-.23-1.82-.33-.23-.04-.46-.08-.71-.12-.2-.03-.4-.08-.61-.11-.5-.09-1-.15-1.51-.22-.07-.01-.13-.02-.21-.02-.13-.03-.31-.06-.44-.07-.08-.03-.15-.03-.23-.04-.24-.03-.49-.07-.74-.12-.13-.02-.28-.03-.41-.04-.39-.06-.77-.1-1.17-.14-.52-.07-1.06-.13-1.57-.2-1.59-.15-3.19-.29-4.77-.41-.38-.02-.74-.04-1.09-.06-.12-.01-.22-.01-.32-.02h-.07c-.06,0-.12,0-.18-.01-.08,0-.17-.02-.28-.03-.65-.02-1.3-.06-1.98-.08-.32-.01-.63-.02-.96-.02-1.08-.03-2.16-.06-3.26-.06-.49,0-1.01,0-1.5,.01-.99,.01-1.97,.04-2.94,.08-.42,.01-.82,.03-1.21,.06-.11,.01-.2,.01-.31,.01-.38,.03-.74,.06-1.12,.07h-.04s-.09,.01-.15,.02h-.19c-.11,.01-.23,.01-.33,.02-.03,0-.07,0-.11,.01-.2,0-.39,.01-.57,.02-.47,.04-.96,.07-1.45,.11-.18,.02-.34,.04-.53,.07-.28,.02-.56,.06-.83,.07h-.04c-.07,.01-.14,.02-.21,.02-.14,.03-.28,.04-.41,.04-.02,0-.06,0-.09,.01-.21,.02-.42,.03-.65,.07-.62,.07-1.25,.15-1.9,.23h-.04c-.28,.03-.55,.06-.83,.09-.46,.06-.92,.13-1.38,.2-9.17,1.31-17.99,3.68-26.34,6.96-2.85,1.12-5.63,2.35-8.37,3.69-.91,.44-1.81,.89-2.72,1.36-2.18,1.12-4.27,2.3-6.35,3.56-31.13,18.69-52.92,51.32-56.75,89.28h0c-.03,.43-.07,.85-.11,1.26-.32,3.53-.49,7.11-.49,10.71,0,51.19,32.59,94.75,78.13,111.11h.01c.41,.17,.82,.3,1.23,.43h.01c.17,.08,.36,.13,.53,.2h.02c1.74,.6,3.52,1.15,5.3,1.66h.01c1.55,.44,3.1,.87,4.66,1.25,.23,.07,.46,.12,.68,.18,1.52,.36,3.04,.68,4.58,.98,.59,.12,1.17,.23,1.77,.33,1.42,.27,2.85,.49,4.3,.68,.86,.17,1.42,.22,2.35,.31,1.09,.14,2.19,.27,3.29,.36,.53,.07,1.09,.1,1.65,.14,.56,.04,1.15,.08,1.72,.12h.01c2.57,.18,5.15,.27,7.74,.27h.01c.25,0,.5,0,.73-.01,1.7,0,3.38-.06,5.06-.13,.57-.03,1.18-.07,1.74-.11,.57-.02,1.13-.07,1.68-.11,.56-.03,1.13-.09,1.68-.14,1.12-.1,2.23-.21,3.33-.35,.99-.18,1.73-.29,2.58-.34,1.45-.21,2.87-.43,4.3-.68,.6-.11,1.18-.23,1.77-.33,1.53-.3,3.06-.63,4.56-.99,.23-.04,.46-.1,.7-.18,1.57-.38,3.12-.8,4.67-1.24,1.78-.51,3.56-1.06,5.31-1.67,.19-.07,.38-.12,.55-.19,.41-.14,.82-.29,1.23-.44,45.26-16.24,77.72-59.34,78.13-110.08v-.1c.01-.31,.01-.6,.01-.92,0-29.29-10.68-56.11-28.39-76.73Zm20.5,77.58v.09c-.4,47.35-30.68,87.56-72.9,102.73-.39,.14-.76,.28-1.15,.41-.17,.07-.34,.12-.52,.18-1.63,.56-3.29,1.08-4.95,1.56-1.45,.42-2.9,.81-4.36,1.16-.22,.07-.44,.12-.65,.15-1.4,.34-2.83,.65-4.25,.93-.55,.1-1.09,.21-1.66,.31-1.33,.24-2.65,.45-4.01,.64-.78,.06-1.48,.17-2.41,.32-1.03,.13-2.08,.24-3.11,.33-.51,.06-1.04,.1-1.56,.13-.52,.04-1.04,.09-1.57,.11-.53,.03-1.09,.07-1.63,.1-1.57,.07-3.14,.12-4.72,.12-.22,.01-.45,.01-.68,.01h-.01c-2.42,0-4.83-.09-7.22-.24h-.01c-.54-.04-1.07-.07-1.6-.12-.52-.04-1.05-.07-1.55-.13-1.03-.09-2.04-.21-3.07-.33-.86-.09-1.38-.13-2.19-.3-1.36-.18-2.68-.39-4.02-.64-.54-.09-1.09-.19-1.65-.31-1.44-.28-2.85-.57-4.26-.92-.21-.04-.43-.1-.64-.15-1.46-.35-2.92-.75-4.35-1.17,0,0,0,.02-.01,0-1.67-.47-3.31-.99-4.95-1.55h-.02c-.15-.06-.33-.12-.5-.19h-.01c-.38-.12-.76-.25-1.14-.4h-.01c-42.5-15.26-72.9-55.91-72.9-103.68,0-3.37,.15-6.7,.45-9.99,.03-.39,.07-.77,.11-1.17,3.57-35.42,23.9-65.87,52.94-83.31,1.94-1.17,3.9-2.27,5.93-3.31,.84-.43,1.69-.86,2.54-1.27,2.55-1.25,5.15-2.4,7.81-3.43,7.8-3.07,16.02-5.27,24.57-6.5,.43-.06,.86-.12,1.29-.18,.25-.03,.52-.06,.77-.09h.04c.6-.07,1.19-.15,1.77-.21,.21-.03,.41-.04,.62-.07,.02-.01,.06-.01,.08-.01,.12,0,.24-.01,.38-.04,.07,0,.14-.01,.2-.02h.04c.25-.01,.51-.03,.77-.06,.18-.02,.32-.04,.5-.06,.45-.04,.89-.07,1.35-.11,.17,0,.35-.01,.53-.01,.04-.01,.07-.01,.11-.01,.09-.01,.2-.01,.31-.03h.17c.07-.01,.11-.01,.15-.02h.04c.34-.01,.68-.03,1.04-.06,.1,0,.18,0,.29-.01,.36-.02,.74-.04,1.13-.06,.92-.02,1.82-.06,2.74-.07,.47-.01,.95-.01,1.41-.01,1.02,0,2.02,.02,3.04,.06,.31,0,.6,.01,.88,.01,.63,.02,1.25,.06,1.86,.08,.1,.01,.18,.02,.25,.02,.06,.01,.11,.01,.17,.01h.06c.1,.01,.2,.01,.3,.02,.33,.01,.67,.04,1.03,.07,1.48,.11,2.97,.22,4.45,.38,.47,.06,.98,.12,1.47,.18,.36,.04,.73,.09,1.08,.14,.13,.01,.27,.02,.39,.04,.23,.04,.46,.08,.7,.11,.07,0,.14,0,.21,.03,.13,.01,.29,.03,.42,.07,.07,0,.13,.01,.19,.01,.49,.08,.95,.13,1.41,.21,.2,.03,.39,.08,.56,.1,.23,.06,.44,.09,.66,.12,.57,.09,1.14,.2,1.7,.31,.18,.04,.36,.07,.55,.1,.64,.13,1.29,.27,1.92,.41,.12,.01,.24,.06,.36,.08,.71,.14,1.4,.31,2.11,.47,.08,.02,.19,.06,.29,.07,.75,.19,1.51,.38,2.26,.59,.81,.21,1.6,.44,2.41,.66,.77,.24,1.58,.46,2.35,.71,.61,.18,1.19,.39,1.78,.59,1.17,.4,2.33,.78,3.48,1.23,1.16,.42,2.32,.88,3.46,1.35,15.37,6.28,28.98,15.94,39.94,28.07,.67,.73,1.31,1.47,1.94,2.24,16.52,19.25,26.5,44.26,26.5,71.6,0,.3,0,.56-.01,.85Z"
               id="path10" />
            <g
               id="g13">
              <path
                 class="cls-10"
                 d="M230.98,50.96c-.73-.89-1.48-1.75-2.26-2.6-12.71-14.06-28.5-25.26-46.32-32.55-1.31-.54-2.65-1.08-4-1.56-1.33-.51-2.68-.96-4.03-1.43-.68-.22-1.37-.46-2.06-.67-.9-.29-1.83-.54-2.74-.82-.93-.25-1.85-.52-2.79-.76-.87-.24-1.75-.46-2.62-.68-.12-.01-.24-.05-.34-.07-.82-.2-1.62-.39-2.45-.56-.14-.02-.28-.07-.42-.09-.73-.16-1.48-.31-2.24-.46-.21-.05-.43-.07-.64-.12-.65-.14-1.31-.25-1.97-.36-.25-.05-.5-.08-.76-.14-.21-.03-.43-.08-.66-.12-.53-.09-1.08-.16-1.63-.24-.07-.01-.14-.02-.22-.02-.15-.03-.34-.06-.49-.07-.08-.03-.16-.03-.24-.05-.27-.03-.53-.07-.8-.13-.15-.02-.3-.03-.45-.05-.42-.06-.83-.12-1.26-.16-.56-.07-1.15-.14-1.69-.21-1.73-.17-3.45-.31-5.17-.44-.41-.02-.8-.06-1.18-.07-.13-.01-.23-.01-.35-.02h-.07c-.06,0-.13,0-.19-.01-.09,0-.19-.02-.3-.03-.71-.02-1.41-.06-2.14-.08-.34-.01-.67-.02-1.03-.02-1.17-.03-2.34-.06-3.52-.06-.53,0-1.09,0-1.63,.01-1.07,.01-2.12,.05-3.18,.08-.45,.01-.88,.03-1.31,.06-.13,.01-.22,.01-.34,.01-.41,.03-.8,.06-1.21,.07h-.05s-.1,.01-.17,.02h-.2c-.13,.02-.25,.02-.36,.03-.05,0-.08,0-.13,.01-.21,0-.42,.01-.61,.02-.52,.05-1.04,.07-1.56,.12-.2,.02-.37,.05-.58,.07-.3,.02-.6,.06-.89,.07h-.05c-.07,.01-.16,.02-.23,.02-.15,.03-.3,.05-.44,.05-.02,0-.06,0-.09,.01-.23,.03-.46,.05-.71,.08-.67,.07-1.36,.16-2.05,.24h-.06c-.29,.03-.59,.07-.89,.1-.5,.06-1,.14-1.49,.21-9.92,1.43-19.46,3.98-28.5,7.53-3.08,1.21-6.1,2.54-9.05,3.99-.99,.48-1.97,.97-2.94,1.47-2.35,1.21-4.62,2.48-6.87,3.85C34.67,44.66,11.08,79.97,6.95,121.04h0c-.05,.46-.08,.92-.13,1.37-.35,3.81-.52,7.68-.52,11.59,0,55.4,35.26,102.53,84.55,120.22h.01c.44,.17,.88,.32,1.32,.46h.01c.19,.08,.39,.15,.58,.22h.02c1.89,.64,3.8,1.24,5.74,1.78,.01,.02,.01,0,.01,0,1.67,.49,3.35,.95,5.04,1.36,.24,.07,.5,.13,.74,.19,1.65,.39,3.28,.74,4.95,1.07,.64,.14,1.27,.25,1.91,.36,1.54,.29,3.08,.53,4.66,.74,.93,.19,1.53,.24,2.54,.34,1.18,.15,2.36,.29,3.56,.39,.58,.07,1.18,.1,1.78,.15,.61,.06,1.24,.09,1.87,.14h.01c2.78,.19,5.56,.28,8.38,.28h.01c.27,0,.53,0,.79-.01,1.83,0,3.65-.06,5.47-.14,.63-.03,1.27-.07,1.89-.12,.61-.02,1.22-.07,1.82-.13,.6-.03,1.22-.09,1.81-.15,1.21-.1,2.42-.23,3.62-.38,1.07-.19,1.88-.31,2.79-.37,1.56-.22,3.11-.46,4.65-.74,.65-.12,1.27-.24,1.91-.36,1.66-.32,3.31-.68,4.94-1.08,.24-.05,.5-.1,.75-.19,1.69-.41,3.38-.86,5.05-1.34,1.92-.54,3.85-1.15,5.75-1.8,.2-.07,.41-.14,.59-.21,.45-.15,.89-.31,1.33-.48,48.98-17.58,84.09-64.21,84.55-119.12v-.1c.01-.34,.01-.65,.01-.99,0-31.71-11.57-60.71-30.72-83.03Zm23.61,83.96v.1c-.42,51.85-33.59,95.89-79.84,112.49-.42,.16-.83,.3-1.25,.45-.19,.06-.38,.13-.57,.2-1.8,.61-3.6,1.17-5.44,1.7-1.56,.45-3.16,.88-4.76,1.25-.24,.08-.48,.14-.72,.19-1.53,.37-3.09,.71-4.65,1.01-.6,.13-1.19,.24-1.81,.35-1.46,.26-2.92,.5-4.4,.71-.86,.05-1.62,.16-2.63,.34-1.12,.15-2.27,.27-3.41,.37-.57,.06-1.15,.1-1.7,.14-.58,.06-1.15,.09-1.73,.13-.59,.03-1.19,.07-1.78,.1-1.72,.07-3.43,.13-5.16,.13-.26,.01-.5,.01-.75,.01h-.01c-2.67,0-5.28-.09-7.9-.27h-.02c-.59-.03-1.17-.07-1.75-.13-.58-.03-1.15-.08-1.69-.14-1.14-.09-2.25-.23-3.36-.37-.95-.09-1.52-.15-2.4-.31-1.48-.2-2.94-.43-4.39-.71-.6-.09-1.21-.21-1.81-.35-1.58-.3-3.13-.63-4.67-1-.24-.06-.48-.12-.71-.19-1.6-.37-3.19-.81-4.76-1.26h-.01c-1.83-.53-3.64-1.09-5.42-1.69h-.01c-.19-.07-.38-.14-.54-.21h-.01c-.43-.14-.83-.28-1.25-.44h-.01C46.7,230.82,13.39,186.31,13.39,134c0-3.69,.17-7.35,.5-10.94,.05-.43,.08-.86,.12-1.29h0c3.92-38.8,26.18-72.15,57.99-91.24,2.12-1.29,4.28-2.49,6.49-3.64,.92-.48,1.84-.94,2.78-1.39,2.79-1.37,5.63-2.62,8.55-3.77,8.53-3.35,17.55-5.77,26.91-7.1,.48-.07,.94-.15,1.41-.2,.28-.03,.57-.07,.83-.1h.06c.66-.08,1.3-.16,1.94-.22,.23-.05,.45-.06,.67-.08,.02-.01,.07-.01,.08-.01,.13,0,.28-.01,.42-.05,.07,0,.16-.01,.22-.02h.05c.28-.01,.56-.03,.83-.07,.2-.02,.37-.03,.56-.06,.5-.05,.99-.07,1.48-.1,.17-.01,.37-.03,.57-.03,.05-.01,.08-.01,.13-.01,.1-.01,.22-.01,.34-.02h.19c.07-.01,.12-.01,.17-.02h.03c.38-.01,.76-.05,1.14-.07,.1,0,.2,0,.32-.01,.41-.02,.81-.03,1.23-.06,1-.03,1.99-.06,3-.07,.51-.02,1.04-.02,1.55-.02,1.11,0,2.21,.03,3.31,.06,.34,0,.66,.01,.99,.02,.68,.03,1.34,.06,2.02,.08,.1,.01,.2,.02,.29,.02,.06,.01,.12,.01,.17,.01h.06c.1,.02,.21,.02,.34,.03,.36,.01,.73,.03,1.11,.06,1.62,.13,3.26,.25,4.88,.43,.52,.06,1.08,.13,1.6,.2,.41,.03,.8,.09,1.19,.14,.14,.01,.29,.02,.43,.06,.25,.05,.5,.07,.75,.12,.08,.01,.15,.01,.23,.03,.15,.01,.31,.05,.46,.07,.08,0,.14,.01,.21,.02,.52,.08,1.03,.15,1.53,.22,.22,.05,.44,.08,.64,.12,.24,.06,.48,.08,.72,.14,.63,.09,1.24,.21,1.87,.34,.19,.05,.41,.07,.6,.1,.71,.15,1.41,.29,2.11,.44,.13,.02,.25,.06,.39,.09,.76,.15,1.53,.34,2.31,.52,.09,.02,.21,.05,.31,.06,.82,.22,1.66,.43,2.48,.65,.88,.23,1.76,.49,2.63,.72,.86,.27,1.74,.51,2.58,.79,.66,.2,1.3,.42,1.95,.63,1.29,.44,2.56,.87,3.81,1.36,1.27,.46,2.54,.96,3.78,1.47,16.83,6.88,31.74,17.46,43.74,30.75,.74,.8,1.45,1.61,2.14,2.45,18.08,21.08,29.01,48.48,29.01,78.42,0,.31,0,.61-.01,.93Z"
                 id="path11" />
              <path
                 class="cls-12"
                 d="M 230.63,57.73 C 230.22,57.2 229.8,56.68 229.38,56.17 206.82,28.58 172.53,10.98 134.09,10.98 69.48,10.98 16.51,60.77 11.46,124.1 c -0.03,0.36 -0.06,0.71 -0.07,1.07 -0.22,2.92 -0.32,5.85 -0.32,8.83 0,56.75 38.42,104.49 90.65,118.72 h 0.01 c 0.74,0.2 1.48,0.41 2.22,0.58 0.51,0.13 1.02,0.26 1.54,0.38 1.47,0.36 2.95,0.68 4.44,0.97 0.25,0.06 0.5,0.1 0.74,0.15 l 1.14,0.21 c 1.52,0.28 3.06,0.54 4.61,0.74 h 0.01 c 0.41,0.08 0.79,0.13 1.19,0.18 1.02,0.14 2.02,0.26 3.04,0.36 1.38,0.16 2.77,0.29 4.16,0.39 0.63,0.05 1.26,0.09 1.89,0.12 0.74,0.06 1.49,0.1 2.23,0.11 1.16,0.06 2.34,0.09 3.51,0.09 0.51,0.03 1.03,0.03 1.56,0.03 h 0.11 c 1.29,0 2.59,-0.01 3.88,-0.07 0.61,0 1.2,-0.03 1.81,-0.06 0.51,-0.02 1,-0.04 1.51,-0.09 0.65,-0.03 1.29,-0.07 1.94,-0.11 1.4,-0.11 2.79,-0.24 4.17,-0.4 1.02,-0.08 2.03,-0.21 3.05,-0.34 0.39,-0.06 0.79,-0.12 1.19,-0.18 1.55,-0.22 3.09,-0.46 4.63,-0.74 0.37,-0.07 0.75,-0.14 1.11,-0.22 0.26,-0.04 0.51,-0.08 0.76,-0.14 1.51,-0.29 3,-0.63 4.48,-0.97 0.52,-0.12 1.05,-0.25 1.55,-0.38 h 0.02 c 0.72,-0.19 1.46,-0.38 2.19,-0.6 h 0.01 c 52.31,-14.16 90.76,-61.94 90.76,-118.73 0,-28.82 -9.92,-55.3 -26.49,-76.26 z m -65.78,189.42 h -0.02 c -0.69,0.2 -1.4,0.38 -2.09,0.56 h -0.01 c -0.48,0.13 -0.98,0.25 -1.48,0.36 -1.41,0.33 -2.84,0.65 -4.27,0.93 -0.24,0.05 -0.47,0.1 -0.72,0.14 -0.35,0.07 -0.71,0.14 -1.07,0.2 -1.46,0.27 -2.93,0.5 -4.41,0.71 -0.37,0.06 -0.76,0.11 -1.13,0.17 -0.97,0.12 -1.94,0.24 -2.91,0.33 -1.31,0.15 -2.64,0.27 -3.97,0.37 -0.62,0.04 -1.23,0.08 -1.85,0.11 -0.48,0.04 -0.95,0.07 -1.44,0.08 -0.58,0.03 -1.14,0.06 -1.72,0.06 -1.24,0.06 -2.47,0.07 -3.7,0.07 h -0.11 c -0.5,0 -0.99,0 -1.48,-0.03 -1.12,0 -2.24,-0.03 -3.34,-0.08 -0.71,-0.02 -1.43,-0.06 -2.13,-0.11 -0.6,-0.03 -1.21,-0.07 -1.8,-0.11 -1.33,-0.1 -2.66,-0.22 -3.97,-0.38 -0.97,-0.09 -1.92,-0.2 -2.89,-0.34 -0.39,-0.04 -0.75,-0.1 -1.13,-0.17 h -0.02 c -1.48,-0.19 -2.94,-0.44 -4.4,-0.7 -0.35,-0.07 -0.71,-0.14 -1.07,-0.21 -0.24,-0.04 -0.47,-0.08 -0.71,-0.14 -1.42,-0.28 -2.83,-0.58 -4.23,-0.93 -0.5,-0.11 -0.98,-0.23 -1.47,-0.35 -0.7,-0.17 -1.41,-0.36 -2.11,-0.56 h -0.02 C 53.41,233.58 16.8,188.08 16.8,134 c 0,-2.84 0.09,-5.64 0.3,-8.41 0.02,-0.35 0.04,-0.68 0.07,-1.03 C 22,64.22 72.47,16.77 134.04,16.77 c 36.63,0 69.31,16.78 90.81,43.07 0.4,0.48 0.81,0.98 1.19,1.48 15.8,19.97 25.25,45.22 25.25,72.68 0,54.12 -36.65,99.64 -86.48,113.15 z"
                 id="path12"
                 sodipodi:nodetypes="ccsccsccccccsccccccccsscccccccccccccccscccccccccccccccccsscccccccccccccccsccsccscc" />
              <path
                 class="cls-7"
                 d="M229.12,59.43c-.2-.28-.42-.55-.64-.83-22.13-27.67-56.19-45.4-94.39-45.4C70.47,13.2,18.34,62.4,13.64,124.82c-.03,.33-.04,.68-.06,1.02-.19,2.7-.28,5.42-.28,8.16,0,57.38,40,105.43,93.65,117.74,.87,.2,1.74,.39,2.63,.58h.01s.1,.01,.16,.03c.64,.13,1.28,.26,1.92,.36,.23,.06,.48,.1,.73,.15,.32,.06,.64,.12,.96,.16,1.55,.28,3.12,.52,4.71,.73h.01c.41,.06,.8,.12,1.22,.16h.01c1.16,.15,2.34,.28,3.51,.38,1.38,.13,2.79,.23,4.2,.3,.65,.06,1.31,.09,1.96,.1,.74,.04,1.48,.06,2.22,.07,.49,.01,.97,.03,1.47,.03,.44,.01,.87,.01,1.31,.01h.12c1.05,0,2.08-.01,3.12-.04,.09,0,.16,0,.26-.01h.01c.49,0,.99-.01,1.48-.06,.68-.01,1.35-.04,2.02-.09,1.41-.07,2.82-.17,4.21-.31,1.18-.1,2.35-.23,3.51-.38,.42-.04,.83-.09,1.23-.16h.01c1.58-.19,3.15-.44,4.71-.71,.32-.04,.64-.1,.96-.16,.23-.04,.48-.09,.73-.15,.67-.1,1.31-.23,1.96-.38h.01c.07,0,.13-.01,.19-.03h.01c.87-.19,1.76-.38,2.61-.58h.01c53.68-12.29,93.73-60.35,93.73-117.76,0-28.15-9.63-54.03-25.78-74.56Zm-78.05,187.82c-1.9,.28-3.83,.52-5.77,.7-.51,.06-1.02,.1-1.53,.15h-.01c-1.48,.13-2.98,.22-4.47,.29-1.37,.06-2.74,.1-4.12,.1-.35,.01-.71,.01-1.07,.01-.42,0-.84,0-1.25-.01-1.38,0-2.74-.04-4.11-.12-1.5-.06-2.99-.16-4.47-.29h-.01c-.51-.04-1.02-.09-1.53-.15-1.93-.17-3.85-.42-5.75-.71-55.1-8.26-97.37-55.81-97.37-113.23,0-2.15,.07-4.28,.17-6.4,.01-.33,.04-.65,.06-.99,3.81-59.78,53.5-107.1,114.26-107.1,36.89,0,69.68,17.43,90.61,44.51,.25,.3,.48,.61,.71,.91,14.55,19.19,23.16,43.12,23.16,69.06,0,57.47-42.34,105.05-97.51,113.25Z"
                 id="path13" />
            </g>
          </g>
        </g>
      </g>
    </g>
  </g>
</svg>
