<?xml version="1.0" encoding="UTF-8" standalone="no"?>
<svg
   viewBox="0 0 268 268"
   version="1.1"
   id="svg4388"
   sodipodi:docname="1-wood.svg"
   inkscape:version="1.4 (86a8ad7, 2024-10-11)"
   xmlns:inkscape="http://www.inkscape.org/namespaces/inkscape"
   xmlns:sodipodi="http://sodipodi.sourceforge.net/DTD/sodipodi-0.dtd"
   xmlns:xlink="http://www.w3.org/1999/xlink"
   xmlns="http://www.w3.org/2000/svg"
   xmlns:svg="http://www.w3.org/2000/svg">
  <sodipodi:namedview
     id="namedview4388"
     pagecolor="#505050"
     bordercolor="#ffffff"
     borderopacity="1"
     inkscape:showpageshadow="0"
     inkscape:pageopacity="0"
     inkscape:pagecheckerboard="1"
     inkscape:deskcolor="#505050"
     inkscape:zoom="3.1902985"
     inkscape:cx="116.76023"
     inkscape:cy="129.92515"
     inkscape:window-width="1920"
     inkscape:window-height="1057"
     inkscape:window-x="1912"
     inkscape:window-y="-8"
     inkscape:window-maximized="1"
     inkscape:current-layer="g14" />
  <defs
     id="defs8">
    <style
       id="style1">
      .cls-1 {
        fill: url(#linear-gradient-2);
      }

      .cls-2 {
        opacity: .2;
      }

      .cls-2, .cls-3 {
        mix-blend-mode: multiply;
      }

      .cls-4 {
        isolation: isolate;
      }

      .cls-5 {
        fill: #73594e;
        opacity: .3;
      }

      .cls-3, .cls-6 {
        opacity: .35;
      }

      .cls-7 {
        fill: url(#linear-gradient-5);
      }

      .cls-8 {
        clip-path: url(#clippath);
      }

      .cls-9 {
        fill: none;
      }

      .cls-10 {
        fill: url(#linear-gradient-3);
      }

      .cls-11 {
        fill: url(#linear-gradient);
      }

      .cls-12 {
        fill: url(#linear-gradient-4);
      }

      .cls-6 {
        fill: #9f8861;
      }
    </style>
    <linearGradient
       id="linear-gradient"
       x1="134"
       y1="3.92"
       x2="134"
       y2="255.46"
       gradientUnits="userSpaceOnUse">
      <stop
         offset=".21"
         stop-color="#7f4a3f"
         id="stop1" />
      <stop
         offset=".65"
         stop-color="#74372e"
         id="stop2" />
      <stop
         offset="1"
         stop-color="#592723"
         id="stop3" />
    </linearGradient>
    <linearGradient
       id="linear-gradient-2"
       x1="134"
       y1="243.51"
       x2="134"
       y2="21.42"
       xlink:href="#linear-gradient" />
    <linearGradient
       id="linear-gradient-3"
       x1="224.99"
       y1="41.86"
       x2="71.82"
       y2="196.95"
       xlink:href="#linear-gradient" />
    <linearGradient
       id="linear-gradient-4"
       x1="230.46"
       y1="34.8"
       x2="5.45"
       y2="266.44"
       gradientUnits="userSpaceOnUse">
      <stop
         offset=".1"
         stop-color="#998675"
         id="stop4" />
      <stop
         offset=".9"
         stop-color="#6c3442"
         id="stop5" />
    </linearGradient>
    <linearGradient
       id="linear-gradient-5"
       x1="70.92"
       y1="200.61"
       x2="195.56"
       y2="69.2"
       gradientUnits="userSpaceOnUse">
      <stop
         offset=".16"
         stop-color="#8c5643"
         id="stop6" />
      <stop
         offset=".45"
         stop-color="#74372e"
         id="stop7" />
      <stop
         offset="1"
         stop-color="#43201e"
         id="stop8" />
    </linearGradient>
    <clipPath
       id="clippath">
      <path
         class="cls-9"
         d="M235.76,46.87c-.77-.94-1.55-1.83-2.37-2.72-13.34-14.76-29.9-26.51-48.6-34.17-1.38-.56-2.8-1.13-4.2-1.63-1.4-.54-2.81-1.02-4.24-1.5-.71-.23-1.43-.49-2.16-.7-.95-.3-1.92-.58-2.87-.87-.98-.26-1.94-.54-2.93-.8-.92-.25-1.83-.49-2.75-.71-.13-.01-.25-.05-.35-.08-.87-.2-1.71-.41-2.57-.58-.14-.03-.29-.08-.44-.1-.76-.18-1.55-.33-2.34-.49-.21-.05-.45-.08-.66-.13-.69-.14-1.38-.26-2.07-.38-.26-.05-.53-.09-.8-.14-.23-.04-.45-.09-.69-.13-.56-.1-1.14-.18-1.72-.25-.08-.01-.15-.03-.24-.03-.15-.04-.35-.06-.5-.08-.09-.04-.18-.04-.26-.05-.28-.04-.55-.08-.84-.14-.15-.03-.31-.04-.46-.05-.44-.06-.88-.11-1.33-.16-.59-.08-1.2-.15-1.78-.23-1.81-.18-3.62-.33-5.42-.46-.43-.02-.84-.05-1.24-.06-.14-.01-.25-.01-.36-.03h-.08c-.06,0-.14,0-.2-.01-.09,0-.19-.03-.31-.04-.74-.03-1.48-.06-2.24-.09-.36-.01-.71-.03-1.09-.03-1.23-.04-2.46-.06-3.7-.06-.55,0-1.14,0-1.71,.01-1.13,.01-2.23,.05-3.34,.09-.48,.01-.93,.04-1.38,.06-.13,.01-.23,.01-.35,.01-.43,.04-.84,.06-1.27,.08h-.05s-.1,.01-.18,.03h-.21c-.13,.01-.26,.01-.38,.03-.04,0-.08,0-.13,.01-.23,0-.44,.01-.65,.03-.54,.05-1.09,.08-1.64,.13-.2,.03-.39,.05-.6,.08-.31,.03-.64,.06-.94,.08h-.05c-.08,.01-.16,.02-.24,.02-.16,.04-.31,.05-.46,.05-.03,0-.06,0-.1,.01-.24,.03-.48,.04-.74,.08-.7,.08-1.42,.18-2.16,.26h-.05c-.31,.04-.63,.06-.94,.1-.53,.06-1.04,.15-1.57,.23-10.41,1.49-20.43,4.18-29.9,7.9-3.23,1.27-6.39,2.67-9.5,4.19-1.03,.5-2.06,1.02-3.08,1.54-2.47,1.27-4.85,2.61-7.21,4.04C29.77,40.26,5.03,77.31,.68,120.4H.68c-.04,.49-.08,.97-.13,1.43-.36,4.01-.55,8.07-.55,12.16,0,58.13,37,107.59,88.71,126.16h.01c.46,.19,.93,.34,1.39,.49h.01c.19,.09,.41,.15,.6,.23h.03c1.98,.68,4,1.3,6.02,1.88h.01c1.76,.5,3.52,.99,5.29,1.42,.26,.08,.53,.14,.78,.2,1.73,.41,3.45,.78,5.2,1.12,.66,.14,1.33,.26,2.01,.38,1.62,.3,3.23,.55,4.88,.78,.98,.19,1.62,.25,2.67,.35,1.24,.16,2.48,.3,3.74,.41,.6,.08,1.24,.11,1.87,.16,.64,.05,1.3,.09,1.96,.14h.01c2.92,.2,5.84,.3,8.79,.3h.01c.29,0,.56,0,.83-.01,1.93,0,3.84-.06,5.74-.15,.65-.04,1.34-.08,1.98-.13,.65-.03,1.28-.08,1.91-.13,.64-.04,1.28-.1,1.91-.16,1.27-.11,2.53-.24,3.79-.4,1.13-.2,1.97-.33,2.93-.39,1.64-.24,3.26-.49,4.88-.78,.68-.13,1.34-.26,2.01-.38,1.74-.34,3.47-.71,5.18-1.13,.26-.05,.53-.11,.79-.2,1.78-.43,3.55-.9,5.3-1.4,2.02-.58,4.04-1.2,6.03-1.89,.21-.08,.43-.14,.63-.21,.46-.16,.93-.33,1.39-.5,51.4-18.44,88.25-67.38,88.71-124.99v-.11c.01-.35,.01-.68,.01-1.04,0-33.26-12.12-63.71-32.24-87.13Zm8.37,87.13c0,.3,0,.56-.01,.85v.09c-.4,47.35-30.68,87.56-72.9,102.73-.39,.14-.76,.28-1.15,.41-.17,.07-.34,.12-.52,.18-1.63,.56-3.29,1.08-4.95,1.56-1.45,.42-2.9,.81-4.36,1.16-.22,.07-.44,.12-.65,.15-1.4,.34-2.83,.65-4.25,.93-.55,.1-1.09,.21-1.66,.31-1.33,.24-2.65,.45-4.01,.64-.78,.06-1.48,.17-2.41,.32-1.03,.13-2.08,.24-3.11,.33-.51,.06-1.04,.1-1.56,.13-.52,.04-1.04,.09-1.57,.11-.53,.03-1.09,.07-1.63,.1-1.57,.07-3.14,.12-4.72,.12-.22,.01-.45,.01-.68,.01h-.01c-2.42,0-4.83-.09-7.22-.24h-.01c-.54-.04-1.07-.07-1.6-.12-.52-.04-1.05-.07-1.55-.13-1.03-.09-2.04-.21-3.07-.33-.86-.09-1.38-.13-2.19-.3-1.36-.18-2.68-.39-4.02-.64-.54-.09-1.09-.19-1.65-.31-1.44-.28-2.85-.57-4.26-.92-.21-.04-.43-.1-.64-.15-1.46-.35-2.92-.75-4.35-1.17,0,0,0,.02-.01,0-1.67-.47-3.31-.99-4.95-1.55h-.02c-.15-.06-.33-.12-.5-.19h-.01c-.38-.12-.76-.25-1.14-.4h-.01c-42.5-15.26-72.9-55.91-72.9-103.68,0-3.37,.15-6.7,.45-9.99,.03-.39,.07-.77,.11-1.17,3.57-35.42,23.9-65.87,52.94-83.31,1.94-1.17,3.9-2.27,5.93-3.31,.84-.43,1.69-.86,2.54-1.27,2.55-1.25,5.15-2.4,7.81-3.43,7.8-3.07,16.02-5.27,24.57-6.5,.43-.06,.86-.12,1.29-.18,.25-.03,.52-.06,.77-.09h.04c.6-.07,1.19-.15,1.77-.21,.21-.03,.41-.04,.62-.07,.02-.01,.06-.01,.08-.01,.12,0,.24-.01,.38-.04,.07,0,.14-.01,.2-.02h.04c.25-.01,.51-.03,.77-.06,.18-.02,.32-.04,.5-.06,.45-.04,.89-.07,1.35-.11,.17,0,.35-.01,.53-.01,.04-.01,.07-.01,.11-.01,.09-.01,.2-.01,.31-.03h.17c.07-.01,.11-.01,.15-.02h.04c.34-.01,.68-.03,1.04-.06,.1,0,.18,0,.29-.01,.36-.02,.74-.04,1.13-.06,.92-.02,1.82-.06,2.74-.07,.47-.01,.95-.01,1.41-.01,1.02,0,2.02,.02,3.04,.06,.31,0,.6,.01,.88,.01,.63,.02,1.25,.06,1.86,.08,.1,.01,.18,.02,.25,.02,.06,.01,.11,.01,.17,.01h.06c.1,.01,.2,.01,.3,.02,.33,.01,.67,.04,1.03,.07,1.48,.11,2.97,.22,4.45,.38,.47,.06,.98,.12,1.47,.18,.36,.04,.73,.09,1.08,.14,.13,.01,.27,.02,.39,.04,.23,.04,.46,.08,.7,.11,.07,0,.14,0,.21,.03,.13,.01,.29,.03,.42,.07,.07,0,.13,.01,.19,.01,.49,.08,.95,.13,1.41,.21,.2,.03,.39,.08,.56,.1,.23,.06,.44,.09,.66,.12,.57,.09,1.14,.2,1.7,.31,.18,.04,.36,.07,.55,.1,.64,.13,1.29,.26,1.92,.41,.12,.01,.24,.06,.36,.08,.71,.14,1.4,.31,2.11,.47,.08,.02,.19,.06,.29,.07,.75,.19,1.51,.38,2.26,.59,.81,.21,1.6,.44,2.41,.66,.77,.24,1.58,.46,2.35,.71,.61,.18,1.19,.39,1.78,.59,1.17,.4,2.33,.78,3.48,1.23,1.16,.42,2.32,.88,3.46,1.35,15.37,6.28,28.98,15.94,39.94,28.07,.67,.73,1.31,1.47,1.94,2.24,16.52,19.25,26.5,44.26,26.5,71.6Z"
         id="path8" />
    </clipPath>
  </defs>
  <g
     class="cls-4"
     id="g4388">
    <g
       id="Layer_2"
       data-name="Layer 2">
      <g
         id="Layer_1-2"
         data-name="Layer 1">
        <g
           id="g4387">
          <g
             id="g14">
            <path
               class="cls-11"
               d="M235.76,46.87c-.76-.94-1.55-1.83-2.37-2.72-13.34-14.76-29.9-26.51-48.6-34.17-1.38-.56-2.8-1.13-4.2-1.63-1.4-.54-2.81-1.02-4.24-1.5-.71-.23-1.43-.49-2.16-.7-.95-.3-1.92-.58-2.87-.87-.98-.26-1.94-.54-2.93-.8-.92-.25-1.83-.49-2.75-.71-.13-.01-.25-.05-.35-.08-.87-.2-1.71-.41-2.57-.58-.14-.03-.29-.08-.44-.1-.76-.18-1.55-.33-2.34-.49-.21-.05-.45-.08-.66-.13-.69-.14-1.38-.26-2.07-.38-.26-.05-.53-.09-.8-.14-.23-.04-.45-.09-.69-.13-.56-.1-1.14-.18-1.72-.25-.08-.01-.15-.03-.24-.03-.15-.04-.35-.06-.5-.08-.09-.04-.18-.04-.26-.05-.28-.04-.55-.08-.84-.14-.15-.03-.31-.04-.46-.05-.44-.06-.88-.11-1.33-.16-.59-.08-1.2-.15-1.78-.23-1.81-.18-3.62-.33-5.42-.46-.43-.02-.84-.05-1.24-.06-.14-.01-.25-.01-.36-.03h-.08c-.06,0-.14,0-.2-.01-.09,0-.19-.03-.31-.04-.74-.03-1.48-.06-2.24-.09-.36-.01-.71-.03-1.09-.03C136.41,.03,135.18,0,133.94,0,133.39,0,132.8,0,132.23,.01c-1.13,.01-2.23,.05-3.34,.09-.48,.01-.93,.04-1.38,.06-.13,.01-.23,.01-.35,.01-.43,.04-.84,.06-1.27,.08h-.05s-.1,.01-.18,.03h-.21c-.13,.01-.26,.01-.38,.03-.04,0-.08,0-.13,.01-.23,0-.44,.01-.65,.03-.54,.05-1.09,.08-1.64,.13-.2,.03-.39,.05-.6,.08-.31,.03-.64,.06-.94,.08h-.05c-.08,.01-.16,.02-.24,.02-.16,.04-.31,.05-.46,.05-.03,0-.06,0-.1,.01-.24,.03-.48,.04-.74,.08-.7,.08-1.42,.18-2.16,.26h-.05c-.31,.04-.63,.06-.94,.1-.53,.06-1.04,.15-1.57,.23-10.41,1.49-20.43,4.18-29.9,7.9-3.23,1.27-6.39,2.67-9.5,4.19-1.03,.5-2.06,1.02-3.08,1.54-2.47,1.27-4.85,2.61-7.21,4.04C29.77,40.26,5.03,77.31,.68,120.4H.68c-.04,.49-.08,.97-.13,1.43C.19,125.84,0,129.91,0,133.99,0,192.12,37,241.58,88.71,260.15h.01c.46,.19,.93,.34,1.39,.49h.01c.19,.09,.41,.15,.6,.23h.03c1.98,.68,4,1.3,6.02,1.88h.01c1.76,.5,3.52,.99,5.29,1.42,.26,.08,.53,.14,.78,.2,1.73,.41,3.45,.78,5.2,1.12,.66,.14,1.33,.26,2.01,.38,1.62,.3,3.23,.55,4.88,.78,.98,.19,1.62,.25,2.67,.35,1.24,.16,2.48,.3,3.74,.41,.6,.08,1.24,.11,1.87,.16,.64,.05,1.3,.09,1.96,.14h.01c2.92,.2,5.84,.3,8.79,.3h.01c.29,0,.56,0,.83-.01,1.93,0,3.84-.06,5.74-.15,.65-.04,1.34-.08,1.98-.13,.65-.03,1.28-.08,1.91-.13,.64-.04,1.28-.1,1.91-.16,1.27-.11,2.53-.24,3.79-.4,1.13-.2,1.97-.33,2.93-.39,1.64-.24,3.26-.49,4.88-.78,.68-.13,1.34-.26,2.01-.38,1.74-.34,3.47-.71,5.18-1.13,.26-.05,.53-.11,.79-.2,1.78-.43,3.55-.9,5.3-1.4,2.02-.58,4.04-1.2,6.03-1.89,.21-.08,.43-.14,.63-.21,.46-.16,.93-.33,1.39-.5,51.4-18.44,88.25-67.38,88.71-124.99v-.11c.01-.35,.01-.68,.01-1.04,0-33.26-12.12-63.71-32.24-87.13Zm23.27,88.09v.1c-.45,53.76-34.83,99.43-82.78,116.64-.44,.16-.87,.31-1.3,.46-.19,.08-.39,.14-.59,.2-1.86,.64-3.74,1.23-5.62,1.77-1.64,.48-3.3,.92-4.95,1.32-.25,.08-.5,.14-.74,.18-1.59,.39-3.21,.74-4.83,1.05-.63,.11-1.24,.24-1.88,.35-1.5,.28-3.01,.51-4.55,.73-.89,.06-1.68,.19-2.73,.36-1.17,.15-2.36,.28-3.54,.38-.58,.06-1.18,.11-1.77,.15-.59,.05-1.18,.1-1.78,.13-.6,.04-1.24,.08-1.86,.11-1.78,.08-3.56,.14-5.35,.14-.25,.01-.51,.01-.78,.01h-.01c-2.75,0-5.48-.1-8.2-.28h-.01c-.61-.05-1.22-.08-1.82-.14-.59-.05-1.19-.08-1.76-.15-1.17-.1-2.32-.24-3.49-.38-.98-.1-1.57-.15-2.48-.34-1.54-.2-3.05-.44-4.56-.73-.61-.1-1.24-.21-1.87-.35-1.63-.31-3.24-.65-4.84-1.04-.24-.05-.49-.11-.73-.18-1.66-.4-3.31-.85-4.94-1.33,0,0,0,.03-.01,0-1.89-.54-3.76-1.13-5.62-1.76h-.03c-.18-.06-.38-.14-.56-.21h-.01c-.43-.14-.87-.29-1.29-.45h-.01C43.48,234.39,8.97,188.23,8.97,133.99c0-3.82,.18-7.61,.51-11.35,.04-.44,.08-.88,.13-1.33,4.05-40.22,27.13-74.79,60.11-94.6,2.21-1.33,4.43-2.58,6.73-3.76,.95-.49,1.92-.98,2.88-1.44,2.9-1.42,5.84-2.72,8.86-3.9,8.85-3.49,18.19-5.98,27.9-7.38,.49-.06,.98-.14,1.47-.2,.29-.04,.59-.06,.88-.1h.05c.68-.08,1.35-.18,2.01-.24,.24-.04,.46-.05,.7-.08,.03-.01,.06-.01,.09-.01,.14,0,.28-.01,.43-.05,.08,0,.16-.01,.23-.03h.05c.29-.01,.58-.04,.88-.06,.2-.03,.36-.05,.56-.06,.51-.05,1.02-.08,1.53-.13,.19,0,.4-.01,.6-.01,.05-.01,.08-.01,.13-.01,.1-.01,.23-.01,.35-.04h.19c.08-.01,.13-.01,.18-.03h.05c.39-.01,.78-.04,1.18-.06,.11,0,.2,0,.33-.01,.41-.03,.84-.05,1.28-.06,1.04-.03,2.07-.06,3.11-.08,.54-.01,1.08-.01,1.6-.01,1.15,0,2.29,.03,3.45,.06,.35,0,.68,.01,1,.01,.71,.03,1.42,.06,2.11,.09,.11,.01,.2,.03,.29,.03,.06,.01,.13,.01,.19,.01h.06c.11,.01,.23,.01,.34,.03,.38,.01,.76,.05,1.17,.08,1.68,.13,3.37,.25,5.05,.43,.54,.06,1.12,.14,1.67,.2,.41,.05,.83,.1,1.23,.16,.15,.01,.3,.03,.44,.05,.26,.05,.53,.09,.79,.13,.08,0,.16,0,.24,.04,.15,.01,.33,.04,.48,.08,.08,0,.15,.01,.21,.01,.55,.09,1.08,.15,1.6,.24,.23,.04,.44,.09,.64,.11,.26,.06,.5,.1,.75,.14,.65,.1,1.29,.23,1.93,.35,.2,.05,.41,.08,.63,.11,.73,.15,1.47,.3,2.18,.46,.14,.01,.28,.06,.41,.09,.8,.16,1.59,.35,2.39,.54,.09,.03,.21,.06,.33,.08,.85,.21,1.72,.43,2.57,.66,.92,.24,1.82,.5,2.73,.75,.88,.28,1.79,.53,2.67,.8,.69,.2,1.35,.44,2.02,.66,1.33,.45,2.65,.89,3.95,1.39,1.32,.48,2.63,1,3.92,1.53,17.45,7.13,32.9,18.1,45.35,31.87,.76,.83,1.49,1.67,2.21,2.55,18.76,21.85,30.09,50.25,30.09,81.3,0,.34,0,.64-.01,.97Z"
               id="path9" />
            <path
               class="cls-1"
               d="M223.62,57.26c-.67-.83-1.37-1.61-2.09-2.4-11.75-13-26.34-23.34-42.8-30.09-1.21-.5-2.46-.99-3.7-1.44-1.24-.47-2.47-.89-3.73-1.33-.63-.2-1.26-.43-1.9-.62-.84-.27-1.69-.51-2.53-.76-.86-.23-1.71-.47-2.58-.71-.81-.22-1.61-.43-2.42-.63-.11-.01-.22-.04-.31-.07-.76-.18-1.5-.36-2.26-.51-.12-.02-.25-.07-.39-.09-.67-.15-1.37-.29-2.06-.43-.19-.04-.4-.07-.59-.11-.61-.12-1.21-.23-1.82-.33-.23-.04-.46-.08-.71-.12-.2-.03-.4-.08-.61-.11-.5-.09-1-.15-1.51-.22-.07-.01-.13-.02-.21-.02-.13-.03-.31-.06-.44-.07-.08-.03-.15-.03-.23-.04-.24-.03-.49-.07-.74-.12-.13-.02-.28-.03-.41-.04-.39-.06-.77-.1-1.17-.14-.52-.07-1.06-.13-1.57-.2-1.59-.15-3.19-.29-4.77-.41-.38-.02-.74-.04-1.09-.06-.12-.01-.22-.01-.32-.02h-.07c-.06,0-.12,0-.18-.01-.08,0-.17-.02-.28-.03-.65-.02-1.3-.06-1.98-.08-.32-.01-.63-.02-.96-.02-1.08-.03-2.16-.06-3.26-.06-.49,0-1.01,0-1.5,.01-.99,.01-1.97,.04-2.94,.08-.42,.01-.82,.03-1.21,.06-.11,.01-.2,.01-.31,.01-.38,.03-.74,.06-1.12,.07h-.04s-.09,.01-.15,.02h-.19c-.11,.01-.23,.01-.33,.02-.03,0-.07,0-.11,.01-.2,0-.39,.01-.57,.02-.47,.04-.96,.07-1.45,.11-.18,.02-.34,.04-.53,.07-.28,.02-.56,.06-.83,.07h-.04c-.07,.01-.14,.02-.21,.02-.14,.03-.28,.04-.41,.04-.02,0-.06,0-.09,.01-.21,.02-.42,.03-.65,.07-.62,.07-1.25,.15-1.9,.23h-.04c-.28,.03-.55,.06-.83,.09-.46,.06-.92,.13-1.38,.2-9.17,1.31-17.99,3.68-26.34,6.96-2.85,1.12-5.63,2.35-8.37,3.69-.91,.44-1.81,.89-2.72,1.36-2.18,1.12-4.27,2.3-6.35,3.56-31.13,18.69-52.92,51.32-56.75,89.28h0c-.03,.43-.07,.85-.11,1.26-.32,3.53-.49,7.11-.49,10.71,0,51.19,32.59,94.75,78.13,111.11h.01c.41,.17,.82,.3,1.23,.43h.01c.17,.08,.36,.13,.53,.2h.02c1.74,.6,3.52,1.15,5.3,1.66h.01c1.55,.44,3.1,.87,4.66,1.25,.23,.07,.46,.12,.68,.18,1.52,.36,3.04,.68,4.58,.98,.59,.12,1.17,.23,1.77,.33,1.42,.27,2.85,.49,4.3,.68,.86,.17,1.42,.22,2.35,.31,1.09,.14,2.19,.27,3.29,.36,.53,.07,1.09,.1,1.65,.14,.56,.04,1.15,.08,1.72,.12h.01c2.57,.18,5.15,.27,7.74,.27h.01c.25,0,.5,0,.73-.01,1.7,0,3.38-.06,5.06-.13,.57-.03,1.18-.07,1.74-.11,.57-.02,1.13-.07,1.68-.11,.56-.03,1.13-.09,1.68-.14,1.12-.1,2.23-.21,3.33-.35,.99-.18,1.73-.29,2.58-.34,1.45-.21,2.87-.43,4.3-.68,.6-.11,1.18-.23,1.77-.33,1.53-.3,3.06-.63,4.56-.99,.23-.04,.46-.1,.7-.18,1.57-.38,3.12-.8,4.67-1.24,1.78-.51,3.56-1.06,5.31-1.67,.19-.07,.38-.12,.55-.19,.41-.14,.82-.29,1.23-.44,45.26-16.24,77.72-59.34,78.13-110.08v-.1c.01-.31,.01-.6,.01-.92,0-29.29-10.68-56.11-28.39-76.73Zm20.5,77.58v.09c-.4,47.35-30.68,87.56-72.9,102.73-.39,.14-.76,.28-1.15,.41-.17,.07-.34,.12-.52,.18-1.63,.56-3.29,1.08-4.95,1.56-1.45,.42-2.9,.81-4.36,1.16-.22,.07-.44,.12-.65,.15-1.4,.34-2.83,.65-4.25,.93-.55,.1-1.09,.21-1.66,.31-1.33,.24-2.65,.45-4.01,.64-.78,.06-1.48,.17-2.41,.32-1.03,.13-2.08,.24-3.11,.33-.51,.06-1.04,.1-1.56,.13-.52,.04-1.04,.09-1.57,.11-.53,.03-1.09,.07-1.63,.1-1.57,.07-3.14,.12-4.72,.12-.22,.01-.45,.01-.68,.01h-.01c-2.42,0-4.83-.09-7.22-.24h-.01c-.54-.04-1.07-.07-1.6-.12-.52-.04-1.05-.07-1.55-.13-1.03-.09-2.04-.21-3.07-.33-.86-.09-1.38-.13-2.19-.3-1.36-.18-2.68-.39-4.02-.64-.54-.09-1.09-.19-1.65-.31-1.44-.28-2.85-.57-4.26-.92-.21-.04-.43-.1-.64-.15-1.46-.35-2.92-.75-4.35-1.17,0,0,0,.02-.01,0-1.67-.47-3.31-.99-4.95-1.55h-.02c-.15-.06-.33-.12-.5-.19h-.01c-.38-.12-.76-.25-1.14-.4h-.01c-42.5-15.26-72.9-55.91-72.9-103.68,0-3.37,.15-6.7,.45-9.99,.03-.39,.07-.77,.11-1.17,3.57-35.42,23.9-65.87,52.94-83.31,1.94-1.17,3.9-2.27,5.93-3.31,.84-.43,1.69-.86,2.54-1.27,2.55-1.25,5.15-2.4,7.81-3.43,7.8-3.07,16.02-5.27,24.57-6.5,.43-.06,.86-.12,1.29-.18,.25-.03,.52-.06,.77-.09h.04c.6-.07,1.19-.15,1.77-.21,.21-.03,.41-.04,.62-.07,.02-.01,.06-.01,.08-.01,.12,0,.24-.01,.38-.04,.07,0,.14-.01,.2-.02h.04c.25-.01,.51-.03,.77-.06,.18-.02,.32-.04,.5-.06,.45-.04,.89-.07,1.35-.11,.17,0,.35-.01,.53-.01,.04-.01,.07-.01,.11-.01,.09-.01,.2-.01,.31-.03h.17c.07-.01,.11-.01,.15-.02h.04c.34-.01,.68-.03,1.04-.06,.1,0,.18,0,.29-.01,.36-.02,.74-.04,1.13-.06,.92-.02,1.82-.06,2.74-.07,.47-.01,.95-.01,1.41-.01,1.02,0,2.02,.02,3.04,.06,.31,0,.6,.01,.88,.01,.63,.02,1.25,.06,1.86,.08,.1,.01,.18,.02,.25,.02,.06,.01,.11,.01,.17,.01h.06c.1,.01,.2,.01,.3,.02,.33,.01,.67,.04,1.03,.07,1.48,.11,2.97,.22,4.45,.38,.47,.06,.98,.12,1.47,.18,.36,.04,.73,.09,1.08,.14,.13,.01,.27,.02,.39,.04,.23,.04,.46,.08,.7,.11,.07,0,.14,0,.21,.03,.13,.01,.29,.03,.42,.07,.07,0,.13,.01,.19,.01,.49,.08,.95,.13,1.41,.21,.2,.03,.39,.08,.56,.1,.23,.06,.44,.09,.66,.12,.57,.09,1.14,.2,1.7,.31,.18,.04,.36,.07,.55,.1,.64,.13,1.29,.27,1.92,.41,.12,.01,.24,.06,.36,.08,.71,.14,1.4,.31,2.11,.47,.08,.02,.19,.06,.29,.07,.75,.19,1.51,.38,2.26,.59,.81,.21,1.6,.44,2.41,.66,.77,.24,1.58,.46,2.35,.71,.61,.18,1.19,.39,1.78,.59,1.17,.4,2.33,.78,3.48,1.23,1.16,.42,2.32,.88,3.46,1.35,15.37,6.28,28.98,15.94,39.94,28.07,.67,.73,1.31,1.47,1.94,2.24,16.52,19.25,26.5,44.26,26.5,71.6,0,.3,0,.56-.01,.85Z"
               id="path10" />
            <g
               id="g13">
              <path
                 class="cls-10"
                 d="M230.98,50.96c-.73-.89-1.48-1.75-2.26-2.6-12.71-14.06-28.5-25.26-46.32-32.55-1.31-.54-2.65-1.08-4-1.56-1.33-.51-2.68-.96-4.03-1.43-.68-.22-1.37-.46-2.06-.67-.9-.29-1.83-.54-2.74-.82-.93-.25-1.85-.52-2.79-.76-.87-.24-1.75-.46-2.62-.68-.12-.01-.24-.05-.34-.07-.82-.2-1.62-.39-2.45-.56-.14-.02-.28-.07-.42-.09-.73-.16-1.48-.31-2.24-.46-.21-.05-.43-.07-.64-.12-.65-.14-1.31-.25-1.97-.36-.25-.05-.5-.08-.76-.14-.21-.03-.43-.08-.66-.12-.53-.09-1.08-.16-1.63-.24-.07-.01-.14-.02-.22-.02-.15-.03-.34-.06-.49-.07-.08-.03-.16-.03-.24-.05-.27-.03-.53-.07-.8-.13-.15-.02-.3-.03-.45-.05-.42-.06-.83-.12-1.26-.16-.56-.07-1.15-.14-1.69-.21-1.73-.17-3.45-.31-5.17-.44-.41-.02-.8-.06-1.18-.07-.13-.01-.23-.01-.35-.02h-.07c-.06,0-.13,0-.19-.01-.09,0-.19-.02-.3-.03-.71-.02-1.41-.06-2.14-.08-.34-.01-.67-.02-1.03-.02-1.17-.03-2.34-.06-3.52-.06-.53,0-1.09,0-1.63,.01-1.07,.01-2.12,.05-3.18,.08-.45,.01-.88,.03-1.31,.06-.13,.01-.22,.01-.34,.01-.41,.03-.8,.06-1.21,.07h-.05s-.1,.01-.17,.02h-.2c-.13,.02-.25,.02-.36,.03-.05,0-.08,0-.13,.01-.21,0-.42,.01-.61,.02-.52,.05-1.04,.07-1.56,.12-.2,.02-.37,.05-.58,.07-.3,.02-.6,.06-.89,.07h-.05c-.07,.01-.16,.02-.23,.02-.15,.03-.3,.05-.44,.05-.02,0-.06,0-.09,.01-.23,.03-.46,.05-.71,.08-.67,.07-1.36,.16-2.05,.24h-.06c-.29,.03-.59,.07-.89,.1-.5,.06-1,.14-1.49,.21-9.92,1.43-19.46,3.98-28.5,7.53-3.08,1.21-6.1,2.54-9.05,3.99-.99,.48-1.97,.97-2.94,1.47-2.35,1.21-4.62,2.48-6.87,3.85C34.67,44.66,11.08,79.97,6.95,121.04h0c-.05,.46-.08,.92-.13,1.37-.35,3.81-.52,7.68-.52,11.59,0,55.4,35.26,102.53,84.55,120.22h.01c.44,.17,.88,.32,1.32,.46h.01c.19,.08,.39,.15,.58,.22h.02c1.89,.64,3.8,1.24,5.74,1.78,.01,.02,.01,0,.01,0,1.67,.49,3.35,.95,5.04,1.36,.24,.07,.5,.13,.74,.19,1.65,.39,3.28,.74,4.95,1.07,.64,.14,1.27,.25,1.91,.36,1.54,.29,3.08,.53,4.66,.74,.93,.19,1.53,.24,2.54,.34,1.18,.15,2.36,.29,3.56,.39,.58,.07,1.18,.1,1.78,.15,.61,.06,1.24,.09,1.87,.14h.01c2.78,.19,5.56,.28,8.38,.28h.01c.27,0,.53,0,.79-.01,1.83,0,3.65-.06,5.47-.14,.63-.03,1.27-.07,1.89-.12,.61-.02,1.22-.07,1.82-.13,.6-.03,1.22-.09,1.81-.15,1.21-.1,2.42-.23,3.62-.38,1.07-.19,1.88-.31,2.79-.37,1.56-.22,3.11-.46,4.65-.74,.65-.12,1.27-.24,1.91-.36,1.66-.32,3.31-.68,4.94-1.08,.24-.05,.5-.1,.75-.19,1.69-.41,3.38-.86,5.05-1.34,1.92-.54,3.85-1.15,5.75-1.8,.2-.07,.41-.14,.59-.21,.45-.15,.89-.31,1.33-.48,48.98-17.58,84.09-64.21,84.55-119.12v-.1c.01-.34,.01-.65,.01-.99,0-31.71-11.57-60.71-30.72-83.03Zm23.61,83.96v.1c-.42,51.85-33.59,95.89-79.84,112.49-.42,.16-.83,.3-1.25,.45-.19,.06-.38,.13-.57,.2-1.8,.61-3.6,1.17-5.44,1.7-1.56,.45-3.16,.88-4.76,1.25-.24,.08-.48,.14-.72,.19-1.53,.37-3.09,.71-4.65,1.01-.6,.13-1.19,.24-1.81,.35-1.46,.26-2.92,.5-4.4,.71-.86,.05-1.62,.16-2.63,.34-1.12,.15-2.27,.27-3.41,.37-.57,.06-1.15,.1-1.7,.14-.58,.06-1.15,.09-1.73,.13-.59,.03-1.19,.07-1.78,.1-1.72,.07-3.43,.13-5.16,.13-.26,.01-.5,.01-.75,.01h-.01c-2.67,0-5.28-.09-7.9-.27h-.02c-.59-.03-1.17-.07-1.75-.13-.58-.03-1.15-.08-1.69-.14-1.14-.09-2.25-.23-3.36-.37-.95-.09-1.52-.15-2.4-.31-1.48-.2-2.94-.43-4.39-.71-.6-.09-1.21-.21-1.81-.35-1.58-.3-3.13-.63-4.67-1-.24-.06-.48-.12-.71-.19-1.6-.37-3.19-.81-4.76-1.26h-.01c-1.83-.53-3.64-1.09-5.42-1.69h-.01c-.19-.07-.38-.14-.54-.21h-.01c-.43-.14-.83-.28-1.25-.44h-.01C46.7,230.82,13.39,186.31,13.39,134c0-3.69,.17-7.35,.5-10.94,.05-.43,.08-.86,.12-1.29h0c3.92-38.8,26.18-72.15,57.99-91.24,2.12-1.29,4.28-2.49,6.49-3.64,.92-.48,1.84-.94,2.78-1.39,2.79-1.37,5.63-2.62,8.55-3.77,8.53-3.35,17.55-5.77,26.91-7.1,.48-.07,.94-.15,1.41-.2,.28-.03,.57-.07,.83-.1h.06c.66-.08,1.3-.16,1.94-.22,.23-.05,.45-.06,.67-.08,.02-.01,.07-.01,.08-.01,.13,0,.28-.01,.42-.05,.07,0,.16-.01,.22-.02h.05c.28-.01,.56-.03,.83-.07,.2-.02,.37-.03,.56-.06,.5-.05,.99-.07,1.48-.1,.17-.01,.37-.03,.57-.03,.05-.01,.08-.01,.13-.01,.1-.01,.22-.01,.34-.02h.19c.07-.01,.12-.01,.17-.02h.03c.38-.01,.76-.05,1.14-.07,.1,0,.2,0,.32-.01,.41-.02,.81-.03,1.23-.06,1-.03,1.99-.06,3-.07,.51-.02,1.04-.02,1.55-.02,1.11,0,2.21,.03,3.31,.06,.34,0,.66,.01,.99,.02,.68,.03,1.34,.06,2.02,.08,.1,.01,.2,.02,.29,.02,.06,.01,.12,.01,.17,.01h.06c.1,.02,.21,.02,.34,.03,.36,.01,.73,.03,1.11,.06,1.62,.13,3.26,.25,4.88,.43,.52,.06,1.08,.13,1.6,.2,.41,.03,.8,.09,1.19,.14,.14,.01,.29,.02,.43,.06,.25,.05,.5,.07,.75,.12,.08,.01,.15,.01,.23,.03,.15,.01,.31,.05,.46,.07,.08,0,.14,.01,.21,.02,.52,.08,1.03,.15,1.53,.22,.22,.05,.44,.08,.64,.12,.24,.06,.48,.08,.72,.14,.63,.09,1.24,.21,1.87,.34,.19,.05,.41,.07,.6,.1,.71,.15,1.41,.29,2.11,.44,.13,.02,.25,.06,.39,.09,.76,.15,1.53,.34,2.31,.52,.09,.02,.21,.05,.31,.06,.82,.22,1.66,.43,2.48,.65,.88,.23,1.76,.49,2.63,.72,.86,.27,1.74,.51,2.58,.79,.66,.2,1.3,.42,1.95,.63,1.29,.44,2.56,.87,3.81,1.36,1.27,.46,2.54,.96,3.78,1.47,16.83,6.88,31.74,17.46,43.74,30.75,.74,.8,1.45,1.61,2.14,2.45,18.08,21.08,29.01,48.48,29.01,78.42,0,.31,0,.61-.01,.93Z"
                 id="path11" />
              <path
                 class="cls-12"
                 d="M230.63,57.73c-.4-.53-.82-1.05-1.24-1.56-22.56-27.59-56.85-45.19-95.29-45.19C69.49,10.98,16.52,60.77,11.46,124.1c-.03,.36-.06,.71-.08,1.07-.21,2.92-.32,5.85-.32,8.83,0,56.75,38.43,104.49,90.66,118.72h.01c.74,.2,1.48,.41,2.22,.58,.51,.13,1.02,.26,1.54,.38,1.47,.36,2.95,.68,4.44,.97,.25,.06,.49,.1,.74,.15,.38,.07,.75,.14,1.13,.21,1.53,.28,3.06,.54,4.62,.74h.01c.41,.08,.78,.13,1.19,.18,1.02,.14,2.02,.26,3.03,.36,1.38,.16,2.78,.29,4.17,.39,.62,.05,1.26,.09,1.88,.12,.74,.06,1.5,.1,2.24,.11,1.16,.06,2.34,.09,3.51,.09,.51,.03,1.03,.03,1.55,.03h.12c1.29,0,2.58-.01,3.87-.07,.61,0,1.21-.03,1.82-.06,.51-.02,1-.04,1.51-.09,.65-.03,1.29-.07,1.94-.11,1.39-.11,2.79-.24,4.17-.4,1.01-.08,2.03-.21,3.04-.34,.4-.06,.8-.12,1.19-.18,1.56-.22,3.09-.46,4.63-.74,.38-.07,.76-.14,1.12-.22,.26-.04,.51-.08,.75-.14,1.51-.29,3.01-.63,4.49-.97,.52-.12,1.04-.25,1.55-.38h.02c.72-.19,1.46-.38,2.19-.6h.01c52.3-14.16,90.76-61.94,90.76-118.73,0-28.82-9.92-55.3-26.5-76.26Zm-65.31,191.14h-.01c-.7,.21-1.42,.39-2.12,.58h-.02c-.49,.12-.99,.25-1.5,.36-1.43,.34-2.88,.66-4.34,.94-.24,.06-.47,.1-.73,.14-.35,.07-.71,.14-1.08,.21-1.49,.27-2.97,.51-4.48,.72-.38,.06-.77,.11-1.15,.17-.98,.12-1.96,.25-2.95,.34-1.33,.15-2.68,.28-4.03,.37-.63,.05-1.24,.09-1.88,.12-.49,.04-.97,.07-1.46,.08-.59,.03-1.16,.06-1.75,.06-1.25,.05-2.5,.07-3.75,.07h-.11c-.51,0-1.01,0-1.5-.03-1.14,0-2.28-.03-3.4-.09-.72-.01-1.45-.05-2.16-.11-.61-.03-1.23-.07-1.83-.11-1.35-.1-2.69-.22-4.03-.38-.98-.1-1.95-.21-2.93-.35-.4-.04-.76-.1-1.15-.17h-.02c-1.5-.19-2.99-.45-4.46-.71-.37-.07-.73-.14-1.1-.21-.24-.05-.47-.09-.71-.15-1.45-.28-2.88-.58-4.3-.94-.5-.11-1-.23-1.49-.36-.71-.17-1.43-.37-2.15-.56h-.01c-50.53-13.77-87.7-59.96-87.7-114.86,0-2.88,.1-5.73,.31-8.54,0-.35,.04-.69,.07-1.04C20.34,63.16,71.58,14.98,134.09,14.98c37.19,0,70.36,17.04,92.2,43.73,.4,.49,.81,.99,1.2,1.5,16.04,20.28,25.63,45.91,25.63,73.79,0,54.94-37.2,101.16-87.8,114.87Z"
                 id="path12" />
              <path
                 class="cls-7"
                 d="M229.12,59.43c-.2-.28-.42-.55-.64-.83-22.13-27.67-56.19-45.4-94.39-45.4C70.47,13.2,18.34,62.4,13.64,124.82c-.03,.33-.04,.68-.06,1.02-.19,2.7-.28,5.42-.28,8.16,0,57.38,40,105.43,93.65,117.74,.87,.2,1.74,.39,2.63,.58h.01s.1,.01,.16,.03c.64,.13,1.28,.26,1.92,.36,.23,.06,.48,.1,.73,.15,.32,.06,.64,.12,.96,.16,1.55,.28,3.12,.52,4.71,.73h.01c.41,.06,.8,.12,1.22,.16h.01c1.16,.15,2.34,.28,3.51,.38,1.38,.13,2.79,.23,4.2,.3,.65,.06,1.31,.09,1.96,.1,.74,.04,1.48,.06,2.22,.07,.49,.01,.97,.03,1.47,.03,.44,.01,.87,.01,1.31,.01h.12c1.05,0,2.08-.01,3.12-.04,.09,0,.16,0,.26-.01h.01c.49,0,.99-.01,1.48-.06,.68-.01,1.35-.04,2.02-.09,1.41-.07,2.82-.17,4.21-.31,1.18-.1,2.35-.23,3.51-.38,.42-.04,.83-.09,1.23-.16h.01c1.58-.19,3.15-.44,4.71-.71,.32-.04,.64-.1,.96-.16,.23-.04,.48-.09,.73-.15,.67-.1,1.31-.23,1.96-.38h.01c.07,0,.13-.01,.19-.03h.01c.87-.19,1.76-.38,2.61-.58h.01c53.68-12.29,93.73-60.35,93.73-117.76,0-28.15-9.63-54.03-25.78-74.56Zm-78.05,187.82c-1.9,.28-3.83,.52-5.77,.7-.51,.06-1.02,.1-1.53,.15h-.01c-1.48,.13-2.98,.22-4.47,.29-1.37,.06-2.74,.1-4.12,.1-.35,.01-.71,.01-1.07,.01-.42,0-.84,0-1.25-.01-1.38,0-2.74-.04-4.11-.12-1.5-.06-2.99-.16-4.47-.29h-.01c-.51-.04-1.02-.09-1.53-.15-1.93-.17-3.85-.42-5.75-.71-55.1-8.26-97.37-55.81-97.37-113.23,0-2.15,.07-4.28,.17-6.4,.01-.33,.04-.65,.06-.99,3.81-59.78,53.5-107.1,114.26-107.1,36.89,0,69.68,17.43,90.61,44.51,.25,.3,.48,.61,.71,.91,14.55,19.19,23.16,43.12,23.16,69.06,0,57.47-42.34,105.05-97.51,113.25Z"
                 id="path13" />
            </g>
          </g>
        </g>
      </g>
    </g>
  </g>
</svg>
