<?xml version="1.0" encoding="UTF-8" standalone="no"?>
<!-- Created with Inkscape (http://www.inkscape.org/) -->

<svg
   width="100mm"
   height="100mm"
   viewBox="0 0 100 100"
   version="1.1"
   id="svg1"
   xml:space="preserve"
   xmlns="http://www.w3.org/2000/svg"
   xmlns:svg="http://www.w3.org/2000/svg"><defs
     id="defs1" /><g
     id="layer1"><path
       style="fill:#000000"
       d="m 75.30617,86.001559 c -1.147458,-0.432326 -2.148826,-1.287725 -2.722347,-2.325512 -0.48389,-0.8756 -0.572746,-1.249737 -0.568989,-2.39581 0.0056,-1.721087 0.33449,-2.354132 2.406099,-4.631823 1.966916,-2.162583 3.369178,-4.021791 4.790042,-6.35094 7.927049,-12.994405 7.549204,-29.926342 -0.949925,-42.567893 -1.267184,-1.884802 -1.955619,-2.7487 -4.61893,-5.796168 -1.827837,-2.091485 -2.209329,-3.840647 -1.275161,-5.846692 0.843521,-1.811389 2.436537,-2.811937 4.477004,-2.811937 1.731711,0 2.864599,0.625755 4.686242,2.588467 6.631313,7.144839 11.018138,16.113772 12.731664,26.03009 0.380074,2.199519 0.435852,3.205148 0.435852,7.857977 0,4.652828 -0.05578,5.658457 -0.435852,7.857976 -1.718416,9.944614 -5.865058,18.436573 -12.671316,25.949739 -1.769221,1.952975 -2.711944,2.508119 -4.407166,2.595258 -0.712329,0.03662 -1.557077,-0.03211 -1.877217,-0.152732 z M 43.486215,84.185003 c -0.426853,-0.153779 -0.816023,-0.280913 -0.864823,-0.28252 -0.0488,-0.0016 -4.414342,-4.320757 -9.701206,-9.598113 l -9.612479,-9.595193 -7.08188,-0.05751 C 9.3457286,64.595801 9.1210906,64.581938 8.3417633,64.165102 7.2827615,63.598679 6.3546656,62.650381 5.917535,61.688107 5.5875805,60.961764 5.562728,60.137821 5.558762,49.793592 5.5541557,37.779316 5.5279473,38.105833 6.6108612,36.686059 6.8826451,36.329732 7.5637737,35.784005 8.1244803,35.473332 l 1.0194667,-0.564859 7.08188,-0.05691 7.08188,-0.05691 9.507182,-9.478602 c 5.22895,-5.213231 9.805099,-9.628209 10.169221,-9.811062 0.973572,-0.488904 2.708077,-0.595192 3.775819,-0.231375 1.259685,0.429217 2.106073,1.14032 2.758247,2.317374 l 0.564859,1.019466 v 31.140871 31.14087 l -0.564859,1.019467 c -1.197838,2.161875 -3.711622,3.10928 -6.031961,2.273348 z M 61.153629,71.98051 c -2.336874,-0.868838 -3.730036,-3.325198 -3.209403,-5.658676 0.253633,-1.136785 0.495083,-1.531336 1.947777,-3.182852 4.051642,-4.606169 5.844766,-10.480757 4.960504,-16.25148 -0.639064,-4.170551 -2.101716,-7.226395 -5.126732,-10.711021 -1.515152,-1.745359 -1.845098,-2.457851 -1.845098,-3.984346 0,-1.353976 0.34149,-2.263097 1.230344,-3.275445 1.011597,-1.152146 1.980004,-1.565405 3.680594,-1.570661 1.839823,-0.0057 2.762504,0.491566 4.487781,2.418555 3.683,4.113604 6.105435,8.969955 7.18939,14.412856 0.57335,2.878986 0.609478,8.025671 0.0759,10.812529 -0.801415,4.185763 -2.67167,8.663202 -4.950037,11.850519 -1.582534,2.213883 -3.388248,4.168924 -4.395941,4.759472 -1.079593,0.632683 -2.905027,0.804415 -4.045078,0.38055 z"
       id="path1" /></g></svg>
